<?xml version="1.0" encoding="utf-8"?>
<!-- Generator: Adobe Illustrator 19.2.1, SVG Export Plug-In . SVG Version: 6.00 Build 0)  -->
<svg version="1.1" id="Livello_1" xmlns="http://www.w3.org/2000/svg" xmlns:xlink="http://www.w3.org/1999/xlink" x="0px" y="0px"
	 width="84px" height="30px" viewBox="0 0 84 30" enable-background="new 0 0 84 30" xml:space="preserve">
<g id="BACK">
</g>
<path fill="#8C7965" d="M11.536,18.968v0.5c-0.001,0-0.001,0-0.002,0c-4.127,0-7.491,3.229-7.657,7.351l-0.5-0.02
	c0.178-4.392,3.76-7.831,8.157-7.831C11.534,18.968,11.535,18.968,11.536,18.968z"/>
<path fill="#8C7965" d="M71.387,18.968c4.397,0,7.979,3.439,8.157,7.831l-0.5,0.02c-0.166-4.122-3.53-7.351-7.657-7.351
	c-0.001,0-0.001,0-0.002,0v-0.5C71.386,18.968,71.387,18.968,71.387,18.968z"/>
<rect x="30.992" y="14.854" fill="#8C7965" width="0.5" height="8.188"/>
<rect x="14.941" y="14.985" fill="#EE7402" width="0.5" height="7.926"/>
<rect x="16.394" y="15.133" fill="#8C7965" width="0.5" height="7.64"/>
<rect x="20.721" y="15.371" fill="#008B9C" width="0.5" height="7.175"/>
<rect x="66.864" y="14.854" fill="#8C7965" width="0.5" height="8.188"/>
<rect x="50.813" y="14.985" fill="#008B9C" width="0.5" height="7.926"/>
<rect x="52.266" y="15.133" fill="#8C7965" width="0.5" height="7.64"/>
<rect x="56.593" y="15.371" fill="#EE7402" width="0.5" height="7.175"/>
<path fill="#EE7402" d="M47.47,19.151c-2.604-0.133-5.778-2.216-5.912-2.305c-6.854-4.583-6.463-8.588-6.443-8.756l0.003-0.032
	c0.105-1.959,1.714-3.486,3.684-3.486c1.025,0,1.952,0.414,2.62,1.086c0.669-0.672,1.596-1.086,2.621-1.086
	c1.986,0,3.605,1.554,3.686,3.538L47.48,8.12l0.002,0.25h-0.244l-0.01-0.24c-0.069-1.715-1.469-3.058-3.186-3.058
	c-0.9,0-1.712,0.368-2.292,0.966c0.436,0.579,0.705,1.292,0.736,2.072c0,0.599-0.479,1.078-1.067,1.078
	c-0.585,0-1.062-0.479-1.064-1.068l0,0c0-0.002,0-0.003,0-0.005h0.129L40.355,8.11c0.032-0.78,0.301-1.494,0.738-2.073
	c-0.58-0.596-1.392-0.965-2.292-0.965c-1.718,0-3.118,1.343-3.187,3.058l-0.008,0.195c0.018,0.803,0.454,4.245,6.227,8.105
	c0.03,0.021,3.194,2.096,5.66,2.221L47.47,19.151z M40.857,8.124c0.004,0.312,0.256,0.564,0.564,0.564
	c0.312,0,0.567-0.255,0.567-0.568c-0.025-0.626-0.23-1.204-0.564-1.684C41.089,6.917,40.884,7.495,40.857,8.124z"/>
<path fill="#EE7402" d="M35.368,19.151l-0.025-0.5c2.466-0.125,5.629-2.2,5.661-2.221l0.276,0.416
	C41.146,16.936,37.972,19.019,35.368,19.151z"/>
<path fill="#EE7402" d="M41.282,16.847l-0.278-0.416c6.569-4.394,6.228-8.244,6.224-8.282l0.247-0.028l-0.001-0.25h0.225
	l0.026,0.221C47.744,8.259,48.134,12.264,41.282,16.847z"/>
<path fill="#008B9C" d="M23.822,19.415c0.182-0.18,0.18-0.473,0-0.655c-0.181-0.18-0.473-0.18-0.655,0
	c-0.181,0.183-0.181,0.476,0,0.655C23.348,19.598,23.641,19.598,23.822,19.415L23.822,19.415L23.822,19.415z"/>
<path fill="#EE7402" d="M19.438,18.433c-0.361-0.361-0.945-0.361-1.311,0c-0.36,0.363-0.36,0.95,0,1.31
	c0.362,0.363,0.95,0.363,1.311,0C19.803,19.38,19.8,18.796,19.438,18.433z M18.784,19.554l-0.464-0.465l0.464-0.463l0.464,0.463
	L18.784,19.554z"/>
<path fill="#EE7402" d="M28.859,18.433c-0.361-0.361-0.946-0.361-1.311,0c-0.36,0.363-0.36,0.95,0,1.31
	c0.363,0.363,0.95,0.363,1.311,0C29.224,19.38,29.221,18.796,28.859,18.433z M28.205,19.554l-0.463-0.465l0.463-0.463l0.464,0.463
	L28.205,19.554z"/>
<path fill="#008B9C" d="M54.656,18.162l-0.928,0.927l0.928,0.928l0.928-0.928L54.656,18.162z M54.2,19.089l0.463-0.463l0.464,0.463
	l-0.464,0.465L54.2,19.089z"/>
<path fill="#008B9C" d="M64.076,18.162l-0.929,0.927l0.929,0.928l0.928-0.928L64.076,18.162z M63.619,19.089l0.464-0.463
	l0.464,0.463l-0.464,0.465L63.619,19.089z"/>
<path fill="#EE7402" d="M58.44,18.856c-0.003,0.512,0.413,0.924,0.925,0.927c0.514-0.001,0.928-0.416,0.928-0.928"/>
<path fill="#8C7965" d="M15.744,23.348l-0.099-0.015c-0.002,0-0.003,0-0.005,0c-2.389,0-4.288-1.928-4.288-4.388
	c0-2.424,1.972-4.396,4.396-4.396c0.315,0,0.633,0.035,0.945,0.105c1.926,0.206,5.415,0.559,6.825,0.559
	c1.48-0.002,5.251-0.395,6.804-0.563c0.285-0.065,0.604-0.101,0.921-0.101c2.424,0,4.396,1.972,4.396,4.396
	c0,2.425-1.972,4.397-4.396,4.397c-0.315,0-0.632-0.036-0.969-0.109c-1.896-0.204-5.328-0.554-6.744-0.554c-0.004,0-0.008,0-0.011,0
	c-1.508,0-5.308,0.397-6.872,0.568c-0.254,0.055-0.542,0.087-0.833,0.092L15.744,23.348z M15.747,15.05
	c-2.148,0-3.896,1.747-3.896,3.896c0,2.182,1.682,3.891,3.83,3.891l0.068,0.008l0.045-0.004c0.263-0.004,0.523-0.032,0.774-0.085
	c1.596-0.176,5.418-0.575,6.95-0.575c0.004,0,0.008,0,0.012,0c1.44,0,4.892,0.352,6.824,0.561c0.328,0.07,0.61,0.103,0.889,0.103
	c2.148,0,3.896-1.748,3.896-3.897c0-2.148-1.748-3.896-3.896-3.896c-0.28,0-0.562,0.031-0.839,0.094
	c-1.588,0.174-5.38,0.568-6.885,0.57c-1.435,0-4.943-0.354-6.907-0.565C16.307,15.081,16.025,15.05,15.747,15.05z"/>
<path fill="#8C7965" d="M51.615,23.348l-0.099-0.015c-0.001,0-0.003,0-0.005,0c-2.389,0-4.289-1.928-4.289-4.388
	c0-2.424,1.972-4.396,4.396-4.396c0.315,0,0.634,0.035,0.945,0.105c1.927,0.206,5.416,0.559,6.826,0.559
	c1.48-0.002,5.25-0.395,6.803-0.563c0.286-0.065,0.605-0.101,0.921-0.101c2.424,0,4.396,1.972,4.396,4.396
	c0,2.425-1.972,4.397-4.396,4.397c-0.312,0-0.637-0.037-0.968-0.109c-1.521-0.164-5.273-0.554-6.745-0.554c-0.003,0-0.007,0-0.011,0
	c-1.552,0-5.653,0.436-6.873,0.568c-0.258,0.056-0.55,0.088-0.845,0.092l-0.003-0.25l0.029,0.248l-0.029-0.248l-0.021,0.254
	L51.615,23.348z M51.619,15.05c-2.148,0-3.896,1.747-3.896,3.896c0,2.182,1.683,3.891,3.83,3.891l0.068,0.008l0.045-0.004
	c0.263-0.004,0.523-0.032,0.773-0.085c1.596-0.176,5.417-0.575,6.951-0.575c1.461-0.005,4.898,0.351,6.836,0.561
	c0.327,0.07,0.609,0.103,0.888,0.103c2.148,0,3.896-1.748,3.896-3.897c0-2.148-1.748-3.896-3.896-3.896
	c-0.279,0-0.562,0.031-0.839,0.094c-1.588,0.174-5.38,0.568-6.884,0.57c-1.434,0-4.943-0.354-6.908-0.565
	C52.179,15.081,51.897,15.05,51.619,15.05z"/>
</svg>
