<?xml version="1.0" encoding="utf-8"?>
<!-- Generator: Adobe Illustrator 16.0.0, SVG Export Plug-In . SVG Version: 6.00 Build 0)  -->
<!DOCTYPE svg PUBLIC "-//W3C//DTD SVG 1.1//EN" "http://www.w3.org/Graphics/SVG/1.1/DTD/svg11.dtd">
<svg version="1.1" xmlns="http://www.w3.org/2000/svg" xmlns:xlink="http://www.w3.org/1999/xlink" x="0px" y="0px"
	 width="198.43px" height="198.431px" viewBox="0 0 198.43 198.431" enable-background="new 0 0 198.43 198.431"
	 xml:space="preserve">
<g id="Guides_For_Artboard">
</g>
<g id="Layer_1">
	<g>
		<path fill="#FFFFFF" stroke="#E75300" stroke-width="2.631" stroke-miterlimit="10" d="M-1453.23,1333.809
			c0,4.023-3.273,7.289-7.295,7.289h-48.009c-4.022,0-7.288-3.266-7.288-7.289v-61.119c0-4.029,3.266-7.291,7.288-7.291h48.009
			c4.021,0,7.295,3.262,7.295,7.291V1333.809z"/>
		<path fill="none" stroke="#8C7965" stroke-width="2.631" stroke-miterlimit="10" d="M-1546.492,1294.34v-0.047
			c0.672,16.689,14.416,30.008,31.264,30.004"/>
		<path fill="none" stroke="#8C7965" stroke-width="2.631" stroke-miterlimit="10" d="M-1453.076,1324.082
			c16.848,0.002,30.584-13.324,31.264-30.008"/>
		<polyline fill="none" stroke="#8C7965" stroke-width="2.631" stroke-miterlimit="10" points="-1465.668,1340.598 
			-1465.668,1429.283 -1470.123,1429.283 		"/>
		<polyline fill="none" stroke="#8C7965" stroke-width="2.631" stroke-miterlimit="10" points="-1502.698,1340.598 
			-1502.698,1429.283 -1507.145,1429.283 		"/>
		<rect x="-1469.699" y="1320.166" fill="#E75300" width="7.336" height="2.352"/>
		<rect x="-1506.689" y="1320.166" fill="#E75300" width="7.326" height="2.352"/>
		<path fill="#EDAA00" d="M-1480.863,1321.348c0.016,2.02-1.628,3.645-3.652,3.654c-2.029-0.002-3.666-1.639-3.666-3.662"/>
		
			<line fill="none" stroke="#E75300" stroke-width="2.631" stroke-miterlimit="10" x1="-1515.823" y1="1275.816" x2="-1453.23" y2="1275.816"/>
	</g>
</g>
<g id="Layer_2">
	<g>
		<path fill="none" stroke="#8C7965" stroke-width="2.631" stroke-miterlimit="10" d="M-2568.353,1364.619v0.047
			c-0.758-18.83-16.264-33.869-35.291-33.869"/>
		<path fill="none" stroke="#8C7965" stroke-width="2.631" stroke-miterlimit="10" d="M-2707.876,1297.385v-0.051
			c0.758,18.838,16.273,33.873,35.291,33.869"/>
		<polyline fill="none" stroke="#8C7965" stroke-width="2.631" stroke-miterlimit="10" points="-2650.202,1361.25 
			-2650.202,1449.717 -2655.231,1449.717 		"/>
		<polyline fill="none" stroke="#8C7965" stroke-width="2.631" stroke-miterlimit="10" points="-2624.779,1361.25 
			-2624.779,1449.717 -2629.8,1449.717 		"/>
		<path fill="#FFFFFF" stroke="#EDAA00" stroke-width="2.631" stroke-miterlimit="10" d="M-2602.074,1321.721
			c0-19.512-15.82-35.314-35.326-35.314c-19.506,0-35.324,15.803-35.324,35.314c0,11.719,5.727,22.068,14.512,28.496v10.738h15.715
			v-7.049c1.664,0.25,3.363,0.41,5.098,0.41c1.734,0,3.433-0.16,5.107-0.41v7.049h15.697v-10.734
			C-2607.81,1343.789-2602.074,1333.439-2602.074,1321.721z"/>
		<path fill="#E75300" d="M-2638.854,1329.324c-0.818-0.814-0.811-2.113,0-2.928c0.803-0.803,2.107-0.803,2.919,0
			c0.801,0.814,0.801,2.125,0,2.928C-2636.748,1330.135-2638.052,1330.135-2638.854,1329.324"/>
		<polygon fill="#007481" points="-2612.376,1326.529 -2615.173,1326.529 -2615.173,1323.729 -2617.851,1323.729 
			-2617.851,1326.529 -2620.656,1326.529 -2620.656,1329.189 -2617.851,1329.189 -2617.851,1332 -2615.173,1332 -2615.173,1329.189 
			-2612.376,1329.189 		"/>
		<polygon fill="#007481" points="-2654.151,1326.529 -2656.948,1326.529 -2656.948,1323.729 -2659.608,1323.729 
			-2659.608,1326.529 -2662.423,1326.529 -2662.423,1329.189 -2659.608,1329.189 -2659.608,1332 -2656.948,1332 -2656.948,1329.189 
			-2654.151,1329.189 		"/>
	</g>
</g>
<g id="Layer_3">
	<g>
		<path fill="none" stroke="#8C7965" stroke-width="2.631" stroke-miterlimit="10" d="M34.156,25.928V25.88
			c0.703,17.401,15.027,31.288,32.6,31.285"/>
		<path fill="none" stroke="#8C7965" stroke-width="2.631" stroke-miterlimit="10" d="M164.273,88.031v0.044
			c-0.701-17.394-15.027-31.285-32.604-31.285"/>
		<polyline fill="none" stroke="#8C7965" stroke-width="2.631" stroke-miterlimit="10" points="80.012,96.854 80.012,182.06 
			75.648,182.06 		"/>
		<polyline fill="none" stroke="#8C7965" stroke-width="2.631" stroke-miterlimit="10" points="99.314,96.854 99.314,182.06 
			94.674,182.06 		"/>
		<polyline fill="none" stroke="#8C7965" stroke-width="2.631" stroke-miterlimit="10" points="118.729,96.854 118.729,182.06 
			114.088,182.06 		"/>
		<path fill="#FFFFFF" stroke="#8C7965" stroke-width="2.631" stroke-miterlimit="10" d="M131.938,27.235v-3.27
			c0-4.193-3.402-7.595-7.596-7.595H74.287c-4.199,0-7.602,3.401-7.602,7.595v3.27h7.684v12.1h-7.684v38.311
			c0,4.143,3.318,7.499,7.441,7.592v11.617H86.82V85.789h6.145v11.065h12.693V85.789h6.15v11.065h12.693V85.237
			c4.121-0.093,7.436-3.449,7.436-7.592V39.335h-7.686v-12.1H131.938z"/>
		
			<line fill="none" stroke="#8C7965" stroke-width="2.631" stroke-miterlimit="10" x1="74.127" y1="85.237" x2="124.502" y2="85.237"/>
		<path fill="none" stroke="#8C7965" stroke-width="2.631" stroke-miterlimit="10" d="M105.992,32.653
			c0-3.678-2.99-6.674-6.678-6.674c-3.691,0-6.678,2.996-6.678,6.674c0,3.695,2.986,6.683,6.678,6.683
			C103.002,39.336,105.992,36.349,105.992,32.653z"/>
		<polygon fill="#EDAA00" points="114.779,54.077 118.602,57.9 122.424,54.077 118.602,50.261 		"/>
		<polygon fill="#EDAA00" points="76.201,54.077 80.027,57.9 83.85,54.077 80.027,50.261 		"/>
		<path fill="#007481" d="M97.408,54.077c-0.008-1.063,0.854-1.903,1.91-1.908c1.055,0,1.904,0.85,1.904,1.908
			s-0.859,1.908-1.904,1.908C98.258,55.985,97.4,55.136,97.408,54.077"/>
	</g>
</g>
<g id="Layer_4">
	<g>
		<path fill="none" stroke="#8C7965" stroke-width="2.631" stroke-miterlimit="10" d="M-2638.115,950.002v-0.049
			c0.697,17.193,14.85,30.912,32.209,30.91"/>
		<polyline fill="none" stroke="#8C7965" stroke-width="2.631" stroke-miterlimit="10" points="-2592.721,1008.18 
			-2592.721,1103.963 -2596.959,1103.963 		"/>
		<polyline fill="none" stroke="#8C7965" stroke-width="2.631" stroke-miterlimit="10" points="-2569.246,1008.18 
			-2569.246,1088.727 -2573.488,1088.727 		"/>
		<path fill="none" stroke="#8C7965" stroke-width="2.631" stroke-miterlimit="10" d="M-2522.637,1011.359v0.041
			c-0.691-17.184-14.85-30.908-32.205-30.908"/>
		<path fill="#FFFFFF" stroke="#007481" stroke-width="2.631" stroke-miterlimit="10" d="M-2606.033,997.502v-33.891
			c0-14.219,11.463-25.744,25.594-25.744c14.137,0,25.598,11.525,25.598,25.744v33.891"/>
		<path fill="#E75300" d="M-2579.107,978.857c0.744-0.74,0.736-1.939,0-2.684c-0.734-0.738-1.924-0.738-2.668,0
			c-0.736,0.744-0.736,1.953,0,2.684C-2581.039,979.605-2579.842,979.605-2579.107,978.857"/>
		<path fill="#8C7965" d="M-2594.939,974.832c-1.469-1.486-3.85-1.486-5.338,0c-1.471,1.488-1.471,3.891,0,5.375
			c1.479,1.486,3.869,1.486,5.338,0C-2593.453,978.715-2593.465,976.32-2594.939,974.832 M-2597.602,979.42l-1.893-1.902
			l1.893-1.896l1.885,1.896L-2597.602,979.42z"/>
		<path fill="#8C7965" d="M-2560.617,974.832c-1.463-1.486-3.85-1.486-5.338,0c-1.461,1.488-1.461,3.891,0,5.375
			c1.48,1.486,3.875,1.486,5.338,0C-2559.129,978.715-2559.145,976.32-2560.617,974.832 M-2563.281,979.42l-1.885-1.902l1.885-1.896
			l1.895,1.896L-2563.281,979.42z"/>
		
			<rect x="-2611.254" y="997.502" fill="#FFFFFF" stroke="#007481" stroke-width="2.631" stroke-miterlimit="10" width="61.9" height="10.678"/>
	</g>
</g>
</svg>
