<?xml version="1.0" encoding="utf-8"?>
<!-- Generator: Adobe Illustrator 16.0.0, SVG Export Plug-In . SVG Version: 6.00 Build 0)  -->
<!DOCTYPE svg PUBLIC "-//W3C//DTD SVG 1.1//EN" "http://www.w3.org/Graphics/SVG/1.1/DTD/svg11.dtd">
<svg version="1.1" xmlns="http://www.w3.org/2000/svg" xmlns:xlink="http://www.w3.org/1999/xlink" x="0px" y="0px"
	 width="198.43px" height="198.431px" viewBox="0 0 198.43 198.431" enable-background="new 0 0 198.43 198.431"
	 xml:space="preserve">
<g id="Guides_For_Artboard">
</g>
<g id="Layer_1">
	<g>
		<path fill="#FFFFFF" stroke="#E75300" stroke-width="2.631" stroke-miterlimit="10" d="M-1815.387,685.211
			c0,4.023-3.273,7.288-7.295,7.288h-48.01c-4.022,0-7.288-3.265-7.288-7.288v-61.12c0-4.029,3.266-7.291,7.288-7.291h48.01
			c4.021,0,7.295,3.262,7.295,7.291V685.211z"/>
		<path fill="none" stroke="#8C7965" stroke-width="2.631" stroke-miterlimit="10" d="M-1908.648,645.741v-0.046
			c0.672,16.689,14.416,30.007,31.264,30.004"/>
		<path fill="none" stroke="#8C7965" stroke-width="2.631" stroke-miterlimit="10" d="M-1815.232,675.483
			c16.848,0.003,30.584-13.323,31.264-30.008"/>
		<polyline fill="none" stroke="#8C7965" stroke-width="2.631" stroke-miterlimit="10" points="-1827.824,691.999 
			-1827.824,780.685 -1832.279,780.685 		"/>
		<polyline fill="none" stroke="#8C7965" stroke-width="2.631" stroke-miterlimit="10" points="-1864.854,691.999 
			-1864.854,780.685 -1869.302,780.685 		"/>
		<rect x="-1831.855" y="671.567" fill="#E75300" width="7.336" height="2.352"/>
		<rect x="-1868.846" y="671.567" fill="#E75300" width="7.326" height="2.352"/>
		<path fill="#EDAA00" d="M-1843.02,672.749c0.016,2.02-1.629,3.646-3.652,3.655c-2.029-0.003-3.666-1.64-3.666-3.663"/>
		
			<line fill="none" stroke="#E75300" stroke-width="2.631" stroke-miterlimit="10" x1="-1877.979" y1="627.219" x2="-1815.387" y2="627.219"/>
	</g>
</g>
<g id="Layer_2">
	<g>
		<path fill="none" stroke="#8C7965" stroke-width="2.631" stroke-miterlimit="10" d="M168.977,95.772v0.047
			c-0.758-18.83-16.264-33.869-35.291-33.869"/>
		<path fill="none" stroke="#8C7965" stroke-width="2.631" stroke-miterlimit="10" d="M29.454,28.538v-0.051
			c0.758,18.838,16.273,33.873,35.291,33.869"/>
		<polyline fill="none" stroke="#8C7965" stroke-width="2.631" stroke-miterlimit="10" points="87.127,92.403 87.127,180.87 
			82.098,180.87 		"/>
		<polyline fill="none" stroke="#8C7965" stroke-width="2.631" stroke-miterlimit="10" points="112.551,92.403 112.551,180.87 
			107.529,180.87 		"/>
		<path fill="#FFFFFF" stroke="#EDAA00" stroke-width="2.631" stroke-miterlimit="10" d="M135.256,52.874
			c0-19.512-15.82-35.314-35.326-35.314c-19.506,0-35.324,15.803-35.324,35.314c0,11.719,5.727,22.068,14.512,28.496v10.738h15.715
			V85.06c1.664,0.25,3.363,0.41,5.098,0.41c1.734,0,3.433-0.16,5.107-0.41v7.049h15.697V81.374
			C129.52,74.942,135.256,64.593,135.256,52.874z"/>
		<path fill="#E75300" d="M98.475,60.478c-0.818-0.814-0.811-2.113,0-2.928c0.803-0.803,2.107-0.803,2.919,0
			c0.801,0.814,0.801,2.125,0,2.928C100.582,61.288,99.278,61.288,98.475,60.478"/>
		<polygon fill="#007481" points="124.953,57.683 122.156,57.683 122.156,54.882 119.479,54.882 119.479,57.683 116.674,57.683 
			116.674,60.343 119.479,60.343 119.479,63.153 122.156,63.153 122.156,60.343 124.953,60.343 		"/>
		<polygon fill="#007481" points="83.178,57.683 80.381,57.683 80.381,54.882 77.721,54.882 77.721,57.683 74.907,57.683 
			74.907,60.343 77.721,60.343 77.721,63.153 80.381,63.153 80.381,60.343 83.178,60.343 		"/>
	</g>
</g>
<g id="Layer_3">
	<g>
		<path fill="none" stroke="#8C7965" stroke-width="2.631" stroke-miterlimit="10" d="M-2612.976,700.867v-0.048
			c0.703,17.401,15.027,31.288,32.6,31.285"/>
		<path fill="none" stroke="#8C7965" stroke-width="2.631" stroke-miterlimit="10" d="M-2482.859,762.971v0.044
			c-0.701-17.394-15.027-31.285-32.604-31.285"/>
		<polyline fill="none" stroke="#8C7965" stroke-width="2.631" stroke-miterlimit="10" points="-2567.121,771.794 
			-2567.121,856.999 -2571.484,856.999 		"/>
		<polyline fill="none" stroke="#8C7965" stroke-width="2.631" stroke-miterlimit="10" points="-2547.818,771.794 
			-2547.818,856.999 -2552.458,856.999 		"/>
		<polyline fill="none" stroke="#8C7965" stroke-width="2.631" stroke-miterlimit="10" points="-2528.404,771.794 
			-2528.404,856.999 -2533.044,856.999 		"/>
		<path fill="#FFFFFF" stroke="#8C7965" stroke-width="2.631" stroke-miterlimit="10" d="M-2515.195,702.175v-3.27
			c0-4.193-3.402-7.595-7.596-7.595h-50.055c-4.199,0-7.602,3.401-7.602,7.595v3.27h7.684v12.1h-7.684v38.311
			c0,4.143,3.318,7.499,7.441,7.592v11.617h12.693v-11.065h6.145v11.065h12.693v-11.065h6.15v11.065h12.693v-11.617
			c4.121-0.093,7.436-3.449,7.436-7.592v-38.311h-7.686v-12.1H-2515.195z"/>
		
			<line fill="none" stroke="#8C7965" stroke-width="2.631" stroke-miterlimit="10" x1="-2573.005" y1="760.177" x2="-2522.63" y2="760.177"/>
		<path fill="none" stroke="#8C7965" stroke-width="2.631" stroke-miterlimit="10" d="M-2541.14,707.593
			c0-3.678-2.99-6.674-6.678-6.674c-3.691,0-6.678,2.996-6.678,6.674c0,3.695,2.986,6.683,6.678,6.683
			C-2544.13,714.275-2541.14,711.288-2541.14,707.593z"/>
		<polygon fill="#EDAA00" points="-2532.353,729.017 -2528.531,732.84 -2524.708,729.017 -2528.531,725.2 		"/>
		<polygon fill="#EDAA00" points="-2570.931,729.017 -2567.105,732.84 -2563.283,729.017 -2567.105,725.2 		"/>
		<path fill="#007481" d="M-2549.724,729.017c-0.008-1.063,0.854-1.903,1.91-1.908c1.055,0,1.904,0.85,1.904,1.908
			s-0.859,1.908-1.904,1.908C-2548.875,730.925-2549.732,730.075-2549.724,729.017"/>
	</g>
</g>
<g id="Layer_4">
	<g>
		<path fill="none" stroke="#8C7965" stroke-width="2.631" stroke-miterlimit="10" d="M-2638.115,950.002v-0.049
			c0.697,17.193,14.85,30.912,32.209,30.91"/>
		<polyline fill="none" stroke="#8C7965" stroke-width="2.631" stroke-miterlimit="10" points="-2592.721,1008.18 
			-2592.721,1103.963 -2596.959,1103.963 		"/>
		<polyline fill="none" stroke="#8C7965" stroke-width="2.631" stroke-miterlimit="10" points="-2569.246,1008.18 
			-2569.246,1088.727 -2573.488,1088.727 		"/>
		<path fill="none" stroke="#8C7965" stroke-width="2.631" stroke-miterlimit="10" d="M-2522.637,1011.359v0.041
			c-0.691-17.184-14.85-30.908-32.205-30.908"/>
		<path fill="#FFFFFF" stroke="#007481" stroke-width="2.631" stroke-miterlimit="10" d="M-2606.033,997.502v-33.891
			c0-14.219,11.463-25.744,25.594-25.744c14.137,0,25.598,11.525,25.598,25.744v33.891"/>
		<path fill="#E75300" d="M-2579.107,978.857c0.744-0.74,0.736-1.939,0-2.684c-0.734-0.738-1.924-0.738-2.668,0
			c-0.736,0.744-0.736,1.953,0,2.684C-2581.039,979.605-2579.842,979.605-2579.107,978.857"/>
		<path fill="#8C7965" d="M-2594.939,974.832c-1.469-1.486-3.85-1.486-5.338,0c-1.471,1.488-1.471,3.891,0,5.375
			c1.479,1.486,3.869,1.486,5.338,0C-2593.453,978.715-2593.465,976.32-2594.939,974.832 M-2597.602,979.42l-1.893-1.902
			l1.893-1.896l1.885,1.896L-2597.602,979.42z"/>
		<path fill="#8C7965" d="M-2560.617,974.832c-1.463-1.486-3.85-1.486-5.338,0c-1.461,1.488-1.461,3.891,0,5.375
			c1.48,1.486,3.875,1.486,5.338,0C-2559.129,978.715-2559.145,976.32-2560.617,974.832 M-2563.281,979.42l-1.885-1.902l1.885-1.896
			l1.895,1.896L-2563.281,979.42z"/>
		
			<rect x="-2611.254" y="997.502" fill="#FFFFFF" stroke="#007481" stroke-width="2.631" stroke-miterlimit="10" width="61.9" height="10.678"/>
	</g>
</g>
</svg>
