<?xml version="1.0" standalone="no"?>
<!DOCTYPE svg PUBLIC "-//W3C//DTD SVG 1.1//EN" "http://www.w3.org/Graphics/SVG/1.1/DTD/svg11.dtd" >
<svg xmlns="http://www.w3.org/2000/svg" xmlns:xlink="http://www.w3.org/1999/xlink" version="1.1">
<metadata></metadata>
<defs>
<font id="typoninesans_monospacetext" horiz-adv-x="1228" >
<font-face units-per-em="2048" ascent="1597" descent="-451" />
<missing-glyph horiz-adv-x="500" />
<glyph horiz-adv-x="0" />
<glyph horiz-adv-x="682" />
<glyph unicode=" " />
<glyph unicode="!" d="M512 1331h201v-457l-21 -432h-157l-23 435v454zM481 104q0 58 35 90.5t96 32.5q60 0 98 -31.5t38 -91.5q0 -61 -36 -94t-100 -33t-97.5 32.5t-33.5 94.5z" />
<glyph unicode="&#x22;" d="M537 1331l-41 -602h-142l-43 602h226zM918 1331l-41 -602h-142l-43 602h226z" />
<glyph unicode="#" d="M649 0l56 303h-285l-55 -303h-170l55 303h-189l27 131h184l52 275h-203l24 129h201l55 297h170l-55 -297h285l55 297h170l-55 -297h196l-24 -129h-195l-51 -275h213l-27 -131h-209l-55 -303h-170zM494 709l-52 -275h285l51 275h-284z" />
<glyph unicode="$" d="M561 1384h111v-114q178 -6 315 -76l-57 -168q-49 35 -118.5 59.5t-139.5 28.5v-364q48 -21 75.5 -33.5t71.5 -35.5t70 -42.5t58 -50t49.5 -61.5t29.5 -72.5t12 -87.5q0 -132 -101.5 -218.5t-264.5 -107.5v-111h-111v105q-224 3 -373 96l64 164q65 -44 150 -75t159 -34 v420q-42 18 -64 28t-60.5 28.5t-60 33t-51.5 36t-47 43.5t-33.5 49t-24 58.5t-7.5 67.5q0 128 97 215.5t251 102.5v116zM846 350q0 67 -45.5 115.5t-128.5 89.5v-362q79 14 126.5 54.5t47.5 102.5zM406 967q0 -55 40 -94.5t115 -75.5v313q-71 -13 -113 -48.5t-42 -94.5z" />
<glyph unicode="%" d="M336 1350q147 0 221 -86.5t74 -247.5q0 -139 -77.5 -235.5t-221.5 -96.5q-146 0 -221.5 85t-75.5 247q0 147 79 240.5t222 93.5zM1030 1147l-751 -1020l-93 55l752 1028zM334 825q84 0 116.5 48.5t32.5 142.5q0 192 -149 192q-45 0 -76 -14.5t-47 -42.5t-22.5 -60 t-6.5 -75q0 -95 32.5 -143t119.5 -48zM897 645q147 0 222 -86.5t75 -247.5q0 -139 -78.5 -236.5t-222.5 -97.5q-145 0 -218 85.5t-73 248.5q0 148 76.5 241t218.5 93zM895 121q84 0 118 48.5t34 141.5q0 193 -152 193q-85 0 -118.5 -51.5t-33.5 -141.5q0 -94 32.5 -142 t119.5 -48z" />
<glyph unicode="&#x26;" d="M41 322q0 140 78 243.5t221 145.5q-41 157 -41 293q0 156 79 251t212 95q40 0 77.5 -9t75 -30t65 -53t45 -83t17.5 -114q0 -81 -27.5 -152t-75.5 -122t-105 -88t-123 -60q65 -208 159 -313q78 131 95 344h370v-156h-250q-37 -158 -129 -283q37 -37 87.5 -60.5t99.5 -23.5 q102 0 164 95l75 -142q-47 -58 -114 -89t-140 -31q-75 0 -155.5 32.5t-143.5 87.5q-62 -58 -140 -89t-157 -31q-141 0 -230 95t-89 247zM373 590q-148 -69 -148 -232q0 -101 47 -156t127 -55q88 0 164 70q-121 150 -190 373zM688 1034q0 166 -106 166q-50 0 -81.5 -39 t-31.5 -129q0 -121 35 -264q91 33 137.5 94.5t46.5 171.5z" />
<glyph unicode="'" d="M727 1331l-43 -602h-139l-43 602h225z" />
<glyph unicode="(" d="M311 532q0 289 128.5 530t359.5 413l116 -119q-90 -76 -158.5 -156.5t-125.5 -180t-87 -220.5t-30 -256q0 -141 30 -263.5t87.5 -222.5t125.5 -179.5t161 -160.5l-107 -114q-240 170 -370 409.5t-130 519.5z" />
<glyph unicode=")" d="M918 532q0 -282 -130 -520.5t-370 -408.5l-107 114q93 81 161 160.5t125.5 179.5t87.5 222.5t30 263.5q0 135 -30.5 256t-87 220.5t-125.5 180t-159 156.5l117 119q230 -172 359 -413.5t129 -529.5z" />
<glyph unicode="*" d="M702 690h-182l51 248q11 -8 37 -8q21 0 33 6zM702 1309l-61 -238q-13 8 -33 8q-12 0 -28 -4l-60 234h182zM532 995q3 -27 27 -51l-182 -186l-101 153zM276 1090l101 153l188 -176q-32 -16 -35 -55zM852 760l-201 184q28 17 31 47l270 -82zM952 1092l-268 -80 q-7 35 -31 53l199 176z" />
<glyph unicode="+" d="M530 190v328h-342v148h342v321h166v-321h344v-148h-344v-328h-166z" />
<glyph unicode="," d="M578 197h192q-4 -121 -53 -249t-123 -233l-135 41q116 208 119 441z" />
<glyph unicode="-" d="M887 432h-545v182h545v-182z" />
<glyph unicode="." d="M481 104q0 58 35 90.5t96 32.5q60 0 98 -31.5t38 -91.5q0 -61 -36 -94t-100 -33t-97.5 32.5t-33.5 94.5z" />
<glyph unicode="/" d="M852 1405h168l-639 -1491h-170z" />
<glyph unicode="0" d="M623 1350q505 0 505 -652q0 -718 -524 -718q-254 0 -379 164t-125 495q0 711 523 711zM317 682q0 -298 70 -412l348 879q-66 25 -129 25q-289 0 -289 -492zM618 156q60 0 107 19t78 55.5t52.5 82t33 107t16 122t4.5 134.5q0 269 -67 379l-346 -877q52 -22 122 -22z" />
<glyph unicode="1" d="M164 0v182h354v951l-285 -56v166l496 107v-1168h371v-182h-936z" />
<glyph unicode="2" d="M158 141q94 64 201 162.5t205 212t162.5 234.5t64.5 213q0 98 -57.5 154.5t-151.5 56.5q-72 0 -145 -39.5t-128 -102.5l-104 142q20 23 54 49t87 56.5t127 50.5t152 20q172 0 279.5 -97t107.5 -266q0 -97 -54 -212t-142 -222.5t-188 -202t-202 -168.5h645v-182h-913v141z " />
<glyph unicode="3" d="M1001 1036q0 -118 -79.5 -200t-214.5 -117q166 -31 260 -125t94 -236q0 -55 -16 -107t-53 -102t-91.5 -87t-138.5 -59.5t-187 -22.5q-131 0 -243.5 43t-163.5 88l108 170q145 -123 314 -123q105 0 179.5 53t74.5 147q0 85 -62.5 143.5t-160.5 86t-230 33.5v137 q161 11 277 79t116 169q0 80 -57.5 122.5t-146.5 42.5q-145 0 -265 -104l-92 145q6 6 18 15t51.5 33t83.5 42t112 33t139 15q164 0 269 -89.5t105 -224.5z" />
<glyph unicode="4" d="M930 309v-307h-211v307h-613v133l609 889h215v-848h192v-174h-192zM313 483h406v590z" />
<glyph unicode="5" d="M477 1149v-315q287 -3 431.5 -120t144.5 -319q0 -81 -30 -153.5t-88 -132t-155 -94.5t-221 -35q-106 0 -206 36t-175 99l101 170q64 -62 141.5 -95.5t154.5 -33.5q106 0 182.5 60t76.5 167q0 154 -134 220.5t-424 66.5v661h742v-182h-541z" />
<glyph unicode="6" d="M860 414q0 122 -58 176.5t-181 54.5q-77 0 -143 -25t-109 -59q1 -74 8 -131.5t25 -110.5t48 -87.5t78 -55t113 -20.5q58 0 101.5 21.5t68.5 58.5t37 82t12 96zM1077 440q0 -211 -118.5 -335.5t-333.5 -124.5q-129 0 -221.5 44.5t-147 130t-79.5 199t-25 262.5 q0 346 187 539t509 193q74 0 170 -13v-186q-88 16 -162 16q-96 0 -177 -24.5t-146.5 -75t-107 -135t-50.5 -197.5q146 90 299 90q181 0 292 -99.5t111 -283.5z" />
<glyph unicode="7" d="M1067 1331v-121l-557 -1208h-211l530 1147h-667v182h905z" />
<glyph unicode="8" d="M1034 1032q0 -163 -284 -319q69 -35 121 -69t104 -79.5t80 -100.5t28 -116q0 -160 -137.5 -264t-335.5 -104q-93 0 -176 22t-147.5 63.5t-102 107t-37.5 146.5q0 216 314 371q-50 30 -75 46.5t-63 44t-56.5 49.5t-39.5 53t-29 65.5t-8 75.5q0 94 60.5 169.5t159 116 t213.5 40.5q184 0 297.5 -88.5t113.5 -229.5zM866 336q0 24 -10 48.5t-21.5 43t-38.5 42t-43 36.5t-53 36t-50.5 31t-53.5 31q-49 -27 -85.5 -52.5t-73 -59t-56 -73.5t-19.5 -83q0 -95 73.5 -147t191.5 -52q107 0 173 55t66 144zM401 1036q0 -36 10 -62.5t40 -55.5t64 -53 t103 -68q102 69 150.5 121.5t48.5 107.5q0 80 -56.5 121t-144.5 41q-100 0 -157.5 -43t-57.5 -109z" />
<glyph unicode="9" d="M369 915q0 -122 58 -176.5t181 -54.5q77 0 143.5 25.5t108.5 60.5q-1 93 -13 161t-40.5 125.5t-83.5 87.5t-135 30q-58 0 -101.5 -21.5t-68.5 -59t-37 -82.5t-12 -96zM152 891q0 211 118.5 335t333.5 124q103 0 183.5 -29.5t134.5 -83.5t89 -133.5t50.5 -175t15.5 -213.5 q0 -347 -187 -540t-509 -193q-81 0 -170 12v188q88 -16 164 -16q95 0 176 24.5t146.5 74.5t107 134.5t49.5 196.5q-148 -88 -299 -88q-181 0 -292 99t-111 284z" />
<glyph unicode=":" d="M481 104q0 58 35 90.5t96 32.5q60 0 98 -31.5t38 -91.5q0 -61 -36 -94t-100 -33t-97.5 32.5t-33.5 94.5zM481 795q0 58 35 90.5t96 32.5q60 0 98 -31.5t38 -91.5q0 -61 -36 -93t-100 -32q-131 0 -131 125z" />
<glyph unicode=";" d="M522 795q0 58 35.5 90.5t97.5 32.5q60 0 96.5 -31t36.5 -92t-34.5 -93t-98.5 -32q-65 0 -99 32t-34 93zM559 197h193q-4 -120 -53 -248t-124 -234l-135 41q116 208 119 441z" />
<glyph unicode="&#x3c;" d="M893 35l-664 485v135l666 467l104 -143l-563 -389l559 -414z" />
<glyph unicode="=" d="M1051 717h-875v151h875v-151zM1051 328h-875v151h875v-151z" />
<glyph unicode="&#x3e;" d="M999 520l-663 -485l-103 141l558 414l-562 389l103 143l667 -467v-135z" />
<glyph unicode="?" d="M1012 1059q0 -76 -41 -138.5t-99 -105t-116 -81t-99 -85t-41 -98.5q0 -51 43 -111l-210 -53q-37 84 -37 166q0 46 20.5 88.5t53 76t72 66t79 63t72 61t53 66.5t20.5 73q0 65 -55.5 100t-142.5 35q-164 0 -275 -111l-90 143q162 136 395 136q112 0 201 -33t142.5 -100 t54.5 -158zM442 104q0 58 35.5 90.5t97.5 32.5q60 0 97 -31t37 -92t-35.5 -94t-98.5 -33q-64 0 -98.5 32.5t-34.5 94.5z" />
<glyph unicode="@" d="M649 1085q-244 0 -376 -171t-132 -504q0 -307 131 -472t367 -165q222 0 432 143l49 -90q-219 -158 -499 -158q-129 0 -235.5 45t-187 134.5t-125 234.5t-44.5 334q0 366 165.5 571t458.5 205q120 0 215 -35t156.5 -95t102.5 -144.5t58 -177.5t17 -201q0 -77 -7 -146.5 t-25 -138.5t-45.5 -119t-73 -81t-103.5 -31q-71 0 -119 33.5t-67 95.5q-95 -132 -238 -132q-104 0 -167.5 65t-63.5 177q0 74 31.5 126.5t86.5 79t114 37.5t130 11q37 0 95 -4l2 88q0 85 -34.5 119.5t-101.5 34.5q-49 0 -90 -22t-41 -73q0 -13 7 -34l-140 -23q-12 38 -12 70 q0 98 85 161.5t208 63.5q59 0 107 -14.5t87 -46t60.5 -88t21.5 -134.5l-4 -403q0 -42 21.5 -64t48.5 -22q66 0 89 101.5t23 299.5q0 99 -14 181t-46.5 153t-82.5 120t-124.5 77t-170.5 28zM750 264v133q-43 9 -101 9q-192 0 -192 -130q0 -56 32 -84t84 -28q98 0 177 100z " />
<glyph unicode="A" d="M264 0h-221l451 1331h237l455 -1331h-232l-104 328h-485zM797 502l-193 612l-186 -612h379z" />
<glyph unicode="B" d="M1126 383q0 -184 -115 -283.5t-335 -99.5h-518v1331h458q412 0 412 -323q0 -95 -48 -173t-159 -118v-4q86 -13 148 -45.5t95 -79.5t47.5 -97t14.5 -108zM614 606h-239v-420h266q137 0 197.5 48.5t60.5 158.5t-71.5 161.5t-213.5 51.5zM803 975q0 174 -221 174h-207v-373 h194q110 0 172 51.5t62 147.5z" />
<glyph unicode="C" d="M1069 250l51 -176q-181 -94 -403 -94q-289 0 -447.5 170t-158.5 512q0 327 171 507.5t463 180.5q101 0 197.5 -23.5t163.5 -64.5l-72 -193q-123 98 -297 98q-197 0 -297 -127t-100 -374q0 -504 397 -504q96 0 184.5 24.5t147.5 63.5z" />
<glyph unicode="D" d="M115 0v1331h442q140 0 247.5 -33t177.5 -90.5t114.5 -141.5t63 -179t18.5 -211q0 -112 -15 -204t-56.5 -182.5t-110 -152t-182.5 -99.5t-265 -38h-434zM553 1149h-221v-963h235q71 0 127.5 13t95.5 35t68 57t45.5 73t26.5 90t13 100.5t3 111.5q0 87 -9 153.5t-34 131 t-68 106t-114 67t-168 25.5z" />
<glyph unicode="E" d="M162 1331h923v-182h-706v-377h641v-180h-641v-406h704v-186h-921v1331z" />
<glyph unicode="F" d="M168 1331h922v-182h-705v-436h643v-181h-643v-532h-217v1331z" />
<glyph unicode="G" d="M901 659h215v-550q-208 -129 -422 -129q-285 0 -441.5 166t-156.5 516q0 173 47 306t132.5 216t201 124.5t256.5 41.5q199 0 367 -84l-76 -203q-130 104 -297 104q-203 0 -302 -120t-99 -381q0 -270 102 -387t301 -117q84 0 172 31v466z" />
<glyph unicode="H" d="M897 1331h217v-1331h-217v584h-563v-584h-217v1331h217v-555h563v555z" />
<glyph unicode="I" d="M143 0v186h363v961h-363v184h951v-184h-371v-961h371v-186h-951z" />
<glyph unicode="J" d="M203 1147v184h796v-794q0 -104 -27 -191t-71 -148.5t-107 -110t-128 -78.5t-142 -51.5t-140.5 -31t-131.5 -14.5l-35 190q61 7 101 13t105.5 21.5t109 35t95 54.5t82 79t51.5 110t21 146v586h-579z" />
<glyph unicode="K" d="M145 1331h217v-588l121 31l371 557h248l-447 -641l496 -690h-268l-416 586l-105 -23v-563h-217v1331z" />
<glyph unicode="L" d="M197 1331h217v-1145h684v-186h-901v1331z" />
<glyph unicode="M" d="M973 0v1001l-271 -534h-163l-289 539v-1006h-178v1331h196l355 -653l338 653h196v-1331h-184z" />
<glyph unicode="N" d="M309 1014v-1014h-205v1331h238l580 -983v983h204v-1331h-223z" />
<glyph unicode="O" d="M614 1350q289 0 424.5 -167t135.5 -517q0 -119 -21 -222t-66 -189t-111 -147t-159.5 -94.5t-208.5 -33.5q-553 0 -553 679q0 156 33 280.5t100 217.5t175 143t251 50zM608 162q186 0 261 125t75 379q0 134 -14.5 223t-51.5 154t-101.5 94.5t-162.5 29.5q-96 0 -159 -29.5 t-100.5 -95t-52.5 -156.5t-15 -227q0 -127 13.5 -213t48 -153t98.5 -99t161 -32z" />
<glyph unicode="P" d="M164 0v1331h479q479 0 479 -440q0 -206 -127 -324t-350 -118h-264v-449h-217zM637 629q123 0 188.5 59t65.5 195q0 131 -60 198.5t-202 67.5h-248v-520h256z" />
<glyph unicode="Q" d="M614 1350q289 0 424.5 -167t135.5 -517q0 -215 -69.5 -375.5t-207.5 -241.5l340 -354l-180 -121l-328 416q-62 -10 -121 -10q-553 0 -553 679q0 156 33 280.5t100 217.5t175 143t251 50zM608 162q186 0 261 125t75 379q0 134 -14.5 223t-51.5 154t-101.5 94.5 t-162.5 29.5q-96 0 -159 -29.5t-100.5 -95t-52.5 -156.5t-15 -227q0 -127 13.5 -213t48 -153t98.5 -99t161 -32z" />
<glyph unicode="R" d="M145 0v1331h463q252 0 365.5 -106.5t113.5 -311.5q0 -137 -62 -235t-175 -146l297 -532h-256l-258 487h-271v-487h-217zM602 668q256 0 256 239q0 129 -61 185.5t-203 56.5h-232v-481h240z" />
<glyph unicode="S" d="M860 338q0 52 -23.5 93t-63.5 69t-92 51.5t-109 44.5t-114 43.5t-109 53.5t-92 70t-63.5 96.5t-23.5 129.5q0 158 137 259.5t340 101.5q224 0 395 -95l-63 -206q-138 118 -328 118q-118 0 -185 -39.5t-67 -121.5q0 -44 23.5 -78.5t63.5 -59t92 -46t109.5 -43t114.5 -45 t109 -57t92 -75.5t63.5 -103.5t23.5 -136.5q0 -97 -41.5 -171.5t-113 -119.5t-162 -68t-195.5 -23q-252 0 -437 118l74 205q162 -143 385 -143q116 0 188 44.5t72 133.5z" />
<glyph unicode="T" d="M1161 1331v-182h-438v-1149h-217v1149h-438v182h1093z" />
<glyph unicode="U" d="M903 516v815h211v-846q0 -250 -129 -377.5t-377 -127.5q-246 0 -369.5 119.5t-123.5 375.5v856h217v-825q0 -195 65.5 -270.5t218.5 -75.5q160 0 223.5 81t63.5 275z" />
<glyph unicode="V" d="M274 1331l359 -1112l328 1112h221l-430 -1331h-250l-453 1331h225z" />
<glyph unicode="W" d="M713 997l207 -753l77 1087h209l-164 -1331h-217l-202 723l-179 -723h-221l-198 1331h223l104 -1085l185 751h176z" />
<glyph unicode="X" d="M100 1331h248l273 -473l276 473h217l-385 -629l436 -702h-247l-314 532l-315 -532h-223l428 692z" />
<glyph unicode="Y" d="M307 1331l330 -633l303 633h215l-420 -811v-520h-217v518l-444 813h233z" />
<glyph unicode="Z" d="M166 1149v182h930v-160l-711 -987h727v-184h-987v147l719 1002h-678z" />
<glyph unicode="[" d="M395 -365v1860h441v-145h-254v-1575h254v-140h-441z" />
<glyph unicode="\" d="M211 1405h166l643 -1491h-172z" />
<glyph unicode="]" d="M836 1495v-1860h-441v140h254v1575h-254v145h441z" />
<glyph unicode="^" d="M608 1171l-289 -456h-176l402 618h137l403 -618h-176z" />
<glyph unicode="_" d="M94 -227v135h1041v-135h-1041z" />
<glyph unicode="`" d="M729 1118l-309 230l117 137l272 -281z" />
<glyph unicode="a" d="M776 262v160q-74 8 -129 8q-264 0 -264 -149q0 -67 43.5 -102.5t116.5 -35.5q72 0 133 35t100 84zM776 559l2 100q1 101 -43.5 142t-140.5 41q-75 0 -128.5 -27t-53.5 -88q0 -18 6 -39l-187 -26q-14 38 -14 77q0 118 112 192.5t283 74.5q85 0 150.5 -16.5t118.5 -53 t81 -102.5t27 -158l-2 -428q0 -54 20.5 -78.5t51.5 -24.5q16 0 37 7l14 -154q-60 -18 -123 -18q-83 0 -133 40t-66 109q-123 -149 -313 -149q-138 0 -224.5 74.5t-86.5 207.5q0 72 30 126.5t77 87.5t114.5 53.5t133 28t140.5 7.5q12 0 117 -6z" />
<glyph unicode="b" d="M377 1403v-522q67 58 150.5 91.5t164.5 33.5q194 0 304 -133.5t110 -360.5q0 -244 -148 -388t-385 -144q-105 0 -213.5 24t-195.5 66v1333h213zM377 709v-514q75 -41 188 -41q145 0 230.5 89t85.5 249q0 162 -69 244.5t-183 82.5q-60 0 -127.5 -29.5t-124.5 -80.5z" />
<glyph unicode="c" d="M428 485q0 -169 84.5 -249t226.5 -80q76 0 153 28.5t124 69.5l57 -172q-72 -47 -176 -74.5t-199 -27.5q-102 0 -188 28t-156 86t-109.5 157.5t-39.5 231.5q0 130 40 231.5t111 164.5t164.5 95t204.5 32q100 0 193.5 -24.5t158.5 -63.5l-67 -189q-57 45 -131.5 73.5 t-147.5 28.5q-139 0 -221 -84.5t-82 -261.5z" />
<glyph unicode="d" d="M1075 1403v-1403h-196l-5 129q-65 -65 -157 -107t-180 -42q-192 0 -298 132.5t-106 360.5q0 245 141.5 389t372.5 144q90 0 215 -25v422h213zM862 287v495q-82 52 -205 52q-140 0 -219.5 -89t-79.5 -251q0 -163 64.5 -244.5t177.5 -81.5q62 0 134.5 32.5t127.5 86.5z" />
<glyph unicode="e" d="M717 150q74 0 158 31.5t135 72.5l55 -170q-179 -104 -397 -104q-104 0 -192 30.5t-157.5 91t-109 161.5t-39.5 233q0 121 38 219t103.5 161t149.5 96.5t178 33.5q97 0 175 -28t138 -85.5t92.5 -153.5t32.5 -225q0 -51 -2 -63h-686q13 -154 101 -227.5t227 -73.5zM391 590 h471q3 121 -58 190.5t-161 69.5q-113 0 -176 -62.5t-76 -197.5z" />
<glyph unicode="f" d="M154 0v172h268v635h-207v149l207 13v65q0 191 107 290t302 99q70 0 144.5 -15t116.5 -38l-37 -180q-38 28 -99.5 45.5t-117.5 17.5q-96 0 -149.5 -54.5t-53.5 -162.5v-67h354v-162h-354v-635h387v-172h-868z" />
<glyph unicode="g" d="M1069 924v-883q0 -504 -512 -504q-204 0 -379 96l74 195q70 -53 153 -85t162 -32q67 0 116 14t90 49t62 103t21 168v105q-65 -61 -153.5 -99.5t-172.5 -38.5q-190 0 -296.5 122.5t-106.5 340.5q0 246 147 388.5t383 142.5q220 0 412 -82zM856 319v474q-81 41 -205 41 q-141 0 -220 -88t-79 -250q0 -153 65 -224t177 -71q62 0 134.5 32.5t127.5 85.5z" />
<glyph unicode="h" d="M389 700v-700h-213v1403h213v-535q149 138 338 138q52 0 99 -9.5t93 -34t79.5 -62t54 -98t20.5 -138.5v-664h-213v590q0 124 -50.5 173.5t-147.5 49.5q-66 0 -140.5 -31.5t-132.5 -81.5z" />
<glyph unicode="i" d="M160 0v172h344v637h-344v172h557v-809h352v-172h-909zM487 1309q0 54 36.5 91.5t88.5 37.5q54 0 91.5 -37.5t37.5 -91.5q0 -52 -37.5 -88.5t-91.5 -36.5q-52 0 -88.5 36t-36.5 89z" />
<glyph unicode="j" d="M184 809v172h727v-903q0 -100 -27 -181.5t-70 -136.5t-106 -96t-125.5 -64t-139 -37t-136.5 -18t-127 -4l-8 185q48 0 83 1.5t86 6.5t89 16t82 29t75 46.5t57.5 67t40 93t13.5 120.5v703h-514zM682 1309q0 54 36.5 91.5t90.5 37.5q53 0 90 -37.5t37 -91.5 q0 -52 -37 -88.5t-90 -36.5q-54 0 -90.5 36t-36.5 89z" />
<glyph unicode="k" d="M680 520l414 -520h-265l-317 418l-123 -23v-395h-213v1403h213v-840l119 27l289 391h233z" />
<glyph unicode="l" d="M154 0v172h354v1061h-338v170h551v-1231h342v-172h-909z" />
<glyph unicode="m" d="M274 711v-711h-184v981h170l2 -147q56 85 113.5 128.5t128.5 43.5q82 0 127 -42t65 -124q105 166 242 166q117 0 163 -80t46 -250v-676h-186v645q0 117 -18.5 154t-68.5 37q-84 0 -163 -123v-713h-185v645q0 109 -19 150t-65 41q-41 0 -87 -34t-81 -91z" />
<glyph unicode="n" d="M389 700v-700h-213v981h197l4 -125q75 75 168.5 112.5t181.5 37.5q52 0 99 -9.5t93 -34t79.5 -62t54 -98t20.5 -138.5v-664h-213v590q0 125 -50.5 175t-147.5 50q-66 0 -140 -32t-133 -83z" />
<glyph unicode="o" d="M113 496q0 227 138.5 368.5t362.5 141.5q236 0 370 -134t134 -376q0 -145 -59 -261t-174.5 -185.5t-268.5 -69.5q-233 0 -368 134.5t-135 381.5zM338 496q0 -346 272 -346q150 0 216.5 87.5t66.5 258.5q0 159 -67.5 249.5t-215.5 90.5q-139 0 -205.5 -90t-66.5 -250z" />
<glyph unicode="p" d="M584 -20q-80 0 -207 24v-455h-213v1432h196l5 -123q66 65 155 106.5t176 41.5q193 0 301.5 -133t108.5 -361q0 -244 -145 -388t-377 -144zM377 698v-497q74 -47 196 -47q142 0 225 89t83 249q0 163 -67 245t-181 82q-61 0 -130.5 -33t-125.5 -88z" />
<glyph unicode="q" d="M862 -451v568q-66 -61 -150.5 -99t-166.5 -38q-194 0 -303 133t-109 360q0 163 70 285t191 185t276 63q214 0 405 -88v-1369h-213zM862 287v501q-85 46 -198 46q-141 0 -223.5 -89.5t-82.5 -250.5q0 -162 67.5 -244t180.5 -82q62 0 131 32t125 87z" />
<glyph unicode="r" d="M96 0v172h326v637h-309v172h501l9 -193q62 98 160.5 152.5t193.5 54.5q31 0 65 -6l-16 -217q-41 14 -96 14q-72 0 -160.5 -46t-134.5 -111v-457h422v-172h-961z" />
<glyph unicode="s" d="M813 270q0 44 -32.5 75t-84.5 50t-115 35.5t-126 38.5t-115 51.5t-84.5 81t-32.5 121.5q0 91 58.5 156.5t150.5 96t205 30.5q108 0 210.5 -20.5t166.5 -57.5l-62 -185q-42 39 -127.5 69t-171.5 30q-39 0 -73.5 -5t-67.5 -16.5t-52.5 -34t-19.5 -53.5t25.5 -54.5t67.5 -38 t95 -31t109 -31.5t109 -40.5t95 -57t67.5 -83t25.5 -116.5q0 -68 -28 -121.5t-73 -86.5t-106.5 -54.5t-123 -30t-128.5 -8.5q-113 0 -211 21.5t-159 59.5l55 187q57 -45 142.5 -74t175.5 -29q45 0 85 6.5t74.5 20.5t55 39t20.5 59z" />
<glyph unicode="t" d="M571 807v-457q0 -110 49 -153t142 -43q57 0 120.5 22t114.5 55l39 -174q-142 -77 -323 -77q-75 0 -135.5 16.5t-111.5 53.5t-79.5 104.5t-28.5 160.5v492h-229v149l233 15l27 260h182v-262h416v-162h-416z" />
<glyph unicode="u" d="M838 285v696h213v-981h-193l-8 129q-76 -76 -166.5 -114t-177.5 -38q-53 0 -99.5 8.5t-93.5 32t-80 61t-54 100t-21 143.5v659h213v-596q0 -126 49 -176.5t141 -50.5q66 0 139.5 35.5t137.5 91.5z" />
<glyph unicode="v" d="M743 0h-266l-350 981h225l266 -813l265 813h221z" />
<glyph unicode="w" d="M446 0h-217l-196 981h205l112 -801l187 656h168l186 -656l108 801h201l-205 -981h-217l-166 606z" />
<glyph unicode="x" d="M623 666l198 315h217l-303 -455l340 -526h-229l-236 377l-245 -377h-211l344 514l-303 467h229z" />
<glyph unicode="y" d="M1102 981l-535 -1432h-209l150 406l-381 1026h227l273 -768l262 768h213z" />
<glyph unicode="z" d="M434 172h627v-172h-901v131l571 678h-538v172h829v-131z" />
<glyph unicode="{" d="M821 -371q-103 0 -169.5 22t-99.5 68.5t-44.5 100.5t-11.5 137v432q0 52 -30.5 76t-96.5 27q-6 2 -52 2v137q44 0 50 2q129 6 129 102v432q0 57 7 101.5t28 88.5t57 73t96.5 47t142.5 18h86v-131h-75q-56 0 -91 -11t-53 -37.5t-24 -59.5t-6 -87v-321q0 -60 -6.5 -102.5 t-23 -81t-49.5 -63.5t-83 -38q90 -18 126 -89.5t36 -190.5v-330q0 -56 4.5 -86.5t21 -57t50 -37t89.5 -10.5h84v-133h-92z" />
<glyph unicode="|" d="M530 1405h168v-1425h-168v1425z" />
<glyph unicode="}" d="M408 -371h-91v133h82q57 0 91 10.5t51 37t21.5 57.5t4.5 86v330q0 78 12.5 132t49.5 95t100 53q-50 13 -83 38t-49.5 63.5t-23 81t-6.5 102.5v321q0 55 -6 87.5t-24 59t-53.5 37.5t-92.5 11h-74v131h84q82 0 143 -18t97 -47t57.5 -73t29 -88.5t7.5 -101.5v-432 q0 -53 34 -77t103 -27h41v-137h-43q-70 -3 -102.5 -27t-32.5 -78v-432q0 -65 -6.5 -111t-27 -89.5t-56 -70t-95 -42t-142.5 -15.5z" />
<glyph unicode="~" d="M831 440q-60 0 -124 27t-109.5 59t-105.5 59t-113 27q-54 0 -103.5 -37.5t-105.5 -115.5l-104 78q79 127 157 174t168 47q65 0 137 -26.5t123 -58.5t107 -58.5t94 -26.5q57 0 100 41t103 139l108 -78q-82 -141 -162.5 -195.5t-169.5 -54.5z" />
<glyph unicode="&#xa0;" />
<glyph unicode="&#xa1;" d="M715 -387h-201v457l21 432h157l23 -434v-455zM745 840q0 -58 -35 -90.5t-96 -32.5q-60 0 -97.5 31.5t-37.5 91.5q0 61 35.5 94t99.5 33t97.5 -32.5t33.5 -94.5z" />
<glyph unicode="&#xa2;" d="M629 1163h127v-159q137 -8 258 -72l-68 -193q-89 74 -190 86v-667q111 12 198 86l58 -172q-110 -71 -256 -88v-136h-127v134q-190 15 -302 144.5t-112 356.5q0 218 112.5 355t301.5 161v164zM438 485q0 -262 191 -317v649q-93 -25 -142 -109t-49 -223z" />
<glyph unicode="&#xa3;" d="M272 590h-174v149h174v144q0 114 36.5 204.5t99.5 147t143 86t172 29.5q198 0 334 -115l-96 -156q-59 56 -111 78.5t-117 22.5q-250 0 -250 -295v-146h455v-149h-455v-121q0 -101 -29 -171.5t-106 -125.5h420q113 0 175.5 36t105.5 101l104 -135q-16 -30 -41 -57.5 t-65 -55t-99 -44.5t-129 -17h-743v131q88 10 142 88.5t54 167.5v203z" />
<glyph unicode="&#xa4;" d="M242 96l-84 76l200 199q-53 83 -53 170q0 88 53 161q-188 188 -200 199l82 86l204 -201q79 48 166 48q88 0 170 -50l207 201l84 -82l-205 -201q54 -68 54 -161q0 -91 -54 -168l205 -201l-86 -74l-203 195q-71 -49 -168 -49q-86 0 -170 49zM614 381q66 0 107 45.5 t41 112.5q0 68 -40 110.5t-108 42.5q-69 0 -109 -42t-40 -111q0 -70 41 -114t108 -44z" />
<glyph unicode="&#xa5;" d="M307 1331l330 -633l303 633h215l-371 -715h263v-149h-312v-148h312v-149h-312v-170h-217v170h-313v149h313v148h-313v149h260l-391 715h233z" />
<glyph unicode="&#xa6;" d="M530 1405h170v-590h-170v590zM530 592h170v-612h-170v612z" />
<glyph unicode="&#xa7;" d="M588 -139q0 74 -56.5 222t-124 289t-124 289t-56.5 222q1 109 62.5 200.5t157 148t204.5 87.5t213 31q122 0 238 -27l-4 -180q-60 37 -138.5 60.5t-138.5 23.5q-71 0 -108 -43.5t-37 -118.5q0 -68 55.5 -216t121.5 -291t121.5 -291t55.5 -216q0 -95 -49 -177 t-124.5 -136.5t-169 -93.5t-181.5 -56.5t-162 -17.5q-119 0 -217 27l4 182q57 -37 119.5 -56.5t109.5 -19.5q45 0 83.5 8t71.5 26t52.5 49.5t20.5 74.5zM887 35q-1 66 -37 171.5t-87.5 218.5t-102.5 227t-87 224t-36 183q0 66 36 115q-93 -45 -145.5 -120.5t-52.5 -142.5 q0 -63 36.5 -165.5t88 -213.5t103 -224t88 -224t36.5 -186q0 -62 -25 -101q94 45 139 101.5t46 136.5z" />
<glyph unicode="&#xa8;" d="M315 1278q0 47 34 81t81 34t81 -34t34 -81t-34 -80t-81 -33t-81 33t-34 80zM684 1278q0 47 34 81t81 34t80.5 -34t33.5 -81t-33.5 -80t-80.5 -33t-81 33t-34 80z" />
<glyph unicode="&#xa9;" d="M610 -14q-171 0 -309 88.5t-213.5 238t-75.5 328.5q0 181 75.5 331t213.5 238t309 88q176 0 316 -88t216.5 -237.5t76.5 -331.5q0 -180 -74 -328.5t-214.5 -237.5t-320.5 -89zM610 66q155 0 273 74t180.5 204.5t62.5 296.5q0 158 -62.5 288.5t-181.5 209t-272 78.5 q-150 0 -265.5 -74t-178 -205t-62.5 -297q0 -253 143 -414t363 -161zM637 225q-200 0 -310 102.5t-110 309.5q0 201 119.5 311.5t316.5 110.5q146 0 250 -58l-51 -133q-92 70 -203 70q-129 0 -198.5 -76t-69.5 -221q0 -148 69 -221.5t199 -73.5q122 0 225 64l37 -127 q-122 -58 -274 -58z" />
<glyph unicode="&#xaa;" d="M489 563q-112 0 -180.5 57.5t-68.5 157.5q0 53 23 93.5t60 65.5t88.5 41t103.5 22t110 6q41 0 61 -2h37v81q0 132 -135 132q-48 0 -90 -19.5t-43 -60.5q0 -14 6 -35l-158 -21q-14 35 -14 66q0 89 90.5 146t224.5 57q63 0 115 -13t94.5 -41.5t66.5 -78.5t25 -119l-2 -332 q0 -71 43 -74q9 0 33 8l10 -122q-59 -15 -102 -15q-62 0 -101 27.5t-51 75.5q-100 -103 -246 -103zM543 696q52 0 99.5 24t80.5 58v133q-40 7 -105 7q-83 0 -137.5 -29t-54.5 -88q0 -105 117 -105z" />
<glyph unicode="&#xab;" d="M184 479l267 473h176l-219 -465l219 -481h-176zM602 479l264 473h176l-219 -465l219 -481h-176z" />
<glyph unicode="&#xac;" d="M995 119v420h-929v133h1087v-553h-158z" />
<glyph unicode="&#xad;" d="M887 432h-545v182h545v-182z" />
<glyph unicode="&#xae;" d="M610 344q-132 0 -244.5 67.5t-178.5 183t-66 251.5q0 137 66 253t178.5 183.5t244.5 67.5q135 0 249 -67.5t180.5 -183.5t66.5 -253q0 -212 -144.5 -357t-351.5 -145zM610 416q181 0 297.5 119.5t116.5 310.5q0 176 -118.5 303t-295.5 127q-176 0 -291.5 -120.5 t-115.5 -309.5q0 -190 119 -310t288 -120zM393 528v648h225q133 0 192.5 -54t59.5 -155q0 -70 -34 -119.5t-95 -73.5l127 -246h-141l-104 226h-101v-226h-129zM522 846h90q60 0 91.5 27t31.5 92q0 63 -27.5 88.5t-99.5 25.5h-86v-233z" />
<glyph unicode="&#xaf;" d="M352 1214v142h525v-142h-525z" />
<glyph unicode="&#xb0;" d="M616 805q-132 0 -211 74.5t-79 199.5q0 120 80.5 195.5t209.5 75.5q132 0 209.5 -72.5t77.5 -198.5q0 -125 -78.5 -199.5t-208.5 -74.5zM616 907q76 0 117 48t41 124t-41.5 121t-116.5 45q-77 0 -120 -44.5t-43 -121.5q0 -76 44 -124t119 -48z" />
<glyph unicode="&#xb1;" d="M530 258v289h-342v145h342v295h166v-295h344v-145h-344v-289h-166zM188 -4v145h852v-145h-852z" />
<glyph unicode="&#xb4;" d="M809 1348l-309 -230l-80 86l272 281z" />
<glyph unicode="&#xb5;" d="M838 285v696h213v-981h-193l-8 129q-152 -152 -334 -152q-49 0 -97.5 11.5t-72.5 36.5q45 -99 45 -218v-258h-213v1432h213v-596q0 -127 44.5 -176t135.5 -49q124 0 267 125z" />
<glyph unicode="&#xb6;" d="M754 1331v-1782h-174v740q-212 59 -328.5 195.5t-116.5 316.5q0 103 39 196.5t113.5 168.5t195 120t271.5 45zM920 -451v1782h174v-1782h-174z" />
<glyph unicode="&#xb7;" d="M485 604q0 54 36.5 89.5t90.5 35.5q55 0 93 -35t38 -90q0 -57 -37.5 -92t-93.5 -35q-55 0 -91 35t-36 92z" />
<glyph unicode="&#xb8;" d="M403 -424l46 119q51 -51 126 -51q45 0 70 18.5t25 50.5q0 41 -41 66t-123 28l57 216h111l-35 -138q91 -14 138.5 -63.5t47.5 -116.5q0 -81 -68.5 -128.5t-168.5 -47.5q-108 0 -185 47z" />
<glyph unicode="&#xba;" d="M614 563q-187 0 -293 103.5t-106 291.5q0 172 108.5 282t290.5 110q192 0 296 -104t104 -288q0 -168 -106.5 -281.5t-293.5 -113.5zM612 702q118 0 163.5 64t45.5 192q0 118 -46.5 186t-162.5 68q-111 0 -157.5 -67t-46.5 -187q0 -128 46.5 -192t157.5 -64z" />
<glyph unicode="&#xbb;" d="M360 952l267 -473l-267 -473h-176l222 481l-222 465h176zM778 952l264 -473l-264 -473h-176l219 481l-219 465h176z" />
<glyph unicode="&#xbf;" d="M217 -113q0 64 29.5 119.5t73 92t95 74t95 67.5t73 70.5t29.5 84.5q0 51 -43 111l211 53q37 -84 37 -166q0 -53 -27.5 -102t-68.5 -85t-89.5 -75t-89.5 -71.5t-68.5 -74.5t-27.5 -85q0 -65 56 -100.5t143 -35.5q164 0 275 111l90 -143q-161 -135 -396 -135 q-112 0 -200.5 32.5t-142 99.5t-54.5 158zM786 842q0 -58 -35.5 -90.5t-97.5 -32.5q-60 0 -96.5 31t-36.5 92t35 94t98 33q64 0 98.5 -32.5t34.5 -94.5z" />
<glyph unicode="&#xc0;" d="M264 0h-221l451 1331h237l455 -1331h-232l-104 328h-485zM797 502l-193 612l-186 -612h379zM696 1411l-383 156l78 168l357 -219z" />
<glyph unicode="&#xc1;" d="M264 0h-221l451 1331h237l455 -1331h-232l-104 328h-485zM797 502l-193 612l-186 -612h379zM893 1567l-381 -156l-53 105l358 219z" />
<glyph unicode="&#xc2;" d="M264 0h-221l451 1331h237l455 -1331h-232l-104 328h-485zM797 502l-193 612l-186 -612h379zM668 1741l250 -201l-82 -108l-226 159l-221 -159l-78 104l252 205h105z" />
<glyph unicode="&#xc3;" d="M264 0h-221l451 1331h237l455 -1331h-232l-104 328h-485zM797 502l-193 612l-186 -612h379zM338 1473l-70 71q97 142 211 142q52 0 137 -30t125 -30q77 0 131 64l68 -76q-40 -64 -96 -101.5t-115 -37.5q-42 0 -127.5 30.5t-128.5 30.5q-79 0 -135 -63z" />
<glyph unicode="&#xc4;" d="M264 0h-221l451 1331h237l455 -1331h-232l-104 328h-485zM797 502l-193 612l-186 -612h379zM295 1589q0 47 34 81t81 34t80.5 -34t33.5 -81t-33.5 -80.5t-80.5 -33.5t-81 33.5t-34 80.5zM684 1589q0 47 34 81t81 34t80.5 -34t33.5 -81t-33.5 -80.5t-80.5 -33.5t-81 33.5 t-34 80.5z" />
<glyph unicode="&#xc5;" d="M264 0h-221l451 1331h237l455 -1331h-232l-104 328h-485zM614 1405q-99 0 -158 56.5t-59 148.5q0 94 64 148t157 54q94 0 153.5 -52.5t59.5 -149.5q0 -86 -59.5 -145.5t-157.5 -59.5zM797 502l-193 612l-186 -612h379zM614 1507q97 0 97 103q0 102 -97 102q-52 0 -75 -25 t-23 -77q0 -103 98 -103z" />
<glyph unicode="&#xc6;" d="M510 1331h700v-182h-403v-377h338v-180h-338v-406h401v-186h-598v297h-278l-101 -297h-221zM389 465h221v649z" />
<glyph unicode="&#xc7;" d="M502 -424l45 119q51 -51 127 -51q45 0 69.5 18t24.5 51q0 41 -41 66t-123 28l47 177q-259 18 -399.5 186.5t-140.5 491.5q0 327 171 507.5t463 180.5q101 0 197.5 -23.5t163.5 -64.5l-72 -193q-123 98 -297 98q-197 0 -297 -127t-100 -374q0 -504 397 -504 q96 0 184.5 24.5t147.5 63.5l51 -176q-165 -86 -358 -92l-25 -97q91 -14 139 -63.5t48 -116.5q0 -81 -68.5 -128.5t-169.5 -47.5q-107 0 -184 47z" />
<glyph unicode="&#xc8;" d="M723 1411l-383 156l78 168l356 -219zM162 1331h923v-182h-706v-377h641v-180h-641v-406h704v-186h-921v1331z" />
<glyph unicode="&#xc9;" d="M893 1567l-381 -156l-53 105l358 219zM162 1331h923v-182h-706v-377h641v-180h-641v-406h704v-186h-921v1331z" />
<glyph unicode="&#xca;" d="M162 1331h923v-182h-706v-377h641v-180h-641v-406h704v-186h-921v1331zM694 1741l250 -201l-82 -108l-225 159l-221 -159l-78 104l252 205h104z" />
<glyph unicode="&#xcb;" d="M328 1589q0 47 33.5 81t80.5 34t81 -34t34 -81t-34 -80.5t-81 -33.5t-80.5 33.5t-33.5 80.5zM717 1589q0 47 33.5 81t80.5 34t81 -34t34 -81t-34 -80.5t-81 -33.5t-80.5 33.5t-33.5 80.5zM162 1331h923v-182h-706v-377h641v-180h-641v-406h704v-186h-921v1331z" />
<glyph unicode="&#xcc;" d="M143 0v186h363v961h-363v184h951v-184h-371v-961h371v-186h-951zM696 1411l-383 156l78 168l357 -219z" />
<glyph unicode="&#xcd;" d="M143 0v186h363v961h-363v184h951v-184h-371v-961h371v-186h-951zM883 1567l-381 -156l-53 105l358 219z" />
<glyph unicode="&#xce;" d="M143 0v186h363v961h-363v184h951v-184h-371v-961h371v-186h-951zM659 1741l250 -201l-82 -108l-225 159l-221 -159l-78 104l252 205h104z" />
<glyph unicode="&#xcf;" d="M143 0v186h363v961h-363v184h951v-184h-371v-961h371v-186h-951zM690 1589q0 47 34 81t81 34t81 -34t34 -81t-34 -80.5t-81 -33.5t-81 33.5t-34 80.5zM301 1589q0 47 34 81t81 34t80.5 -34t33.5 -81t-33.5 -80.5t-80.5 -33.5t-81 33.5t-34 80.5z" />
<glyph unicode="&#xd0;" d="M115 0v592h-113v168h113v571h442q140 0 247.5 -33t177.5 -90.5t114.5 -141.5t63 -179t18.5 -211q0 -112 -15 -204t-56.5 -182.5t-110 -152t-182.5 -99.5t-265 -38h-434zM553 1149h-221v-389h221v-168h-221v-406h235q71 0 127.5 13t95.5 35t68 57t45.5 73t26.5 90 t13 100.5t3 111.5q0 87 -9 153.5t-34 131t-68 106t-114 67t-168 25.5z" />
<glyph unicode="&#xd1;" d="M375 1473l-70 71q97 142 211 142q52 0 137 -30t125 -30q77 0 131 64l68 -76q-40 -64 -96 -101.5t-115 -37.5q-42 0 -127.5 30.5t-128.5 30.5q-79 0 -135 -63zM309 1014v-1014h-205v1331h238l580 -983v983h204v-1331h-223z" />
<glyph unicode="&#xd2;" d="M707 1411l-383 156l77 168l357 -219zM614 1350q289 0 424.5 -167t135.5 -517q0 -119 -21 -222t-66 -189t-111 -147t-159.5 -94.5t-208.5 -33.5q-553 0 -553 679q0 156 33 280.5t100 217.5t175 143t251 50zM608 162q186 0 261 125t75 379q0 134 -14.5 223t-51.5 154 t-101.5 94.5t-162.5 29.5q-96 0 -159 -29.5t-100.5 -95t-52.5 -156.5t-15 -227q0 -127 13.5 -213t48 -153t98.5 -99t161 -32z" />
<glyph unicode="&#xd3;" d="M893 1567l-381 -156l-53 105l358 219zM614 1350q289 0 424.5 -167t135.5 -517q0 -119 -21 -222t-66 -189t-111 -147t-159.5 -94.5t-208.5 -33.5q-553 0 -553 679q0 156 33 280.5t100 217.5t175 143t251 50zM608 162q186 0 261 125t75 379q0 134 -14.5 223t-51.5 154 t-101.5 94.5t-162.5 29.5q-96 0 -159 -29.5t-100.5 -95t-52.5 -156.5t-15 -227q0 -127 13.5 -213t48 -153t98.5 -99t161 -32z" />
<glyph unicode="&#xd4;" d="M614 1350q289 0 424.5 -167t135.5 -517q0 -119 -21 -222t-66 -189t-111 -147t-159.5 -94.5t-208.5 -33.5q-553 0 -553 679q0 156 33 280.5t100 217.5t175 143t251 50zM608 162q186 0 261 125t75 379q0 134 -14.5 223t-51.5 154t-101.5 94.5t-162.5 29.5q-96 0 -159 -29.5 t-100.5 -95t-52.5 -156.5t-15 -227q0 -127 13.5 -213t48 -153t98.5 -99t161 -32zM686 1741l250 -201l-82 -108l-225 159l-221 -159l-78 104l252 205h104z" />
<glyph unicode="&#xd5;" d="M352 1473l-69 71q97 142 211 142q52 0 137 -30t125 -30q77 0 131 64l67 -76q-40 -64 -96 -101.5t-115 -37.5q-42 0 -127.5 30.5t-128.5 30.5q-79 0 -135 -63zM614 1350q289 0 424.5 -167t135.5 -517q0 -119 -21 -222t-66 -189t-111 -147t-159.5 -94.5t-208.5 -33.5 q-553 0 -553 679q0 156 33 280.5t100 217.5t175 143t251 50zM608 162q186 0 261 125t75 379q0 134 -14.5 223t-51.5 154t-101.5 94.5t-162.5 29.5q-96 0 -159 -29.5t-100.5 -95t-52.5 -156.5t-15 -227q0 -127 13.5 -213t48 -153t98.5 -99t161 -32z" />
<glyph unicode="&#xd6;" d="M297 1589q0 47 34 81t81 34t80.5 -34t33.5 -81t-33.5 -80.5t-80.5 -33.5t-81 33.5t-34 80.5zM686 1589q0 47 34 81t81 34t80.5 -34t33.5 -81t-33.5 -80.5t-80.5 -33.5t-81 33.5t-34 80.5zM614 1350q289 0 424.5 -167t135.5 -517q0 -119 -21 -222t-66 -189t-111 -147 t-159.5 -94.5t-208.5 -33.5q-553 0 -553 679q0 156 33 280.5t100 217.5t175 143t251 50zM608 162q186 0 261 125t75 379q0 134 -14.5 223t-51.5 154t-101.5 94.5t-162.5 29.5q-96 0 -159 -29.5t-100.5 -95t-52.5 -156.5t-15 -227q0 -127 13.5 -213t48 -153t98.5 -99t161 -32 z" />
<glyph unicode="&#xd7;" d="M850 248l-242 227l-235 -225l-109 100l240 225l-238 224l115 108l235 -223l238 225l109 -102l-240 -221l242 -232z" />
<glyph unicode="&#xd8;" d="M614 1350q232 0 363 -107l74 98h141l-135 -182q117 -165 117 -493q0 -119 -21 -222t-66 -189t-111 -147t-159.5 -94.5t-208.5 -33.5q-216 0 -348 104l-70 -94h-149l135 182q-121 170 -121 487q0 156 33 280.5t100 217.5t175 143t251 50zM287 659q0 -205 30 -299l537 717 q-78 90 -240 90q-96 0 -159 -29.5t-100.5 -95t-52.5 -156.5t-15 -227zM608 162q186 0 261 125t75 379q0 196 -33 299l-532 -719q75 -84 229 -84z" />
<glyph unicode="&#xd9;" d="M733 1411l-383 156l78 168l356 -219zM903 516v815h211v-846q0 -250 -129 -377.5t-377 -127.5q-246 0 -369.5 119.5t-123.5 375.5v856h217v-825q0 -195 65.5 -270.5t218.5 -75.5q160 0 223.5 81t63.5 275z" />
<glyph unicode="&#xda;" d="M893 1567l-381 -156l-53 105l358 219zM903 516v815h211v-846q0 -250 -129 -377.5t-377 -127.5q-246 0 -369.5 119.5t-123.5 375.5v856h217v-825q0 -195 65.5 -270.5t218.5 -75.5q160 0 223.5 81t63.5 275z" />
<glyph unicode="&#xdb;" d="M903 516v815h211v-846q0 -250 -129 -377.5t-377 -127.5q-246 0 -369.5 119.5t-123.5 375.5v856h217v-825q0 -195 65.5 -270.5t218.5 -75.5q160 0 223.5 81t63.5 275zM670 1741l250 -201l-82 -108l-226 159l-221 -159l-78 104l252 205h105z" />
<glyph unicode="&#xdc;" d="M299 1589q0 47 34 81t81 34t80.5 -34t33.5 -81t-33.5 -80.5t-80.5 -33.5t-81 33.5t-34 80.5zM688 1589q0 47 34 81t81 34t81 -34t34 -81t-34 -80.5t-81 -33.5t-81 33.5t-34 80.5zM903 516v815h211v-846q0 -250 -129 -377.5t-377 -127.5q-246 0 -369.5 119.5t-123.5 375.5 v856h217v-825q0 -195 65.5 -270.5t218.5 -75.5q160 0 223.5 81t63.5 275z" />
<glyph unicode="&#xdd;" d="M307 1331l330 -633l303 633h215l-420 -811v-520h-217v518l-444 813h233zM889 1567l-381 -156l-53 105l358 219z" />
<glyph unicode="&#xde;" d="M160 1331h217v-170h213q477 0 477 -436q0 -206 -127.5 -327.5t-347.5 -121.5h-215v-276h-217v1331zM582 465q123 0 189.5 60t66.5 196q0 129 -60.5 192.5t-204.5 63.5h-196v-512h205z" />
<glyph unicode="&#xdf;" d="M737 741q0 -35 25 -63t65 -47.5t88.5 -39t97.5 -45t89 -58.5t65 -86t25 -121q0 -81 -31.5 -141.5t-86.5 -94t-120.5 -49.5t-142.5 -16q-181 0 -313 81l53 187q37 -40 107.5 -71.5t142.5 -31.5q83 0 131.5 30.5t48.5 94.5q0 39 -25 68.5t-65 49t-88.5 38t-96.5 42 t-88 53.5t-65 80.5t-25 115.5q0 60 26 111t62.5 86t73 66.5t62.5 65.5t26 68q0 62 -47.5 100.5t-136.5 38.5q-221 0 -221 -266v-987h-205v807h-131v149l131 13v49q0 105 36 185t98.5 126.5t139 70t164.5 23.5q199 0 297 -82t98 -215q0 -42 -19.5 -80.5t-49 -66.5t-63.5 -58 t-63.5 -55.5t-49 -58t-19.5 -66.5z" />
<glyph unicode="&#xe0;" d="M776 262v160q-74 8 -129 8q-264 0 -264 -149q0 -67 43.5 -102.5t116.5 -35.5q72 0 133 35t100 84zM776 559l2 100q1 101 -43.5 142t-140.5 41q-75 0 -128.5 -27t-53.5 -88q0 -18 6 -39l-187 -26q-14 38 -14 77q0 118 112 192.5t283 74.5q85 0 150.5 -16.5t118.5 -53 t81 -102.5t27 -158l-2 -428q0 -54 20.5 -78.5t51.5 -24.5q16 0 37 7l14 -154q-60 -18 -123 -18q-83 0 -133 40t-66 109q-123 -149 -313 -149q-138 0 -224.5 74.5t-86.5 207.5q0 72 30 126.5t77 87.5t114.5 53.5t133 28t140.5 7.5q12 0 117 -6zM625 1118l-310 230l117 137 l273 -281z" />
<glyph unicode="&#xe1;" d="M776 262v160q-74 8 -129 8q-264 0 -264 -149q0 -67 43.5 -102.5t116.5 -35.5q72 0 133 35t100 84zM776 559l2 100q1 101 -43.5 142t-140.5 41q-75 0 -128.5 -27t-53.5 -88q0 -18 6 -39l-187 -26q-14 38 -14 77q0 118 112 192.5t283 74.5q85 0 150.5 -16.5t118.5 -53 t81 -102.5t27 -158l-2 -428q0 -54 20.5 -78.5t51.5 -24.5q16 0 37 7l14 -154q-60 -18 -123 -18q-83 0 -133 40t-66 109q-123 -149 -313 -149q-138 0 -224.5 74.5t-86.5 207.5q0 72 30 126.5t77 87.5t114.5 53.5t133 28t140.5 7.5q12 0 117 -6zM864 1348l-309 -230l-80 86 l273 281z" />
<glyph unicode="&#xe2;" d="M776 262v160q-74 8 -129 8q-264 0 -264 -149q0 -67 43.5 -102.5t116.5 -35.5q72 0 133 35t100 84zM776 559l2 100q1 101 -43.5 142t-140.5 41q-75 0 -128.5 -27t-53.5 -88q0 -18 6 -39l-187 -26q-14 38 -14 77q0 118 112 192.5t283 74.5q85 0 150.5 -16.5t118.5 -53 t81 -102.5t27 -158l-2 -428q0 -54 20.5 -78.5t51.5 -24.5q16 0 37 7l14 -154q-60 -18 -123 -18q-83 0 -133 40t-66 109q-123 -149 -313 -149q-138 0 -224.5 74.5t-86.5 207.5q0 72 30 126.5t77 87.5t114.5 53.5t133 28t140.5 7.5q12 0 117 -6zM649 1446l254 -246l-104 -98 l-207 190l-213 -190l-98 94l264 250h104z" />
<glyph unicode="&#xe3;" d="M776 262v160q-74 8 -129 8q-264 0 -264 -149q0 -67 43.5 -102.5t116.5 -35.5q72 0 133 35t100 84zM776 559l2 100q1 101 -43.5 142t-140.5 41q-75 0 -128.5 -27t-53.5 -88q0 -18 6 -39l-187 -26q-14 38 -14 77q0 118 112 192.5t283 74.5q85 0 150.5 -16.5t118.5 -53 t81 -102.5t27 -158l-2 -428q0 -54 20.5 -78.5t51.5 -24.5q16 0 37 7l14 -154q-60 -18 -123 -18q-83 0 -133 40t-66 109q-123 -149 -313 -149q-138 0 -224.5 74.5t-86.5 207.5q0 72 30 126.5t77 87.5t114.5 53.5t133 28t140.5 7.5q12 0 117 -6zM334 1184l-70 69 q95 142 211 142q52 0 127 -29t115 -29q79 0 131 64l67 -78q-41 -64 -96 -101.5t-114 -37.5q-42 0 -117.5 31.5t-118.5 31.5q-76 0 -135 -63z" />
<glyph unicode="&#xe4;" d="M776 262v160q-74 8 -129 8q-264 0 -264 -149q0 -67 43.5 -102.5t116.5 -35.5q72 0 133 35t100 84zM776 559l2 100q1 101 -43.5 142t-140.5 41q-75 0 -128.5 -27t-53.5 -88q0 -18 6 -39l-187 -26q-14 38 -14 77q0 118 112 192.5t283 74.5q85 0 150.5 -16.5t118.5 -53 t81 -102.5t27 -158l-2 -428q0 -54 20.5 -78.5t51.5 -24.5q16 0 37 7l14 -154q-60 -18 -123 -18q-83 0 -133 40t-66 109q-123 -149 -313 -149q-138 0 -224.5 74.5t-86.5 207.5q0 72 30 126.5t77 87.5t114.5 53.5t133 28t140.5 7.5q12 0 117 -6zM291 1278q0 47 34 81t81 34 t80.5 -34t33.5 -81t-33.5 -80t-80.5 -33t-81 33t-34 80zM659 1278q0 47 34 81t81 34t81 -34t34 -81t-34 -80t-81 -33t-81 33t-34 80z" />
<glyph unicode="&#xe5;" d="M776 262v160q-74 8 -129 8q-264 0 -264 -149q0 -67 43.5 -102.5t116.5 -35.5q72 0 133 35t100 84zM776 559l2 100q1 101 -43.5 142t-140.5 41q-75 0 -128.5 -27t-53.5 -88q0 -18 6 -39l-187 -26q-14 38 -14 77q0 118 112 192.5t283 74.5q85 0 150.5 -16.5t118.5 -53 t81 -102.5t27 -158l-2 -428q0 -54 20.5 -78.5t51.5 -24.5q16 0 37 7l14 -154q-60 -18 -123 -18q-83 0 -133 40t-66 109q-123 -149 -313 -149q-138 0 -224.5 74.5t-86.5 207.5q0 72 30 126.5t77 87.5t114.5 53.5t133 28t140.5 7.5q12 0 117 -6zM590 1110q-99 0 -158 56.5 t-59 148.5q0 94 64.5 148.5t156.5 54.5q93 0 153 -52.5t60 -150.5q0 -86 -59.5 -145.5t-157.5 -59.5zM590 1212q51 0 73.5 26t22.5 77q0 52 -23 77t-73 25q-52 0 -75 -25t-23 -77q0 -103 98 -103z" />
<glyph unicode="&#xe6;" d="M371 846q-55 0 -95 -27.5t-40 -87.5q0 -15 8 -43l-160 -26q-12 44 -12 83q0 116 88 188.5t229 72.5q183 0 242 -123q90 123 246 123q169 0 245 -123t78 -391v-41h-514q4 -146 66 -223.5t161 -77.5q130 0 228 94l49 -170q-139 -94 -301 -94q-216 0 -318 186 q-53 -92 -129 -139t-163 -47q-120 0 -191.5 74t-71.5 206q0 67 24.5 120t64.5 85.5t94.5 54t109.5 29.5t115 8q51 0 74 -2q0 31 10 76l2 41q0 95 -33 134.5t-106 39.5zM201 279q0 -67 35 -104.5t92 -37.5q63 0 114.5 38.5t83.5 96.5q-22 68 -28 150q-37 6 -82 6 q-215 0 -215 -149zM686 590h332v26q0 108 -36.5 174t-107.5 66q-88 0 -132.5 -65.5t-55.5 -200.5z" />
<glyph unicode="&#xe7;" d="M494 -426l45 119q51 -51 127 -51q45 0 69.5 18t24.5 51q0 41 -41 66t-123 28l47 177q-93 7 -170 39t-138.5 90.5t-95.5 153t-34 218.5q0 130 40 231.5t111 164.5t164.5 95t204.5 32q100 0 193.5 -24.5t158.5 -63.5l-67 -189q-57 45 -131.5 73.5t-147.5 28.5 q-139 0 -221 -84.5t-82 -261.5q0 -169 84.5 -249t226.5 -80q76 0 153 28.5t124 69.5l57 -172q-61 -40 -147 -66t-172 -34l-25 -99q91 -14 138.5 -63.5t47.5 -116.5q0 -81 -68.5 -128.5t-168.5 -47.5q-107 0 -184 47z" />
<glyph unicode="&#xe8;" d="M717 150q74 0 158 31.5t135 72.5l55 -170q-179 -104 -397 -104q-104 0 -192 30.5t-157.5 91t-109 161.5t-39.5 233q0 121 38 219t103.5 161t149.5 96.5t178 33.5q97 0 175 -28t138 -85.5t92.5 -153.5t32.5 -225q0 -51 -2 -63h-686q13 -154 101 -227.5t227 -73.5zM391 590 h471q3 121 -58 190.5t-161 69.5q-113 0 -176 -62.5t-76 -197.5zM705 1118l-310 230l117 137l272 -281z" />
<glyph unicode="&#xe9;" d="M717 150q74 0 158 31.5t135 72.5l55 -170q-179 -104 -397 -104q-104 0 -192 30.5t-157.5 91t-109 161.5t-39.5 233q0 121 38 219t103.5 161t149.5 96.5t178 33.5q97 0 175 -28t138 -85.5t92.5 -153.5t32.5 -225q0 -51 -2 -63h-686q13 -154 101 -227.5t227 -73.5zM391 590 h471q3 121 -58 190.5t-161 69.5q-113 0 -176 -62.5t-76 -197.5zM891 1348l-309 -230l-80 86l272 281z" />
<glyph unicode="&#xea;" d="M717 150q74 0 158 31.5t135 72.5l55 -170q-179 -104 -397 -104q-104 0 -192 30.5t-157.5 91t-109 161.5t-39.5 233q0 121 38 219t103.5 161t149.5 96.5t178 33.5q97 0 175 -28t138 -85.5t92.5 -153.5t32.5 -225q0 -51 -2 -63h-686q13 -154 101 -227.5t227 -73.5z M709 1446l254 -246l-105 -98l-207 190l-213 -190l-98 94l264 250h105zM391 590h471q3 121 -58 190.5t-161 69.5q-113 0 -176 -62.5t-76 -197.5z" />
<glyph unicode="&#xeb;" d="M717 150q74 0 158 31.5t135 72.5l55 -170q-179 -104 -397 -104q-104 0 -192 30.5t-157.5 91t-109 161.5t-39.5 233q0 121 38 219t103.5 161t149.5 96.5t178 33.5q97 0 175 -28t138 -85.5t92.5 -153.5t32.5 -225q0 -51 -2 -63h-686q13 -154 101 -227.5t227 -73.5zM391 590 h471q3 121 -58 190.5t-161 69.5q-113 0 -176 -62.5t-76 -197.5zM727 1278q0 47 34 81t81 34t80.5 -34t33.5 -81t-33.5 -80t-80.5 -33t-81 33t-34 80zM358 1278q0 47 34 81t81 34t81 -34t34 -81t-34 -80t-81 -33t-81 33t-34 80z" />
<glyph unicode="&#xec;" d="M160 0v172h344v637h-344v172h557v-809h352v-172h-909zM649 1118l-309 230l117 137l272 -281z" />
<glyph unicode="&#xed;" d="M160 0v172h344v637h-344v172h557v-809h352v-172h-909zM844 1348l-309 -230l-80 86l272 281z" />
<glyph unicode="&#xee;" d="M160 0v172h344v637h-344v172h557v-809h352v-172h-909zM666 1446l254 -246l-105 -98l-207 190l-213 -190l-98 94l264 250h105z" />
<glyph unicode="&#xef;" d="M160 0v172h344v637h-344v172h557v-809h352v-172h-909zM684 1278q0 47 34 81t81 34t80.5 -34t33.5 -81t-33.5 -80t-80.5 -33t-81 33t-34 80zM315 1278q0 47 34 81t81 34t81 -34t34 -81t-34 -80t-81 -33t-81 33t-34 80z" />
<glyph unicode="&#xf0;" d="M129 494q0 216 124 352.5t331 136.5q101 0 180 -43q-83 126 -193 211l-102 -117l-98 68l102 121q-62 38 -106 59l102 135q70 -34 119 -63l90 106l102 -74l-88 -98q397 -281 408 -764q0 -4 1 -15t1 -15q0 -104 -32 -196.5t-92 -163.5t-153.5 -112.5t-208.5 -41.5 q-229 0 -358 135t-129 379zM352 496q0 -346 258 -346q145 0 205 85.5t62 251.5q0 151 -37 273q-94 65 -222 65q-143 0 -204.5 -86t-61.5 -243z" />
<glyph unicode="&#xf1;" d="M389 700v-700h-213v981h197l4 -125q75 75 168.5 112.5t181.5 37.5q52 0 99 -9.5t93 -34t79.5 -62t54 -98t20.5 -138.5v-664h-213v590q0 125 -50.5 175t-147.5 50q-66 0 -140 -32t-133 -83zM358 1184l-69 69q95 142 211 142q52 0 126.5 -29t114.5 -29q79 0 131 64l68 -78 q-40 -64 -96 -101.5t-115 -37.5q-42 0 -117 31.5t-118 31.5q-77 0 -136 -63z" />
<glyph unicode="&#xf2;" d="M113 496q0 227 138.5 368.5t362.5 141.5q236 0 370 -134t134 -376q0 -145 -59 -261t-174.5 -185.5t-268.5 -69.5q-233 0 -368 134.5t-135 381.5zM338 496q0 -346 272 -346q150 0 216.5 87.5t66.5 258.5q0 159 -67.5 249.5t-215.5 90.5q-139 0 -205.5 -90t-66.5 -250z M631 1118l-309 230l116 137l273 -281z" />
<glyph unicode="&#xf3;" d="M850 1348l-309 -230l-80 86l272 281zM113 496q0 227 138.5 368.5t362.5 141.5q236 0 370 -134t134 -376q0 -145 -59 -261t-174.5 -185.5t-268.5 -69.5q-233 0 -368 134.5t-135 381.5zM338 496q0 -346 272 -346q150 0 216.5 87.5t66.5 258.5q0 159 -67.5 249.5 t-215.5 90.5q-139 0 -205.5 -90t-66.5 -250z" />
<glyph unicode="&#xf4;" d="M670 1446l254 -246l-105 -98l-207 190l-213 -190l-98 94l264 250h105zM113 496q0 227 138.5 368.5t362.5 141.5q236 0 370 -134t134 -376q0 -145 -59 -261t-174.5 -185.5t-268.5 -69.5q-233 0 -368 134.5t-135 381.5zM338 496q0 -346 272 -346q150 0 216.5 87.5 t66.5 258.5q0 159 -67.5 249.5t-215.5 90.5q-139 0 -205.5 -90t-66.5 -250z" />
<glyph unicode="&#xf5;" d="M113 496q0 227 138.5 368.5t362.5 141.5q236 0 370 -134t134 -376q0 -145 -59 -261t-174.5 -185.5t-268.5 -69.5q-233 0 -368 134.5t-135 381.5zM338 496q0 -346 272 -346q150 0 216.5 87.5t66.5 258.5q0 159 -67.5 249.5t-215.5 90.5q-139 0 -205.5 -90t-66.5 -250z M354 1184l-69 69q95 142 211 142q52 0 126.5 -29t114.5 -29q79 0 131 64l68 -78q-40 -64 -96 -101.5t-115 -37.5q-42 0 -117.5 31.5t-118.5 31.5q-76 0 -135 -63z" />
<glyph unicode="&#xf6;" d="M311 1278q0 47 34 81t81 34t81 -34t34 -81t-34 -80t-81 -33t-81 33t-34 80zM680 1278q0 47 34 81t81 34t80.5 -34t33.5 -81t-33.5 -80t-80.5 -33t-81 33t-34 80zM113 496q0 227 138.5 368.5t362.5 141.5q236 0 370 -134t134 -376q0 -145 -59 -261t-174.5 -185.5 t-268.5 -69.5q-233 0 -368 134.5t-135 381.5zM338 496q0 -346 272 -346q150 0 216.5 87.5t66.5 258.5q0 159 -67.5 249.5t-215.5 90.5q-139 0 -205.5 -90t-66.5 -250z" />
<glyph unicode="&#xf7;" d="M1001 518h-774v148h774v-148zM500 879q0 47 33.5 81.5t80.5 34.5t82 -34.5t35 -81.5t-35 -81t-82 -34t-80.5 34t-33.5 81zM500 299q0 48 33.5 82.5t80.5 34.5t82 -35t35 -82t-35 -81t-82 -34t-80.5 34t-33.5 81z" />
<glyph unicode="&#xf8;" d="M113 496q0 227 138.5 368.5t362.5 141.5q165 0 283 -70l47 59h150l-105 -129q129 -135 129 -370q0 -145 -59 -261t-174.5 -185.5t-268.5 -69.5q-166 0 -282 67l-45 -57h-150l105 129q-131 137 -131 377zM338 496q0 -132 39 -211l401 503q-68 48 -168 48 q-139 0 -205.5 -90t-66.5 -250zM610 150q150 0 216.5 87.5t66.5 258.5q0 121 -39 200l-403 -503q61 -43 159 -43z" />
<glyph unicode="&#xf9;" d="M838 285v696h213v-981h-193l-8 129q-76 -76 -166.5 -114t-177.5 -38q-53 0 -99.5 8.5t-93.5 32t-80 61t-54 100t-21 143.5v659h213v-596q0 -126 49 -176.5t141 -50.5q66 0 139.5 35.5t137.5 91.5zM664 1118l-310 230l117 137l272 -281z" />
<glyph unicode="&#xfa;" d="M870 1348l-309 -230l-80 86l273 281zM838 285v696h213v-981h-193l-8 129q-76 -76 -166.5 -114t-177.5 -38q-53 0 -99.5 8.5t-93.5 32t-80 61t-54 100t-21 143.5v659h213v-596q0 -126 49 -176.5t141 -50.5q66 0 139.5 35.5t137.5 91.5z" />
<glyph unicode="&#xfb;" d="M672 1446l254 -246l-105 -98l-207 190l-213 -190l-98 94l264 250h105zM838 285v696h213v-981h-193l-8 129q-76 -76 -166.5 -114t-177.5 -38q-53 0 -99.5 8.5t-93.5 32t-80 61t-54 100t-21 143.5v659h213v-596q0 -126 49 -176.5t141 -50.5q66 0 139.5 35.5t137.5 91.5z " />
<glyph unicode="&#xfc;" d="M330 1278q0 47 33.5 81t80.5 34t81 -34t34 -81t-34 -80t-81 -33t-80.5 33t-33.5 80zM698 1278q0 47 34 81t81 34t81 -34t34 -81t-34 -80t-81 -33t-81 33t-34 80zM838 285v696h213v-981h-193l-8 129q-76 -76 -166.5 -114t-177.5 -38q-53 0 -99.5 8.5t-93.5 32t-80 61 t-54 100t-21 143.5v659h213v-596q0 -126 49 -176.5t141 -50.5q66 0 139.5 35.5t137.5 91.5z" />
<glyph unicode="&#xfd;" d="M1102 981l-535 -1432h-209l150 406l-381 1026h227l273 -768l262 768h213zM879 1348l-310 -230l-80 86l273 281z" />
<glyph unicode="&#xfe;" d="M559 -20q-85 0 -192 22v-453h-213v1854h213v-545q63 69 143 108.5t162 39.5q192 0 297.5 -132.5t105.5 -361.5q0 -245 -142.5 -388.5t-373.5 -143.5zM367 698v-497q74 -47 182 -47q141 0 221 88.5t80 249.5q0 163 -64.5 244t-177.5 81q-119 0 -241 -119z" />
<glyph unicode="&#xff;" d="M1102 981l-535 -1432h-209l150 406l-381 1026h227l273 -768l262 768h213zM332 1278q0 47 33.5 81t80.5 34t81 -34t34 -81t-34 -80t-81 -33t-80.5 33t-33.5 80zM700 1278q0 47 34 81t81 34t81 -34t34 -81t-34 -80t-81 -33t-81 33t-34 80z" />
<glyph unicode="&#x152;" d="M520 1350q68 0 142 -19h530v-182h-352v-377h286v-180h-286v-406h350v-186h-539q-78 -20 -137 -20q-110 0 -192 30t-135.5 85t-87 140.5t-47 187t-13.5 234.5q0 125 15 226.5t49.5 190t89 148.5t137.5 94t190 34zM514 160q67 0 119 16v973q-50 20 -113 20 q-133 0 -191.5 -125t-58.5 -387q0 -122 11.5 -210t39 -154.5t75.5 -99.5t118 -33z" />
<glyph unicode="&#x153;" d="M14 494q0 237 89.5 374.5t256.5 137.5q203 0 283 -179q81 179 254 179q59 0 106.5 -15.5t88 -51t68 -91.5t42.5 -140.5t15 -193.5q0 -45 -3 -63h-487q8 -151 65 -230.5t158 -79.5t199 90l57 -147q-115 -104 -274 -104q-97 0 -172.5 45.5t-120.5 136.5q-99 -182 -277 -182 q-173 0 -260.5 130t-87.5 384zM186 496q0 -84 8.5 -146t28 -111.5t55 -74.5t87.5 -25q53 0 90.5 25.5t58.5 74.5t30 111.5t9 145.5q0 350 -191 350q-50 0 -85.5 -26.5t-55 -76t-27.5 -109.5t-8 -138zM727 590h324q5 126 -35.5 198t-116.5 72q-83 0 -123 -65.5t-49 -204.5z " />
<glyph unicode="&#x178;" d="M307 1331l330 -633l303 633h215l-420 -811v-520h-217v518l-444 813h233zM717 1589q0 47 33.5 81t80.5 34t81 -34t34 -81t-34 -80.5t-81 -33.5t-80.5 33.5t-33.5 80.5zM328 1589q0 47 33.5 81t80.5 34t81 -34t34 -81t-34 -80.5t-81 -33.5t-80.5 33.5t-33.5 80.5z" />
<glyph unicode="&#x2c6;" d="M672 1446l254 -246l-105 -98l-207 190l-213 -190l-98 94l264 250h105z" />
<glyph unicode="&#x2dc;" d="M358 1184l-69 69q95 142 211 142q52 0 126.5 -29t114.5 -29q79 0 131 64l68 -78q-40 -64 -96 -101.5t-115 -37.5q-42 0 -117 31.5t-118 31.5q-77 0 -136 -63z" />
<glyph unicode="&#x2000;" horiz-adv-x="906" />
<glyph unicode="&#x2001;" horiz-adv-x="1812" />
<glyph unicode="&#x2002;" horiz-adv-x="906" />
<glyph unicode="&#x2003;" horiz-adv-x="1812" />
<glyph unicode="&#x2004;" horiz-adv-x="604" />
<glyph unicode="&#x2005;" horiz-adv-x="453" />
<glyph unicode="&#x2006;" horiz-adv-x="302" />
<glyph unicode="&#x2007;" horiz-adv-x="302" />
<glyph unicode="&#x2008;" horiz-adv-x="226" />
<glyph unicode="&#x2009;" horiz-adv-x="362" />
<glyph unicode="&#x200a;" horiz-adv-x="100" />
<glyph unicode="&#x2010;" d="M887 432h-545v182h545v-182z" />
<glyph unicode="&#x2011;" d="M887 432h-545v182h545v-182z" />
<glyph unicode="&#x2012;" d="M887 432h-545v182h545v-182z" />
<glyph unicode="&#x2013;" d="M164 455v149h901v-149h-901z" />
<glyph unicode="&#x2014;" d="M0 455v149h1229v-149h-1229z" />
<glyph unicode="&#x2018;" d="M651 864h-194q3 129 54.5 302.5t119.5 271.5l141 -41q-58 -101 -88 -248.5t-33 -284.5z" />
<glyph unicode="&#x2019;" d="M575 1430h197q-5 -131 -56.5 -304t-119.5 -270l-139 43q57 102 86.5 250t31.5 281z" />
<glyph unicode="&#x201a;" d="M578 197h192q-5 -130 -56 -298.5t-120 -265.5l-135 41q57 103 87 247.5t32 275.5z" />
<glyph unicode="&#x201c;" d="M829 864h-194q3 129 54.5 302.5t119.5 271.5l141 -41q-58 -101 -88 -248.5t-33 -284.5zM475 864h-196q5 131 56.5 304t119.5 270l139 -41q-57 -102 -87 -251t-32 -282z" />
<glyph unicode="&#x201d;" d="M399 1430h195q-3 -129 -54.5 -302.5t-119.5 -271.5l-141 43q58 101 87 247.5t33 283.5zM754 1430h196q-5 -131 -56.5 -304t-119.5 -270l-139 43q57 102 87 250.5t32 280.5z" />
<glyph unicode="&#x201e;" d="M399 197h191q-3 -128 -54.5 -297t-119.5 -267l-137 41q58 101 87.5 244.5t32.5 278.5zM758 197h192q-5 -130 -56 -298.5t-120 -265.5l-135 41q57 103 87 247.5t32 275.5z" />
<glyph unicode="&#x2022;" d="M492 403q-46 49 -46 111q0 71 54 119q50 41 108 41q74 0 129 -58q45 -48 45 -110q0 -73 -55 -119q-44 -41 -106 -41q-78 0 -129 57z" />
<glyph unicode="&#x2026;" d="M63 100q0 58 32.5 89.5t90.5 31.5q56 0 90.5 -30.5t34.5 -90.5q0 -61 -33 -92t-92 -31q-123 0 -123 123zM489 100q0 58 33.5 89.5t89.5 31.5q57 0 91 -30.5t34 -90.5q0 -61 -32.5 -92t-92.5 -31q-123 0 -123 123zM918 100q0 58 32.5 89.5t89.5 31.5q56 0 90.5 -30.5 t34.5 -90.5t-33.5 -91.5t-91.5 -31.5q-122 0 -122 123z" />
<glyph unicode="&#x202f;" horiz-adv-x="362" />
<glyph unicode="&#x2039;" d="M393 479l264 473h179l-222 -465l222 -481h-179z" />
<glyph unicode="&#x203a;" d="M569 952l267 -473l-267 -473h-176l219 481l-219 465h176z" />
<glyph unicode="&#x205f;" horiz-adv-x="453" />
<glyph unicode="&#x20ac;" d="M236 426h-175l21 147h135q-2 27 -2 84t2 86h-135l20 148h136q51 222 197 340.5t370 118.5q191 0 338 -80l-68 -185q-127 84 -268 84t-223 -69t-115 -209h500l-21 -148h-499q-3 -41 -3 -79q0 -48 3 -91h473l-21 -147h-430q35 -136 121 -202t227 -66q79 0 157 22.5 t136 57.5l55 -175q-87 -47 -174.5 -65t-204.5 -18q-466 0 -552 446z" />
<glyph unicode="&#x2122;" d="M475 618v717h146l139 -346l82 -233l78 235l137 344h139v-717h-117v484l-53 -170l-127 -314h-121l-127 302l-69 190v-492h-107zM170 618v603h-145v112h415v-112h-147v-603h-123z" />
<glyph unicode="&#x25fc;" horiz-adv-x="983" d="M0 983h983v-983h-983v983z" />
</font>
</defs>
</svg>
