<?xml version="1.0" standalone="no"?>
<!DOCTYPE svg PUBLIC "-//W3C//DTD SVG 1.1//EN" "http://www.w3.org/Graphics/SVG/1.1/DTD/svg11.dtd" >
<svg xmlns="http://www.w3.org/2000/svg" xmlns:xlink="http://www.w3.org/1999/xlink" version="1.1">
<metadata></metadata>
<defs>
<font id="typoninesans_monospaceLtIt" horiz-adv-x="1228" >
<font-face units-per-em="2048" ascent="1597" descent="-451" />
<missing-glyph horiz-adv-x="500" />
<glyph horiz-adv-x="0" />
<glyph horiz-adv-x="682" />
<glyph unicode=" " />
<glyph unicode="!" d="M657 1331h105l-57 -469l-72 -491h-76l43 491zM479 39q0 36 23.5 60t62.5 24q31 0 50.5 -15.5t19.5 -44.5q0 -40 -25.5 -61.5t-62.5 -21.5q-68 0 -68 59z" />
<glyph unicode="&#x22;" d="M602 1331l-90 -563h-63l36 563h117zM944 1331l-92 -563h-61l34 563h119z" />
<glyph unicode="#" d="M629 0l96 334h-354l-97 -334h-79l96 334h-209l18 72h211l103 348h-228l19 71h229l94 322h80l-94 -322h354l95 322h79l-94 -322h217l-18 -71h-219l-103 -348h236l-19 -72h-237l-96 -334h-80zM494 754l-103 -348h354l103 348h-354z" />
<glyph unicode="$" d="M678 1376h82l-17 -123q199 -6 293 -57l-49 -96q-93 63 -254 69l-57 -469q48 -21 77 -35.5t70 -38t65.5 -46.5t49 -53.5t36 -68t11.5 -81.5q0 -136 -109 -231.5t-282 -112.5l-14 -117h-82l14 115q-112 1 -200 26t-138 56l49 96q49 -37 130 -65t169 -31l64 518 q-54 24 -86 39.5t-75 44t-66.5 56t-40.5 68.5t-17 89q0 134 101 220.5t260 100.5zM872 356q0 84 -53.5 137.5t-154.5 102.5l-60 -481q115 15 191.5 76.5t76.5 164.5zM410 946q0 -70 48.5 -118.5t139.5 -92.5l53 430q-111 -12 -176 -70t-65 -149z" />
<glyph unicode="%" d="M459 1350q144 0 211 -70t67 -188q0 -48 -10 -95.5t-36 -96.5t-64.5 -85.5t-101.5 -60t-142 -23.5q-143 0 -208.5 62t-65.5 182q0 75 19.5 140.5t59.5 119t109.5 84.5t161.5 31zM1159 1161l-1020 -1057l-57 48l1024 1060zM393 811q242 0 242 270q0 37 -8.5 68t-28 59.5 t-57 45t-90.5 16.5q-61 0 -107.5 -20t-71.5 -49.5t-40.5 -71t-20 -76t-4.5 -72.5q0 -81 41.5 -125.5t144.5 -44.5zM881 596q144 0 211 -70t67 -188q0 -48 -10 -95.5t-36 -96.5t-64.5 -85.5t-101.5 -60t-142 -23.5q-143 0 -209 62t-66 182q0 75 19.5 140.5t60 119t110 84.5 t161.5 31zM815 57q242 0 242 271q0 37 -8.5 68t-28.5 59.5t-57.5 44.5t-90.5 16q-52 0 -92.5 -13.5t-66 -37.5t-43.5 -52t-26 -63t-11.5 -63.5t-3.5 -59.5q0 -81 41.5 -125.5t144.5 -44.5z" />
<glyph unicode="&#x26;" d="M399 707q-8 110 -8 180q0 77 9.5 143.5t32 126.5t57 102t87 66.5t119.5 24.5q29 0 55.5 -4.5t56.5 -19.5t51 -40t35.5 -69t14.5 -103q0 -96 -35 -176.5t-95 -136t-129 -91.5t-146 -55q41 -258 158 -413q81 94 122 192t72 236h350l-10 -82h-266q-40 -122 -91 -211 t-137 -187q45 -57 105.5 -90.5t126.5 -33.5q112 0 182 96l39 -88q-94 -94 -240 -94q-162 0 -284 139q-155 -139 -322 -139q-137 0 -210.5 78.5t-73.5 211.5q0 160 101 272t273 165zM408 635q-279 -88 -279 -348q0 -117 52.5 -172.5t146.5 -55.5q136 0 258 113 q-64 85 -111 208t-67 255zM801 1112q0 84 -29 122t-88 38q-195 0 -195 -395q0 -64 7 -150q59 15 111.5 46t97 77t70.5 114t26 148z" />
<glyph unicode="'" d="M772 1331l-96 -563h-55l34 563h117z" />
<glyph unicode="(" d="M946 1438l35 -58q-93 -70 -168 -142.5t-146.5 -169t-120 -201t-77.5 -238t-29 -281.5q0 -121 24 -224t72 -188.5t101.5 -151.5t130.5 -140l-49 -58q-375 305 -375 770q0 662 602 1082z" />
<glyph unicode=")" d="M283 -414l-35 58q93 70 168 142.5t146.5 169t119.5 201t77 238t29 281.5q0 121 -24 224t-72 188.5t-101 151.5t-130 140l49 58q375 -305 375 -770q0 -662 -602 -1082z" />
<glyph unicode="*" d="M379 1100l74 94l188 -152q-21 -12 -25 -41zM893 786l-203 162q14 5 33 29l242 -100zM993 1102l-262 -98q0 27 -14 38l225 152zM616 979l9 -16l12 -13l-234 -164l-51 93zM684 692h-102l61 256q6 -4 25 -4l16 2v-254zM758 1286l-58 -233q-8 4 -16 4q-14 0 -22 -2l-7 231 h103z" />
<glyph unicode="+" d="M532 225l43 346h-368l10 86h369l41 336h92l-41 -336h371l-11 -86h-370l-43 -346h-93z" />
<glyph unicode="," d="M573 117h93q-42 -214 -179 -404l-69 21q125 206 155 383z" />
<glyph unicode="-" d="M862 481h-504l13 99h503z" />
<glyph unicode="." d="M479 39q0 36 23.5 60t62.5 24q31 0 50.5 -15.5t19.5 -44.5q0 -40 -25.5 -61.5t-62.5 -21.5q-68 0 -68 59z" />
<glyph unicode="/" d="M993 1403h92l-817 -1534h-92z" />
<glyph unicode="0" d="M713 1350q223 0 331.5 -136.5t108.5 -371.5q0 -64 -6.5 -133.5t-25 -156t-47 -164.5t-76.5 -154t-109 -131t-150 -89t-194 -34q-211 0 -320.5 140t-109.5 380q0 125 18 241t62 229t110.5 195.5t171 133.5t236.5 51zM565 72q84 0 154.5 31t119 81.5t86 119.5t59.5 139 t36 147t19 137.5t5 114.5q0 213 -94 315l-577 -1036q77 -49 192 -49zM223 510q0 -219 86 -328l572 1030q-77 41 -185 41q-82 0 -151 -27t-116.5 -71.5t-85 -107t-59.5 -128.5t-36.5 -141.5t-19.5 -139.5t-5 -128z" />
<glyph unicode="1" d="M117 0l10 94h399l138 1131l-316 -80l12 98l422 105l-153 -1254h411l-10 -94h-913z" />
<glyph unicode="2" d="M121 84q98 69 202.5 153t218 191.5t201.5 211t145.5 211t57.5 191.5q0 99 -65 155t-176 56q-164 0 -314 -139l-53 66q79 78 181.5 124t215.5 46q143 0 231.5 -78t88.5 -221q0 -102 -76 -235t-197 -263.5t-255 -247.5t-267 -211h746l-11 -94h-884z" />
<glyph unicode="3" d="M1032 1057q-6 -68 -38.5 -127t-85 -101.5t-117 -71.5t-138.5 -44q172 -26 265.5 -107.5t93.5 -204.5q0 -80 -29 -152.5t-87 -134t-159.5 -98t-232.5 -36.5q-122 0 -227 40t-132 74l74 86q120 -108 309 -108q70 0 136.5 20.5t120.5 58.5t87 97.5t33 130.5q0 244 -469 280 l10 78q87 7 169.5 31t153.5 64t114 101t43 134q0 92 -63 139t-171 47q-163 0 -303 -90l-35 82q6 4 17 11t48 25.5t76.5 32t99 25t118.5 11.5q148 0 234.5 -74.5t86.5 -188.5q0 -20 -2 -30z" />
<glyph unicode="4" d="M877 367l-43 -363h-103l43 363h-672l13 86l768 878h112l-106 -872h211l-13 -92h-210zM229 461h557l93 745z" />
<glyph unicode="5" d="M481 1235l-53 -418q297 -7 437.5 -100.5t140.5 -272.5q0 -70 -16.5 -134t-55 -125t-96 -106t-146.5 -72t-200 -27q-101 0 -190.5 34.5t-141.5 83.5l69 86q109 -112 297 -112q71 0 135.5 22t117.5 64t84.5 111t31.5 155q0 70 -29 123t-79 86t-125 53.5t-158.5 28.5 t-188.5 8l74 608h690l-10 -96h-588z" />
<glyph unicode="6" d="M588 72q159 0 256.5 106.5t97.5 274.5q0 121 -71.5 180t-223.5 59q-94 0 -190.5 -36.5t-177.5 -96.5q-7 -68 -7 -117q0 -370 316 -370zM1055 471q0 -213 -135.5 -352t-352.5 -139q-204 0 -301.5 124t-97.5 345q0 269 98 472t284.5 315t438.5 112q65 0 111 -5l-13 -98 q-55 8 -120 8q-125 0 -237 -38t-203 -111t-153 -187t-83 -258q106 64 198 95.5t211 31.5q160 0 257.5 -81t97.5 -234z" />
<glyph unicode="7" d="M1151 1331l-8 -71l-752 -1256h-104l739 1231h-760l10 96h875z" />
<glyph unicode="8" d="M1077 1079q0 -64 -28 -117.5t-94 -102t-105.5 -71.5t-129.5 -69q-7 -4 -11 -6q52 -29 88.5 -51t86.5 -60t81.5 -73t54 -82t22.5 -95q0 -110 -73 -197t-184 -131t-234 -44q-61 0 -119 11t-111.5 34.5t-93.5 57.5t-64 84t-24 109q0 66 24.5 124t60 99t94.5 81.5t107 65 t118 56.5q-50 31 -74 46.5t-62 43t-56.5 48.5t-39.5 50t-29 61t-8 69q0 152 126.5 241t314.5 89q166 0 264 -74.5t98 -196.5zM573 70q54 0 114.5 17t116 48t92 84t36.5 117q0 35 -12 67.5t-39 62.5t-50 51.5t-66 48.5t-64 39t-65 36q-5 3 -8 4.5l-7 3.5t-7 4 q-60 -26 -103 -47t-97 -56t-87.5 -69.5t-57 -82.5t-23.5 -101q0 -110 93 -168.5t234 -58.5zM709 1260q-58 0 -114 -13t-106.5 -39t-81 -72.5t-30.5 -107.5q0 -70 53.5 -122.5t214.5 -151.5q91 51 144 85t97 72.5t61.5 75.5t17.5 82q0 93 -76 142t-180 49z" />
<glyph unicode="9" d="M678 1257q-158 0 -257 -103.5t-99 -272.5q0 -244 299 -244q187 0 366 133q6 55 6 113q0 374 -315 374zM211 858q0 217 134.5 354.5t352.5 137.5q200 0 299 -124t99 -343q0 -418 -220 -660.5t-602 -242.5q-52 0 -108 6l12 98q68 -10 121 -10q124 0 236 38.5t202.5 111.5 t153 187.5t84.5 258.5q-97 -61 -195 -94t-219 -33q-153 0 -251.5 82t-98.5 233z" />
<glyph unicode=":" d="M479 39q0 36 23.5 60t62.5 24q31 0 50.5 -15.5t19.5 -44.5q0 -40 -25.5 -61.5t-62.5 -21.5q-68 0 -68 59zM571 799q0 36 23.5 60t62.5 24q31 0 50.5 -15.5t19.5 -44.5q0 -40 -25.5 -62t-62.5 -22q-68 0 -68 60z" />
<glyph unicode=";" d="M553 117h92q-43 -216 -178 -404l-70 21q127 208 156 383zM616 799q0 36 23.5 60t62.5 24q31 0 50.5 -15.5t19.5 -44.5q0 -40 -25.5 -62t-62.5 -22q-68 0 -68 60z" />
<glyph unicode="&#x3c;" d="M860 63l-594 490l8 72l713 475l43 -70l-661 -438l553 -457z" />
<glyph unicode="=" d="M1087 797h-878l10 86h879zM1034 367h-878l12 86h879z" />
<glyph unicode="&#x3e;" d="M973 553l-717 -490l-41 72l664 457l-555 438l59 70l598 -475z" />
<glyph unicode="?" d="M1055 1100q0 -68 -28.5 -126.5t-74 -101t-100.5 -80t-110 -71.5t-100.5 -68.5t-74 -78.5t-28.5 -93q0 -39 26 -106l-114 -29q-19 53 -19 107q0 66 28 122.5t73.5 97.5t100 79t109 74t100 73.5t73.5 87t28 105.5q0 82 -68.5 121.5t-185.5 39.5q-177 0 -309 -118l-47 84 q69 56 171.5 93.5t207.5 37.5q159 0 250.5 -67t91.5 -183zM416 39q0 36 23.5 60t62.5 24q31 0 50 -15t19 -45q0 -40 -25.5 -61.5t-62.5 -21.5q-67 0 -67 59z" />
<glyph unicode="@" d="M727 1120q-130 0 -243 -55.5t-198.5 -159.5t-134.5 -266.5t-49 -364.5q0 -121 25.5 -216t79 -167.5t144 -111.5t214.5 -39q238 0 494 156l31 -64q-269 -168 -547 -168q-261 0 -396 155.5t-135 450.5q0 282 91.5 493t254.5 322t375 111q134 0 230 -39.5t148.5 -110.5 t75.5 -154.5t23 -186.5q0 -105 -15 -213t-47 -215.5t-93 -175.5t-142 -68q-121 0 -141 110q-133 -110 -274 -110q-97 0 -156 52.5t-59 135.5q0 73 33.5 126t91 80.5t120 39.5t134.5 12q67 0 139 -10l18 139q4 32 4 45q0 81 -42 111.5t-117 30.5q-29 0 -57.5 -5.5t-61 -18.5 t-52.5 -42t-20 -70q0 -8 4 -28l-82 -8q-4 28 -4 43q0 92 82 147t201 55q42 0 79.5 -9t72.5 -29t56 -60t21 -96q0 -31 -2 -47l-49 -385l-6 -43q-5 -41 15.5 -70t62.5 -29q50 0 89.5 61.5t60.5 155.5t31.5 188.5t10.5 178.5q0 102 -20.5 179.5t-65 136.5t-121 89.5 t-182.5 30.5zM770 217l23 186q-63 13 -148 13q-53 0 -98.5 -8.5t-87 -28t-65 -57t-23.5 -89.5q0 -63 41 -96t114 -33q59 0 128 33.5t116 79.5z" />
<glyph unicode="A" d="M119 0h-103l646 1331h102l323 -1331h-110l-90 383h-586zM866 475l-172 735l-350 -735h522z" />
<glyph unicode="B" d="M573 0h-446l162 1331h424q181 0 265.5 -66t84.5 -200q0 -255 -236 -352v-4q254 -51 254 -289q0 -113 -39 -196t-110 -131t-160 -70.5t-199 -22.5zM635 643h-326l-67 -545h344q190 0 286.5 75.5t96.5 240.5q0 229 -334 229zM950 1042q0 97 -62.5 144t-193.5 47h-313 l-59 -498h294q146 0 240 85.5t94 221.5z" />
<glyph unicode="C" d="M1032 143l17 -94q-138 -69 -377 -69q-122 0 -220 31t-172 95t-114.5 169.5t-40.5 246.5q0 199 56 358t154.5 260.5t229.5 155.5t285 54q204 0 330 -68l-50 -111q-101 82 -288 82q-281 0 -442.5 -195t-161.5 -526q0 -226 113.5 -341t336.5 -115q96 0 195 20.5t149 46.5z " />
<glyph unicode="D" d="M88 0l162 1331h440q117 0 208 -30t147.5 -80t93 -120.5t51 -144t14.5 -157.5q0 -126 -18 -234.5t-65.5 -215t-122.5 -181.5t-197.5 -121.5t-282.5 -46.5h-430zM682 1233h-340l-139 -1135h344q94 0 171.5 21.5t133 58t98.5 90t69 111.5t43 128t23.5 135.5t6.5 137.5 q0 453 -410 453z" />
<glyph unicode="E" d="M291 1331h878l-12 -98h-774l-61 -500h700l-10 -96h-701l-67 -539h774l-10 -98h-879z" />
<glyph unicode="F" d="M291 1331h901l-12 -98h-797l-68 -551h723l-10 -96h-723l-72 -586h-104z" />
<glyph unicode="G" d="M1012 659h104l-67 -548q-69 -51 -179.5 -91t-224.5 -40q-89 0 -164 16t-142.5 54.5t-115 98.5t-75 152.5t-27.5 210.5q0 172 35.5 312t98.5 236.5t150.5 162.5t190 96.5t219.5 30.5q110 0 204 -24t142 -54l-51 -111q-50 41 -130.5 66.5t-164.5 25.5q-280 0 -431 -182 t-151 -551q0 -232 110 -338t319 -106q148 0 286 71z" />
<glyph unicode="H" d="M1075 1331h105l-162 -1331h-105l78 643h-721l-77 -643h-105l162 1331h104l-71 -592h721z" />
<glyph unicode="I" d="M121 0l10 98h381l137 1135h-379l13 98h880l-12 -98h-397l-138 -1135h396l-11 -98h-880z" />
<glyph unicode="J" d="M268 1233l13 98h759l-12 -98l-82 -682q-12 -108 -51 -197.5t-87 -149.5t-121.5 -107.5t-131.5 -73.5t-141.5 -47t-127.5 -28t-112 -16l-6 93q199 30 310 74q324 127 364 456l82 678h-656z" />
<glyph unicode="K" d="M283 1331h104l-78 -639l152 29l575 610h129l-630 -653l524 -678h-135l-488 623l-137 -21l-74 -602h-104z" />
<glyph unicode="L" d="M315 1331h105l-152 -1233h754l-10 -98h-858z" />
<glyph unicode="M" d="M985 0l145 1194l-462 -711h-103l-307 682l-141 -1165h-97l162 1331h109l340 -756l493 756h123l-162 -1331h-100z" />
<glyph unicode="N" d="M324 1174l-144 -1174h-100l162 1331h116l586 -1167l143 1167h101l-162 -1331h-111z" />
<glyph unicode="O" d="M719 1350q243 0 361 -141.5t118 -391.5q0 -244 -77.5 -432.5t-227 -296.5t-348.5 -108q-125 0 -218 39t-149.5 112t-84 170t-27.5 219q0 385 172 607.5t481 222.5zM553 76q110 0 199 37.5t150.5 104t103 160t60.5 202t19 233.5q0 440 -372 440q-535 0 -535 -743 q0 -101 19.5 -178t62.5 -136t116.5 -89.5t176.5 -30.5z" />
<glyph unicode="P" d="M133 0l162 1331h422q210 0 310.5 -90.5t100.5 -257.5q0 -235 -128 -358t-334 -123h-367l-61 -502h-105zM653 594q61 0 113 11t99 38t79.5 69t52 108t19.5 151q0 132 -72.5 197t-226.5 65h-330l-78 -639h344z" />
<glyph unicode="Q" d="M719 1350q243 0 361 -141.5t118 -391.5q0 -287 -109 -496t-303 -292l301 -361l-106 -74l-293 402q-72 -16 -143 -16q-125 0 -218 39t-149.5 112t-84 170t-27.5 219q0 385 172 607.5t481 222.5zM553 76q110 0 199 37.5t150.5 104t103 160t60.5 202t19 233.5 q0 440 -372 440q-535 0 -535 -743q0 -101 19.5 -178t62.5 -136t116.5 -89.5t176.5 -30.5z" />
<glyph unicode="R" d="M129 0l162 1331h385q213 0 313.5 -79.5t100.5 -241.5q0 -176 -82.5 -287t-229.5 -150l269 -573h-125l-256 553h-365l-68 -553h-104zM614 649q363 0 363 348q0 125 -73 180.5t-228 55.5h-293l-72 -584h303z" />
<glyph unicode="S" d="M924 360q0 57 -22.5 103t-60 77t-87 56.5t-103.5 46t-108 41.5t-103.5 48t-87 60t-60 82t-22.5 111q0 166 137.5 265.5t356.5 99.5q107 0 199.5 -26t142.5 -58l-49 -111q-123 98 -305 98q-169 0 -269 -65.5t-100 -188.5q0 -51 22.5 -90.5t60 -66.5t86.5 -49.5 t103.5 -42.5t108.5 -41.5t103 -50.5t86.5 -65.5t60 -91t22.5 -122.5q0 -99 -39 -176.5t-107 -125.5t-155.5 -72.5t-189.5 -24.5q-133 0 -239.5 34t-174.5 78l51 111q147 -131 379 -131q99 0 179 29.5t132 96.5t52 162z" />
<glyph unicode="T" d="M1251 1331l-12 -98h-483l-150 -1233h-104l149 1233h-485l12 98h1073z" />
<glyph unicode="U" d="M981 512l100 819h105l-101 -819q-8 -65 -18.5 -116t-29.5 -108.5t-45 -100.5t-66 -83.5t-91.5 -66.5t-123 -41.5t-158.5 -15.5q-88 0 -156 13t-114.5 39t-78.5 59.5t-48.5 79t-22.5 93.5t-4 107q2 33 10 118l103 842h104l-102 -839q-8 -70 -8 -99q-8 -167 65 -244 t264 -77q105 0 177.5 24.5t121 80t75.5 135.5t42 200z" />
<glyph unicode="V" d="M285 1331l303 -1204l561 1204h100l-628 -1331h-103l-340 1331h107z" />
<glyph unicode="W" d="M733 950l162 -819l305 1200h100l-360 -1331h-106l-170 850l-351 -850h-108l-76 1331h107l45 -1204l340 823h112z" />
<glyph unicode="X" d="M244 1331h114l291 -555l428 555h105l-490 -631l373 -700h-115l-323 618l-477 -618h-109l539 694z" />
<glyph unicode="Y" d="M330 1331l317 -721l459 721h102l-522 -815l-63 -516h-105l64 514l-363 817h111z" />
<glyph unicode="Z" d="M276 1233l13 98h889l-11 -86l-940 -1147h820l-11 -98h-948l8 78l944 1155h-764z" />
<glyph unicode="[" d="M319 -387l228 1839h368l-12 -86h-266l-205 -1671h266l-10 -82h-369z" />
<glyph unicode="\" d="M365 1403h92l440 -1534h-92z" />
<glyph unicode="]" d="M915 1452l-227 -1839h-369l11 82h268l205 1671h-268l12 86h368z" />
<glyph unicode="^" d="M702 1245l-397 -500h-104l467 588h92l325 -588h-116z" />
<glyph unicode="_" d="M-61 -188l12 92h1177l-12 -92h-1177z" />
<glyph unicode="`" d="M801 1133l-246 241l86 76l219 -268z" />
<glyph unicode="a" d="M805 203l26 231q-67 12 -186 12q-364 0 -364 -215q0 -80 53 -121.5t155 -41.5q82 0 169.5 39.5t146.5 95.5zM844 520l20 152q9 65 -6 112.5t-49.5 73t-77 37.5t-94.5 12q-36 0 -73.5 -6.5t-80.5 -23t-70.5 -52.5t-27.5 -86q0 -8 4 -32l-100 -11q-6 24 -6 49 q0 76 54.5 134.5t136 87t171.5 28.5q71 0 131 -17.5t107 -52t69.5 -94t12.5 -137.5l-66 -514q-5 -49 8.5 -83t53.5 -34q13 0 34 7l2 -82q-33 -8 -65 -8q-62 0 -96.5 34.5t-36.5 94.5q-157 -129 -350 -129q-120 0 -198.5 64.5t-78.5 170.5q0 75 28.5 131.5t74.5 91t114 56 t137 29t152 7.5q84 0 166 -10z" />
<glyph unicode="b" d="M416 1403l-64 -518q164 110 342 110q182 0 277.5 -112.5t95.5 -300.5q0 -180 -78 -318.5t-210 -211t-294 -72.5q-182 0 -338 69l168 1354h101zM340 795l-84 -682q96 -45 231 -45q209 0 341.5 139.5t132.5 372.5q0 160 -79 243.5t-206 83.5q-72 0 -163 -29t-173 -83z" />
<glyph unicode="c" d="M356 397q0 -155 87 -242t247 -87q89 0 165.5 30.5t121.5 65.5l20 -92q-154 -92 -342 -92q-182 0 -295.5 104.5t-113.5 298.5q0 122 31 224t84 172.5t124 120t151 72.5t165 23q167 0 301 -75l-43 -103q-39 26 -70 42.5t-87 32t-118 15.5q-108 0 -192.5 -45t-134.5 -119.5 t-75.5 -162.5t-25.5 -183z" />
<glyph unicode="d" d="M715 995q138 0 260 -49l57 457h101l-117 -952l-55 -451h-99l12 111q-85 -60 -181 -95.5t-187 -35.5q-169 0 -260.5 109.5t-91.5 289.5q0 279 156.5 447.5t404.5 168.5zM885 201l78 645q-96 61 -261 61q-197 0 -319.5 -141t-122.5 -377q0 -156 73 -238.5t197 -82.5 q83 0 176.5 35t178.5 98z" />
<glyph unicode="e" d="M330 408q0 -170 85 -255t247 -85q81 0 173 32.5t132 63.5l20 -92q-62 -37 -157 -64.5t-197 -27.5q-191 0 -301.5 103t-110.5 302q0 150 42.5 269t114.5 192t160.5 111t186.5 38q156 0 250 -90.5t94 -265.5q0 -43 -6 -92l-6 -60h-723q-4 -54 -4 -79zM344 569h621 q4 36 4 58q0 127 -65.5 203.5t-186.5 76.5q-134 0 -235.5 -87.5t-137.5 -250.5z" />
<glyph unicode="f" d="M98 0l11 88h292l97 793h-207l10 71l207 9l10 79q25 194 136.5 288.5t269.5 94.5q66 0 129 -13.5t96 -29.5l-39 -104q-78 59 -201 59q-253 0 -291 -293l-10 -81h383l-10 -80h-383l-96 -793h426l-10 -88h-820z" />
<glyph unicode="g" d="M1073 930l-112 -924q-14 -109 -48 -192t-80.5 -134.5t-109.5 -84.5t-129 -45.5t-145 -12.5q-182 0 -336 98l55 99q138 -107 307 -107q337 0 385 381l14 125q-81 -60 -176.5 -94.5t-187.5 -34.5q-166 0 -261 101t-95 278q0 276 157.5 444t407.5 168q198 0 354 -65z M887 225l78 641q-106 41 -256 41q-204 0 -325.5 -142.5t-121.5 -371.5q0 -154 75 -226.5t198 -72.5q179 0 352 131z" />
<glyph unicode="h" d="M367 784l-97 -784h-100l172 1403h100l-65 -531q95 60 194.5 91.5t173.5 31.5q152 0 233 -69.5t81 -204.5q0 -16 -4 -62l-80 -659h-101l76 618q4 27 4 76q0 107 -53 159t-178 52q-82 0 -177.5 -33t-178.5 -88z" />
<glyph unicode="i" d="M113 0l10 88h385l96 799h-383l10 88h486l-109 -887h396l-11 -88h-880zM639 1305q0 35 23.5 58t56.5 23q30 0 47.5 -18.5t17.5 -46.5q0 -34 -22.5 -57t-56.5 -23q-29 0 -47.5 16.5t-18.5 47.5z" />
<glyph unicode="j" d="M217 887l10 88h645l-114 -940q-12 -95 -44.5 -172t-75 -127.5t-102.5 -88t-115 -57.5t-125 -31.5t-120.5 -14.5t-112.5 -3l7 90q42 0 74.5 1t78.5 6t83 13.5t80 24.5t77 37.5t68 54t58.5 73.5t43 96.5t26.5 121.5l101 828h-543zM795 1305q0 35 23 58t56 23q30 0 48 -18.5 t18 -46.5q0 -34 -23 -57t-57 -23q-29 0 -47 16.5t-18 47.5z" />
<glyph unicode="k" d="M571 518l410 -518h-133l-361 459l-149 -19l-53 -440h-101l172 1403h101l-109 -879l139 21l435 430h114z" />
<glyph unicode="l" d="M98 0l11 88h403l150 1227h-390l13 88h489l-162 -1315h377l-10 -88h-881z" />
<glyph unicode="m" d="M258 772l-94 -772h-101l119 975h99l-15 -109q69 60 130.5 94.5t125.5 34.5q76 0 116.5 -33.5t51.5 -103.5q58 56 129 96.5t142 40.5q55 0 91.5 -17t53.5 -48.5t23 -65.5t4 -78q0 -39 -7 -86l-84 -700h-100l80 659q9 80 10 101q3 73 -15 110t-73 37q-110 0 -250 -137 l-6 -70l-84 -700h-100l80 659q10 102 10 115q2 66 -17 99.5t-71 33.5t-119 -36.5t-129 -98.5z" />
<glyph unicode="n" d="M367 784l-97 -784h-100l119 975h98l-12 -103q87 59 188.5 91t177.5 32q156 0 237 -68t81 -204q0 -18 -4 -64l-80 -659h-101l76 618q6 40 6 76q0 108 -55.5 160.5t-177.5 52.5q-81 0 -176.5 -33.5t-179.5 -89.5z" />
<glyph unicode="o" d="M668 995q194 0 306.5 -107.5t112.5 -312.5q0 -123 -38 -231.5t-106 -189t-169.5 -127.5t-222.5 -47q-189 0 -300.5 109t-111.5 310q0 169 61.5 303t183 213.5t284.5 79.5zM246 406q0 -159 78 -248.5t235 -89.5q199 0 310.5 135t111.5 362q0 159 -80.5 250.5t-238.5 91.5 q-106 0 -188 -41t-130.5 -112t-73 -159t-24.5 -189z" />
<glyph unicode="p" d="M492 -20q-116 0 -246 45l-60 -476h-100l121 975l55 451h98l-14 -111q84 60 177 95.5t177 35.5q176 0 271.5 -109.5t95.5 -293.5q0 -182 -74 -322t-204.5 -215t-296.5 -75zM338 774l-31 -250l-49 -399q92 -57 244 -57q205 0 332 140.5t127 375.5q0 155 -78 239t-203 84 q-73 0 -167 -36t-175 -97z" />
<glyph unicode="q" d="M803 -451l69 560q-85 -59 -177.5 -94t-174.5 -35q-176 0 -270 109t-94 294q0 182 73.5 322t202.5 215t291 75q190 0 350 -75l-112 -920h-3l-55 -451h-100zM545 70q160 0 338 129l32 254l7 49l43 354q-102 51 -248 51q-202 0 -328.5 -137.5t-126.5 -368.5 q0 -158 78.5 -244.5t204.5 -86.5z" />
<glyph unicode="r" d="M37 0l10 88h359l96 799h-326l10 88h426l-10 -88h-2l-10 -96q81 86 189 141t208 55q17 0 45 -4l-20 -102q-21 8 -58 8q-88 0 -196 -58.5t-176 -128.5l-76 -614h442l-10 -88h-901z" />
<glyph unicode="s" d="M860 262q0 55 -31.5 94t-82 61.5t-111.5 40.5t-121.5 37.5t-111 45t-82 70t-31.5 106.5q0 75 37 131.5t98.5 87t128.5 45t139 14.5q89 0 177.5 -18t140.5 -49l-41 -103q-106 82 -285 82q-54 0 -103 -8.5t-94.5 -27t-72.5 -54.5t-27 -86q0 -43 32 -74.5t82.5 -51.5 t112 -37.5t123 -39t112 -51t82.5 -79.5t32 -117q0 -79 -37.5 -139t-101.5 -94t-139 -51t-159 -17q-209 0 -346 83l47 101q135 -96 318 -96q54 0 106 9.5t100.5 30.5t78.5 61t30 93z" />
<glyph unicode="t" d="M535 881l-72 -584q-14 -114 30 -170.5t158 -56.5q123 0 238 77l20 -92q-135 -75 -284 -75q-267 0 -267 247q0 18 4 64l72 590h-231l10 75l233 7l48 268h84l-33 -270h432l-10 -80h-432z" />
<glyph unicode="u" d="M854 188l96 787h101l-119 -975h-98l12 100q-88 -59 -188.5 -89.5t-176.5 -30.5q-157 0 -237.5 68.5t-79.5 205.5q0 19 4 59l82 662h100l-76 -621q-4 -40 -4 -57q-4 -122 53 -175.5t181 -53.5q165 0 350 120z" />
<glyph unicode="v" d="M610 0h-123l-262 975h103l235 -893l457 893h98z" />
<glyph unicode="w" d="M315 0h-122l-91 975h103l65 -891l342 768h99l157 -768l281 891h98l-334 -975h-122l-150 733z" />
<glyph unicode="x" d="M627 588l317 387h98l-374 -455l297 -520h-109l-252 446l-364 -446h-101l424 514l-260 461h107z" />
<glyph unicode="y" d="M1118 975l-749 -1426h-93l230 443l-281 983h101l249 -866l447 866h96z" />
<glyph unicode="z" d="M264 88h699l-11 -88h-835l6 59l754 826h-619l10 90h762l-8 -60z" />
<glyph unicode="{" d="M702 -397q-79 0 -129.5 15.5t-75 48t-32.5 67.5t-8 88q0 28 8 98l51 426q9 73 -25 106.5t-112 41.5q-5 0 -18 1t-19 1l10 77q31 0 45 2q150 13 166 148l51 426q5 44 9.5 72t15 65t24 60t37 48t54 39.5t75.5 23.5t101 9h71l-8 -71h-51q-37 0 -66 -3t-51.5 -11.5t-38 -17 t-27.5 -26.5t-19 -32.5t-12.5 -43.5t-8.5 -50t-8 -60l-39 -309q-19 -141 -57.5 -213t-122.5 -94q61 -17 86.5 -63.5t25.5 -129.5q0 -29 -8 -115l-37 -309q-10 -75 -10 -115q0 -70 38.5 -99.5t143.5 -29.5h51l-8 -71h-72z" />
<glyph unicode="|" d="M676 1403h96l-172 -1403h-96z" />
<glyph unicode="}" d="M305 -397h-72l9 71h51q42 0 73.5 5t54.5 13t39.5 24.5t27 32.5t18 45.5t11.5 55t9 68.5l37 309q16 138 57 214t125 98q-61 17 -87.5 63.5t-26.5 128.5q0 56 8 111l39 309q8 57 8 111q0 72 -38 102.5t-144 30.5h-51l8 71h71q78 0 128.5 -15.5t75.5 -48t33.5 -68t8.5 -87.5 q0 -28 -8 -98l-51 -426q-10 -73 24 -105.5t99 -39.5q40 -5 51 -5l-10 -77q-29 0 -41 -2q-154 -13 -170 -148l-51 -426q-5 -44 -9.5 -71.5t-14.5 -65t-23.5 -60.5t-37 -48.5t-54.5 -39t-75.5 -23t-101.5 -9.5z" />
<glyph unicode="~" d="M834 467q-47 0 -94 20t-88 48.5t-82.5 57.5t-93 49t-103.5 20q-107 0 -236 -166l-61 49q84 112 160.5 157.5t156.5 45.5q56 0 111.5 -19.5t101 -48t88 -56.5t87 -47.5t83.5 -19.5q119 0 250 197l64 -54q-90 -129 -169 -181t-175 -52z" />
<glyph unicode="&#xa0;" />
<glyph unicode="&#xa1;" d="M678 -434h-105l58 469l71 491h76l-43 -491zM856 858q0 -36 -23.5 -60t-62.5 -24q-31 0 -50.5 15.5t-19.5 44.5q0 40 25.5 62t62.5 22q68 0 68 -60z" />
<glyph unicode="&#xa2;" d="M717 1159h86l-21 -164q138 -3 240 -53l-41 -102q-98 62 -209 65l-102 -837h2q63 0 122.5 22.5t98.5 52.5l20 -92q-107 -65 -256 -71l-14 -125h-86l14 129q-155 17 -240 120t-85 275q0 136 36.5 247.5t100 185t143 118.5t170.5 59zM354 397q0 -131 58 -214.5t172 -106.5 l100 821q-85 -15 -150.5 -66t-103.5 -123t-57 -151t-19 -160z" />
<glyph unicode="&#xa3;" d="M313 623h-184l10 79h185l22 177q16 127 59 220.5t107 147t139.5 78.5t165.5 25q190 0 301 -123l-82 -80q-89 113 -237 113q-303 0 -348 -377l-23 -181h508l-10 -79h-506l-19 -154q-16 -131 -63 -218.5t-152 -152.5h566q115 0 179.5 31.5t112.5 91.5l54 -76 q-38 -55 -116.5 -100t-170.5 -45h-788l8 80q67 10 123.5 56.5t89.5 110.5t41 132z" />
<glyph unicode="&#xa4;" d="M141 61l-49 41l254 232q-47 68 -47 158q0 139 94 239l-196 232l57 55l201 -234q96 66 198 66q106 0 187 -68l262 236l41 -55l-260 -234q49 -64 49 -158q0 -130 -96 -233l202 -236l-61 -41l-197 226q-95 -68 -202 -68q-111 0 -187 66zM586 295q102 0 179 81t77 193 q0 92 -54.5 146.5t-142.5 54.5q-105 0 -179.5 -75.5t-74.5 -196.5q0 -89 54.5 -146t140.5 -57z" />
<glyph unicode="&#xa5;" d="M330 1331l317 -721l459 721h102l-473 -735h307l-10 -80h-346l-29 -227h349l-11 -80h-348l-24 -209h-105l25 209h-344l10 80h344l29 225l-2 2h-344l10 80h299l-326 735h111z" />
<glyph unicode="&#xa6;" d="M676 1403h98l-69 -559h-99zM578 602h98l-74 -602h-98z" />
<glyph unicode="&#xa7;" d="M530 -109q0 79 -38.5 215.5t-85 261t-85 261t-38.5 215.5q0 99 47.5 185t121.5 144t166 99.5t179.5 60.5t163.5 19q150 0 251 -35l-22 -127q-135 92 -246 92q-100 0 -160.5 -64.5t-60.5 -164.5q0 -72 38 -212.5t83 -273.5t83 -274t38 -215q0 -83 -39 -157.5t-103.5 -129 t-144 -98t-164 -70.5t-161 -41t-136.5 -14q-123 0 -215 22l23 125q35 -27 87.5 -46t104.5 -19q85 0 153 23t114 79t46 139zM870 72q0 80 -36.5 212.5t-80 253t-80 259.5t-36.5 229q0 127 84 215q-166 -58 -253 -158t-87 -211q0 -83 38 -217t84 -253t84 -254t38 -220 q0 -130 -72 -207q70 27 123 57.5t99 72.5t70.5 98t24.5 123z" />
<glyph unicode="&#xa8;" d="M463 1280q0 33 23.5 57.5t58.5 24.5q29 0 47 -19t18 -47q0 -33 -24.5 -56t-57.5 -23q-28 0 -46.5 18.5t-18.5 44.5zM807 1280q0 33 23.5 57.5t58.5 24.5q29 0 47 -19t18 -47q0 -33 -24.5 -56t-57.5 -23q-28 0 -46.5 18.5t-18.5 44.5z" />
<glyph unicode="&#xa9;" d="M553 -14q-157 0 -278 73.5t-186.5 202.5t-65.5 291q0 150 52 287t141.5 238t216 160.5t267.5 59.5q243 0 392 -160t149 -409q0 -149 -52 -285t-142 -237t-219 -161t-275 -60zM557 55q166 0 304 87.5t217 240.5t79 338q0 141 -54.5 255.5t-160.5 182.5t-246 68 q-163 0 -298.5 -87t-214.5 -242t-79 -345q0 -220 124 -359t329 -139zM621 229q-178 0 -280.5 83t-102.5 253q0 118 38 213t104.5 155t153.5 92t187 32q66 0 127.5 -12.5t93.5 -28.5l-35 -78q-31 24 -86.5 37.5t-111.5 13.5q-176 0 -279.5 -111.5t-103.5 -297.5 q0 -141 79 -212t226 -71q66 0 129 13.5t94 29.5l12 -70q-100 -41 -245 -41z" />
<glyph unicode="&#xaa;" d="M516 537q-104 0 -168.5 49t-64.5 129q0 61 23.5 108.5t62 77t93.5 48.5t111 26.5t121 7.5q82 0 144 -10l16 119q2 16 2 36q0 71 -45.5 106.5t-124.5 35.5q-31 0 -62.5 -6t-64.5 -18.5t-53.5 -37.5t-20.5 -59q0 -7 4 -31l-90 -8q-6 18 -6 39q0 92 87.5 146.5t211.5 54.5 q48 0 91.5 -9.5t83.5 -31t63.5 -62t23.5 -96.5q0 -23 -2 -41l-51 -387l-4 -27q-5 -37 4.5 -64.5t40.5 -27.5q13 0 33 4l2 -65q-30 -6 -66 -6q-103 0 -110 102q-137 -102 -285 -102zM547 614q63 0 136.5 29.5t121.5 71.5l22 182q-72 14 -161 14q-55 0 -102.5 -9t-88.5 -29 t-64.5 -55.5t-23.5 -84.5q0 -119 160 -119z" />
<glyph unicode="&#xab;" d="M242 479l305 473h100l-295 -465l178 -481h-100zM631 479l305 473h100l-295 -465l179 -481h-101z" />
<glyph unicode="&#xac;" d="M1006 127l55 444h-987l10 86h1077l-65 -530h-90z" />
<glyph unicode="&#xad;" d="M862 481h-504l13 99h503z" />
<glyph unicode="&#xae;" d="M596 344q-185 0 -311.5 130t-126.5 317q0 113 43 216t116 178.5t175 120t215 44.5q188 0 316 -130t128 -317q0 -112 -44 -215.5t-118.5 -178.5t-177.5 -120t-215 -45zM604 406q127 0 235.5 62.5t174 176.5t65.5 254q0 163 -108 275t-271 112q-197 0 -334 -140.5 t-137 -357.5q0 -168 106.5 -275t268.5 -107zM428 514l84 684h184q110 0 159.5 -43t49.5 -129q0 -101 -48 -164t-130 -82l117 -266h-78l-111 258h-127l-32 -258h-68zM535 829h118q83 0 130.5 43.5t47.5 149.5q0 63 -33.5 89t-109.5 26h-115z" />
<glyph unicode="&#xaf;" d="M465 1237l10 88h479l-10 -88h-479z" />
<glyph unicode="&#xb0;" d="M653 805q-121 0 -189.5 64t-68.5 171q0 135 92.5 222.5t231.5 87.5q117 0 184.5 -63.5t67.5 -168.5q0 -141 -88.5 -227t-229.5 -86zM662 874q102 0 162.5 65.5t60.5 166.5q0 75 -46.5 123.5t-127.5 48.5q-104 0 -168 -64t-64 -161q0 -77 49.5 -128t133.5 -51z" />
<glyph unicode="&#xb1;" d="M535 240l40 331h-368l10 86h369l41 336h92l-41 -336h371l-11 -86h-370l-41 -331h-92zM139 20l11 86h831l-10 -86h-832z" />
<glyph unicode="&#xb4;" d="M885 1374l-307 -241l-48 49l285 268z" />
<glyph unicode="&#xb5;" d="M854 188l96 787h101l-119 -975h-98l12 100q-183 -123 -340 -123q-163 0 -242 91q2 -13 -3 -105.5t-11 -136.5l-35 -277h-100l176 1426h100l-76 -621q-6 -43 -6 -80q0 -113 53.5 -159.5t163.5 -46.5q143 0 328 120z" />
<glyph unicode="&#xb6;" d="M862 1331l-219 -1782h-102l102 820q-187 43 -296 160t-109 280q0 81 23.5 156.5t73.5 142t122 116t176 78.5t229 29zM809 -451l219 1782h102l-219 -1782h-102z" />
<glyph unicode="&#xb7;" d="M545 588q0 36 24.5 59t63.5 23q30 0 48.5 -15t18.5 -43q0 -44 -24.5 -65t-61.5 -21q-69 0 -69 62z" />
<glyph unicode="&#xb8;" d="M303 -412l51 90q18 -23 57 -40t81 -17q61 0 93.5 27t32.5 67q0 45 -45.5 75t-132.5 34l88 205h84l-61 -150q81 -11 122.5 -56.5t41.5 -101.5q0 -74 -63 -129t-175 -55q-53 0 -99.5 15t-74.5 36z" />
<glyph unicode="&#xba;" d="M621 537q-168 0 -256.5 87t-88.5 248q0 213 118.5 345.5t316.5 132.5q170 0 258 -87t88 -247q0 -93 -27.5 -177.5t-79.5 -152.5t-137 -108.5t-192 -40.5zM627 618q88 0 152.5 31t101.5 87t54 125t17 153q0 256 -245 256q-89 0 -154.5 -33t-102.5 -90.5t-54 -127 t-17 -151.5q0 -250 248 -250z" />
<glyph unicode="&#xbb;" d="M401 952l187 -473l-303 -473h-101l297 481l-180 465h100zM791 952l186 -473l-303 -473h-101l297 481l-180 465h101z" />
<glyph unicode="&#xbf;" d="M283 -201q0 68 28.5 126.5t74 101t100.5 80t110 71.5t100.5 68.5t74 78.5t28.5 93q0 37 -27 106l115 29q18 -50 18 -107q0 -66 -28 -122.5t-73.5 -97.5t-100 -79t-109 -74t-100 -73.5t-73.5 -87t-28 -105.5q0 -82 68.5 -121.5t185.5 -39.5q177 0 309 118l48 -83 q-69 -56 -171.5 -94t-207.5 -38q-159 0 -250.5 67t-91.5 183zM922 860q0 -36 -23.5 -60t-62.5 -24q-31 0 -50.5 15.5t-19.5 44.5q0 40 25.5 62t62.5 22q68 0 68 -60z" />
<glyph unicode="&#xc0;" d="M119 0h-103l646 1331h102l323 -1331h-110l-90 383h-586zM866 475l-172 735l-350 -735h522zM784 1440l-307 178l74 94l280 -215z" />
<glyph unicode="&#xc1;" d="M119 0h-103l646 1331h102l323 -1331h-110l-90 383h-586zM866 475l-172 735l-350 -735h522zM1016 1618l-348 -178l-35 57l334 215z" />
<glyph unicode="&#xc2;" d="M119 0h-103l646 1331h102l323 -1331h-110l-90 383h-586zM866 475l-172 735l-350 -735h522zM807 1720l215 -198l-68 -68l-198 180l-236 -180l-49 66l266 200h70z" />
<glyph unicode="&#xc3;" d="M119 0h-103l646 1331h102l323 -1331h-110l-90 383h-586zM866 475l-172 735l-350 -735h522zM465 1503l-39 47q114 111 199 111q60 0 136 -31t113 -31q85 0 146 66l35 -45q-96 -107 -193 -107q-45 0 -125 31t-119 31q-88 0 -153 -72z" />
<glyph unicode="&#xc4;" d="M119 0h-103l646 1331h102l323 -1331h-110l-90 383h-586zM866 475l-172 735l-350 -735h522zM494 1575q0 33 23.5 57.5t57.5 24.5q29 0 47.5 -19t18.5 -47q0 -33 -24.5 -56.5t-57.5 -23.5q-27 0 -46 18.5t-19 45.5zM838 1575q0 33 23.5 57.5t58.5 24.5q29 0 47 -19t18 -47 q0 -33 -24.5 -56.5t-57.5 -23.5q-27 0 -46 18.5t-19 45.5z" />
<glyph unicode="&#xc5;" d="M119 0h-103l646 1331h102l323 -1331h-110l-90 383h-586zM866 475l-172 735l-350 -735h522zM725 1407q-80 0 -131 47.5t-51 122.5q0 96 66.5 156.5t162.5 60.5q83 0 132.5 -45.5t49.5 -122.5q0 -91 -66 -155t-163 -64zM731 1470q68 0 104.5 39.5t36.5 112.5 q0 111 -108 111q-67 0 -105 -40.5t-38 -111.5q0 -53 29 -82t81 -29z" />
<glyph unicode="&#xc6;" d="M1300 1331l-12 -98h-467l-61 -500h393l-10 -96h-393l-68 -539h467l-10 -98h-572l45 383h-348l-213 -383h-102l747 1331h604zM315 475h310l86 711z" />
<glyph unicode="&#xc7;" d="M401 -412l52 90q18 -23 56.5 -40t80.5 -17q61 0 94 27t33 67q0 45 -45.5 75t-132.5 34l67 160q-223 14 -352 147t-129 391q0 199 56 358t154.5 260.5t229.5 155.5t285 54q204 0 330 -68l-50 -111q-101 82 -288 82q-281 0 -442.5 -195t-161.5 -526q0 -226 113.5 -341 t336.5 -115q96 0 195 20.5t149 46.5l17 -94q-131 -66 -359 -69l-41 -101q81 -11 122.5 -56.5t41.5 -101.5q0 -74 -63 -129t-175 -55q-53 0 -99.5 15t-74.5 36z" />
<glyph unicode="&#xc8;" d="M291 1331h878l-12 -98h-774l-61 -500h700l-10 -96h-701l-67 -539h774l-10 -98h-879zM834 1440l-308 178l74 94l281 -215z" />
<glyph unicode="&#xc9;" d="M291 1331h878l-12 -98h-774l-61 -500h700l-10 -96h-701l-67 -539h774l-10 -98h-879zM1008 1618l-349 -178l-34 57l333 215z" />
<glyph unicode="&#xca;" d="M291 1331h878l-12 -98h-774l-61 -500h700l-10 -96h-701l-67 -539h774l-10 -98h-879zM836 1720l215 -198l-68 -68l-199 180l-235 -180l-49 66l266 200h70z" />
<glyph unicode="&#xcb;" d="M291 1331h878l-12 -98h-774l-61 -500h700l-10 -96h-701l-67 -539h774l-10 -98h-879zM535 1575q0 33 23.5 57.5t57.5 24.5q29 0 47.5 -19t18.5 -47q0 -33 -24.5 -56.5t-57.5 -23.5q-28 0 -46.5 18.5t-18.5 45.5zM879 1575q0 33 23.5 57.5t58.5 24.5q29 0 47 -19t18 -47 q0 -33 -24.5 -56.5t-57.5 -23.5q-28 0 -46.5 18.5t-18.5 45.5z" />
<glyph unicode="&#xcc;" d="M121 0l10 98h381l137 1135h-379l13 98h880l-12 -98h-397l-138 -1135h396l-11 -98h-880zM786 1440l-307 178l74 94l281 -215z" />
<glyph unicode="&#xcd;" d="M121 0l10 98h381l137 1135h-379l13 98h880l-12 -98h-397l-138 -1135h396l-11 -98h-880zM985 1618l-348 -178l-35 57l334 215z" />
<glyph unicode="&#xce;" d="M121 0l10 98h381l137 1135h-379l13 98h880l-12 -98h-397l-138 -1135h396l-11 -98h-880zM799 1720l215 -198l-68 -68l-198 180l-236 -180l-49 66l266 200h70z" />
<glyph unicode="&#xcf;" d="M121 0l10 98h381l137 1135h-379l13 98h880l-12 -98h-397l-138 -1135h396l-11 -98h-880zM842 1575q0 33 23.5 57.5t58.5 24.5q29 0 47 -19t18 -47q0 -33 -24.5 -56.5t-57.5 -23.5q-27 0 -46 18.5t-19 45.5zM498 1575q0 33 23.5 57.5t58.5 24.5q29 0 47 -19t18 -47 q0 -33 -24.5 -56.5t-57.5 -23.5q-27 0 -46 18.5t-19 45.5z" />
<glyph unicode="&#xd0;" d="M88 0l78 637h-154l11 86h153l74 608h440q117 0 208 -30t147.5 -80t93 -120.5t51 -144t14.5 -157.5q0 -126 -18 -234.5t-65.5 -215t-122.5 -181.5t-197.5 -121.5t-282.5 -46.5h-430zM682 1233h-340l-63 -510h284l-10 -86h-285l-65 -539h344q94 0 171.5 21.5t133 58 t98.5 90t69 111.5t43 128t23.5 135.5t6.5 137.5q0 453 -410 453z" />
<glyph unicode="&#xd1;" d="M324 1174l-144 -1174h-100l162 1331h116l586 -1167l143 1167h101l-162 -1331h-111zM508 1503l-39 47q114 111 199 111q60 0 136.5 -31t113.5 -31q84 0 145 66l35 -45q-96 -107 -193 -107q-45 0 -124.5 31t-118.5 31q-89 0 -154 -72z" />
<glyph unicode="&#xd2;" d="M719 1350q243 0 361 -141.5t118 -391.5q0 -244 -77.5 -432.5t-227 -296.5t-348.5 -108q-125 0 -218 39t-149.5 112t-84 170t-27.5 219q0 385 172 607.5t481 222.5zM553 76q110 0 199 37.5t150.5 104t103 160t60.5 202t19 233.5q0 440 -372 440q-535 0 -535 -743 q0 -101 19.5 -178t62.5 -136t116.5 -89.5t176.5 -30.5zM791 1440l-308 178l74 94l281 -215z" />
<glyph unicode="&#xd3;" d="M719 1350q243 0 361 -141.5t118 -391.5q0 -244 -77.5 -432.5t-227 -296.5t-348.5 -108q-125 0 -218 39t-149.5 112t-84 170t-27.5 219q0 385 172 607.5t481 222.5zM553 76q110 0 199 37.5t150.5 104t103 160t60.5 202t19 233.5q0 440 -372 440q-535 0 -535 -743 q0 -101 19.5 -178t62.5 -136t116.5 -89.5t176.5 -30.5zM985 1618l-348 -178l-35 57l334 215z" />
<glyph unicode="&#xd4;" d="M719 1350q243 0 361 -141.5t118 -391.5q0 -244 -77.5 -432.5t-227 -296.5t-348.5 -108q-125 0 -218 39t-149.5 112t-84 170t-27.5 219q0 385 172 607.5t481 222.5zM553 76q110 0 199 37.5t150.5 104t103 160t60.5 202t19 233.5q0 440 -372 440q-535 0 -535 -743 q0 -101 19.5 -178t62.5 -136t116.5 -89.5t176.5 -30.5zM815 1720l215 -198l-67 -68l-199 180l-236 -180l-49 66l266 200h70z" />
<glyph unicode="&#xd5;" d="M719 1350q243 0 361 -141.5t118 -391.5q0 -244 -77.5 -432.5t-227 -296.5t-348.5 -108q-125 0 -218 39t-149.5 112t-84 170t-27.5 219q0 385 172 607.5t481 222.5zM553 76q110 0 199 37.5t150.5 104t103 160t60.5 202t19 233.5q0 440 -372 440q-535 0 -535 -743 q0 -101 19.5 -178t62.5 -136t116.5 -89.5t176.5 -30.5zM479 1503l-39 47q114 111 199 111q60 0 136.5 -31t113.5 -31q84 0 145 66l35 -45q-96 -107 -192 -107q-45 0 -125 31t-119 31q-89 0 -154 -72z" />
<glyph unicode="&#xd6;" d="M719 1350q243 0 361 -141.5t118 -391.5q0 -244 -77.5 -432.5t-227 -296.5t-348.5 -108q-125 0 -218 39t-149.5 112t-84 170t-27.5 219q0 385 172 607.5t481 222.5zM553 76q110 0 199 37.5t150.5 104t103 160t60.5 202t19 233.5q0 440 -372 440q-535 0 -535 -743 q0 -101 19.5 -178t62.5 -136t116.5 -89.5t176.5 -30.5zM496 1575q0 33 23.5 57.5t58.5 24.5q29 0 47 -19t18 -47q0 -33 -24.5 -56.5t-57.5 -23.5q-27 0 -46 18.5t-19 45.5zM840 1575q0 33 23.5 57.5t58.5 24.5q29 0 47 -19t18 -47q0 -33 -24.5 -56.5t-57.5 -23.5 q-27 0 -46 18.5t-19 45.5z" />
<glyph unicode="&#xd7;" d="M852 289l-238 246l-290 -244l-58 55l295 244l-233 241l71 58l232 -240l293 244l55 -59l-293 -238l236 -250z" />
<glyph unicode="&#xd8;" d="M719 1350q237 0 362 -144l117 125h100l-174 -186q74 -128 74 -328q0 -244 -77.5 -432.5t-227 -296.5t-348.5 -108q-242 0 -365 145l-117 -125h-96l172 186q-73 126 -73 334q0 385 172 607.5t481 222.5zM178 510q0 -142 39 -240l789 854q-92 129 -293 129 q-535 0 -535 -743zM553 76q110 0 199 37.5t150.5 104t103 160t60.5 202t19 233.5q0 143 -43 244l-790 -852q93 -129 301 -129z" />
<glyph unicode="&#xd9;" d="M981 512l100 819h105l-101 -819q-8 -65 -18.5 -116t-29.5 -108.5t-45 -100.5t-66 -83.5t-91.5 -66.5t-123 -41.5t-158.5 -15.5q-88 0 -156 13t-114.5 39t-78.5 59.5t-48.5 79t-22.5 93.5t-4 107q2 33 10 118l103 842h104l-102 -839q-8 -70 -8 -99q-8 -167 65 -244 t264 -77q105 0 177.5 24.5t121 80t75.5 135.5t42 200zM817 1440l-307 178l74 94l280 -215z" />
<glyph unicode="&#xda;" d="M981 512l100 819h105l-101 -819q-8 -65 -18.5 -116t-29.5 -108.5t-45 -100.5t-66 -83.5t-91.5 -66.5t-123 -41.5t-158.5 -15.5q-88 0 -156 13t-114.5 39t-78.5 59.5t-48.5 79t-22.5 93.5t-4 107q2 33 10 118l103 842h104l-102 -839q-8 -70 -8 -99q-8 -167 65 -244 t264 -77q105 0 177.5 24.5t121 80t75.5 135.5t42 200zM989 1618l-348 -178l-35 57l334 215z" />
<glyph unicode="&#xdb;" d="M981 512l100 819h105l-101 -819q-8 -65 -18.5 -116t-29.5 -108.5t-45 -100.5t-66 -83.5t-91.5 -66.5t-123 -41.5t-158.5 -15.5q-88 0 -156 13t-114.5 39t-78.5 59.5t-48.5 79t-22.5 93.5t-4 107q2 33 10 118l103 842h104l-102 -839q-8 -70 -8 -99q-8 -167 65 -244 t264 -77q105 0 177.5 24.5t121 80t75.5 135.5t42 200zM803 1720l215 -198l-68 -68l-198 180l-236 -180l-49 66l266 200h70z" />
<glyph unicode="&#xdc;" d="M981 512l100 819h105l-101 -819q-8 -65 -18.5 -116t-29.5 -108.5t-45 -100.5t-66 -83.5t-91.5 -66.5t-123 -41.5t-158.5 -15.5q-88 0 -156 13t-114.5 39t-78.5 59.5t-48.5 79t-22.5 93.5t-4 107q2 33 10 118l103 842h104l-102 -839q-8 -70 -8 -99q-8 -167 65 -244 t264 -77q105 0 177.5 24.5t121 80t75.5 135.5t42 200zM502 1575q0 33 23.5 57.5t58.5 24.5q29 0 47 -19t18 -47q0 -33 -24.5 -56.5t-57.5 -23.5q-27 0 -46 18.5t-19 45.5zM846 1575q0 33 23.5 57.5t58.5 24.5q29 0 47 -19t18 -47q0 -33 -24.5 -56.5t-57.5 -23.5 q-27 0 -46 18.5t-19 45.5z" />
<glyph unicode="&#xdd;" d="M330 1331l317 -721l459 721h102l-522 -815l-63 -516h-105l64 514l-363 817h111zM1001 1618l-348 -178l-35 57l334 215z" />
<glyph unicode="&#xde;" d="M315 1331h105l-25 -198h244q209 0 307 -85t98 -251q0 -157 -65 -271t-171 -168.5t-239 -54.5h-274l-37 -303h-104zM567 395q76 0 139.5 21t115.5 65.5t81 122t29 182.5q0 130 -69.5 189t-225.5 59h-252l-80 -639h262z" />
<glyph unicode="&#xdf;" d="M707 702q0 -39 32 -71t80 -52.5t104 -47.5t104 -55t80 -77t32 -112q0 -86 -34.5 -148.5t-92 -95.5t-119.5 -48t-131 -15q-159 0 -283 83l47 101q33 -35 98 -65.5t144 -30.5q120 0 194 48t74 152q0 61 -44 104t-106.5 69.5t-125 54t-106.5 73.5t-44 111q0 50 18.5 95 t48.5 78.5t66 64t72 59t66 57t48.5 63t18.5 72.5q0 76 -55.5 121t-171.5 45q-135 0 -224.5 -86.5t-109.5 -249.5l-121 -999h-100l106 881h-166l11 71l166 9l4 36q13 107 55 190t103.5 133.5t134.5 76.5t155 26q151 0 232.5 -64t81.5 -179q0 -62 -35 -117t-85.5 -96.5 t-101 -81.5t-85.5 -87t-35 -96z" />
<glyph unicode="&#xe0;" d="M805 203l26 231q-67 12 -186 12q-364 0 -364 -215q0 -80 53 -121.5t155 -41.5q82 0 169.5 39.5t146.5 95.5zM844 520l20 152q9 65 -6 112.5t-49.5 73t-77 37.5t-94.5 12q-36 0 -73.5 -6.5t-80.5 -23t-70.5 -52.5t-27.5 -86q0 -8 4 -32l-100 -11q-6 24 -6 49 q0 76 54.5 134.5t136 87t171.5 28.5q71 0 131 -17.5t107 -52t69.5 -94t12.5 -137.5l-66 -514q-5 -49 8.5 -83t53.5 -34q13 0 34 7l2 -82q-33 -8 -65 -8q-62 0 -96.5 34.5t-36.5 94.5q-157 -129 -350 -129q-120 0 -198.5 64.5t-78.5 170.5q0 75 28.5 131.5t74.5 91t114 56 t137 29t152 7.5q84 0 166 -10zM690 1133l-246 241l86 76l220 -268z" />
<glyph unicode="&#xe1;" d="M805 203l26 231q-67 12 -186 12q-364 0 -364 -215q0 -80 53 -121.5t155 -41.5q82 0 169.5 39.5t146.5 95.5zM844 520l20 152q9 65 -6 112.5t-49.5 73t-77 37.5t-94.5 12q-36 0 -73.5 -6.5t-80.5 -23t-70.5 -52.5t-27.5 -86q0 -8 4 -32l-100 -11q-6 24 -6 49 q0 76 54.5 134.5t136 87t171.5 28.5q71 0 131 -17.5t107 -52t69.5 -94t12.5 -137.5l-66 -514q-5 -49 8.5 -83t53.5 -34q13 0 34 7l2 -82q-33 -8 -65 -8q-62 0 -96.5 34.5t-36.5 94.5q-157 -129 -350 -129q-120 0 -198.5 64.5t-78.5 170.5q0 75 28.5 131.5t74.5 91t114 56 t137 29t152 7.5q84 0 166 -10zM938 1374l-307 -241l-47 49l284 268z" />
<glyph unicode="&#xe2;" d="M805 203l26 231q-67 12 -186 12q-364 0 -364 -215q0 -80 53 -121.5t155 -41.5q82 0 169.5 39.5t146.5 95.5zM844 520l20 152q9 65 -6 112.5t-49.5 73t-77 37.5t-94.5 12q-36 0 -73.5 -6.5t-80.5 -23t-70.5 -52.5t-27.5 -86q0 -8 4 -32l-100 -11q-6 24 -6 49 q0 76 54.5 134.5t136 87t171.5 28.5q71 0 131 -17.5t107 -52t69.5 -94t12.5 -137.5l-66 -514q-5 -49 8.5 -83t53.5 -34q13 0 34 7l2 -82q-33 -8 -65 -8q-62 0 -96.5 34.5t-36.5 94.5q-157 -129 -350 -129q-120 0 -198.5 64.5t-78.5 170.5q0 75 28.5 131.5t74.5 91t114 56 t137 29t152 7.5q84 0 166 -10zM727 1407l219 -231l-74 -66l-192 211l-240 -213l-55 61l272 238h70z" />
<glyph unicode="&#xe3;" d="M805 203l26 231q-67 12 -186 12q-364 0 -364 -215q0 -80 53 -121.5t155 -41.5q82 0 169.5 39.5t146.5 95.5zM844 520l20 152q9 65 -6 112.5t-49.5 73t-77 37.5t-94.5 12q-36 0 -73.5 -6.5t-80.5 -23t-70.5 -52.5t-27.5 -86q0 -8 4 -32l-100 -11q-6 24 -6 49 q0 76 54.5 134.5t136 87t171.5 28.5q71 0 131 -17.5t107 -52t69.5 -94t12.5 -137.5l-66 -514q-5 -49 8.5 -83t53.5 -34q13 0 34 7l2 -82q-33 -8 -65 -8q-62 0 -96.5 34.5t-36.5 94.5q-157 -129 -350 -129q-120 0 -198.5 64.5t-78.5 170.5q0 75 28.5 131.5t74.5 91t114 56 t137 29t152 7.5q84 0 166 -10zM414 1196l-37 47q111 111 198 111q48 0 83 -15.5t64 -31t62 -15.5q82 0 146 66l33 -45q-96 -107 -191 -107q-45 0 -104.5 31t-98.5 31q-86 0 -155 -72z" />
<glyph unicode="&#xe4;" d="M805 203l26 231q-67 12 -186 12q-364 0 -364 -215q0 -80 53 -121.5t155 -41.5q82 0 169.5 39.5t146.5 95.5zM844 520l20 152q9 65 -6 112.5t-49.5 73t-77 37.5t-94.5 12q-36 0 -73.5 -6.5t-80.5 -23t-70.5 -52.5t-27.5 -86q0 -8 4 -32l-100 -11q-6 24 -6 49 q0 76 54.5 134.5t136 87t171.5 28.5q71 0 131 -17.5t107 -52t69.5 -94t12.5 -137.5l-66 -514q-5 -49 8.5 -83t53.5 -34q13 0 34 7l2 -82q-33 -8 -65 -8q-62 0 -96.5 34.5t-36.5 94.5q-157 -129 -350 -129q-120 0 -198.5 64.5t-78.5 170.5q0 75 28.5 131.5t74.5 91t114 56 t137 29t152 7.5q84 0 166 -10zM426 1280q0 33 23.5 57.5t58.5 24.5q29 0 47 -19t18 -47q0 -33 -24 -56t-57 -23q-28 0 -47 18.5t-19 44.5zM770 1280q0 33 23.5 57.5t58.5 24.5q29 0 47.5 -19t18.5 -47q0 -33 -24.5 -56t-57.5 -23q-28 0 -47 18.5t-19 44.5z" />
<glyph unicode="&#xe5;" d="M805 203l26 231q-67 12 -186 12q-364 0 -364 -215q0 -80 53 -121.5t155 -41.5q82 0 169.5 39.5t146.5 95.5zM844 520l20 152q9 65 -6 112.5t-49.5 73t-77 37.5t-94.5 12q-36 0 -73.5 -6.5t-80.5 -23t-70.5 -52.5t-27.5 -86q0 -8 4 -32l-100 -11q-6 24 -6 49 q0 76 54.5 134.5t136 87t171.5 28.5q71 0 131 -17.5t107 -52t69.5 -94t12.5 -137.5l-66 -514q-5 -49 8.5 -83t53.5 -34q13 0 34 7l2 -82q-33 -8 -65 -8q-62 0 -96.5 34.5t-36.5 94.5q-157 -129 -350 -129q-120 0 -198.5 64.5t-78.5 170.5q0 75 28.5 131.5t74.5 91t114 56 t137 29t152 7.5q84 0 166 -10zM647 1110q-80 0 -131 47.5t-51 122.5q0 96 66.5 156.5t162.5 60.5q83 0 133 -46t50 -122q0 -91 -66 -155t-164 -64zM653 1174q69 0 105.5 39.5t36.5 111.5q0 111 -109 111q-67 0 -105 -40.5t-38 -111.5q0 -52 28.5 -81t81.5 -29z" />
<glyph unicode="&#xe6;" d="M408 905q-31 0 -60 -6t-61 -21t-51 -47.5t-19 -78.5q0 -21 6 -45l-100 -11q-4 28 -4 45q0 116 84.5 185t218.5 69q58 0 105.5 -15t82.5 -54.5t41 -98.5q60 89 130.5 128.5t160.5 39.5q258 0 258 -319q0 -60 -14 -189h-559q-6 -50 -6 -94q0 -153 68.5 -239t178.5 -86 q130 0 226 75l20 -92q-116 -71 -256 -71q-99 0 -178.5 42t-118.5 128q-62 -84 -149.5 -127t-175.5 -43q-120 0 -185 57.5t-65 161.5q0 73 26 130t67.5 91.5t98.5 57.5t114 31.5t120 8.5q58 0 110 -6q9 62 27 117q12 82 12 125q0 85 -36 118t-117 33zM639 569h455q8 66 8 107 q0 231 -164 231q-230 0 -299 -338zM94 219q0 -75 42 -114t120 -39q81 0 153 43.5t121 115.5q-20 64 -20 160q0 31 2 47q-48 10 -111 10q-141 0 -224 -53.5t-83 -169.5z" />
<glyph unicode="&#xe7;" d="M406 -416l51 90q18 -23 56.5 -40t80.5 -17q61 0 94 27t33 67q0 45 -45.5 75t-132.5 34l69 162q-166 12 -266 115t-100 286q0 122 31 224t84 172.5t124 120t151 72.5t165 23q167 0 301 -75l-43 -103q-39 26 -70 42.5t-87 32t-118 15.5q-108 0 -192.5 -45t-134.5 -119.5 t-75.5 -162.5t-25.5 -183q0 -155 87 -242t247 -87q89 0 165.5 30.5t121.5 65.5l20 -92q-135 -80 -301 -90l-43 -107q81 -11 122.5 -56.5t41.5 -101.5q0 -74 -62.5 -129t-174.5 -55q-53 0 -99.5 15t-74.5 36z" />
<glyph unicode="&#xe8;" d="M330 408q0 -170 85 -255t247 -85q81 0 173 32.5t132 63.5l20 -92q-62 -37 -157 -64.5t-197 -27.5q-191 0 -301.5 103t-110.5 302q0 150 42.5 269t114.5 192t160.5 111t186.5 38q156 0 250 -90.5t94 -265.5q0 -43 -6 -92l-6 -60h-723q-4 -54 -4 -79zM344 569h621 q4 36 4 58q0 127 -65.5 203.5t-186.5 76.5q-134 0 -235.5 -87.5t-137.5 -250.5zM793 1133l-246 241l86 76l219 -268z" />
<glyph unicode="&#xe9;" d="M330 408q0 -170 85 -255t247 -85q81 0 173 32.5t132 63.5l20 -92q-62 -37 -157 -64.5t-197 -27.5q-191 0 -301.5 103t-110.5 302q0 150 42.5 269t114.5 192t160.5 111t186.5 38q156 0 250 -90.5t94 -265.5q0 -43 -6 -92l-6 -60h-723q-4 -54 -4 -79zM344 569h621 q4 36 4 58q0 127 -65.5 203.5t-186.5 76.5q-134 0 -235.5 -87.5t-137.5 -250.5zM989 1374l-307 -241l-47 49l285 268z" />
<glyph unicode="&#xea;" d="M330 408q0 -170 85 -255t247 -85q81 0 173 32.5t132 63.5l20 -92q-62 -37 -157 -64.5t-197 -27.5q-191 0 -301.5 103t-110.5 302q0 150 42.5 269t114.5 192t160.5 111t186.5 38q156 0 250 -90.5t94 -265.5q0 -43 -6 -92l-6 -60h-723q-4 -54 -4 -79zM344 569h621 q4 36 4 58q0 127 -65.5 203.5t-186.5 76.5q-134 0 -235.5 -87.5t-137.5 -250.5zM811 1407l219 -231l-74 -66l-192 211l-240 -213l-55 61l272 238h70z" />
<glyph unicode="&#xeb;" d="M330 408q0 -170 85 -255t247 -85q81 0 173 32.5t132 63.5l20 -92q-62 -37 -157 -64.5t-197 -27.5q-191 0 -301.5 103t-110.5 302q0 150 42.5 269t114.5 192t160.5 111t186.5 38q156 0 250 -90.5t94 -265.5q0 -43 -6 -92l-6 -60h-723q-4 -54 -4 -79zM344 569h621 q4 36 4 58q0 127 -65.5 203.5t-186.5 76.5q-134 0 -235.5 -87.5t-137.5 -250.5zM520 1280q0 33 23.5 57.5t58.5 24.5q29 0 47.5 -19t18.5 -47q0 -33 -24.5 -56t-57.5 -23q-28 0 -47 18.5t-19 44.5zM864 1280q0 33 23.5 57.5t58.5 24.5q29 0 47.5 -19t18.5 -47 q0 -33 -24.5 -56t-57.5 -23q-28 0 -47 18.5t-19 44.5z" />
<glyph unicode="&#xec;" d="M113 0l10 88h385l96 799h-383l10 88h486l-109 -887h396l-11 -88h-880zM737 1133l-245 241l86 76l219 -268z" />
<glyph unicode="&#xed;" d="M113 0l10 88h385l96 799h-383l10 88h486l-109 -887h396l-11 -88h-880zM938 1374l-307 -241l-47 49l284 268z" />
<glyph unicode="&#xee;" d="M113 0l10 88h385l96 799h-383l10 88h486l-109 -887h396l-11 -88h-880zM754 1407l219 -231l-74 -66l-192 211l-240 -213l-55 61l272 238h70z" />
<glyph unicode="&#xef;" d="M113 0l10 88h385l96 799h-383l10 88h486l-109 -887h396l-11 -88h-880zM807 1280q0 33 23.5 57.5t58.5 24.5q29 0 47 -19t18 -47q0 -33 -24.5 -56t-57.5 -23q-28 0 -46.5 18.5t-18.5 44.5zM463 1280q0 33 23.5 57.5t58.5 24.5q29 0 47 -19t18 -47q0 -33 -24.5 -56 t-57.5 -23q-28 0 -46.5 18.5t-18.5 44.5z" />
<glyph unicode="&#xf0;" d="M668 995q67 0 134 -19.5t109 -55.5q-75 178 -200 294l-148 -139l-53 58l141 135q-54 40 -127 84l51 61q80 -41 140 -84l139 131l51 -59l-127 -121q279 -245 279 -647q0 -131 -29.5 -245.5t-88.5 -207t-158 -146.5t-228 -54q-184 0 -284.5 105.5t-100.5 303.5 q0 120 33 228.5t94 193t158 134.5t215 50zM274 389q0 -149 70 -235t219 -86q105 0 182 45t120.5 125t64 176.5t20.5 212.5q0 92 -16 174q-40 46 -118 76t-157 30q-85 0 -152.5 -31t-110 -81.5t-71 -119.5t-40 -139.5t-11.5 -146.5z" />
<glyph unicode="&#xf1;" d="M367 784l-97 -784h-100l119 975h98l-12 -103q87 59 188.5 91t177.5 32q156 0 237 -68t81 -204q0 -18 -4 -64l-80 -659h-101l76 618q6 40 6 76q0 108 -55.5 160.5t-177.5 52.5q-81 0 -176.5 -33.5t-179.5 -89.5zM451 1196l-37 47q111 111 198 111q48 0 83 -15.5t64 -31 t62 -15.5q82 0 146 66l32 -45q-96 -107 -190 -107q-45 0 -104.5 31t-98.5 31q-86 0 -155 -72z" />
<glyph unicode="&#xf2;" d="M668 995q194 0 306.5 -107.5t112.5 -312.5q0 -123 -38 -231.5t-106 -189t-169.5 -127.5t-222.5 -47q-189 0 -300.5 109t-111.5 310q0 169 61.5 303t183 213.5t284.5 79.5zM246 406q0 -159 78 -248.5t235 -89.5q199 0 310.5 135t111.5 362q0 159 -80.5 250.5t-238.5 91.5 q-106 0 -188 -41t-130.5 -112t-73 -159t-24.5 -189zM698 1133l-245 241l86 76l219 -268z" />
<glyph unicode="&#xf3;" d="M668 995q194 0 306.5 -107.5t112.5 -312.5q0 -123 -38 -231.5t-106 -189t-169.5 -127.5t-222.5 -47q-189 0 -300.5 109t-111.5 310q0 169 61.5 303t183 213.5t284.5 79.5zM246 406q0 -159 78 -248.5t235 -89.5q199 0 310.5 135t111.5 362q0 159 -80.5 250.5t-238.5 91.5 q-106 0 -188 -41t-130.5 -112t-73 -159t-24.5 -189zM924 1374l-308 -241l-47 49l285 268z" />
<glyph unicode="&#xf4;" d="M668 995q194 0 306.5 -107.5t112.5 -312.5q0 -123 -38 -231.5t-106 -189t-169.5 -127.5t-222.5 -47q-189 0 -300.5 109t-111.5 310q0 169 61.5 303t183 213.5t284.5 79.5zM246 406q0 -159 78 -248.5t235 -89.5q199 0 310.5 135t111.5 362q0 159 -80.5 250.5t-238.5 91.5 q-106 0 -188 -41t-130.5 -112t-73 -159t-24.5 -189zM756 1407l219 -231l-74 -66l-192 211l-240 -213l-55 61l272 238h70z" />
<glyph unicode="&#xf5;" d="M668 995q194 0 306.5 -107.5t112.5 -312.5q0 -123 -38 -231.5t-106 -189t-169.5 -127.5t-222.5 -47q-189 0 -300.5 109t-111.5 310q0 169 61.5 303t183 213.5t284.5 79.5zM246 406q0 -159 78 -248.5t235 -89.5q199 0 310.5 135t111.5 362q0 159 -80.5 250.5t-238.5 91.5 q-106 0 -188 -41t-130.5 -112t-73 -159t-24.5 -189zM446 1196l-36 47q111 111 198 111q48 0 83 -15.5t64 -31t62 -15.5q82 0 146 66l32 -45q-96 -107 -190 -107q-45 0 -104.5 31t-98.5 31q-87 0 -156 -72z" />
<glyph unicode="&#xf6;" d="M668 995q194 0 306.5 -107.5t112.5 -312.5q0 -123 -38 -231.5t-106 -189t-169.5 -127.5t-222.5 -47q-189 0 -300.5 109t-111.5 310q0 169 61.5 303t183 213.5t284.5 79.5zM246 406q0 -159 78 -248.5t235 -89.5q199 0 310.5 135t111.5 362q0 159 -80.5 250.5t-238.5 91.5 q-106 0 -188 -41t-130.5 -112t-73 -159t-24.5 -189zM453 1280q0 33 23.5 57.5t58.5 24.5q29 0 47 -19t18 -47q0 -33 -24.5 -56t-57.5 -23q-28 0 -46.5 18.5t-18.5 44.5zM797 1280q0 33 23.5 57.5t58.5 24.5q29 0 47 -19t18 -47q0 -33 -24.5 -56t-57.5 -23q-28 0 -46.5 18.5 t-18.5 44.5z" />
<glyph unicode="&#xf7;" d="M979 571h-715l10 86h715zM582 848q0 32 23 58t57 26q29 0 47 -19t18 -47q0 -33 -25 -56.5t-57 -23.5q-28 0 -45.5 17t-17.5 45zM520 356q0 32 23 58t57 26q29 0 47.5 -18.5t18.5 -46.5q0 -33 -25 -56.5t-57 -23.5q-28 0 -46 17t-18 44z" />
<glyph unicode="&#xf8;" d="M668 995q168 0 278 -84l55 64h93l-99 -111q92 -109 92 -289q0 -123 -38 -231.5t-106 -189t-169.5 -127.5t-222.5 -47q-166 0 -272 83l-56 -63h-90l98 109q-92 109 -92 290q0 169 61.5 303t183 213.5t284.5 79.5zM559 68q199 0 310.5 135t111.5 362q0 136 -57 219 l-580 -647q78 -69 215 -69zM246 406q0 -140 55 -220l578 652q-81 69 -217 69q-106 0 -188 -41t-130.5 -112t-73 -159t-24.5 -189z" />
<glyph unicode="&#xf9;" d="M854 188l96 787h101l-119 -975h-98l12 100q-88 -59 -188.5 -89.5t-176.5 -30.5q-157 0 -237.5 68.5t-79.5 205.5q0 19 4 59l82 662h100l-76 -621q-4 -40 -4 -57q-4 -122 53 -175.5t181 -53.5q165 0 350 120zM737 1133l-245 241l86 76l219 -268z" />
<glyph unicode="&#xfa;" d="M854 188l96 787h101l-119 -975h-98l12 100q-88 -59 -188.5 -89.5t-176.5 -30.5q-157 0 -237.5 68.5t-79.5 205.5q0 19 4 59l82 662h100l-76 -621q-4 -40 -4 -57q-4 -122 53 -175.5t181 -53.5q165 0 350 120zM965 1374l-308 -241l-47 49l285 268z" />
<glyph unicode="&#xfb;" d="M854 188l96 787h101l-119 -975h-98l12 100q-88 -59 -188.5 -89.5t-176.5 -30.5q-157 0 -237.5 68.5t-79.5 205.5q0 19 4 59l82 662h100l-76 -621q-4 -40 -4 -57q-4 -122 53 -175.5t181 -53.5q165 0 350 120zM754 1407l219 -231l-74 -66l-192 211l-240 -213l-55 61 l272 238h70z" />
<glyph unicode="&#xfc;" d="M854 188l96 787h101l-119 -975h-98l12 100q-88 -59 -188.5 -89.5t-176.5 -30.5q-157 0 -237.5 68.5t-79.5 205.5q0 19 4 59l82 662h100l-76 -621q-4 -40 -4 -57q-4 -122 53 -175.5t181 -53.5q165 0 350 120zM473 1280q0 33 23.5 57.5t58.5 24.5q29 0 47.5 -19t18.5 -47 q0 -33 -24.5 -56t-57.5 -23q-28 0 -47 18.5t-19 44.5zM817 1280q0 33 23.5 57.5t58.5 24.5q29 0 47.5 -19t18.5 -47q0 -33 -24.5 -56t-57.5 -23q-28 0 -47 18.5t-19 44.5z" />
<glyph unicode="&#xfd;" d="M1118 975l-749 -1426h-93l230 443l-281 983h101l249 -866l447 866h96zM965 1374l-308 -241l-47 49l285 268z" />
<glyph unicode="&#xfe;" d="M416 1403l-68 -539q90 65 166.5 98t157.5 33q169 0 261.5 -108.5t92.5 -290.5q0 -277 -158 -446.5t-405 -169.5q-106 0 -219 43l-58 -474h-100l121 975l108 879h101zM338 774l-33 -262l-47 -387q92 -57 215 -57q200 0 323.5 141.5t123.5 380.5q0 154 -71.5 234.5 t-197.5 80.5q-140 0 -313 -131z" />
<glyph unicode="&#xff;" d="M1118 975l-749 -1426h-93l230 443l-281 983h101l249 -866l447 866h96zM469 1280q0 33 23.5 57.5t58.5 24.5q29 0 47 -19t18 -47q0 -33 -24 -56t-57 -23q-28 0 -47 18.5t-19 44.5zM813 1280q0 33 23.5 57.5t58.5 24.5q29 0 47.5 -19t18.5 -47q0 -33 -24.5 -56t-57.5 -23 q-28 0 -47 18.5t-19 44.5z" />
<glyph unicode="&#x152;" d="M635 1350q86 0 160 -19h491l-12 -98h-406l-61 -500h332l-11 -96h-331l-68 -539h406l-11 -98h-491q-95 -20 -180 -20q-406 0 -406 489q0 51 2 76q10 234 80 414t200.5 285.5t305.5 105.5zM465 72q83 0 160 18l139 1147q-66 16 -139 16q-145 0 -251.5 -99t-160 -270.5 t-53.5 -394.5q0 -417 305 -417z" />
<glyph unicode="&#x153;" d="M397 995q237 0 271 -235q48 119 126.5 177t174.5 58q122 0 191 -82t69 -249q0 -62 -15 -177h-530q-8 -55 -8 -114q0 -305 239 -305q64 0 123.5 30.5t96.5 65.5l14 -92q-126 -92 -256 -92q-117 0 -194 60t-101 179q-109 -239 -322 -239q-138 0 -207 92.5t-69 269.5 q0 82 11 166t40 173.5t72.5 157.5t114 112t159.5 44zM98 344q0 -276 191 -276q76 0 135 44t94.5 120.5t53.5 173.5t18 210q0 137 -46 214t-157 77q-58 0 -105.5 -29.5t-78 -79.5t-52.5 -108.5t-33 -125t-15.5 -119.5t-4.5 -101zM696 569h434q7 58 7 95q0 115 -45 179 t-134 64q-106 0 -168 -84t-94 -254z" />
<glyph unicode="&#x178;" d="M330 1331l317 -721l459 721h102l-522 -815l-63 -516h-105l64 514l-363 817h111zM866 1575q0 33 23.5 57.5t58.5 24.5q29 0 47.5 -19t18.5 -47q0 -33 -24.5 -56.5t-57.5 -23.5q-28 0 -47 19t-19 45zM522 1575q0 33 23.5 57.5t58.5 24.5q29 0 47.5 -19t18.5 -47 q0 -33 -24.5 -56.5t-57.5 -23.5q-28 0 -47 19t-19 45z" />
<glyph unicode="&#x2c6;" d="M758 1407l219 -231l-74 -66l-192 211l-240 -213l-55 61l272 238h70z" />
<glyph unicode="&#x2dc;" d="M453 1196l-37 47q111 111 198 111q48 0 83 -15.5t64 -31t62 -15.5q82 0 146 66l32 -45q-96 -107 -190 -107q-45 0 -104.5 31t-98.5 31q-86 0 -155 -72z" />
<glyph unicode="&#x2000;" horiz-adv-x="897" />
<glyph unicode="&#x2001;" horiz-adv-x="1794" />
<glyph unicode="&#x2002;" horiz-adv-x="897" />
<glyph unicode="&#x2003;" horiz-adv-x="1794" />
<glyph unicode="&#x2004;" horiz-adv-x="598" />
<glyph unicode="&#x2005;" horiz-adv-x="448" />
<glyph unicode="&#x2006;" horiz-adv-x="299" />
<glyph unicode="&#x2007;" horiz-adv-x="299" />
<glyph unicode="&#x2008;" horiz-adv-x="224" />
<glyph unicode="&#x2009;" horiz-adv-x="358" />
<glyph unicode="&#x200a;" horiz-adv-x="99" />
<glyph unicode="&#x2010;" d="M862 481h-504l13 99h503z" />
<glyph unicode="&#x2011;" d="M862 481h-504l13 99h503z" />
<glyph unicode="&#x2012;" d="M862 481h-504l13 99h503z" />
<glyph unicode="&#x2013;" d="M162 496l10 82h901l-10 -82h-901z" />
<glyph unicode="&#x2014;" d="M-2 496l10 82h1227l-10 -82h-1227z" />
<glyph unicode="&#x2018;" d="M657 967h-100q25 120 81 270t118 236l80 -21q-56 -90 -107.5 -233t-71.5 -252z" />
<glyph unicode="&#x2019;" d="M735 1456h101q-23 -119 -78 -269.5t-117 -236.5l-78 21q55 90 104.5 233t67.5 252z" />
<glyph unicode="&#x201a;" d="M573 117h93q-22 -111 -78.5 -254t-120.5 -232l-70 21q57 94 108 228t68 237z" />
<glyph unicode="&#x201c;" d="M811 967h-100q26 124 79.5 272.5t114.5 233.5l80 -21q-55 -88 -104.5 -230.5t-69.5 -254.5zM512 967h-100q26 124 79.5 272.5t114.5 233.5l80 -21q-55 -88 -104.5 -230.5t-69.5 -254.5z" />
<glyph unicode="&#x201d;" d="M586 1456h100q-23 -117 -79 -268t-118 -238l-77 21q55 90 105.5 234t68.5 251zM885 1456h100q-23 -117 -79 -268t-118 -238l-77 21q55 90 105.5 234t68.5 251z" />
<glyph unicode="&#x201e;" d="M420 117h92q-22 -111 -78.5 -254t-120.5 -232l-69 21q57 94 108 228t68 237zM727 117h92q-22 -112 -78 -255t-120 -231l-70 21q57 94 108 228t68 237z" />
<glyph unicode="&#x2022;" d="M379 442q0 98 75 169t181 71q87 0 145 -55t58 -135q0 -99 -75 -168.5t-179 -69.5q-90 0 -147.5 53t-57.5 135z" />
<glyph unicode="&#x2026;" d="M-4 39q0 36 23.5 60t62.5 24q31 0 50.5 -15.5t19.5 -44.5q0 -40 -26 -61.5t-63 -21.5q-67 0 -67 59zM479 39q0 36 23.5 60t62.5 24q31 0 50.5 -15.5t19.5 -44.5q0 -40 -25.5 -61.5t-62.5 -21.5q-68 0 -68 59zM963 39q0 36 23.5 60t62.5 24q31 0 50 -15t19 -45 q0 -40 -25.5 -61.5t-62.5 -21.5q-67 0 -67 59z" />
<glyph unicode="&#x202f;" horiz-adv-x="358" />
<glyph unicode="&#x2039;" d="M436 479l305 473h101l-295 -465l178 -481h-100z" />
<glyph unicode="&#x203a;" d="M596 952l186 -473l-303 -473h-100l297 481l-180 465h100z" />
<glyph unicode="&#x205f;" horiz-adv-x="448" />
<glyph unicode="&#x20ac;" d="M252 471h-162l31 80h133q3 113 25 227h-132l31 80h121q67 237 221 364.5t385 127.5q94 0 175 -20t126 -48l-49 -111q-42 38 -112.5 60t-147.5 22q-382 0 -491 -395h610l-31 -80h-600q-18 -101 -25 -227h558l-31 -80h-527v-2q0 -204 89 -300.5t294 -96.5q95 0 183.5 22 t132.5 49l16 -94q-138 -69 -348 -69q-235 0 -354.5 116.5t-120.5 374.5z" />
<glyph unicode="&#x2122;" d="M172 610l66 664h-213l6 59h485l-6 -59h-215l-66 -664h-57zM485 610l72 723h66l198 -651l316 651h67l-71 -723h-56l60 619l-297 -619h-52l-188 598l-57 -598h-58z" />
<glyph unicode="&#x25fc;" horiz-adv-x="972" d="M0 973h973v-973h-973v973z" />
</font>
</defs>
</svg>
