<?xml version="1.0" standalone="no"?>
<!DOCTYPE svg PUBLIC "-//W3C//DTD SVG 1.1//EN" "http://www.w3.org/Graphics/SVG/1.1/DTD/svg11.dtd" >
<svg xmlns="http://www.w3.org/2000/svg" xmlns:xlink="http://www.w3.org/1999/xlink" version="1.1">
<metadata></metadata>
<defs>
<font id="typoninesans_monospaceMdIt" horiz-adv-x="1228" >
<font-face units-per-em="2048" ascent="1597" descent="-451" />
<missing-glyph horiz-adv-x="500" />
<glyph horiz-adv-x="0" />
<glyph horiz-adv-x="682" />
<glyph unicode=" " />
<glyph unicode="!" d="M592 1331h242l-56 -450l-73 -410h-193l25 410zM408 96q0 74 45.5 124t130.5 50q64 0 102.5 -32t38.5 -93q0 -78 -48.5 -123t-129.5 -45q-139 0 -139 119z" />
<glyph unicode="&#x22;" d="M649 1331l-125 -676h-176l33 676h268zM1047 1331l-127 -676h-175l33 676h269z" />
<glyph unicode="#" d="M569 0l90 291h-256l-90 -291h-207l91 291h-179l50 153h176l75 244h-192l51 156h191l88 284h207l-89 -284h256l89 284h206l-88 -284h187l-51 -156h-185l-76 -244h203l-51 -153h-199l-90 -291h-207zM526 688l-75 -244h256l75 244h-256z" />
<glyph unicode="$" d="M664 1386h122l-14 -110q177 -9 311 -82l-90 -201q-115 88 -243 99l-41 -324q60 -27 95 -45t85.5 -51.5t78.5 -66t49 -81.5t21 -106q0 -158 -116 -258t-304 -121l-12 -100h-121l13 96q-228 7 -371 104l98 193q155 -110 295 -115l45 379q-45 22 -65.5 32t-61.5 32.5t-61 38 t-49 41.5t-43 50.5t-24.5 57t-10.5 67.5q0 147 112 246.5t287 114.5zM809 375q0 87 -129 162l-39 -312q80 14 124 52t44 98zM483 952q0 -70 111 -129l33 262q-144 -24 -144 -133z" />
<glyph unicode="%" d="M428 1350q124 0 189 -71t65 -202q0 -111 -39 -204t-118 -151t-185 -58q-123 0 -188.5 71t-65.5 203q0 181 93 296.5t249 115.5zM1085 1141l-815 -1006l-96 60l813 1015zM362 829q150 0 150 222q0 131 -106 131q-83 0 -117.5 -60t-34.5 -168q0 -125 108 -125zM930 666 q124 0 189 -71t65 -202q0 -111 -39 -204t-118 -151t-185 -58q-123 0 -188.5 71t-65.5 203q0 181 93 296.5t249 115.5zM864 145q150 0 150 222q0 131 -107 131q-83 0 -117 -59.5t-34 -168.5q0 -125 108 -125z" />
<glyph unicode="&#x26;" d="M350 713q-12 82 -12 174q0 134 36.5 236t116 164.5t193.5 62.5q40 0 76 -7.5t72 -25.5t62 -46.5t42 -73.5t16 -103q0 -85 -33.5 -162.5t-89.5 -134.5t-120 -98.5t-134 -67.5q42 -198 105 -271q75 115 115 310h379l-25 -187h-242q-49 -125 -137 -235q66 -66 148 -66 q103 0 176 92l67 -163q-125 -131 -299 -131q-157 0 -266 112q-135 -112 -289 -112q-134 0 -215.5 82t-81.5 223q0 151 94.5 263.5t245.5 164.5zM373 569q-140 -76 -140 -229q0 -73 34.5 -114.5t99.5 -41.5q68 0 135 52q-93 142 -129 333zM737 1055q0 57 -17.5 85.5 t-57.5 28.5q-119 0 -119 -254q0 -63 6 -131q188 71 188 271z" />
<glyph unicode="'" d="M850 1331l-127 -676h-172l29 676h270z" />
<glyph unicode="(" d="M903 1491l131 -145q-106 -80 -193.5 -176.5t-157 -212.5t-108 -254t-38.5 -285q0 -206 80 -368t225 -302l-150 -137q-196 150 -299.5 356t-103.5 441q0 165 46.5 324t130.5 295.5t193.5 252.5t243.5 211z" />
<glyph unicode=")" d="M315 -389l-114 137q499 392 499 926q0 390 -303 672l166 145q183 -153 284 -361.5t101 -449.5q0 -166 -48 -324.5t-134.5 -293t-200 -248t-250.5 -203.5z" />
<glyph unicode="*" d="M1036 1085l-284 -69q-3 34 -29 57l217 187zM877 748l-166 192q29 19 39 57l266 -75zM332 1083l139 179l160 -187q-40 -15 -47 -61zM741 690h-215l88 242q17 -10 41 -10t41 10zM582 1001v-16q3 -26 20 -43l-192 -197l-97 179zM817 1319l-104 -240q-18 11 -37 11 q-15 0 -33 -9l-41 238h215z" />
<glyph unicode="+" d="M475 174l37 322h-330l23 172h330l38 317h197l-39 -317h332l-23 -172h-329l-39 -322h-197z" />
<glyph unicode="," d="M524 229h234q-19 -129 -91 -266.5t-167 -247.5l-156 52q82 114 123 223.5t57 238.5z" />
<glyph unicode="-" d="M883 412h-561l26 215h561z" />
<glyph unicode="." d="M408 96q0 74 45.5 124t130.5 50q64 0 102.5 -32t38.5 -93q0 -78 -48.5 -123t-129.5 -45q-139 0 -139 119z" />
<glyph unicode="/" d="M950 1405h199l-823 -1471h-205z" />
<glyph unicode="0" d="M717 1350q226 0 337 -128.5t111 -365.5q0 -80 -7.5 -159t-27 -167.5t-49.5 -165.5t-78.5 -149t-111 -123t-151 -81.5t-193.5 -30.5q-447 0 -447 485q0 87 8.5 171t28.5 173.5t51.5 166.5t80.5 147t111.5 119.5t148.5 78.5t188 29zM362 469q0 -82 19 -147l395 802 q-51 15 -90 15q-87 0 -151.5 -56t-101 -152.5t-54 -212t-17.5 -249.5zM578 190q75 0 134 46t93.5 116.5t57 164t30.5 178.5t8 171q0 79 -16 131l-391 -794q37 -13 84 -13z" />
<glyph unicode="1" d="M94 0l27 219h336l108 871l-289 -52l25 203l551 109l-137 -1131h362l-26 -219h-957z" />
<glyph unicode="2" d="M109 164q104 62 222 160t226 211t179 235t71 215q0 71 -42 112.5t-122 41.5q-71 0 -144 -39t-134 -103l-103 172q18 18 50.5 42t91.5 58.5t141.5 57.5t167.5 23q168 0 268 -85.5t100 -232.5q0 -83 -38 -176t-101 -178.5t-147.5 -170.5t-173.5 -156t-183 -132h604 l-26 -219h-928z" />
<glyph unicode="3" d="M1079 1024q-12 -109 -98.5 -189.5t-216.5 -113.5q137 -32 215 -111t78 -198q0 -59 -17 -116.5t-57 -115.5t-99 -101.5t-151.5 -71t-206.5 -27.5q-143 0 -254.5 43.5t-162.5 93.5l151 207q64 -62 131.5 -95.5t165.5 -33.5q97 0 166.5 49.5t69.5 142.5q0 102 -111.5 156 t-292.5 59l21 162q166 11 284.5 80t118.5 166q0 64 -44.5 95.5t-117.5 31.5q-141 0 -270 -111l-90 172q7 6 20.5 16.5t57.5 36.5t91 46t119.5 36.5t145.5 16.5q159 0 257.5 -81t98.5 -206q0 -25 -2 -39z" />
<glyph unicode="4" d="M918 285l-35 -283h-256l35 283h-590l18 153l694 893h260l-102 -839h184l-26 -207h-182zM348 494h338l64 520z" />
<glyph unicode="5" d="M586 1112l-35 -272q132 -2 230.5 -32t158 -82.5t88.5 -121t29 -151.5q0 -89 -34 -172t-99.5 -151t-172.5 -109t-241 -41q-114 0 -217.5 36.5t-177.5 104.5l145 205q118 -136 275 -136q102 0 177.5 62.5t75.5 169.5q0 117 -117 170t-384 53l84 686h762l-27 -219h-520z" />
<glyph unicode="6" d="M590 190q73 0 125 40.5t75 102t23 134.5q0 83 -44.5 120.5t-135.5 37.5q-68 0 -126.5 -21t-90.5 -43q-10 -85 -10 -137q0 -54 8 -93.5t27.5 -73t57 -50.5t91.5 -17zM1079 502q0 -231 -138 -376.5t-372 -145.5q-217 0 -320.5 120t-103.5 342q0 215 57.5 387t161.5 286 t249 174.5t319 60.5q104 0 194 -19l-26 -223q-111 27 -197 27q-168 0 -290.5 -91.5t-163.5 -279.5q145 74 284 74q165 0 255.5 -88t90.5 -248z" />
<glyph unicode="7" d="M1174 1331l-19 -143l-682 -1186h-256l641 1110h-629l25 219h920z" />
<glyph unicode="8" d="M1110 1057q0 -39 -12 -75.5t-36.5 -68.5t-50 -58t-65.5 -53.5t-70 -46t-75 -44.5q119 -64 195.5 -150t76.5 -184q0 -172 -151 -284.5t-369 -112.5q-125 0 -222.5 32.5t-157.5 103t-60 169.5q0 236 346 399q-52 34 -87 62.5t-67.5 64.5t-48.5 78.5t-16 91.5 q0 105 63.5 190t172 132t239.5 47q180 0 287.5 -81.5t107.5 -211.5zM586 164q83 0 153 51.5t70 138.5q0 33 -17 65t-51 62t-63 51.5t-74 49.5q-105 -61 -165 -123t-60 -140q0 -75 56 -115t151 -40zM696 1157q-78 0 -137 -38.5t-59 -110.5q0 -50 35.5 -90.5t121.5 -102.5 q98 66 143.5 115.5t45.5 105.5q0 57 -42 89t-108 32z" />
<glyph unicode="9" d="M670 1139q-102 0 -159.5 -81t-57.5 -194q0 -83 44.5 -121t135.5 -38q121 0 219 63q8 65 8 133q0 118 -42 178t-148 60zM188 829q0 111 34.5 206t98.5 165t162 110t219 40q416 0 416 -469q0 -216 -56.5 -388t-160 -284.5t-247 -172t-318.5 -59.5q-98 0 -197 21l27 223 q102 -26 194 -26q81 0 152 21t132.5 64t107 115.5t67.5 169.5q-137 -73 -284 -73q-162 0 -254.5 89t-92.5 248z" />
<glyph unicode=":" d="M408 96q0 74 45.5 124t130.5 50q64 0 102.5 -32t38.5 -93q0 -78 -48.5 -123t-129.5 -45q-139 0 -139 119zM489 756q0 74 45 124t130 50q64 0 102.5 -31t38.5 -92q0 -80 -48.5 -124t-129.5 -44q-138 0 -138 117z" />
<glyph unicode=";" d="M506 229h233q-18 -127 -89.5 -265t-166.5 -249l-157 52q82 114 123 223.5t57 238.5zM528 756q0 74 46 124t131 50q64 0 102.5 -31t38.5 -92q0 -80 -48.5 -124t-129.5 -44q-140 0 -140 117z" />
<glyph unicode="&#x3c;" d="M823 20l-608 486l21 162l727 465l104 -175l-588 -370l488 -395z" />
<glyph unicode="=" d="M1071 684h-872l22 178h873zM1026 311h-872l22 178h873z" />
<glyph unicode="&#x3e;" d="M1012 506l-727 -486l-103 173l586 395l-498 370l146 175l616 -465z" />
<glyph unicode="?" d="M1092 1092q0 -60 -24.5 -112t-63 -90t-85.5 -71.5t-94.5 -63t-86 -58.5t-63 -64.5t-24.5 -73.5q0 -42 35 -92l-260 -64q-20 61 -20 125q0 55 22 104.5t57.5 87t78 72.5t85.5 66t78.5 61t57.5 64.5t22 69.5q0 49 -40 73.5t-110 24.5q-153 0 -280 -109l-84 170 q198 138 428 138q168 0 269.5 -65.5t101.5 -192.5zM381 96q0 74 44.5 124t129.5 50q65 0 104 -32t39 -93q0 -78 -48.5 -123t-129.5 -45q-139 0 -139 119z" />
<glyph unicode="@" d="M715 1100q-259 0 -423.5 -222.5t-164.5 -594.5q0 -246 113 -385.5t311 -139.5q199 0 418 140l41 -103q-232 -153 -490 -153q-236 0 -377 160.5t-141 461.5q0 213 55.5 392.5t152 302.5t231 191.5t290.5 68.5q125 0 220.5 -42.5t153 -118t86 -172.5t28.5 -214 q0 -98 -10.5 -188t-36 -177t-64 -150t-99.5 -102t-137 -39q-73 0 -118.5 36t-59.5 104q-53 -74 -118.5 -108t-126.5 -34q-93 0 -147 55.5t-54 151.5q0 298 397 311q30 0 84 -4l8 66q4 28 4 41q0 56 -26 78t-80 22q-47 0 -85 -22.5t-38 -71.5q0 -12 2 -20l-166 -29 q-4 36 -4 51q0 114 89.5 189t228.5 75q58 0 104.5 -12t85 -38t59.5 -72.5t21 -110.5q0 -43 -4 -70l-49 -377q0 -3 -1 -13.5t-1 -12.5q-3 -66 51 -66q44 0 77.5 60t51 149.5t25.5 170t8 142.5q0 100 -21 179.5t-65 139.5t-117 92t-172 32zM698 283l13 112q-25 4 -78 4 q-184 0 -184 -133q0 -39 24 -59.5t62 -20.5q84 0 163 97z" />
<glyph unicode="A" d="M238 0h-271l598 1331h293l281 -1331h-281l-53 305h-445zM768 512l-96 561l-228 -561h324z" />
<glyph unicode="B" d="M631 0h-547l162 1331h473q383 0 383 -278q0 -250 -248 -336v-4q147 -22 209.5 -96.5t62.5 -180.5q0 -107 -40 -192t-109 -137.5t-157 -79.5t-189 -27zM623 590h-203l-45 -369h231q122 0 184 52t62 163q0 81 -55.5 117.5t-173.5 36.5zM823 989q0 123 -176 123h-164 l-39 -319h148q106 0 168.5 47.5t62.5 148.5z" />
<glyph unicode="C" d="M1038 295l35 -211q-207 -104 -424 -104q-260 0 -396 141t-136 409q0 196 53 352t148.5 258t226 156t286.5 54q219 0 375 -99l-116 -225q-65 57 -132.5 80.5t-152.5 23.5q-187 0 -297.5 -146t-110.5 -431q0 -170 75.5 -263t225.5 -93q177 0 340 98z" />
<glyph unicode="D" d="M39 0l162 1331h442q127 0 225 -26t161.5 -71.5t104 -113t57.5 -145t17 -172.5q0 -82 -7.5 -156t-29 -156.5t-56 -151.5t-91.5 -133.5t-131.5 -108.5t-181.5 -70.5t-236 -26.5h-436zM604 1112h-166l-108 -891h188q75 0 135.5 19t102 50t73 77.5t50 95t29.5 109.5t14.5 114 t3.5 115q0 71 -14.5 124.5t-49 97t-99.5 66.5t-159 23z" />
<glyph unicode="E" d="M233 1331h947l-27 -219h-682l-41 -324h621l-27 -217h-621l-41 -350h680l-26 -221h-944z" />
<glyph unicode="F" d="M244 1331h930l-27 -219h-666l-47 -387h610l-26 -217h-610l-62 -508h-264z" />
<glyph unicode="G" d="M881 659h260l-68 -550q-230 -129 -448 -129q-256 0 -391.5 135.5t-135.5 408.5q0 170 36.5 308t102 233.5t157 160t200 94.5t233.5 30q200 0 377 -86l-121 -242q-122 108 -280 108q-422 0 -422 -577q0 -356 315 -356q68 0 129 18z" />
<glyph unicode="H" d="M963 1331h264l-162 -1331h-264l67 559h-495l-68 -559h-264l162 1331h264l-66 -540h496z" />
<glyph unicode="I" d="M66 0l26 221h354l109 889h-354l26 221h979l-26 -221h-361l-108 -889h360l-27 -221h-978z" />
<glyph unicode="J" d="M287 1110l26 221h811l-96 -803q-12 -102 -49.5 -188.5t-90 -148t-122 -111t-141 -80.5t-153 -52t-152 -31t-142.5 -13l-12 229q60 6 109.5 14t110 23.5t108.5 36t96.5 54t83 75.5t60 101t34.5 130l66 543h-547z" />
<glyph unicode="K" d="M229 1331h265l-70 -567l111 31l385 536h299l-484 -637l367 -694h-324l-289 569l-92 -20l-65 -549h-264z" />
<glyph unicode="L" d="M289 1331h264l-135 -1110h653l-27 -221h-917z" />
<glyph unicode="M" d="M881 0l112 920l-284 -459h-189l-188 477l-113 -938h-213l162 1331h233l246 -610l385 610h228l-162 -1331h-217z" />
<glyph unicode="N" d="M391 946l-115 -946h-249l161 1331h289l406 -905l112 905h246l-162 -1331h-268z" />
<glyph unicode="O" d="M713 1350q249 0 371 -129t122 -392q0 -145 -23.5 -271t-74.5 -233t-126.5 -183t-186 -119t-246.5 -43q-245 0 -367.5 138t-122.5 390q0 186 41.5 339.5t122 266t205.5 174.5t285 62zM571 199q60 0 110 21t86.5 57.5t65 88t46.5 108.5t30 124t16.5 131t4.5 131 q0 132 -56 201t-178 69q-82 0 -145 -36t-103 -96.5t-66 -147t-36 -179.5t-10 -202q0 -270 235 -270z" />
<glyph unicode="P" d="M88 0l162 1331h500q228 0 335 -103t107 -278q0 -243 -147 -384.5t-406 -141.5h-236l-51 -424h-264zM645 643q264 0 264 281q0 94 -48.5 141t-162.5 47h-211l-57 -469h215z" />
<glyph unicode="Q" d="M668 1350q249 0 371 -129t122 -392q0 -260 -77.5 -458t-235.5 -299l309 -365l-233 -139l-273 426q-79 -14 -147 -14q-245 0 -367.5 138t-122.5 390q0 186 41.5 339.5t122 266t205.5 174.5t285 62zM526 199q60 0 110 21t86.5 57.5t65 88t46.5 108.5t30 124t16.5 131 t4.5 131q0 132 -56 201t-178 69q-82 0 -145 -36t-103 -96.5t-66 -147t-36 -179.5t-10 -202q0 -270 235 -270z" />
<glyph unicode="R" d="M66 0l161 1331h492q230 0 338 -95.5t108 -266.5q0 -167 -72.5 -284.5t-209.5 -176.5l219 -508h-314l-178 461h-225l-55 -461h-264zM618 676q118 0 191.5 62t73.5 202q0 92 -50 132t-165 40h-203l-53 -436h206z" />
<glyph unicode="S" d="M805 362q0 50 -33 89t-86 66t-117 53t-128 57.5t-117 70.5t-86 101t-33 141q0 185 152.5 297.5t387.5 112.5q229 0 398 -101l-105 -245q-126 126 -315 126q-104 0 -167.5 -37t-63.5 -112q0 -43 33 -77t86 -59t117 -50t128 -57t117 -72.5t86 -104.5t33 -145 q0 -115 -46.5 -201t-128.5 -136.5t-183.5 -74.5t-221.5 -24q-113 0 -229 29.5t-209 90.5l119 244q147 -147 362 -147q46 0 88 8.5t79.5 26t60 51.5t22.5 79z" />
<glyph unicode="T" d="M1266 1331l-27 -219h-420l-135 -1112h-264l135 1112h-420l27 219h1104z" />
<glyph unicode="U" d="M870 516l99 815h256l-105 -858q-16 -130 -68 -227t-130.5 -154t-173 -84.5t-205.5 -27.5q-79 0 -144.5 12t-124 40.5t-99 72.5t-63.5 111.5t-22 154.5q0 43 6 96l107 864h264l-100 -819q-7 -58 -7 -92q-1 -122 51 -172.5t169 -50.5q139 0 203.5 71.5t86.5 247.5z" />
<glyph unicode="V" d="M412 1331l188 -1075l424 1075h270l-575 -1331h-313l-271 1331h277z" />
<glyph unicode="W" d="M786 1018l97 -727l170 1040h256l-312 -1331h-264l-92 670l-229 -670h-267l-22 1331h270l-59 -1036l252 723h200z" />
<glyph unicode="X" d="M182 1331h303l185 -440l293 440h266l-453 -629l342 -702h-301l-217 496l-342 -496h-270l499 690z" />
<glyph unicode="Y" d="M438 1331l228 -596l346 596h264l-518 -807l-62 -524h-266l64 516l-340 815h284z" />
<glyph unicode="Z" d="M229 1112l27 219h946l-22 -192l-781 -920h684l-26 -219h-1004l21 176l788 936h-633z" />
<glyph unicode="[" d="M272 -354l232 1865h469l-23 -170h-248l-188 -1531h250l-21 -164h-471z" />
<glyph unicode="\" d="M301 1405h199l467 -1471h-205z" />
<glyph unicode="]" d="M973 1511l-230 -1865h-471l21 164h250l188 1531h-250l23 170h469z" />
<glyph unicode="^" d="M686 1141l-328 -441h-204l481 631h158l325 -631h-200z" />
<glyph unicode="_" d="M31 -244l18 154h981l-16 -154h-983z" />
<glyph unicode="`" d="M803 1110l-293 227l152 160l245 -283z" />
<glyph unicode="a" d="M723 285l14 133q-49 6 -104 6q-250 0 -250 -154q0 -47 33 -70.5t86 -23.5q116 0 221 109zM756 573l12 72q30 168 -145 168q-65 0 -118 -25.5t-56 -80.5q0 -11 4 -27l-230 -33q-8 24 -8 58q0 131 125.5 218t312.5 87q84 0 151 -15.5t119.5 -49t80.5 -91t28 -135.5 q0 -16 -4 -62l-51 -383q-11 -94 59 -94q18 0 39 6l-8 -184q-78 -22 -152 -22q-90 0 -139.5 41.5t-58.5 115.5q-133 -157 -326 -157q-128 0 -203 67t-75 191q0 68 22 122.5t62.5 91t91 62t114.5 39t125.5 19.5t130.5 6q62 0 97 -5z" />
<glyph unicode="b" d="M518 1403l-65 -524q69 59 157.5 95t169.5 36q169 0 259.5 -110t90.5 -298q0 -192 -81 -334.5t-219 -215t-312 -72.5q-115 0 -228 26.5t-196 69.5l164 1327h260zM428 672l-55 -445q63 -39 164 -39q141 0 227 98.5t86 276.5q0 217 -184 217q-58 0 -121.5 -29t-116.5 -79z " />
<glyph unicode="c" d="M449 428q0 -123 69 -180.5t180 -57.5q69 0 150 28.5t139 72.5l43 -205q-87 -52 -197.5 -79t-205.5 -27q-94 0 -173.5 23.5t-144 72t-101 132.5t-36.5 195q0 147 47 263.5t129.5 191t192 113.5t237.5 39q101 0 196.5 -25.5t164.5 -66.5l-113 -228q-109 109 -260 109 q-83 0 -146.5 -32t-99.5 -86t-53.5 -118t-17.5 -135z" />
<glyph unicode="d" d="M1145 905l-111 -905h-235l8 135q-70 -67 -164 -111t-184 -44q-169 0 -259.5 107.5t-90.5 293.5q0 145 45.5 264.5t125 199t189 122.5t236.5 43q80 0 190 -21l51 414h260zM813 324l53 434q-62 43 -172 43q-138 0 -222.5 -99t-84.5 -280q0 -213 180 -213q61 0 126.5 31.5 t119.5 83.5z" />
<glyph unicode="e" d="M674 184q70 0 158.5 31.5t148.5 75.5l43 -203q-102 -53 -199 -80.5t-221 -27.5q-94 0 -176 26t-147.5 77t-103.5 136t-38 195q0 139 45.5 254t121.5 188.5t172.5 113.5t201.5 40q189 0 299.5 -97t110.5 -303q0 -51 -5 -90q-5 -63 -12 -86h-670q1 -71 21.5 -121t59 -77.5 t84.5 -39.5t106 -12zM420 598h411q5 23 5 53q0 84 -45.5 129t-120.5 45q-91 0 -157 -56t-93 -171z" />
<glyph unicode="f" d="M88 0l25 207h258l69 569h-207l23 180l209 17l6 57q25 191 145.5 292t329.5 101q71 0 148 -15.5t123 -41.5l-68 -213q-38 29 -97.5 46.5t-115.5 17.5q-82 0 -138 -47.5t-67 -143.5l-6 -53h342l-25 -197h-342l-69 -569h370l-24 -207h-889z" />
<glyph unicode="g" d="M1137 920l-105 -867q-14 -115 -52.5 -204.5t-92.5 -147.5t-126 -95.5t-150 -53t-169 -15.5q-212 0 -387 96l111 236q135 -121 299 -121q63 0 111 14t89.5 47.5t68.5 96t38 153.5l10 95q-68 -62 -153 -100t-168 -38q-171 0 -266 100.5t-95 276.5q0 144 48.5 262t132.5 195 t196 118.5t240 41.5q233 0 420 -90zM809 358l49 406q-70 37 -172 37q-138 0 -221.5 -96.5t-83.5 -266.5q0 -192 180 -192q129 0 248 112z" />
<glyph unicode="h" d="M430 666l-80 -666h-260l172 1403h260l-67 -539q185 146 354 146q150 0 225.5 -76t75.5 -209q0 -21 -4 -61l-80 -664h-260l70 578q11 101 -21.5 148.5t-124.5 47.5q-62 0 -132.5 -30t-127.5 -78z" />
<glyph unicode="i" d="M92 0l25 207h325l70 569h-326l27 207h586l-97 -776h336l-24 -207h-922zM561 1288q0 66 50 118t118 52q58 0 95.5 -38t37.5 -95q0 -68 -51 -117t-119 -49q-57 0 -94 36t-37 93z" />
<glyph unicode="j" d="M221 776l27 207h762l-109 -889q-12 -102 -51 -185.5t-92 -139.5t-124.5 -99t-142 -66.5t-152 -38.5t-146 -19.5t-132.5 -4.5l17 223q50 0 94 2.5t100.5 12t102.5 24.5t94 42.5t82 65t59.5 93t34.5 123.5l78 649h-502zM772 1288q0 66 51 118t119 52q57 0 95 -38t38 -95 q0 -68 -51.5 -117t-118.5 -49q-57 0 -95 36t-38 93z" />
<glyph unicode="k" d="M727 520l326 -520h-320l-231 401l-111 -22l-45 -379h-260l172 1403h260l-102 -823l106 26l303 377h285z" />
<glyph unicode="l" d="M88 0l25 207h333l121 989h-315l27 207h575l-147 -1196h327l-24 -207h-922z" />
<glyph unicode="m" d="M750 684l-2 -20l-80 -664h-222l78 639q6 49 6 82q2 45 -11.5 64.5t-45.5 19.5q-38 0 -81 -33t-77 -88l-82 -684h-221l121 983h201l-17 -164q67 96 132 143.5t139 47.5q155 0 168 -179q127 179 266 179q94 0 132 -59.5t36 -166.5q0 -63 -8 -120l-80 -664h-221l77 639 q7 54 7 78q2 46 -12 67t-46 21q-38 0 -79.5 -32.5t-77.5 -88.5z" />
<glyph unicode="n" d="M430 666l-80 -666h-260l121 983h240l-13 -133q84 78 181.5 119t187.5 41q150 0 226.5 -75.5t76.5 -209.5q0 -21 -4 -61l-80 -664h-260l70 578q12 101 -21 148.5t-125 47.5q-62 0 -132.5 -30t-127.5 -78z" />
<glyph unicode="o" d="M674 1010q218 0 339.5 -118t121.5 -319q0 -122 -40 -230t-113.5 -188.5t-184 -127.5t-244.5 -47q-215 0 -339 117t-124 321q0 130 44 240.5t121.5 187.5t185.5 120.5t233 43.5zM365 426q0 -116 52 -179t154 -63q143 0 217 96t74 283q0 111 -52.5 176.5t-166.5 65.5 q-76 0 -132 -32.5t-86.5 -88.5t-45 -120.5t-14.5 -137.5z" />
<glyph unicode="p" d="M94 82l56 448l55 453h237l-10 -129q69 67 163.5 111.5t182.5 44.5q168 0 260 -109.5t92 -296.5q0 -191 -82 -334.5t-219 -216.5t-307 -73q-86 0 -178 18l-55 -449h-260zM426 666l-16 -136l-37 -299q61 -43 168 -43q140 0 224.5 98.5t84.5 278.5q0 109 -48 162t-134 53 q-59 0 -124 -31t-118 -83z" />
<glyph unicode="q" d="M717 -451l69 568q-69 -60 -158 -98.5t-171 -38.5q-170 0 -259 107t-89 294q0 196 84 340.5t223.5 216.5t314.5 72q108 0 220 -26t196 -66l-113 -918h-2l-55 -451h-260zM813 324l21 163l32 273q-65 41 -168 41q-139 0 -225 -98.5t-86 -276.5q0 -110 47.5 -163.5 t134.5 -53.5q60 0 125 31.5t119 83.5z" />
<glyph unicode="r" d="M35 0l24 207h310l69 569h-299l25 207h534l-14 -195q48 70 117.5 119t133.5 69.5t122 20.5q33 0 73 -6l-53 -266q-42 18 -110 18q-64 0 -151 -40.5t-138 -104.5l-49 -391h415l-24 -207h-985z" />
<glyph unicode="s" d="M752 289q0 33 -29 57.5t-75 41t-101.5 32.5t-111.5 37.5t-102 49.5t-75 75t-29 108q0 101 62 174.5t166 109.5t237 36q235 0 393 -84l-102 -217q-52 48 -130 76t-163 28q-192 0 -192 -90q0 -27 29 -47t75.5 -34.5t102.5 -30.5t112 -39t102.5 -54t75.5 -82.5t29 -118.5 q0 -81 -34 -142.5t-86.5 -97.5t-124.5 -59t-137.5 -30.5t-137.5 -7.5q-222 0 -371 81l90 222q57 -47 136.5 -76t164.5 -29q226 0 226 111z" />
<glyph unicode="t" d="M637 776l-47 -401q-23 -187 155 -187q62 0 129 22t119 56l19 -209q-171 -77 -346 -77q-176 0 -269.5 83t-72.5 259l53 454h-227l22 180l234 17l63 258h225l-30 -258h407l-24 -197h-410z" />
<glyph unicode="u" d="M791 324l81 659h261l-121 -983h-232l4 139q-87 -82 -182.5 -120.5t-183.5 -38.5q-141 0 -221.5 64t-79.5 210q0 40 4 72l82 657h260l-74 -586q-4 -40 -4 -53q-1 -82 34 -114.5t103 -32.5q60 0 133 35.5t136 91.5z" />
<glyph unicode="v" d="M711 0h-326l-217 983h278l136 -778l325 778h273z" />
<glyph unicode="w" d="M414 0h-256l-74 983h250l-6 -762l235 608h195l86 -608l176 762h244l-324 -983h-254l-72 551z" />
<glyph unicode="x" d="M647 698l205 285h266l-352 -455l266 -528h-278l-166 348l-258 -348h-258l397 512l-238 471h281z" />
<glyph unicode="y" d="M1176 983l-695 -1434h-258l189 392l-244 1042h281l147 -727l319 727h261z" />
<glyph unicode="z" d="M457 207h585l-24 -207h-928l19 162l602 614h-496l27 207h858l-21 -162z" />
<glyph unicode="{" d="M694 -360q-89 0 -147 14.5t-89.5 46.5t-43 72.5t-11.5 101.5q0 19 9 98l51 433q5 49 -23 65.5t-88 20.5h-49l21 163h51q120 3 131 86l51 433q5 41 12.5 74.5t21.5 69t32.5 62.5t47 51.5t65 40.5t86 25.5t110.5 9.5h115l-21 -157h-84q-96 0 -134.5 -40t-49.5 -132 l-39 -328q-14 -115 -57.5 -184t-147.5 -95q141 -20 141 -194q0 -22 -4 -72l-41 -336q-6 -38 -6 -63q0 -55 30 -80t107 -25h97l-21 -161h-123z" />
<glyph unicode="|" d="M625 1405h200l-178 -1432h-198z" />
<glyph unicode="}" d="M324 -360h-125l20 161h96q93 0 127 37.5t45 130.5l41 336q30 243 203 268q-80 20 -111.5 68t-31.5 123q0 45 8 86l39 328q4 28 4 51q0 63 -32.5 92t-114.5 29h-84l20 157h115q88 0 148.5 -19t91 -56t43 -80t12.5 -101q0 -23 -4 -77l-54 -433q-3 -44 24.5 -63.5 t84.5 -22.5h53l-20 -163h-52q-65 -3 -96 -22.5t-35 -63.5l-53 -433q-9 -71 -20.5 -117t-36 -90.5t-62 -69.5t-98 -40.5t-145.5 -15.5z" />
<glyph unicode="~" d="M821 428q-62 0 -123.5 25.5t-103 55.5t-94.5 55.5t-101 25.5q-100 0 -225 -148l-111 90q101 134 185 181t180 47q64 0 133 -25t116.5 -55t98.5 -55t84 -25q53 0 97.5 37.5t117.5 136.5l113 -90q-53 -77 -104 -129.5t-97.5 -79t-85 -37t-80.5 -10.5z" />
<glyph unicode="&#xa0;" />
<glyph unicode="&#xa1;" d="M752 -367h-242l55 451l74 410h192l-24 -410zM936 868q0 -74 -45.5 -124t-130.5 -50q-64 0 -103 32t-39 93q0 78 49 123t130 45q139 0 139 -119z" />
<glyph unicode="&#xa2;" d="M705 1165h145l-21 -159q139 -11 256 -78l-112 -232q-81 78 -170 95l-72 -598q103 15 203 92l43 -205q-117 -70 -272 -92l-17 -142h-145l16 136q-168 14 -270.5 126t-102.5 302q0 244 137 407.5t361 188.5zM463 434q0 -174 123 -227l71 575q-66 -23 -111.5 -81.5t-64 -126 t-18.5 -140.5z" />
<glyph unicode="&#xa3;" d="M266 575h-168l23 179h168l16 129q29 226 169.5 346.5t350.5 120.5q199 0 330 -113l-129 -186q-53 50 -102 72t-107 22q-98 0 -168 -60.5t-86 -199.5l-16 -131h432l-21 -179h-434l-14 -108q-10 -85 -45 -149t-109 -115h359q109 0 177 37.5t122 105.5l102 -160 q-18 -32 -47.5 -61.5t-74.5 -59t-112.5 -47.5t-146.5 -18h-725l17 154q87 7 147 80.5t70 156.5z" />
<glyph unicode="&#xa4;" d="M209 109l-82 92l213 186q-29 59 -29 117q0 107 66 184q-61 72 -168 186l108 99l172 -187q75 41 162 41q85 0 152 -43l221 187l86 -92l-219 -189q33 -53 33 -112q0 -100 -70 -191l172 -186l-113 -88l-170 182q-79 -43 -161 -43q-87 0 -152 45zM602 418q60 0 96.5 40.5 t36.5 100.5q0 45 -25.5 71.5t-76.5 26.5q-63 0 -99 -39.5t-36 -99.5q0 -47 27 -73.5t77 -26.5z" />
<glyph unicode="&#xa5;" d="M438 1331l228 -596l346 596h264l-455 -708h244l-21 -177h-294l-15 -114h293l-20 -178h-293l-19 -154h-266l19 154h-302l23 178h301l14 114h-301l23 177h242l-295 708h284z" />
<glyph unicode="&#xa6;" d="M625 1405h200l-73 -604h-201zM524 588h199l-74 -615h-200z" />
<glyph unicode="&#xa7;" d="M500 -104q0 76 -36.5 213.5t-80.5 264t-80.5 263.5t-36.5 213q0 92 42 174t111 140.5t157.5 101t182 63.5t183.5 21q132 0 254 -25l-27 -203q-122 82 -251 82q-83 0 -125.5 -47.5t-42.5 -126.5q0 -72 36 -209.5t79.5 -265.5t79.5 -265.5t36 -209.5q0 -85 -36.5 -161 t-96.5 -130t-135 -97t-155.5 -69t-153.5 -39.5t-134 -13.5q-143 0 -250 29l27 206q60 -40 127 -59.5t115 -19.5q93 0 152 42t59 128zM813 70q0 79 -35.5 210.5t-78 250.5t-78 255t-35.5 222q0 84 41 135q-96 -47 -142.5 -120.5t-46.5 -139.5q0 -72 36 -200t79 -246.5 t79 -256.5t36 -229q0 -70 -29 -127q174 92 174 246z" />
<glyph unicode="&#xa8;" d="M385 1257q0 60 43 104t107 44q50 0 83 -34.5t33 -84.5q0 -59 -45 -101t-104 -42q-50 0 -83.5 33t-33.5 81zM764 1257q0 60 42.5 104t106.5 44q50 0 83.5 -34.5t33.5 -84.5q0 -59 -45 -101t-104 -42q-50 0 -83.5 33t-33.5 81z" />
<glyph unicode="&#xa9;" d="M553 -14q-160 0 -282 76t-185 204.5t-63 288.5q0 200 89.5 371t245.5 271.5t342 100.5q163 0 287.5 -76t189 -205t64.5 -290q0 -149 -51.5 -284.5t-141.5 -236.5t-219 -160.5t-276 -59.5zM561 70q165 0 299.5 87t209.5 236t75 328q0 137 -53 247.5t-157 177t-243 66.5 q-120 0 -227 -52t-182.5 -140t-119.5 -208t-44 -253q0 -217 123.5 -353t318.5 -136zM596 221q-178 0 -275.5 89.5t-97.5 256.5q0 230 138 361t350 131q71 0 141 -17t119 -47l-80 -157q-89 77 -203 77q-116 0 -192 -86.5t-76 -242.5q0 -107 54 -164t153 -57q113 0 237 73 l27 -149q-139 -68 -295 -68z" />
<glyph unicode="&#xaa;" d="M485 573q-103 0 -162 48.5t-59 136.5q0 73 37 126t101 80.5t134 39.5t152 12q60 0 72 -2l8 61q2 12 2 31q0 46 -24.5 66t-75.5 20q-45 0 -81.5 -17t-39.5 -53q0 -6 4 -26l-191 -27q-10 23 -10 51q0 100 97 165t245 65q295 0 295 -220q0 -29 -2 -45l-37 -282q-2 -6 -2 -25 q-4 -49 31 -49q11 0 35 8l-8 -145q-78 -19 -125 -19q-65 0 -102.5 27.5t-45.5 75.5q-106 -103 -248 -103zM571 729q90 0 162 76l15 110q-30 5 -78 5q-80 0 -130.5 -30.5t-50.5 -88.5q0 -72 82 -72z" />
<glyph unicode="&#xab;" d="M154 479l333 473h209l-270 -467l154 -479h-209zM584 479l331 473h209l-270 -467l154 -479h-209z" />
<glyph unicode="&#xac;" d="M924 115l49 409h-907l20 154h1094l-72 -563h-184z" />
<glyph unicode="&#xad;" d="M883 412h-561l26 215h561z" />
<glyph unicode="&#xae;" d="M596 344q-188 0 -313 126.5t-125 324.5q0 151 71.5 278t198 202t279.5 75q191 0 317.5 -126.5t126.5 -324.5q0 -156 -75 -284t-202 -199.5t-278 -71.5zM606 420q125 0 228.5 57t166 165.5t62.5 248.5q0 165 -101.5 273t-263.5 108q-192 0 -323 -133t-131 -342 q0 -176 103.5 -276.5t258.5 -100.5zM381 532l78 633h243q122 0 179 -47t57 -129q0 -78 -37 -134.5t-106 -82.5l86 -240h-168l-64 213h-88l-26 -213h-154zM573 852h78q123 0 123 129q0 39 -22 56.5t-76 17.5h-76z" />
<glyph unicode="&#xaf;" d="M428 1204l21 164h542l-20 -164h-543z" />
<glyph unicode="&#xb0;" d="M653 805q-121 0 -191.5 64.5t-70.5 172.5q0 136 91.5 222t234.5 86q119 0 189.5 -62t70.5 -170q0 -141 -90.5 -227t-233.5 -86zM668 922q74 0 116.5 51.5t42.5 134.5q0 57 -32 90t-93 33q-76 0 -120.5 -48t-44.5 -128q0 -61 34 -97t97 -36z" />
<glyph unicode="&#xb1;" d="M485 266l33 269h-330l21 172h330l34 278h197l-35 -278h332l-20 -172h-332l-33 -269h-197zM121 -12l20 166h858l-20 -166h-858z" />
<glyph unicode="&#xb4;" d="M922 1337l-349 -227l-79 104l313 283z" />
<glyph unicode="&#xb5;" d="M791 324l81 659h261l-121 -983h-232l4 139q-165 -159 -362 -159q-33 0 -74.5 6t-52.5 18q21 -30 30 -89.5t3 -113.5l-31 -252h-260l176 1434h260l-72 -586q-4 -46 -4 -59q0 -80 33.5 -110.5t97.5 -30.5q118 0 263 127z" />
<glyph unicode="&#xb6;" d="M850 1331l-219 -1782h-203l88 707q-126 37 -214 114t-127.5 171t-39.5 200q0 114 45 218t130.5 188t225 134t314.5 50zM797 -451l219 1782h205l-220 -1782h-204z" />
<glyph unicode="&#xb7;" d="M473 586q0 67 49.5 117.5t118.5 50.5q59 0 98 -37t39 -94q0 -71 -51.5 -119.5t-120.5 -48.5q-57 0 -95 37t-38 94z" />
<glyph unicode="&#xb8;" d="M283 -430l63 133q45 -49 113 -49q42 0 68 19t26 53q0 72 -143 75l82 217h120l-47 -129q82 -13 125 -56t43 -105q0 -96 -79 -148.5t-187 -52.5q-50 0 -102 12.5t-82 30.5z" />
<glyph unicode="&#xba;" d="M627 573q-173 0 -270 88t-97 242q0 194 123.5 320.5t331.5 126.5q176 0 270 -88.5t94 -241.5q0 -122 -51 -222t-155.5 -162.5t-245.5 -62.5zM641 737q112 0 160.5 70t48.5 209q0 172 -156 172q-107 0 -156 -75.5t-49 -205.5q0 -170 152 -170z" />
<glyph unicode="&#xbb;" d="M422 952l215 -473l-332 -473h-209l273 479l-156 467h209zM850 952l215 -473l-332 -473h-207l271 479l-154 467h207z" />
<glyph unicode="&#xbf;" d="M254 -127q0 60 24.5 112t63 90t85.5 71.5t94 63t85.5 58.5t63 64.5t24.5 73.5q0 42 -35 92l261 63q20 -61 20 -125q0 -55 -22 -104.5t-57.5 -87t-78 -72t-85.5 -65.5t-78.5 -61t-57.5 -64.5t-22 -69.5q0 -98 149 -98q155 0 281 108l84 -170q-196 -137 -428 -137 q-168 0 -269.5 65.5t-101.5 192.5zM965 868q0 -74 -44.5 -124t-129.5 -50q-65 0 -104.5 32t-39.5 93q0 78 48.5 123t129.5 45q140 0 140 -119z" />
<glyph unicode="&#xc0;" d="M238 0h-271l598 1331h293l281 -1331h-281l-53 305h-445zM768 512l-96 561l-228 -561h324zM815 1399l-387 147l109 197l350 -221z" />
<glyph unicode="&#xc1;" d="M238 0h-271l598 1331h293l281 -1331h-281l-53 305h-445zM768 512l-96 561l-228 -561h324zM1024 1546l-422 -147l-41 123l406 221z" />
<glyph unicode="&#xc2;" d="M238 0h-271l598 1331h293l281 -1331h-281l-53 305h-445zM821 1749l232 -201l-109 -127l-209 150l-241 -150l-72 121l283 207h116zM768 512l-96 561l-228 -561h324z" />
<glyph unicode="&#xc3;" d="M238 0h-271l598 1331h293l281 -1331h-281l-53 305h-445zM453 1460l-70 80q115 154 238 154q49 0 133 -29t125 -29q74 0 135 64l71 -90q-51 -69 -117.5 -111.5t-129.5 -42.5q-40 0 -121.5 32t-126.5 32q-73 0 -137 -60zM768 512l-96 561l-228 -561h324z" />
<glyph unicode="&#xc4;" d="M238 0h-271l598 1331h293l281 -1331h-281l-53 305h-445zM768 512l-96 561l-228 -561h324zM397 1575q0 59 42 103t106 44q51 0 84 -32t33 -82q0 -60 -44 -105t-102 -45q-51 0 -85 33.5t-34 83.5zM805 1575q0 59 41.5 103t105.5 44q51 0 84 -32t33 -82q0 -60 -43.5 -105 t-101.5 -45q-51 0 -85 33.5t-34 83.5z" />
<glyph unicode="&#xc5;" d="M238 0h-271l598 1331h293l281 -1331h-281l-53 305h-445zM725 1405q-94 0 -147.5 49.5t-53.5 130.5q0 113 75 174.5t177 61.5q86 0 142.5 -47t56.5 -134q0 -99 -68.5 -167t-181.5 -68zM768 512l-96 561l-228 -561h324zM737 1522q99 0 99 110q0 72 -76 72q-98 0 -98 -111 q0 -71 75 -71z" />
<glyph unicode="&#xc6;" d="M1313 1331l-27 -219h-377l-39 -324h316l-27 -217h-315l-43 -350h375l-25 -221h-610l30 260h-243l-109 -260h-270l624 1331h740zM414 461h182l74 610z" />
<glyph unicode="&#xc7;" d="M381 -430l63 133q45 -49 113 -49q42 0 68 19t26 53q0 72 -143 75l67 183q-225 19 -341.5 158t-116.5 388q0 196 53 352t148.5 258t226 156t286.5 54q219 0 375 -99l-116 -225q-65 57 -132.5 80.5t-152.5 23.5q-187 0 -297.5 -146t-110.5 -431q0 -170 75.5 -263t225.5 -93 q177 0 340 98l35 -211q-182 -93 -377 -102l-32 -93q82 -13 124.5 -56t42.5 -105q0 -96 -79 -148.5t-187 -52.5q-50 0 -102 12.5t-82 30.5z" />
<glyph unicode="&#xc8;" d="M831 1399l-387 147l109 197l350 -221zM233 1331h947l-27 -219h-682l-41 -324h621l-27 -217h-621l-41 -350h680l-26 -221h-944z" />
<glyph unicode="&#xc9;" d="M1028 1546l-422 -147l-41 123l406 221zM233 1331h947l-27 -219h-682l-41 -324h621l-27 -217h-621l-41 -350h680l-26 -221h-944z" />
<glyph unicode="&#xca;" d="M233 1331h947l-27 -219h-682l-41 -324h621l-27 -217h-621l-41 -350h680l-26 -221h-944zM846 1749l231 -201l-108 -127l-209 150l-242 -150l-72 121l283 207h117z" />
<glyph unicode="&#xcb;" d="M426 1575q0 59 41.5 103t105.5 44q51 0 84 -32t33 -82q0 -60 -43.5 -105t-101.5 -45q-51 0 -85 33.5t-34 83.5zM834 1575q0 59 41.5 103t105.5 44q51 0 84 -32t33 -82q0 -60 -44 -105t-102 -45q-51 0 -84.5 33.5t-33.5 83.5zM233 1331h947l-27 -219h-682l-41 -324h621 l-27 -217h-621l-41 -350h680l-26 -221h-944z" />
<glyph unicode="&#xcc;" d="M66 0l26 221h354l109 889h-354l26 221h979l-26 -221h-361l-108 -889h360l-27 -221h-978zM813 1399l-387 147l109 197l350 -221z" />
<glyph unicode="&#xcd;" d="M66 0l26 221h354l109 889h-354l26 221h979l-26 -221h-361l-108 -889h360l-27 -221h-978zM1022 1546l-422 -147l-41 123l406 221z" />
<glyph unicode="&#xce;" d="M66 0l26 221h354l109 889h-354l26 221h979l-26 -221h-361l-108 -889h360l-27 -221h-978zM815 1749l232 -201l-109 -127l-209 150l-242 -150l-71 121l282 207h117z" />
<glyph unicode="&#xcf;" d="M66 0l26 221h354l109 889h-354l26 221h979l-26 -221h-361l-108 -889h360l-27 -221h-978zM406 1575q0 59 41.5 103t105.5 44q51 0 84 -32t33 -82q0 -60 -44 -105t-102 -45q-51 0 -84.5 33.5t-33.5 83.5zM813 1575q0 59 42 103t106 44q51 0 83.5 -32t32.5 -82 q0 -60 -43.5 -105t-101.5 -45q-51 0 -85 33.5t-34 83.5z" />
<glyph unicode="&#xd0;" d="M25 0l69 573h-84l25 203h84l67 555h443q127 0 225 -26t161.5 -71.5t104 -113t57.5 -145t17 -172.5q0 -82 -7.5 -156t-29 -156.5t-56 -151.5t-91.5 -133.5t-131.5 -108.5t-181.5 -70.5t-236 -26.5h-436zM590 1112h-166l-41 -336h207l-25 -203h-207l-43 -352h189 q75 0 135.5 19t102 50t73 77.5t49.5 95t29 109.5t14.5 114t3.5 115q0 71 -14.5 124.5t-49 97t-99 66.5t-158.5 23z" />
<glyph unicode="&#xd1;" d="M485 1460l-69 80q115 154 237 154q50 0 134 -29t124 -29q75 0 136 64l71 -90q-51 -69 -118 -111.5t-130 -42.5q-40 0 -121 32t-126 32q-74 0 -138 -60zM391 946l-115 -946h-249l161 1331h289l406 -905l112 905h246l-162 -1331h-268z" />
<glyph unicode="&#xd2;" d="M825 1399l-387 147l109 197l350 -221zM713 1350q249 0 371 -129t122 -392q0 -145 -23.5 -271t-74.5 -233t-126.5 -183t-186 -119t-246.5 -43q-245 0 -367.5 138t-122.5 390q0 186 41.5 339.5t122 266t205.5 174.5t285 62zM571 199q60 0 110 21t86.5 57.5t65 88 t46.5 108.5t30 124t16.5 131t4.5 131q0 132 -56 201t-178 69q-82 0 -145 -36t-103 -96.5t-66 -147t-36 -179.5t-10 -202q0 -270 235 -270z" />
<glyph unicode="&#xd3;" d="M1036 1546l-422 -147l-41 123l406 221zM713 1350q249 0 371 -129t122 -392q0 -145 -23.5 -271t-74.5 -233t-126.5 -183t-186 -119t-246.5 -43q-245 0 -367.5 138t-122.5 390q0 186 41.5 339.5t122 266t205.5 174.5t285 62zM571 199q60 0 110 21t86.5 57.5t65 88 t46.5 108.5t30 124t16.5 131t4.5 131q0 132 -56 201t-178 69q-82 0 -145 -36t-103 -96.5t-66 -147t-36 -179.5t-10 -202q0 -270 235 -270z" />
<glyph unicode="&#xd4;" d="M713 1350q249 0 371 -129t122 -392q0 -145 -23.5 -271t-74.5 -233t-126.5 -183t-186 -119t-246.5 -43q-245 0 -367.5 138t-122.5 390q0 186 41.5 339.5t122 266t205.5 174.5t285 62zM571 199q60 0 110 21t86.5 57.5t65 88t46.5 108.5t30 124t16.5 131t4.5 131 q0 132 -56 201t-178 69q-82 0 -145 -36t-103 -96.5t-66 -147t-36 -179.5t-10 -202q0 -270 235 -270zM844 1749l231 -201l-108 -127l-209 150l-242 -150l-72 121l283 207h117z" />
<glyph unicode="&#xd5;" d="M467 1460l-70 80q115 154 238 154q49 0 133 -29t125 -29q74 0 135 64l72 -90q-51 -69 -118 -111.5t-130 -42.5q-40 0 -121.5 32t-126.5 32q-73 0 -137 -60zM713 1350q249 0 371 -129t122 -392q0 -145 -23.5 -271t-74.5 -233t-126.5 -183t-186 -119t-246.5 -43 q-245 0 -367.5 138t-122.5 390q0 186 41.5 339.5t122 266t205.5 174.5t285 62zM571 199q60 0 110 21t86.5 57.5t65 88t46.5 108.5t30 124t16.5 131t4.5 131q0 132 -56 201t-178 69q-82 0 -145 -36t-103 -96.5t-66 -147t-36 -179.5t-10 -202q0 -270 235 -270z" />
<glyph unicode="&#xd6;" d="M399 1575q0 59 42 103t106 44q51 0 84 -32t33 -82q0 -60 -44 -105t-102 -45q-51 0 -85 33.5t-34 83.5zM807 1575q0 59 41.5 103t105.5 44q51 0 84 -32t33 -82q0 -60 -43.5 -105t-101.5 -45q-51 0 -85 33.5t-34 83.5zM713 1350q249 0 371 -129t122 -392q0 -145 -23.5 -271 t-74.5 -233t-126.5 -183t-186 -119t-246.5 -43q-245 0 -367.5 138t-122.5 390q0 186 41.5 339.5t122 266t205.5 174.5t285 62zM571 199q60 0 110 21t86.5 57.5t65 88t46.5 108.5t30 124t16.5 131t4.5 131q0 132 -56 201t-178 69q-82 0 -145 -36t-103 -96.5t-66 -147 t-36 -179.5t-10 -202q0 -270 235 -270z" />
<glyph unicode="&#xd7;" d="M805 229l-205 222l-254 -220l-110 121l253 217l-198 215l151 129l199 -215l254 217l111 -118l-256 -217l204 -222z" />
<glyph unicode="&#xd8;" d="M713 1350q211 0 334 -97l75 90h168l-157 -188q73 -122 73 -326q0 -145 -23.5 -271t-74.5 -233t-126.5 -183t-186 -119t-246.5 -43q-199 0 -318 90l-69 -84h-180l157 188q-80 125 -80 334q0 186 41.5 339.5t122 266t205.5 174.5t285 62zM336 469q0 -39 2 -57l541 643 q-57 75 -183 75q-82 0 -145 -36t-103 -96.5t-66 -147t-36 -179.5t-10 -202zM571 199q60 0 110 21t86.5 57.5t65 88t46.5 108.5t30 124t16.5 131t4.5 131q0 8 -1 23.5t-1 23.5l-533 -641q58 -67 176 -67z" />
<glyph unicode="&#xd9;" d="M852 1399l-387 147l108 197l351 -221zM870 516l99 815h256l-105 -858q-16 -130 -68 -227t-130.5 -154t-173 -84.5t-205.5 -27.5q-79 0 -144.5 12t-124 40.5t-99 72.5t-63.5 111.5t-22 154.5q0 43 6 96l107 864h264l-100 -819q-7 -58 -7 -92q-1 -122 51 -172.5t169 -50.5 q139 0 203.5 71.5t86.5 247.5z" />
<glyph unicode="&#xda;" d="M1034 1546l-422 -147l-41 123l406 221zM870 516l99 815h256l-105 -858q-16 -130 -68 -227t-130.5 -154t-173 -84.5t-205.5 -27.5q-79 0 -144.5 12t-124 40.5t-99 72.5t-63.5 111.5t-22 154.5q0 43 6 96l107 864h264l-100 -819q-7 -58 -7 -92q-1 -122 51 -172.5t169 -50.5 q139 0 203.5 71.5t86.5 247.5z" />
<glyph unicode="&#xdb;" d="M870 516l99 815h256l-105 -858q-16 -130 -68 -227t-130.5 -154t-173 -84.5t-205.5 -27.5q-79 0 -144.5 12t-124 40.5t-99 72.5t-63.5 111.5t-22 154.5q0 43 6 96l107 864h264l-100 -819q-7 -58 -7 -92q-1 -122 51 -172.5t169 -50.5q139 0 203.5 71.5t86.5 247.5z M825 1749l232 -201l-109 -127l-209 150l-241 -150l-72 121l283 207h116z" />
<glyph unicode="&#xdc;" d="M399 1575q0 59 42 103t106 44q51 0 84 -32t33 -82q0 -60 -44 -105t-102 -45q-51 0 -85 33.5t-34 83.5zM807 1575q0 59 41.5 103t105.5 44q51 0 84 -32t33 -82q0 -60 -43.5 -105t-101.5 -45q-51 0 -85 33.5t-34 83.5zM870 516l99 815h256l-105 -858q-16 -130 -68 -227 t-130.5 -154t-173 -84.5t-205.5 -27.5q-79 0 -144.5 12t-124 40.5t-99 72.5t-63.5 111.5t-22 154.5q0 43 6 96l107 864h264l-100 -819q-7 -58 -7 -92q-1 -122 51 -172.5t169 -50.5q139 0 203.5 71.5t86.5 247.5z" />
<glyph unicode="&#xdd;" d="M438 1331l228 -596l346 596h264l-518 -807l-62 -524h-266l64 516l-340 815h284zM1024 1546l-422 -147l-41 123l406 221z" />
<glyph unicode="&#xde;" d="M238 1331h264l-19 -160h199q115 0 201 -28t137.5 -79t76.5 -118t25 -151q0 -244 -149 -386.5t-410 -142.5h-192l-31 -266h-264zM580 494q260 0 260 280q0 87 -47.5 132.5t-163.5 45.5h-172l-58 -458h181z" />
<glyph unicode="&#xdf;" d="M786 739q0 -30 21.5 -53.5t56 -41.5t76.5 -36.5t84 -42t76.5 -53.5t56 -76.5t21.5 -105.5q0 -77 -25 -138t-66 -100t-98 -65t-117 -36.5t-127 -10.5q-198 0 -319 81l88 222q40 -46 103 -76.5t135 -30.5t117.5 29t45.5 88q0 33 -29 59.5t-72 43t-93.5 41t-93.5 51.5 t-72 76.5t-29 113.5q0 59 21.5 109.5t53 84t69 66.5t69 57.5t53 56t21.5 64.5q0 47 -37 75t-104 28q-99 0 -153.5 -59t-69.5 -187l-119 -973h-248l92 776h-115l23 180l119 17l6 51q14 105 60 183.5t114.5 124.5t149.5 68.5t174 22.5q196 0 291.5 -74.5t95.5 -191.5 q0 -54 -22.5 -100.5t-56.5 -77.5t-74 -62.5t-74 -56t-56.5 -56t-22.5 -65.5z" />
<glyph unicode="&#xe0;" d="M723 285l14 133q-49 6 -104 6q-250 0 -250 -154q0 -47 33 -70.5t86 -23.5q116 0 221 109zM756 573l12 72q30 168 -145 168q-65 0 -118 -25.5t-56 -80.5q0 -11 4 -27l-230 -33q-8 24 -8 58q0 131 125.5 218t312.5 87q84 0 151 -15.5t119.5 -49t80.5 -91t28 -135.5 q0 -16 -4 -62l-51 -383q-11 -94 59 -94q18 0 39 6l-8 -184q-78 -22 -152 -22q-90 0 -139.5 41.5t-58.5 115.5q-133 -157 -326 -157q-128 0 -203 67t-75 191q0 68 22 122.5t62.5 91t91 62t114.5 39t125.5 19.5t130.5 6q62 0 97 -5zM702 1110l-292 227l151 160l246 -283z" />
<glyph unicode="&#xe1;" d="M723 285l14 133q-49 6 -104 6q-250 0 -250 -154q0 -47 33 -70.5t86 -23.5q116 0 221 109zM756 573l12 72q30 168 -145 168q-65 0 -118 -25.5t-56 -80.5q0 -11 4 -27l-230 -33q-8 24 -8 58q0 131 125.5 218t312.5 87q84 0 151 -15.5t119.5 -49t80.5 -91t28 -135.5 q0 -16 -4 -62l-51 -383q-11 -94 59 -94q18 0 39 6l-8 -184q-78 -22 -152 -22q-90 0 -139.5 41.5t-58.5 115.5q-133 -157 -326 -157q-128 0 -203 67t-75 191q0 68 22 122.5t62.5 91t91 62t114.5 39t125.5 19.5t130.5 6q62 0 97 -5zM979 1337l-348 -227l-80 104l313 283z" />
<glyph unicode="&#xe2;" d="M723 285l14 133q-49 6 -104 6q-250 0 -250 -154q0 -47 33 -70.5t86 -23.5q116 0 221 109zM756 573l12 72q30 168 -145 168q-65 0 -118 -25.5t-56 -80.5q0 -11 4 -27l-230 -33q-8 24 -8 58q0 131 125.5 218t312.5 87q84 0 151 -15.5t119.5 -49t80.5 -91t28 -135.5 q0 -16 -4 -62l-51 -383q-11 -94 59 -94q18 0 39 6l-8 -184q-78 -22 -152 -22q-90 0 -139.5 41.5t-58.5 115.5q-133 -157 -326 -157q-128 0 -203 67t-75 191q0 68 22 122.5t62.5 91t91 62t114.5 39t125.5 19.5t130.5 6q62 0 97 -5zM778 1462l226 -252l-134 -112l-180 180 l-235 -180l-99 108l303 256h119z" />
<glyph unicode="&#xe3;" d="M723 285l14 133q-49 6 -104 6q-250 0 -250 -154q0 -47 33 -70.5t86 -23.5q116 0 221 109zM756 573l12 72q30 168 -145 168q-65 0 -118 -25.5t-56 -80.5q0 -11 4 -27l-230 -33q-8 24 -8 58q0 131 125.5 218t312.5 87q84 0 151 -15.5t119.5 -49t80.5 -91t28 -135.5 q0 -16 -4 -62l-51 -383q-11 -94 59 -94q18 0 39 6l-8 -184q-78 -22 -152 -22q-90 0 -139.5 41.5t-58.5 115.5q-133 -157 -326 -157q-128 0 -203 67t-75 191q0 68 22 122.5t62.5 91t91 62t114.5 39t125.5 19.5t130.5 6q62 0 97 -5zM418 1178l-72 79q115 154 236 154 q48 0 127.5 -27.5t121.5 -27.5q77 0 138 61l67 -90q-49 -70 -110.5 -111.5t-122.5 -41.5q-41 0 -122 31.5t-124 31.5q-76 0 -139 -59z" />
<glyph unicode="&#xe4;" d="M723 285l14 133q-49 6 -104 6q-250 0 -250 -154q0 -47 33 -70.5t86 -23.5q116 0 221 109zM756 573l12 72q30 168 -145 168q-65 0 -118 -25.5t-56 -80.5q0 -11 4 -27l-230 -33q-8 24 -8 58q0 131 125.5 218t312.5 87q84 0 151 -15.5t119.5 -49t80.5 -91t28 -135.5 q0 -16 -4 -62l-51 -383q-11 -94 59 -94q18 0 39 6l-8 -184q-78 -22 -152 -22q-90 0 -139.5 41.5t-58.5 115.5q-133 -157 -326 -157q-128 0 -203 67t-75 191q0 68 22 122.5t62.5 91t91 62t114.5 39t125.5 19.5t130.5 6q62 0 97 -5zM365 1257q0 60 42.5 104t106.5 44 q50 0 83.5 -34.5t33.5 -84.5q0 -59 -45 -101t-105 -42q-50 0 -83 33t-33 81zM743 1257q0 60 43 104t107 44q50 0 83.5 -34.5t33.5 -84.5q0 -59 -45 -101t-105 -42q-50 0 -83.5 33t-33.5 81z" />
<glyph unicode="&#xe5;" d="M723 285l14 133q-49 6 -104 6q-250 0 -250 -154q0 -47 33 -70.5t86 -23.5q116 0 221 109zM756 573l12 72q30 168 -145 168q-65 0 -118 -25.5t-56 -80.5q0 -11 4 -27l-230 -33q-8 24 -8 58q0 131 125.5 218t312.5 87q84 0 151 -15.5t119.5 -49t80.5 -91t28 -135.5 q0 -16 -4 -62l-51 -383q-11 -94 59 -94q18 0 39 6l-8 -184q-78 -22 -152 -22q-90 0 -139.5 41.5t-58.5 115.5q-133 -157 -326 -157q-128 0 -203 67t-75 191q0 68 22 122.5t62.5 91t91 62t114.5 39t125.5 19.5t130.5 6q62 0 97 -5zM674 1110q-94 0 -148.5 50.5t-54.5 131.5 q0 111 75.5 172.5t178.5 61.5q86 0 142.5 -46t56.5 -132q0 -99 -68.5 -168.5t-181.5 -69.5zM686 1227q96 0 96 110q0 72 -73 72q-99 0 -99 -109q0 -73 76 -73z" />
<glyph unicode="&#xe6;" d="M416 819q-52 0 -92 -26.5t-43 -81.5q0 -21 2 -31l-189 -33q-6 24 -6 51q0 133 100.5 222.5t255.5 89.5q172 0 242 -105q105 105 246 105q139 0 209.5 -82t70.5 -266q0 -91 -20 -228h-492q0 -8 -1 -23t-1 -20q6 -207 176 -207q58 0 122.5 28.5t117.5 74.5l31 -205 q-158 -102 -324 -102q-105 0 -185.5 47.5t-121.5 144.5q-63 -95 -143.5 -143.5t-167.5 -48.5q-102 0 -162.5 63t-60.5 174q0 82 27.5 145t71 100.5t105 62.5t120.5 34.5t126 11.5q46 0 66 -2q0 20 16 68q8 41 8 74q0 57 -25 82.5t-79 25.5zM719 598h280q9 61 9 90 q0 71 -26 108.5t-75 37.5q-139 0 -188 -236zM203 268q0 -46 24 -74t66 -28q99 0 190 125q-6 23 -10 78q0 33 2 49q-40 4 -67 4q-92 0 -148.5 -39t-56.5 -115z" />
<glyph unicode="&#xe7;" d="M365 -430l63 133q45 -49 113 -49q42 0 68 19t26 53q0 72 -143 75l67 183q-83 7 -151 34.5t-122 76.5t-84 128t-30 180q0 147 47 263.5t129.5 191t192 113.5t237.5 39q101 0 196.5 -25.5t164.5 -66.5l-113 -228q-109 109 -260 109q-83 0 -146.5 -32t-99.5 -86t-53.5 -118 t-17.5 -135q0 -123 69 -180.5t180 -57.5q69 0 150 28.5t139 72.5l43 -205q-147 -89 -350 -104l-33 -93q82 -13 125 -56t43 -105q0 -96 -79 -148.5t-187 -52.5q-50 0 -102 12.5t-82 30.5z" />
<glyph unicode="&#xe8;" d="M674 184q70 0 158.5 31.5t148.5 75.5l43 -203q-102 -53 -199 -80.5t-221 -27.5q-94 0 -176 26t-147.5 77t-103.5 136t-38 195q0 139 45.5 254t121.5 188.5t172.5 113.5t201.5 40q189 0 299.5 -97t110.5 -303q0 -51 -5 -90q-5 -63 -12 -86h-670q1 -71 21.5 -121t59 -77.5 t84.5 -39.5t106 -12zM420 598h411q5 23 5 53q0 84 -45.5 129t-120.5 45q-91 0 -157 -56t-93 -171zM770 1110l-293 227l152 160l245 -283z" />
<glyph unicode="&#xe9;" d="M674 184q70 0 158.5 31.5t148.5 75.5l43 -203q-102 -53 -199 -80.5t-221 -27.5q-94 0 -176 26t-147.5 77t-103.5 136t-38 195q0 139 45.5 254t121.5 188.5t172.5 113.5t201.5 40q189 0 299.5 -97t110.5 -303q0 -51 -5 -90q-5 -63 -12 -86h-670q1 -71 21.5 -121t59 -77.5 t84.5 -39.5t106 -12zM420 598h411q5 23 5 53q0 84 -45.5 129t-120.5 45q-91 0 -157 -56t-93 -171zM995 1337l-348 -227l-80 104l314 283z" />
<glyph unicode="&#xea;" d="M674 184q70 0 158.5 31.5t148.5 75.5l43 -203q-102 -53 -199 -80.5t-221 -27.5q-94 0 -176 26t-147.5 77t-103.5 136t-38 195q0 139 45.5 254t121.5 188.5t172.5 113.5t201.5 40q189 0 299.5 -97t110.5 -303q0 -51 -5 -90q-5 -63 -12 -86h-670q1 -71 21.5 -121t59 -77.5 t84.5 -39.5t106 -12zM829 1462l226 -252l-133 -112l-181 180l-235 -180l-98 108l303 256h118zM420 598h411q5 23 5 53q0 84 -45.5 129t-120.5 45q-91 0 -157 -56t-93 -171z" />
<glyph unicode="&#xeb;" d="M674 184q70 0 158.5 31.5t148.5 75.5l43 -203q-102 -53 -199 -80.5t-221 -27.5q-94 0 -176 26t-147.5 77t-103.5 136t-38 195q0 139 45.5 254t121.5 188.5t172.5 113.5t201.5 40q189 0 299.5 -97t110.5 -303q0 -51 -5 -90q-5 -63 -12 -86h-670q1 -71 21.5 -121t59 -77.5 t84.5 -39.5t106 -12zM420 598h411q5 23 5 53q0 84 -45.5 129t-120.5 45q-91 0 -157 -56t-93 -171zM801 1257q0 60 42.5 104t106.5 44q50 0 83.5 -34.5t33.5 -84.5q0 -59 -45 -101t-104 -42q-50 0 -83.5 33t-33.5 81zM422 1257q0 60 42.5 104t106.5 44q50 0 83.5 -34.5 t33.5 -84.5q0 -59 -45 -101t-104 -42q-50 0 -83.5 33t-33.5 81z" />
<glyph unicode="&#xec;" d="M92 0l25 207h325l70 569h-326l27 207h586l-97 -776h336l-24 -207h-922zM715 1110l-293 227l151 160l246 -283z" />
<glyph unicode="&#xed;" d="M92 0l25 207h325l70 569h-326l27 207h586l-97 -776h336l-24 -207h-922zM948 1337l-348 -227l-80 104l314 283z" />
<glyph unicode="&#xee;" d="M92 0l25 207h325l70 569h-326l27 207h586l-97 -776h336l-24 -207h-922zM793 1462l225 -252l-133 -112l-180 180l-236 -180l-98 108l303 256h119z" />
<glyph unicode="&#xef;" d="M92 0l25 207h325l70 569h-326l27 207h586l-97 -776h336l-24 -207h-922zM764 1257q0 60 42.5 104t106.5 44q50 0 83.5 -34.5t33.5 -84.5q0 -59 -45 -101t-104 -42q-50 0 -83.5 33t-33.5 81zM385 1257q0 60 43 104t107 44q50 0 83 -34.5t33 -84.5q0 -59 -45 -101t-104 -42 q-50 0 -83.5 33t-33.5 81z" />
<glyph unicode="&#xf0;" d="M629 977q77 0 147 -31q-53 95 -149 178l-107 -108l-104 74l106 112q-41 27 -86 49l148 166q16 -8 94 -53l90 96l111 -80l-88 -90q163 -121 250 -279.5t87 -375.5q0 -132 -36 -248.5t-105 -208t-181 -145t-253 -53.5q-215 0 -335 115.5t-120 318.5q0 156 65.5 284 t187.5 203.5t278 75.5zM373 420q0 -112 49 -174t149 -62q152 0 216.5 107.5t64.5 318.5q0 78 -8 133q-85 48 -193 48q-65 0 -115 -21.5t-80.5 -56.5t-49.5 -84.5t-26 -99.5t-7 -109z" />
<glyph unicode="&#xf1;" d="M430 666l-80 -666h-260l121 983h240l-13 -133q84 78 181.5 119t187.5 41q150 0 226.5 -75.5t76.5 -209.5q0 -21 -4 -61l-80 -664h-260l70 578q12 101 -21 148.5t-125 47.5q-62 0 -132.5 -30t-127.5 -78zM436 1178l-71 79q115 154 235 154q48 0 128 -27.5t122 -27.5 q76 0 137 61l68 -90q-49 -70 -111 -111.5t-123 -41.5q-41 0 -122 31.5t-124 31.5q-76 0 -139 -59z" />
<glyph unicode="&#xf2;" d="M674 1010q218 0 339.5 -118t121.5 -319q0 -122 -40 -230t-113.5 -188.5t-184 -127.5t-244.5 -47q-215 0 -339 117t-124 321q0 130 44 240.5t121.5 187.5t185.5 120.5t233 43.5zM365 426q0 -116 52 -179t154 -63q143 0 217 96t74 283q0 111 -52.5 176.5t-166.5 65.5 q-76 0 -132 -32.5t-86.5 -88.5t-45 -120.5t-14.5 -137.5zM707 1110l-293 227l151 160l246 -283z" />
<glyph unicode="&#xf3;" d="M965 1337l-349 -227l-79 104l313 283zM674 1010q218 0 339.5 -118t121.5 -319q0 -122 -40 -230t-113.5 -188.5t-184 -127.5t-244.5 -47q-215 0 -339 117t-124 321q0 130 44 240.5t121.5 187.5t185.5 120.5t233 43.5zM365 426q0 -116 52 -179t154 -63q143 0 217 96t74 283 q0 111 -52.5 176.5t-166.5 65.5q-76 0 -132 -32.5t-86.5 -88.5t-45 -120.5t-14.5 -137.5z" />
<glyph unicode="&#xf4;" d="M797 1462l225 -252l-133 -112l-180 180l-236 -180l-98 108l303 256h119zM674 1010q218 0 339.5 -118t121.5 -319q0 -122 -40 -230t-113.5 -188.5t-184 -127.5t-244.5 -47q-215 0 -339 117t-124 321q0 130 44 240.5t121.5 187.5t185.5 120.5t233 43.5zM365 426 q0 -116 52 -179t154 -63q143 0 217 96t74 283q0 111 -52.5 176.5t-166.5 65.5q-76 0 -132 -32.5t-86.5 -88.5t-45 -120.5t-14.5 -137.5z" />
<glyph unicode="&#xf5;" d="M674 1010q218 0 339.5 -118t121.5 -319q0 -122 -40 -230t-113.5 -188.5t-184 -127.5t-244.5 -47q-215 0 -339 117t-124 321q0 130 44 240.5t121.5 187.5t185.5 120.5t233 43.5zM365 426q0 -116 52 -179t154 -63q143 0 217 96t74 283q0 111 -52.5 176.5t-166.5 65.5 q-76 0 -132 -32.5t-86.5 -88.5t-45 -120.5t-14.5 -137.5zM434 1178l-72 79q115 154 236 154q48 0 128 -27.5t122 -27.5q76 0 137 61l68 -90q-49 -70 -111 -111.5t-123 -41.5q-41 0 -122 31.5t-124 31.5q-76 0 -139 -59z" />
<glyph unicode="&#xf6;" d="M383 1257q0 60 42.5 104t106.5 44q50 0 83.5 -34.5t33.5 -84.5q0 -59 -45 -101t-104 -42q-50 0 -83.5 33t-33.5 81zM762 1257q0 60 42.5 104t106.5 44q50 0 83.5 -34.5t33.5 -84.5q0 -59 -45 -101t-104 -42q-50 0 -83.5 33t-33.5 81zM674 1010q218 0 339.5 -118 t121.5 -319q0 -122 -40 -230t-113.5 -188.5t-184 -127.5t-244.5 -47q-215 0 -339 117t-124 321q0 130 44 240.5t121.5 187.5t185.5 120.5t233 43.5zM365 426q0 -116 52 -179t154 -63q143 0 217 96t74 283q0 111 -52.5 176.5t-166.5 65.5q-76 0 -132 -32.5t-86.5 -88.5 t-45 -120.5t-14.5 -137.5z" />
<glyph unicode="&#xf7;" d="M1012 496h-801l22 172h801zM528 870q0 59 44 104.5t108 45.5q50 0 83.5 -34t33.5 -83q0 -60 -46 -104.5t-104 -44.5q-52 0 -85.5 32.5t-33.5 83.5zM453 254q0 59 43 104t106 45q51 0 85 -33t34 -83q0 -60 -46 -105t-104 -45q-52 0 -85 33t-33 84z" />
<glyph unicode="&#xf8;" d="M674 1010q154 0 266 -64l53 58h185l-136 -146q93 -117 93 -285q0 -122 -40 -230t-113.5 -188.5t-184 -127.5t-244.5 -47q-155 0 -266 63l-54 -57h-182l131 143q-92 112 -92 289q0 130 44 240.5t121.5 187.5t185.5 120.5t233 43.5zM571 184q143 0 217 96t74 283 q0 42 -10 90l-403 -436q44 -33 122 -33zM365 426q0 -45 10 -90l401 434q-50 35 -133 35q-76 0 -132 -32.5t-86.5 -88.5t-45 -120.5t-14.5 -137.5z" />
<glyph unicode="&#xf9;" d="M791 324l81 659h261l-121 -983h-232l4 139q-87 -82 -182.5 -120.5t-183.5 -38.5q-141 0 -221.5 64t-79.5 210q0 40 4 72l82 657h260l-74 -586q-4 -40 -4 -53q-1 -82 34 -114.5t103 -32.5q60 0 133 35.5t136 91.5zM737 1110l-293 227l152 160l246 -283z" />
<glyph unicode="&#xfa;" d="M975 1337l-348 -227l-80 104l313 283zM791 324l81 659h261l-121 -983h-232l4 139q-87 -82 -182.5 -120.5t-183.5 -38.5q-141 0 -221.5 64t-79.5 210q0 40 4 72l82 657h260l-74 -586q-4 -40 -4 -53q-1 -82 34 -114.5t103 -32.5q60 0 133 35.5t136 91.5z" />
<glyph unicode="&#xfb;" d="M799 1462l225 -252l-133 -112l-180 180l-236 -180l-98 108l303 256h119zM791 324l81 659h261l-121 -983h-232l4 139q-87 -82 -182.5 -120.5t-183.5 -38.5q-141 0 -221.5 64t-79.5 210q0 40 4 72l82 657h260l-74 -586q-4 -40 -4 -53q-1 -82 34 -114.5t103 -32.5 q60 0 133 35.5t136 91.5z" />
<glyph unicode="&#xfc;" d="M401 1257q0 60 43 104t107 44q50 0 83.5 -34.5t33.5 -84.5q0 -59 -45 -101t-105 -42q-50 0 -83.5 33t-33.5 81zM780 1257q0 60 43 104t107 44q50 0 83.5 -34.5t33.5 -84.5q0 -59 -45 -101t-105 -42q-50 0 -83.5 33t-33.5 81zM791 324l81 659h261l-121 -983h-232l4 139 q-87 -82 -182.5 -120.5t-183.5 -38.5q-141 0 -221.5 64t-79.5 210q0 40 4 72l82 657h260l-74 -586q-4 -40 -4 -53q-1 -82 34 -114.5t103 -32.5q60 0 133 35.5t136 91.5z" />
<glyph unicode="&#xfd;" d="M1176 983l-695 -1434h-258l189 392l-244 1042h281l147 -727l319 727h261zM987 1337l-348 -227l-80 104l313 283z" />
<glyph unicode="&#xfe;" d="M504 1403l-70 -549q69 72 155 114t171 42q165 0 254.5 -109t89.5 -295q0 -145 -46 -264t-127 -197.5t-192 -121.5t-241 -43q-82 0 -168 18l-56 -449h-260l66 533l6 59l49 389l109 873h260zM412 666l-17 -136l-37 -299q59 -43 160 -43q138 0 221.5 99t83.5 280 q0 213 -180 213q-114 0 -231 -114z" />
<glyph unicode="&#xff;" d="M1176 983l-695 -1434h-258l189 392l-244 1042h281l147 -727l319 727h261zM406 1257q0 60 42.5 104t106.5 44q50 0 83.5 -34.5t33.5 -84.5q0 -59 -45 -101t-105 -42q-50 0 -83 33t-33 81zM784 1257q0 60 43 104t107 44q50 0 83.5 -34.5t33.5 -84.5q0 -59 -45 -101 t-105 -42q-50 0 -83.5 33t-33.5 81z" />
<glyph unicode="&#x152;" d="M610 1350q63 0 144 -19h540l-28 -219h-330l-39 -324h268l-26 -217h-269l-43 -350h330l-27 -221h-552q-102 -20 -160 -20q-107 0 -181.5 31t-117.5 93.5t-61.5 145t-18.5 196.5q0 70 12 175q13 131 37.5 237.5t68.5 200t105 156.5t149 99t199 36zM473 195q62 0 102 16 l111 901q-44 21 -88 21q-88 0 -153 -94.5t-96.5 -249t-31.5 -347.5q0 -247 156 -247z" />
<glyph unicode="&#x153;" d="M430 1010q189 0 258 -154q53 75 122 114.5t144 39.5q131 0 201 -80.5t70 -265.5q0 -106 -23 -230h-467q-2 -18 -2 -49q4 -106 47 -160.5t117 -54.5q97 0 209 90l51 -172q-141 -108 -299 -108q-88 0 -157 40t-105 117q-119 -157 -291 -157q-150 0 -226.5 99t-76.5 286 q0 87 13.5 173t46 172.5t80 152t122 106.5t166.5 41zM207 369q0 -199 125 -199q104 0 159.5 121t55.5 327q0 96 -30.5 148.5t-106.5 52.5q-51 0 -89.5 -36t-59 -87t-34 -117.5t-17 -115.5t-3.5 -94zM754 598h278q6 46 6 88q0 154 -102 154q-72 0 -115 -58.5t-67 -183.5z" />
<glyph unicode="&#x178;" d="M438 1331l228 -596l346 596h264l-518 -807l-62 -524h-266l64 516l-340 815h284zM838 1575q0 59 41.5 103t105.5 44q51 0 84 -32t33 -82q0 -60 -44 -105t-102 -45q-51 0 -84.5 33.5t-33.5 83.5zM430 1575q0 59 42 103t106 44q51 0 83.5 -32t32.5 -82q0 -60 -43.5 -105 t-101.5 -45q-51 0 -85 33.5t-34 83.5z" />
<glyph unicode="&#x2c6;" d="M799 1462l225 -252l-133 -112l-180 180l-236 -180l-98 108l303 256h119z" />
<glyph unicode="&#x2dc;" d="M436 1178l-71 79q115 154 235 154q48 0 128 -27.5t122 -27.5q76 0 137 61l68 -90q-49 -70 -111 -111.5t-123 -41.5q-41 0 -122 31.5t-124 31.5q-76 0 -139 -59z" />
<glyph unicode="&#x2000;" horiz-adv-x="910" />
<glyph unicode="&#x2001;" horiz-adv-x="1821" />
<glyph unicode="&#x2002;" horiz-adv-x="910" />
<glyph unicode="&#x2003;" horiz-adv-x="1821" />
<glyph unicode="&#x2004;" horiz-adv-x="607" />
<glyph unicode="&#x2005;" horiz-adv-x="455" />
<glyph unicode="&#x2006;" horiz-adv-x="303" />
<glyph unicode="&#x2007;" horiz-adv-x="303" />
<glyph unicode="&#x2008;" horiz-adv-x="227" />
<glyph unicode="&#x2009;" horiz-adv-x="364" />
<glyph unicode="&#x200a;" horiz-adv-x="101" />
<glyph unicode="&#x2010;" d="M883 412h-561l26 215h561z" />
<glyph unicode="&#x2011;" d="M883 412h-561l26 215h561z" />
<glyph unicode="&#x2012;" d="M883 412h-561l26 215h561z" />
<glyph unicode="&#x2013;" d="M154 436l22 178h901l-22 -178h-901z" />
<glyph unicode="&#x2014;" d="M-10 436l22 178h1229l-22 -178h-1229z" />
<glyph unicode="&#x2018;" d="M696 821h-235q20 134 105 316.5t175 285.5l158 -51q-77 -110 -129.5 -261t-73.5 -290z" />
<glyph unicode="&#x2019;" d="M670 1419h235q-19 -136 -104 -318t-176 -284l-158 51q78 110 131 262t72 289z" />
<glyph unicode="&#x201a;" d="M524 229h234q-20 -134 -104.5 -313t-174.5 -283l-155 52q80 111 132 260.5t68 283.5z" />
<glyph unicode="&#x201c;" d="M887 821h-236q20 134 105.5 316t175.5 286l158 -51q-78 -111 -131 -263t-72 -288zM508 821h-236q20 134 105.5 316t175.5 286l158 -51q-78 -111 -131 -263t-72 -288z" />
<glyph unicode="&#x201d;" d="M481 1419h236q-18 -134 -104 -316.5t-177 -285.5l-157 51q78 109 130.5 261t71.5 290zM860 1419h236q-19 -135 -104.5 -317.5t-176.5 -284.5l-158 51q78 110 131 262t72 289z" />
<glyph unicode="&#x201e;" d="M334 229h233q-18 -133 -102 -312t-174 -284l-158 52q80 112 132.5 261t68.5 283zM715 229h233q-18 -133 -102 -312t-174 -284l-158 52q80 112 132.5 261t68.5 283z" />
<glyph unicode="&#x2022;" d="M373 500q0 105 78.5 184.5t191.5 79.5q92 0 154.5 -61t62.5 -150q0 -108 -81.5 -185t-190.5 -77q-93 0 -154 59.5t-61 149.5z" />
<glyph unicode="&#x2026;" d="M16 92q0 73 43 120.5t121 47.5q58 0 92.5 -28.5t34.5 -86.5q0 -83 -44 -125.5t-120 -42.5q-127 0 -127 115zM420 92q0 73 43 120.5t121 47.5q58 0 92.5 -28.5t34.5 -86.5q0 -83 -44 -125.5t-120 -42.5q-127 0 -127 115zM823 92q0 72 42.5 120t119.5 48q60 0 94.5 -28.5 t34.5 -86.5q0 -83 -44 -125.5t-120 -42.5q-127 0 -127 115z" />
<glyph unicode="&#x202f;" horiz-adv-x="364" />
<glyph unicode="&#x2039;" d="M369 479l331 473h209l-270 -467l154 -479h-209z" />
<glyph unicode="&#x203a;" d="M635 952l215 -473l-332 -473h-207l273 479l-156 467h207z" />
<glyph unicode="&#x205f;" horiz-adv-x="455" />
<glyph unicode="&#x20ac;" d="M217 406h-184l43 178h137q3 76 12 143h-131l41 178h135q78 214 242.5 329.5t388.5 115.5q90 0 182.5 -22.5t163.5 -63.5l-106 -215q-122 86 -256 86q-114 0 -196.5 -60t-131.5 -170h459l-43 -178h-465q-11 -60 -14 -143h442l-43 -178h-385q50 -211 280 -211q155 0 297 81 l41 -206q-110 -53 -195.5 -71.5t-203.5 -18.5q-219 0 -350 108.5t-160 317.5z" />
<glyph unicode="&#x2122;" d="M154 563l73 635h-139l16 135h420l-16 -135h-139l-74 -635h-141zM467 563l88 770h168l125 -608l264 608h158l-90 -770h-133l53 475l-199 -475h-145l-111 492l-55 -492h-123z" />
<glyph unicode="&#x25fc;" horiz-adv-x="983" d="M0 983h983v-983h-983v983z" />
</font>
</defs>
</svg>
