<?xml version="1.0" standalone="no"?>
<!DOCTYPE svg PUBLIC "-//W3C//DTD SVG 1.1//EN" "http://www.w3.org/Graphics/SVG/1.1/DTD/svg11.dtd" >
<svg xmlns="http://www.w3.org/2000/svg" xmlns:xlink="http://www.w3.org/1999/xlink" version="1.1">
<metadata></metadata>
<defs>
<font id="typoninesans_monospacetextIt" horiz-adv-x="1228" >
<font-face units-per-em="2048" ascent="1597" descent="-451" />
<missing-glyph horiz-adv-x="500" />
<glyph horiz-adv-x="0" />
<glyph horiz-adv-x="682" />
<glyph unicode=" " />
<glyph unicode="!" d="M612 1331h201l-55 -457l-74 -432h-158l31 435zM430 80q0 62 39 104.5t109 42.5q55 0 87.5 -26.5t32.5 -77.5q0 -69 -41.5 -107.5t-109.5 -38.5q-117 0 -117 103z" />
<glyph unicode="&#x22;" d="M637 1331l-119 -643h-141l35 643h225zM1018 1331l-119 -643h-141l35 643h225z" />
<glyph unicode="#" d="M588 0l92 303h-285l-92 -303h-170l92 303h-188l41 131h186l84 275h-203l41 129h201l90 297h170l-90 -297h285l90 297h170l-90 -297h196l-41 -129h-194l-84 -275h211l-41 -131h-209l-92 -303h-170zM518 709l-84 -275h285l84 275h-285z" />
<glyph unicode="$" d="M668 1384h110l-14 -114q182 -6 307 -76l-80 -168q-104 79 -246 88l-45 -364q43 -20 67 -31.5t63.5 -33t62.5 -39t51 -45t43.5 -54.5t26 -63.5t10.5 -77.5q0 -152 -114.5 -250t-297.5 -117l-12 -109h-111l13 105q-222 7 -361 96l84 164q141 -103 295 -109l51 420 q-43 21 -64 31t-60 31.5t-59 37t-47.5 41t-41 49.5t-23.5 56.5t-10 67.5q0 143 108.5 238t278.5 110zM827 371q0 58 -39 101t-112 83l-45 -362q91 14 143.5 59.5t52.5 118.5zM461 950q0 -48 35 -83t100 -68l37 311q-79 -13 -125.5 -53.5t-46.5 -106.5z" />
<glyph unicode="%" d="M438 1350q130 0 195 -70t65 -199q0 -77 -21.5 -146.5t-62.5 -126.5t-109 -90.5t-153 -33.5q-128 0 -194 68.5t-66 195.5q0 175 92 288.5t254 113.5zM1108 1147l-877 -1020l-84 55l877 1028zM373 825q176 0 176 236q0 147 -129 147q-180 0 -180 -245q0 -66 30.5 -102 t102.5 -36zM915 645q130 0 196.5 -70t66.5 -198q0 -77 -21.5 -147t-63 -127.5t-109.5 -91.5t-153 -34q-127 0 -193.5 69.5t-66.5 197.5q0 175 91 288t253 113zM850 121q178 0 178 235q0 66 -30.5 107t-100.5 41q-178 0 -178 -246q0 -66 30 -101.5t101 -35.5z" />
<glyph unicode="&#x26;" d="M365 711q-11 101 -11 178q0 133 34 234.5t110.5 164t189.5 62.5q47 0 88.5 -11.5t80 -37.5t61 -77.5t22.5 -123.5q0 -89 -34.5 -168t-91.5 -135t-123 -96t-138 -62q44 -215 123 -313q53 72 83 153t54 191h371l-21 -156h-250q-57 -161 -163 -283q81 -84 176 -84 q101 0 176 95l57 -142q-114 -120 -280 -120q-159 0 -273 120q-140 -120 -299 -120q-135 0 -214 81.5t-79 219.5q0 150 94.5 263.5t256.5 166.5zM383 590q-180 -80 -180 -266q0 -86 39.5 -131.5t111.5 -45.5q86 0 172 70q-101 147 -143 373zM756 1073q0 127 -88 127 q-142 0 -142 -295q0 -67 6 -137q101 34 162.5 109.5t61.5 195.5z" />
<glyph unicode="'" d="M827 1331l-116 -643h-140l31 643h225z" />
<glyph unicode="(" d="M918 1475l102 -119q-110 -82 -199 -178.5t-161.5 -215t-112 -263t-39.5 -302.5q0 -213 81 -374.5t230 -305.5l-119 -114q-191 148 -293 350.5t-102 439.5q0 329 166 606.5t447 475.5z" />
<glyph unicode=")" d="M305 -397l-90 114q512 397 512 959q0 390 -311 680l133 119q181 -150 281 -353t100 -444q0 -331 -169 -607t-456 -468z" />
<glyph unicode="*" d="M1024 1092l-279 -80q0 35 -24 53l221 176zM883 760l-178 184q25 14 36 47l260 -82zM346 1090l121 153l168 -176q-34 -15 -41 -55zM725 690h-182l80 248q13 -8 36 -8t35 6zM592 995l4 -16q3 -18 16 -35l-204 -186l-82 153zM801 1309l-90 -238q-13 8 -31 8q-15 0 -31 -4 l-31 234h183z" />
<glyph unicode="+" d="M492 190l40 328h-342l19 148h342l39 321h166l-39 -321h342l-19 -148h-342l-41 -328h-165z" />
<glyph unicode="," d="M539 197h192q-19 -121 -83 -249t-150 -233l-131 41q142 209 172 441z" />
<glyph unicode="-" d="M877 432h-545l22 182h545z" />
<glyph unicode="." d="M430 80q0 62 39 104.5t109 42.5q55 0 87.5 -26.5t32.5 -77.5q0 -69 -41.5 -107.5t-109.5 -38.5q-117 0 -117 103z" />
<glyph unicode="/" d="M963 1405h167l-821 -1491h-172z" />
<glyph unicode="0" d="M717 1350q225 0 334.5 -130.5t109.5 -367.5q0 -75 -7 -151t-26.5 -164t-49 -165.5t-78 -150.5t-110.5 -125.5t-150 -84t-193 -31.5q-218 0 -330.5 126t-112.5 369q0 103 12.5 201t39.5 199t75 184.5t113.5 150t161 103.5t211.5 37zM322 481q0 -141 36 -209l451 879 q-54 23 -119 23q-83 0 -148 -41.5t-105.5 -109t-67 -160t-37 -186t-10.5 -196.5zM573 156q63 0 116.5 26t90.5 69.5t66.5 103t47.5 123t29.5 134t16 130.5t4.5 118q0 120 -37 195l-448 -879q44 -20 114 -20z" />
<glyph unicode="1" d="M102 0l21 182h356l115 936l-281 -45l21 170l497 107l-141 -1168h377l-23 -182h-942z" />
<glyph unicode="2" d="M113 141q86 54 182.5 130t195.5 171t178 190.5t129 194.5t50 177q0 79 -48.5 124.5t-137.5 45.5q-73 0 -149 -39t-140 -103l-88 142q25 24 60.5 49.5t92 56.5t131.5 50.5t152 19.5q160 0 256 -83t96 -229q0 -103 -62.5 -224.5t-165 -235t-219 -214t-239.5 -182.5h645 l-22 -182h-914z" />
<glyph unicode="3" d="M1067 1034q-12 -117 -104.5 -199t-231.5 -116q148 -30 230.5 -109.5t82.5 -199.5q0 -60 -17 -119t-57 -116t-98.5 -99.5t-149.5 -69t-202 -26.5q-137 0 -245.5 43t-155.5 88l129 170q63 -58 133.5 -90.5t167.5 -32.5q112 0 194 60t82 167q0 75 -57.5 127.5t-149 77.5 t-215.5 31l19 137q172 11 298 85.5t126 184.5q0 72 -49 107.5t-133 35.5q-149 0 -279 -104l-76 145q7 6 19.5 15t54.5 33t87 42t114.5 33t138.5 15q156 0 251 -78.5t95 -200.5q0 -25 -2 -37z" />
<glyph unicode="4" d="M905 309l-37 -307h-211l37 307h-612l16 133l717 889h215l-102 -848h190l-20 -174h-193zM313 483h404l71 588z" />
<glyph unicode="5" d="M555 1149l-39 -315q269 -6 397.5 -107t128.5 -276q0 -70 -19.5 -137t-62.5 -128t-104.5 -106.5t-152 -72.5t-199.5 -27t-207.5 36t-167.5 99l123 170q114 -129 280 -129q116 0 202.5 71.5t86.5 194.5q0 132 -128 190t-398 58l82 661h741l-22 -182h-541z" />
<glyph unicode="6" d="M590 156q123 0 192.5 88t69.5 219q0 94 -52.5 138t-162.5 44q-76 0 -146 -25.5t-116 -58.5q-8 -94 -8 -131q0 -129 49.5 -201.5t173.5 -72.5zM1073 494q0 -226 -137.5 -370t-366.5 -144q-213 0 -314 121t-101 343q0 422 216.5 664t579.5 242q84 0 170 -15l-24 -186 q-95 20 -172 20q-94 0 -177.5 -26t-153.5 -78t-120 -136.5t-72 -195.5q163 90 322 90q165 0 257.5 -85.5t92.5 -243.5z" />
<glyph unicode="7" d="M1167 1331l-14 -121l-704 -1208h-211l671 1147h-669l22 182h905z" />
<glyph unicode="8" d="M1102 1065q0 -49 -21 -94.5t-49 -78.5t-78 -69.5t-86 -57.5t-94 -52q291 -159 291 -342q0 -113 -71.5 -203.5t-188 -139t-252.5 -48.5q-118 0 -214 32t-157 102t-61 169q0 58 21 111.5t54.5 94.5t83 79.5t97 66t106.5 55.5q-57 37 -93 64.5t-71.5 64.5t-52 80t-16.5 94 q0 157 134 257t331 100q177 0 282 -79t105 -206zM582 137q59 0 118 23t102.5 73.5t43.5 116.5q0 20 -5 39.5t-19 39t-23.5 33.5t-34.5 34t-35 28.5t-42 29.5t-38.5 25t-40.5 25q-58 -31 -98.5 -57t-83 -63t-64.5 -80t-22 -91q0 -85 67.5 -130.5t174.5 -45.5zM700 1188 q-59 0 -110 -16.5t-88 -57.5t-37 -100q0 -56 41 -100.5t147 -116.5q124 77 177 131t53 119q0 67 -52.5 104t-130.5 37z" />
<glyph unicode="9" d="M672 1174q-118 0 -188 -87.5t-70 -216.5q0 -186 217 -186q76 0 146.5 26t115.5 60q8 90 8 127q0 131 -52 204t-177 73zM195 838q0 225 136.5 368.5t370.5 143.5q211 0 310.5 -122t99.5 -345q0 -214 -57 -385t-161 -285t-251 -175t-326 -61q-73 0 -170 17l23 188 q90 -22 172 -22q195 0 337.5 109.5t186.5 326.5q-163 -88 -323 -88q-159 0 -253.5 87t-94.5 243z" />
<glyph unicode=":" d="M430 80q0 62 39 104.5t109 42.5q55 0 87.5 -26.5t32.5 -77.5q0 -69 -41.5 -107.5t-109.5 -38.5q-117 0 -117 103zM514 770q0 62 39 105t109 43q54 0 87 -27t33 -78q0 -69 -41.5 -106t-109.5 -37q-117 0 -117 100z" />
<glyph unicode=";" d="M520 197h193q-19 -121 -83.5 -248.5t-150.5 -233.5l-131 41q142 209 172 441zM555 770q0 62 39.5 105t110.5 43q54 0 87 -27t33 -78q0 -69 -41.5 -106t-109.5 -37q-119 0 -119 100z" />
<glyph unicode="&#x3c;" d="M834 35l-603 485l17 135l723 467l86 -143l-611 -389l508 -414z" />
<glyph unicode="=" d="M1077 717h-874l18 151h875zM1028 328h-874l20 151h875z" />
<glyph unicode="&#x3e;" d="M1001 520l-725 -485l-83 141l608 414l-514 389l121 143l610 -467z" />
<glyph unicode="?" d="M1081 1094q0 -62 -25.5 -116t-66.5 -93t-90 -73.5t-98.5 -65.5t-90.5 -61.5t-66.5 -68t-25.5 -79.5q0 -39 33 -97l-217 -53q-20 59 -20 119q0 58 24 110t62 90.5t84.5 74t93 68t84.5 64.5t62 71t24 81q0 59 -48.5 88t-131.5 29q-162 0 -289 -111l-74 143q189 136 414 136 q166 0 264 -66t98 -190zM391 80q0 62 39 104.5t111 42.5q55 0 88 -26.5t33 -77.5q0 -69 -42 -107.5t-110 -38.5q-58 0 -88.5 26.5t-30.5 76.5z" />
<glyph unicode="@" d="M719 1106q-128 0 -237.5 -56.5t-189.5 -161t-125.5 -261t-45.5 -346.5q0 -247 112 -388t322 -141q206 0 440 144l39 -91q-246 -157 -508 -157q-242 0 -381 159.5t-139 458.5q0 213 54.5 391t150.5 299.5t230.5 188.5t291.5 67q102 0 184.5 -27.5t137.5 -75.5t92 -115.5 t53.5 -145t16.5 -166.5q0 -94 -10 -182.5t-34 -176.5t-61 -153.5t-95.5 -106t-131.5 -40.5q-141 0 -166 129q-114 -132 -256 -132q-93 0 -149 55t-56 146q0 286 393 295q37 0 99 -4l12 86q4 32 4 43q0 62 -31.5 87.5t-91.5 25.5q-52 0 -96.5 -25t-44.5 -82q0 -14 2 -22 l-142 -23q-4 32 -4 47q0 108 87.5 178t220.5 70q53 0 97 -11.5t81.5 -36t58.5 -69.5t21 -106q0 -39 -2 -62l-50 -381q-4 -8 -4 -30q-3 -33 13 -54.5t47 -21.5q45 0 80.5 60.5t53.5 151.5t27 176t9 153q0 100 -21 178.5t-65 138.5t-118 91.5t-175 31.5zM719 264l16 133 q-43 9 -98 9q-211 0 -211 -150q0 -45 29 -68.5t77 -23.5q51 0 101.5 29.5t85.5 70.5z" />
<glyph unicode="A" d="M203 0h-221l612 1331h237l293 -1331h-231l-64 328h-487zM795 502l-117 612l-262 -612h379z" />
<glyph unicode="B" d="M614 0h-518l162 1331h459q375 0 375 -274q0 -252 -244 -340l-2 -4q75 -12 129 -39.5t83.5 -67t42.5 -82t13 -92.5q0 -109 -40 -193.5t-110 -135.5t-158.5 -77t-191.5 -26zM627 606h-240l-51 -420h264q142 0 214.5 58.5t72.5 185.5q0 91 -64 133.5t-196 42.5zM860 1006 q0 143 -198 143h-209l-45 -373h192q117 0 188.5 59t71.5 171z" />
<glyph unicode="C" d="M1036 250l31 -176q-192 -94 -410 -94q-258 0 -398 139t-140 409q0 197 54 354t151 259t228 155.5t286 53.5q215 0 360 -88l-96 -193q-112 98 -287 98q-214 0 -339.5 -160t-125.5 -460q0 -187 87.5 -286t258.5 -99q192 0 340 88z" />
<glyph unicode="D" d="M53 0l162 1331h442q551 0 551 -528q0 -84 -8 -160t-30 -158.5t-56.5 -151t-91 -132t-130 -107t-177 -69t-228.5 -25.5h-434zM629 1149h-219l-117 -963h233q112 0 195 37.5t130.5 95.5t76.5 142.5t38 162t9 171.5q0 79 -15.5 138.5t-52.5 110.5t-107 78t-171 27z" />
<glyph unicode="E" d="M250 1331h928l-23 -182h-711l-45 -377h643l-20 -180h-645l-49 -406h708l-22 -186h-926z" />
<glyph unicode="F" d="M258 1331h922l-23 -182h-704l-54 -436h643l-20 -181h-643l-66 -532h-217z" />
<glyph unicode="G" d="M920 659h215l-68 -550q-227 -129 -436 -129q-249 0 -388 133t-139 409q0 170 36.5 308.5t101 234t155.5 160.5t198 95t230 30q209 0 367 -84l-100 -203q-118 104 -285 104q-224 0 -346.5 -150.5t-122.5 -473.5q0 -381 348 -381q85 0 176 31z" />
<glyph unicode="H" d="M997 1331h217l-161 -1331h-217l69 584h-561l-72 -584h-217l162 1331h217l-67 -555h563z" />
<glyph unicode="I" d="M82 0l22 186h363l117 961h-363l23 184h950l-23 -184h-370l-117 -961h371l-23 -186h-950z" />
<glyph unicode="J" d="M281 1147l22 184h797l-23 -184l-73 -610q-12 -104 -49 -191.5t-89 -149t-121.5 -110.5t-138.5 -79t-149 -51t-145.5 -30.5t-133.5 -13.5l-10 190q60 7 106.5 14.5t110.5 24t112.5 37.5t102 56.5t90 79.5t64.5 108t37 141l69 584h-579z" />
<glyph unicode="K" d="M246 1331h217l-72 -588l125 31l438 557h248l-526 -641l414 -690h-269l-346 586l-106 -21l-68 -565h-217z" />
<glyph unicode="L" d="M297 1331h217l-139 -1145h682l-21 -186h-901z" />
<glyph unicode="M" d="M911 0l123 1001l-338 -534h-161l-224 539l-123 -1006h-178l162 1331h197l274 -653l418 653h196l-161 -1331h-185z" />
<glyph unicode="N" d="M371 1014l-123 -1014h-205l162 1331h237l459 -983l121 983h205l-162 -1331h-223z" />
<glyph unicode="O" d="M715 1350q489 0 489 -525q0 -145 -25 -271.5t-77.5 -232t-129 -181.5t-184.5 -118t-239 -42q-245 0 -366.5 140t-121.5 392q0 250 73 437t222 294t359 107zM565 162q91 0 163 40t117.5 105.5t76 156t43 185.5t12.5 199q0 319 -275 319q-90 0 -160.5 -35t-117 -95.5 t-77 -148t-43.5 -188t-13 -219.5q0 -319 274 -319z" />
<glyph unicode="P" d="M102 0l162 1331h475q223 0 329 -99t106 -271q0 -241 -141 -376.5t-386 -135.5h-274l-54 -449h-217zM647 629q135 0 215 73t80 236q0 105 -56 158t-181 53h-246l-64 -520h252z" />
<glyph unicode="Q" d="M684 1350q490 0 490 -525q0 -267 -86 -469t-254 -299l303 -362l-195 -121l-278 420q-79 -14 -146 -14q-245 0 -366 140t-121 392q0 250 73 437t221.5 294t358.5 107zM535 162q91 0 163 40t117.5 105.5t75.5 156t42.5 185t12.5 199.5q0 319 -274 319q-90 0 -160.5 -34.5 t-117.5 -95.5t-77.5 -148.5t-43.5 -188t-13 -219.5q0 -319 275 -319z" />
<glyph unicode="R" d="M84 0l162 1331h461q436 0 436 -350q0 -168 -75.5 -284t-213.5 -169l231 -528h-256l-198 487h-271l-59 -487h-217zM618 668q63 0 113 14.5t92 46.5t65 90t23 139q0 101 -56.5 146t-182.5 45h-232l-57 -481h235z" />
<glyph unicode="S" d="M842 362q0 50 -26.5 90t-70 66t-99 52t-113 47.5t-113 52.5t-99 66.5t-70 91.5t-26.5 126q0 179 148 287.5t379 108.5q223 0 381 -95l-89 -206q-125 118 -313 118q-122 0 -196 -45.5t-74 -134.5q0 -49 34 -87t88 -64t119.5 -51t131 -56.5t119.5 -71t88 -104t34 -147.5 q0 -89 -29 -161t-80 -121t-121.5 -81.5t-151 -47.5t-171.5 -15q-118 0 -231.5 31t-198.5 87l98 205q146 -143 367 -143q74 0 135.5 18t105.5 65.5t44 118.5z" />
<glyph unicode="T" d="M1262 1331l-23 -182h-438l-139 -1149h-218l140 1149h-439l23 182h1094z" />
<glyph unicode="U" d="M903 516l101 815h210l-104 -846q-31 -249 -175 -377t-388 -128q-220 0 -334 95t-111 296q0 21 9 104l104 856h217l-100 -825q-8 -66 -8 -92q-3 -135 55 -194.5t196 -59.5q158 0 231.5 81t96.5 275z" />
<glyph unicode="V" d="M375 1331l221 -1112l465 1112h221l-592 -1331h-250l-290 1331h225z" />
<glyph unicode="W" d="M772 997l115 -753l211 1087h209l-326 -1331h-217l-115 723l-266 -723h-219l-39 1331h223l-29 -1085l277 751h176z" />
<glyph unicode="X" d="M201 1331h248l215 -473l333 473h217l-462 -629l352 -702h-248l-248 532l-381 -532h-223l512 692z" />
<glyph unicode="Y" d="M408 1331l251 -633l381 633h215l-518 -809l-63 -522h-217l63 514l-346 817h234z" />
<glyph unicode="Z" d="M244 1149l22 182h930l-20 -160l-826 -987h723l-22 -184h-988l19 147l833 1002h-671z" />
<glyph unicode="[" d="M287 -365l229 1860h440l-18 -145h-254l-192 -1575h253l-18 -140h-440z" />
<glyph unicode="\" d="M322 1405h165l459 -1491h-170z" />
<glyph unicode="]" d="M956 1495l-229 -1860h-440l18 140h254l193 1575h-254l18 145h440z" />
<glyph unicode="^" d="M692 1171l-348 -456h-176l477 618h137l328 -618h-176z" />
<glyph unicode="_" d="M4 -227l16 135h1041l-17 -135h-1040z" />
<glyph unicode="`" d="M803 1118l-279 230l131 137l238 -281z" />
<glyph unicode="a" d="M748 262l18 162q-55 6 -129 6q-283 0 -283 -170q0 -57 39 -87t107 -30q133 0 248 119zM782 559l15 94q18 100 -30 144.5t-140 44.5q-30 0 -61 -6t-62.5 -19t-52 -39t-21.5 -61q0 -9 4 -29l-190 -26q-8 24 -8 55q0 84 56.5 150.5t151 102.5t207.5 36q86 0 153.5 -18 t119 -56.5t74.5 -105.5t12 -158l-56 -420q-11 -103 60 -103q14 0 39 7l-6 -154q-60 -18 -125 -18q-83 0 -129 40t-52 109q-141 -149 -333 -149q-125 0 -201 66.5t-76 184.5q0 334 535 334q41 0 116 -6z" />
<glyph unicode="b" d="M487 1403l-63 -522q73 57 162 91t170 34q173 0 264.5 -110.5t91.5 -299.5q0 -188 -80.5 -329.5t-216 -214t-305.5 -72.5q-105 0 -210.5 24t-188.5 66l163 1333h213zM401 709l-63 -514q70 -41 184 -41q162 0 261.5 110t99.5 305q0 125 -57 187.5t-156 62.5 q-62 0 -134 -29.5t-135 -80.5z" />
<glyph unicode="c" d="M422 420q0 -133 74 -198.5t200 -65.5q76 0 155 28.5t134 69.5l35 -172q-79 -47 -184 -74.5t-201 -27.5q-92 0 -169.5 24t-139 73t-96.5 131t-35 189q0 149 47 266.5t128.5 191.5t187 112.5t226.5 38.5q197 0 344 -88l-92 -189q-113 102 -264 102q-91 0 -160.5 -35.5 t-109.5 -95.5t-60 -130.5t-20 -149.5z" />
<glyph unicode="d" d="M1124 905l-110 -905h-197l10 129q-74 -66 -169 -107.5t-185 -41.5q-168 0 -259 108.5t-91 292.5q0 143 44 261t122 197.5t186 123t234 43.5q96 0 211 -27l53 424h213l-64 -498h2zM836 287l20 170l39 327q-76 50 -199 50q-154 0 -250 -112t-96 -308q0 -124 55 -185 t152 -61q68 0 141.5 32t137.5 87z" />
<glyph unicode="e" d="M670 150q74 0 163.5 31.5t143.5 72.5l37 -170q-193 -104 -402 -104q-93 0 -173 26t-142 76.5t-97.5 133.5t-35.5 190q0 142 44.5 258.5t119.5 189.5t169 112.5t197 39.5q177 0 283 -96t106 -292q0 -59 -4 -90q-9 -75 -10 -77h-688v-21q0 -280 289 -280zM397 590h475 q5 45 5 55q0 96 -52 150.5t-141 54.5q-103 0 -180 -65t-107 -195z" />
<glyph unicode="f" d="M92 0l21 172h268l76 635h-207l20 149l207 13l8 65q24 191 143 290t312 99q69 0 142 -15t114 -38l-57 -180q-38 29 -95.5 46t-113.5 17q-97 0 -158 -55t-74 -166l-8 -63h354l-20 -162h-354l-76 -635h387l-20 -172h-869z" />
<glyph unicode="g" d="M1118 924l-106 -883q-63 -504 -568 -504q-203 0 -370 96l92 195q141 -117 303 -117q66 0 117.5 15.5t96.5 52t74.5 103.5t41.5 163l12 105q-71 -62 -160 -100t-176 -38q-168 0 -263 101t-95 278q0 188 80.5 329.5t215.5 213.5t304 72q219 0 401 -82zM831 319l60 476 q-85 39 -197 39q-158 0 -253 -110t-95 -298q0 -116 55.5 -170.5t153.5 -54.5q145 0 276 118z" />
<glyph unicode="h" d="M412 700l-84 -700h-213l172 1403h213l-68 -535q189 138 359 138q150 0 227.5 -74.5t77.5 -208.5q0 -19 -4 -59l-80 -664h-213l71 590q13 114 -24.5 168.5t-145.5 54.5q-68 0 -146 -31t-142 -82z" />
<glyph unicode="i" d="M98 0l21 172h344l78 637h-344l22 172h555l-98 -809h352l-20 -172h-910zM584 1294q0 56 42.5 100t100.5 44q49 0 81 -32.5t32 -80.5q0 -58 -43 -99.5t-101 -41.5q-48 0 -80 30t-32 80z" />
<glyph unicode="j" d="M221 809l21 172h729l-111 -903q-12 -100 -49 -181.5t-87 -136.5t-118.5 -96t-134.5 -64t-144.5 -37t-139 -18t-126.5 -4l15 185q52 0 95.5 2.5t101 11.5t103 25t94.5 45t83.5 68t60.5 98.5t35 132.5l86 700h-514zM780 1294q0 56 42 100t100 44q50 0 82 -32.5t32 -80.5 q0 -58 -42.5 -99.5t-100.5 -41.5q-50 0 -81.5 30t-31.5 80z" />
<glyph unicode="k" d="M682 520l350 -520h-264l-268 418l-125 -23l-47 -395h-213l172 1403h213l-105 -840l123 29l336 389h236z" />
<glyph unicode="l" d="M92 0l21 172h354l131 1061h-340l23 170h550l-151 -1231h342l-21 -172h-909z" />
<glyph unicode="m" d="M299 711l-86 -711h-184l118 981h170l-14 -147q133 172 266 172q80 0 120 -42t48 -124q128 166 267 166q97 0 134.5 -58.5t35.5 -161.5q0 -54 -9 -110l-80 -676h-186l78 645q8 66 8 86q2 54 -13 79.5t-54 25.5q-41 0 -89.5 -33.5t-93.5 -91.5l-4 -35l-82 -676h-184l78 645 q8 70 8 92q0 51 -15.5 75t-52.5 24q-43 0 -93 -34t-91 -91z" />
<glyph unicode="n" d="M412 700l-84 -700h-213l118 981h199l-12 -125q85 73 183.5 111.5t184.5 38.5q153 0 230.5 -73.5t77.5 -207.5q0 -21 -4 -61l-80 -664h-213l71 590q4 40 4 59q0 85 -41 125.5t-133 40.5q-67 0 -145 -32t-143 -83z" />
<glyph unicode="o" d="M672 1006q212 0 331 -114.5t119 -316.5q0 -165 -67.5 -299.5t-198.5 -215t-303 -80.5q-207 0 -328 115t-121 319q0 260 159 426t409 166zM330 420q0 -128 60 -199t177 -71q160 0 245 108t85 307q0 124 -61 197.5t-187 73.5q-69 0 -124 -23.5t-90.5 -62.5t-59.5 -93.5 t-34.5 -113t-10.5 -123.5z" />
<glyph unicode="p" d="M514 -20q-96 0 -201 24l-55 -455h-213l121 979h2l55 453h195l-10 -123q74 65 168 106.5t180 41.5q170 0 263 -109t93 -295q0 -142 -46 -260t-126.5 -196.5t-190 -122t-235.5 -43.5zM401 698l-61 -497q68 -47 190 -47q159 0 256 110.5t97 306.5q0 122 -57 185t-154 63 q-63 0 -137 -33.5t-134 -87.5z" />
<glyph unicode="q" d="M743 -451l70 568q-71 -60 -162.5 -98.5t-173.5 -38.5q-173 0 -263.5 107.5t-90.5 295.5q0 144 47 262.5t128.5 197t192 121t238.5 42.5q101 0 207 -24.5t188 -63.5l-51 -426l-8 -62l-51 -430h-2l-56 -451h-213zM563 168q131 0 271 117l26 207l37 296q-79 46 -192 46 q-158 0 -256.5 -110t-98.5 -304q0 -124 57.5 -188t155.5 -64z" />
<glyph unicode="r" d="M35 0l20 172h326l78 637h-309l22 172h502l-17 -193q73 98 179 152.5t200 54.5q32 0 66 -6l-43 -217q-41 14 -94 14q-72 0 -167 -46t-149 -111l-55 -457h422l-21 -172h-960z" />
<glyph unicode="s" d="M784 283q0 39 -29.5 67.5t-77 47t-104.5 35t-114 37t-104.5 48t-77 73.5t-29.5 107q0 101 63 172t161.5 103.5t221.5 32.5q105 0 203.5 -20.5t167.5 -57.5l-84 -185q-49 44 -126 71.5t-165 27.5q-42 0 -78.5 -5.5t-70.5 -17.5t-54 -35.5t-20 -56.5q0 -32 30 -55.5 t77.5 -40t105.5 -32.5t115.5 -39t105 -53.5t77.5 -81.5t30 -118q0 -75 -31.5 -134t-81 -94.5t-116.5 -58.5t-132 -31.5t-135 -8.5q-219 0 -362 81l77 187q129 -103 305 -103q42 0 81.5 6t80.5 19.5t65.5 42.5t24.5 70z" />
<glyph unicode="t" d="M608 807l-55 -455q-12 -101 28.5 -149.5t137.5 -48.5q122 0 244 77l18 -174q-157 -77 -328 -77q-152 0 -236.5 67t-84.5 205q0 21 4 61l59 494h-229l18 149l234 15l59 260h182l-30 -262h415l-20 -162h-416z" />
<glyph unicode="u" d="M809 285l86 696h213l-119 -981h-192l6 129q-87 -75 -184.5 -112t-180.5 -37q-146 0 -227 65.5t-80 208.5q0 36 4 68l82 659h213l-74 -596q-4 -40 -4 -53q-3 -94 38.5 -133t127.5 -39q65 0 143.5 35t147.5 90z" />
<glyph unicode="v" d="M682 0h-266l-232 981h228l166 -813l362 813h221z" />
<glyph unicode="w" d="M385 0h-217l-78 981h207l14 -801l267 656h167l107 -656l207 801h201l-326 -981h-217l-94 606z" />
<glyph unicode="x" d="M641 666l238 315h217l-359 -455l277 -526h-230l-190 377l-291 -377h-211l406 514l-244 467h229z" />
<glyph unicode="y" d="M1159 981l-710 -1432h-209l200 406l-254 1026h228l176 -768l358 768h211z" />
<glyph unicode="z" d="M399 172h621l-21 -172h-901l15 131l647 678h-531l21 172h829l-16 -131z" />
<glyph unicode="{" d="M696 -371q-85 0 -141 15t-85 47t-39.5 71t-10.5 97q0 28 8 98l51 432q7 56 -24 78t-95 25q-2 0 -22 1t-23 1l17 137q43 0 51 2q128 6 139 102l53 432q7 59 17.5 102t35.5 88t62 73.5t98.5 46.5t143.5 18h102l-16 -131h-76q-109 0 -147.5 -43.5t-49.5 -151.5l-40 -321 q-15 -123 -57 -193t-140 -94q133 -23 133 -194q0 -37 -6 -84l-39 -330q-8 -62 -8 -78q0 -60 32.5 -86.5t118.5 -26.5h82l-16 -133h-109z" />
<glyph unicode="|" d="M641 1405h168l-174 -1425h-170z" />
<glyph unicode="}" d="M317 -371h-108l16 133h84q56 0 91 10.5t55 36.5t29 58t16 86l39 330q15 120 59 192t137 88q-73 19 -103 67t-30 126q0 42 6 92l41 321q4 50 4 70q0 66 -34 95.5t-123 29.5h-74l16 131h103q85 0 142.5 -18t86.5 -53.5t40 -76t11 -96.5q0 -12 -1 -26t-2.5 -31t-2.5 -27 l-53 -432q-4 -53 25 -76t87 -26q4 0 27 -1t27 -1l-17 -137q-43 0 -49 -2q-68 -3 -102.5 -26.5t-40.5 -76.5l-51 -432q-7 -56 -15 -94t-24 -79t-40 -66.5t-60.5 -47t-89 -31.5t-122.5 -10z" />
<glyph unicode="~" d="M825 440q-61 0 -122 27t-103.5 59t-99 59t-109.5 27q-54 0 -107.5 -37.5t-119.5 -115.5l-96 78q96 127 177.5 174t172.5 47q54 0 109 -17.5t99.5 -42.5t85 -50t80 -42.5t70.5 -17.5q57 0 105.5 41t119.5 139l99 -78q-99 -142 -184.5 -196t-176.5 -54z" />
<glyph unicode="&#xa0;" />
<glyph unicode="&#xa1;" d="M729 -387h-201l56 457l73 432h158l-31 -434zM911 864q0 -62 -38.5 -104.5t-108.5 -42.5q-55 0 -88 26.5t-33 77.5q0 69 42 107.5t110 38.5q116 0 116 -103z" />
<glyph unicode="&#xa2;" d="M709 1163h127l-21 -159q144 -12 252 -72l-92 -193q-84 75 -180 86l-82 -667q115 12 209 86l36 -172q-119 -71 -266 -88l-16 -136h-129l16 134q-165 15 -261.5 124.5t-96.5 294.5q0 250 134.5 412.5t348.5 187.5zM430 424q0 -203 156 -256l80 649q-80 -22 -135 -87.5 t-78 -143.5t-23 -162z" />
<glyph unicode="&#xa3;" d="M281 590h-172l18 149h172l18 144q30 231 166.5 349t339.5 118q194 0 322 -115l-115 -156q-98 101 -219 101q-111 0 -186.5 -69t-94.5 -226l-18 -146h455l-19 -149h-454l-15 -121q-13 -101 -51 -171.5t-121 -125.5h418q112 0 179.5 36t119.5 101l88 -135 q-19 -30 -47.5 -57.5t-71.5 -55t-104 -44.5t-131 -17h-744l15 131q91 10 154 88.5t73 167.5z" />
<glyph unicode="&#xa4;" d="M190 96l-73 76l225 199q-35 65 -35 131q0 115 76 200l-176 199l92 86l180 -201q85 48 172 48q93 0 164 -50l232 201l73 -82l-231 -201q37 -53 37 -127q0 -107 -76 -202l180 -201l-96 -74l-178 195q-80 -49 -174 -49q-95 0 -162 49zM598 381q72 0 121 53.5t49 128.5 q0 58 -34.5 93.5t-96.5 35.5q-75 0 -122.5 -51t-47.5 -129q0 -59 35 -95t96 -36z" />
<glyph unicode="&#xa5;" d="M408 1331l251 -633l381 633h215l-456 -715h260l-19 -149h-309l-18 -148h309l-18 -149h-310l-20 -170h-217l20 170h-313l18 149h314l18 148h-313l18 149h258l-303 715h234z" />
<glyph unicode="&#xa6;" d="M641 1405h170l-74 -590h-170zM541 592h170l-76 -612h-170z" />
<glyph unicode="&#xa7;" d="M510 -106q0 77 -37 214.5t-82 263.5t-82 263t-37 213q0 95 43.5 178t114 141t159.5 100.5t181 62.5t178 20q140 0 254 -27l-26 -180q-125 84 -250 84q-88 0 -136.5 -52.5t-48.5 -136.5q0 -72 37 -210.5t81 -268.5t81 -268.5t37 -210.5q0 -85 -37 -160.5t-98.5 -129.5 t-137.5 -97.5t-158 -69.5t-156.5 -39.5t-135.5 -13.5q-144 0 -240 27l27 182q52 -36 115.5 -56t111.5 -20q105 0 173.5 47.5t68.5 143.5zM829 72q0 79 -35.5 211t-78 251t-78 255.5t-35.5 224.5q0 101 53 160q-116 -50 -174.5 -132t-58.5 -161q0 -76 36.5 -205.5t80 -248.5 t80 -256.5t36.5 -227.5t-41 -150q215 98 215 279z" />
<glyph unicode="&#xa8;" d="M410 1266q0 51 37 89t92 38q44 0 72 -30t28 -73q0 -52 -38.5 -88.5t-90.5 -36.5q-42 0 -71 29.5t-29 71.5zM778 1266q0 51 37 89t92 38q44 0 72.5 -30t28.5 -73q0 -52 -38.5 -88.5t-90.5 -36.5q-42 0 -71.5 29.5t-29.5 71.5z" />
<glyph unicode="&#xa9;" d="M553 -14q-158 0 -280 75t-186 204t-64 290q0 150 52.5 287t142.5 237t216 159.5t266 59.5q162 0 286.5 -75.5t189.5 -204.5t65 -291q0 -149 -51.5 -284.5t-141.5 -236.5t-219 -160.5t-276 -59.5zM561 66q124 0 233.5 51.5t187 139t122.5 208.5t45 256q0 138 -53.5 250 t-158 179t-243.5 67q-162 0 -295 -88t-208.5 -239.5t-75.5 -332.5q0 -217 123.5 -354t322.5 -137zM604 225q-178 0 -277.5 87.5t-99.5 254.5q0 155 66.5 268t175.5 168.5t246 55.5q69 0 137 -16t111 -42l-66 -133q-40 33 -95.5 51.5t-107.5 18.5q-134 0 -217.5 -94 t-83.5 -260q0 -117 61 -177.5t175 -60.5q122 0 233 64l23 -127q-131 -58 -281 -58z" />
<glyph unicode="&#xaa;" d="M496 563q-104 0 -165 48.5t-61 133.5q0 60 24.5 106.5t65 75.5t96.5 47.5t113 26t121 7.5q60 0 92 -7l13 80q2 12 2 33q0 103 -121 103q-32 0 -63 -7.5t-56.5 -28t-26.5 -51.5q0 -4 1 -8t2 -10t2 -10l-162 -21q-8 21 -8 47q0 98 94 160t235 62q128 0 206.5 -50.5 t78.5 -162.5q0 -27 -2 -43l-41 -314q0 -2 -1 -13t-1 -13q-3 -26 5 -44t30 -18q11 0 35 8l-7 -122q-62 -15 -106 -15q-123 0 -137 103q-116 -103 -258 -103zM565 696q101 0 191 82l16 133q-35 7 -102 7q-92 0 -150.5 -34.5t-58.5 -103.5q0 -84 104 -84z" />
<glyph unicode="&#xab;" d="M180 479l326 473h176l-276 -465l159 -481h-176zM598 479l324 473h176l-277 -465l160 -481h-176z" />
<glyph unicode="&#xac;" d="M948 119l51 420h-929l16 133h1088l-68 -553h-158z" />
<glyph unicode="&#xad;" d="M877 432h-545l22 182h545z" />
<glyph unicode="&#xae;" d="M596 344q-187 0 -312.5 128t-125.5 323q0 151 71.5 278t198.5 202t279 75q190 0 317 -127.5t127 -321.5q0 -154 -75 -282.5t-202 -201.5t-278 -73zM606 416q126 0 231 58.5t168.5 168.5t63.5 250q0 164 -104 273.5t-267 109.5q-193 0 -325.5 -135t-132.5 -346 q0 -174 104.5 -276.5t261.5 -102.5zM395 528l80 648h225q228 0 228 -177q0 -85 -40.5 -142.5t-113.5 -82.5l96 -246h-141l-78 226h-100l-27 -226h-129zM563 846h90q66 0 103 33t37 114q0 46 -26 66t-87 20h-88z" />
<glyph unicode="&#xaf;" d="M440 1214l17 142h524l-18 -142h-523z" />
<glyph unicode="&#xb0;" d="M653 805q-121 0 -190.5 64.5t-69.5 172.5q0 136 91.5 222t234.5 86q117 0 186.5 -62.5t69.5 -169.5q0 -141 -90 -227t-232 -86zM666 907q83 0 131.5 56.5t48.5 144.5q0 62 -36.5 99.5t-102.5 37.5q-86 0 -136.5 -52.5t-50.5 -137.5q0 -66 38.5 -107t107.5 -41z" />
<glyph unicode="&#xb1;" d="M500 258l37 289h-342l16 145h342l37 295h166l-37 -295h344l-19 -145h-342l-36 -289h-166zM127 -4l16 145h852l-18 -145h-850z" />
<glyph unicode="&#xb4;" d="M911 1348l-336 -230l-69 86l305 281z" />
<glyph unicode="&#xb5;" d="M809 285l86 696h213l-119 -981h-192l6 129q-174 -152 -357 -152q-45 0 -92.5 12.5t-66.5 35.5q22 -42 22 -152q0 -30 -4 -66l-33 -258h-213l179 1432h213l-74 -596q-6 -37 -6 -66q0 -89 39.5 -124t117.5 -35q124 0 281 125z" />
<glyph unicode="&#xb6;" d="M854 1331l-219 -1782h-174l92 740q-186 52 -286.5 181t-100.5 292q0 88 26 169.5t82 154.5t135.5 127.5t194 86t250.5 31.5zM801 -451l219 1782h174l-219 -1782h-174z" />
<glyph unicode="&#xb7;" d="M494 588q0 58 42 99.5t103 41.5q50 0 83.5 -30.5t33.5 -77.5q0 -64 -43.5 -104t-102.5 -40q-52 0 -84 30.5t-32 80.5z" />
<glyph unicode="&#xb8;" d="M289 -424l59 119q47 -51 121 -51q47 0 75.5 21t28.5 56q0 80 -153 86l82 216h110l-51 -138q83 -13 125.5 -56t42.5 -103q0 -89 -75 -143t-183 -54q-52 0 -102.5 13.5t-79.5 33.5z" />
<glyph unicode="&#xba;" d="M625 563q-171 0 -265 88t-94 244q0 199 122 327t327 128q174 0 266 -88t92 -242q0 -73 -18 -140.5t-55.5 -125t-90 -100t-125.5 -67t-159 -24.5zM637 702q244 0 244 314q0 196 -183 196q-126 0 -183.5 -86t-57.5 -229q0 -195 180 -195z" />
<glyph unicode="&#xbb;" d="M416 952l207 -473l-324 -473h-176l280 481l-163 465h176zM834 952l204 -473l-321 -473h-176l278 481l-162 465h177z" />
<glyph unicode="&#xbf;" d="M262 -147q0 62 25.5 116t66.5 93t90 73.5t98.5 65.5t90.5 61.5t66.5 68t25.5 79.5q0 38 -33 96l217 53q21 -62 21 -119q0 -58 -24 -110t-62 -90.5t-84.5 -74t-93 -68t-84.5 -64.5t-62 -71t-24 -81q0 -59 48.5 -88t131.5 -29q162 0 289 111l73 -143q-188 -135 -413 -135 q-166 0 -264.5 66t-98.5 190zM952 866q0 -62 -39 -104.5t-110 -42.5q-55 0 -88 26.5t-33 77.5q0 69 42 107.5t110 38.5q118 0 118 -103z" />
<glyph unicode="&#xc0;" d="M203 0h-221l612 1331h237l293 -1331h-231l-64 328h-487zM795 502l-117 612l-262 -612h379zM807 1411l-365 156l99 168l329 -219z" />
<glyph unicode="&#xc1;" d="M203 0h-221l612 1331h237l293 -1331h-231l-64 328h-487zM795 502l-117 612l-262 -612h379zM1022 1567l-399 -156l-41 105l385 219z" />
<glyph unicode="&#xc2;" d="M203 0h-221l612 1331h237l293 -1331h-231l-64 328h-487zM795 502l-117 612l-262 -612h379zM819 1741l225 -201l-96 -108l-207 159l-239 -159l-64 104l277 205h104z" />
<glyph unicode="&#xc3;" d="M203 0h-221l612 1331h237l293 -1331h-231l-64 328h-487zM795 502l-117 612l-262 -612h379zM457 1473l-62 71q117 142 228 142q52 0 134 -30t122 -30q76 0 137 64l61 -76q-48 -64 -110 -101.5t-121 -37.5q-42 0 -123 30.5t-123 30.5q-80 0 -143 -63z" />
<glyph unicode="&#xc4;" d="M203 0h-221l612 1331h237l293 -1331h-231l-64 328h-487zM795 502l-117 612l-262 -612h379zM426 1575q0 51 36 90t91 39q44 0 73 -28.5t29 -71.5q0 -52 -38 -90.5t-89 -38.5q-43 0 -72.5 29.5t-29.5 70.5zM815 1575q0 51 36 90t91 39q44 0 73 -28.5t29 -71.5 q0 -52 -37.5 -90.5t-88.5 -38.5q-43 0 -73 29.5t-30 70.5z" />
<glyph unicode="&#xc5;" d="M203 0h-221l612 1331h237l293 -1331h-231l-64 328h-487zM725 1405q-90 0 -142.5 49.5t-52.5 128.5q0 108 72.5 168.5t173.5 60.5q85 0 139 -46t54 -130q0 -97 -67.5 -164t-176.5 -67zM795 502l-117 612l-262 -612h379zM735 1507q111 0 111 123q0 82 -84 82 q-113 0 -113 -121q0 -84 86 -84z" />
<glyph unicode="&#xc6;" d="M1311 1331l-23 -182h-403l-47 -377h338l-21 -180h-338l-51 -406h403l-22 -186h-598l35 297h-277l-137 -297h-221l661 1331h701zM385 465h219l80 649z" />
<glyph unicode="&#xc7;" d="M387 -424l59 119q47 -51 121 -51q47 0 76 21t29 56q0 38 -39 60.5t-115 25.5l66 177q-224 19 -344.5 156.5t-120.5 387.5q0 197 54 354t151 259t228 155.5t286 53.5q215 0 360 -88l-96 -193q-112 98 -287 98q-214 0 -339.5 -160t-125.5 -460q0 -187 87.5 -286t258.5 -99 q192 0 340 88l31 -176q-171 -85 -373 -94l-35 -95q83 -13 125.5 -56t42.5 -103q0 -89 -75 -143t-183 -54q-52 0 -102.5 13.5t-79.5 33.5z" />
<glyph unicode="&#xc8;" d="M834 1411l-365 156l98 168l330 -219zM250 1331h928l-23 -182h-711l-45 -377h643l-20 -180h-645l-49 -406h708l-22 -186h-926z" />
<glyph unicode="&#xc9;" d="M1022 1567l-399 -156l-41 105l385 219zM250 1331h928l-23 -182h-711l-45 -377h643l-20 -180h-645l-49 -406h708l-22 -186h-926z" />
<glyph unicode="&#xca;" d="M250 1331h928l-23 -182h-711l-45 -377h643l-20 -180h-645l-49 -406h708l-22 -186h-926zM846 1741l225 -201l-96 -108l-207 159l-240 -159l-63 104l276 205h105z" />
<glyph unicode="&#xcb;" d="M459 1575q0 51 36 90t91 39q44 0 73 -28.5t29 -71.5q0 -52 -38 -90.5t-89 -38.5q-43 0 -72.5 29.5t-29.5 70.5zM848 1575q0 51 36 90t91 39q44 0 73 -28.5t29 -71.5q0 -52 -38 -90.5t-89 -38.5q-43 0 -72.5 29.5t-29.5 70.5zM250 1331h928l-23 -182h-711l-45 -377h643 l-20 -180h-645l-49 -406h708l-22 -186h-926z" />
<glyph unicode="&#xcc;" d="M82 0l22 186h363l117 961h-363l23 184h950l-23 -184h-370l-117 -961h371l-23 -186h-950zM807 1411l-365 156l99 168l329 -219z" />
<glyph unicode="&#xcd;" d="M82 0l22 186h363l117 961h-363l23 184h950l-23 -184h-370l-117 -961h371l-23 -186h-950zM1012 1567l-400 -156l-41 105l385 219z" />
<glyph unicode="&#xce;" d="M82 0l22 186h363l117 961h-363l23 184h950l-23 -184h-370l-117 -961h371l-23 -186h-950zM811 1741l225 -201l-96 -108l-207 159l-239 -159l-64 104l277 205h104z" />
<glyph unicode="&#xcf;" d="M82 0l22 186h363l117 961h-363l23 184h950l-23 -184h-370l-117 -961h371l-23 -186h-950zM821 1575q0 51 36 90t91 39q44 0 73.5 -28.5t29.5 -71.5q0 -52 -38 -90.5t-89 -38.5q-43 0 -73 29.5t-30 70.5zM432 1575q0 51 36 90t91 39q44 0 73.5 -28.5t29.5 -71.5 q0 -52 -38 -90.5t-89 -38.5q-43 0 -73 29.5t-30 70.5z" />
<glyph unicode="&#xd0;" d="M43 0l72 592h-103l21 168h102l70 571h442q551 0 551 -528q0 -84 -8 -160t-30 -158.5t-56.5 -151t-91 -132t-130 -107t-177 -69t-228.5 -25.5h-434zM618 1149h-219l-47 -389h232l-21 -168h-231l-49 -406h233q112 0 195 37.5t130.5 95.5t76.5 142.5t38 162t9 171.5 q0 62 -9 112t-33 96.5t-62 77.5t-100 49.5t-143 18.5z" />
<glyph unicode="&#xd1;" d="M494 1473l-62 71q117 142 227 142q52 0 134 -30t122 -30q77 0 138 64l61 -76q-48 -64 -110 -101.5t-121 -37.5q-42 0 -123 30.5t-123 30.5q-80 0 -143 -63zM371 1014l-123 -1014h-205l162 1331h237l459 -983l121 983h205l-162 -1331h-223z" />
<glyph unicode="&#xd2;" d="M817 1411l-364 156l98 168l330 -219zM715 1350q489 0 489 -525q0 -145 -25 -271.5t-77.5 -232t-129 -181.5t-184.5 -118t-239 -42q-245 0 -366.5 140t-121.5 392q0 250 73 437t222 294t359 107zM565 162q91 0 163 40t117.5 105.5t76 156t43 185.5t12.5 199 q0 319 -275 319q-90 0 -160.5 -35t-117 -95.5t-77 -148t-43.5 -188t-13 -219.5q0 -319 274 -319z" />
<glyph unicode="&#xd3;" d="M1022 1567l-399 -156l-41 105l385 219zM715 1350q489 0 489 -525q0 -145 -25 -271.5t-77.5 -232t-129 -181.5t-184.5 -118t-239 -42q-245 0 -366.5 140t-121.5 392q0 250 73 437t222 294t359 107zM565 162q91 0 163 40t117.5 105.5t76 156t43 185.5t12.5 199 q0 319 -275 319q-90 0 -160.5 -35t-117 -95.5t-77 -148t-43.5 -188t-13 -219.5q0 -319 274 -319z" />
<glyph unicode="&#xd4;" d="M715 1350q489 0 489 -525q0 -145 -25 -271.5t-77.5 -232t-129 -181.5t-184.5 -118t-239 -42q-245 0 -366.5 140t-121.5 392q0 250 73 437t222 294t359 107zM565 162q91 0 163 40t117.5 105.5t76 156t43 185.5t12.5 199q0 319 -275 319q-90 0 -160.5 -35t-117 -95.5 t-77 -148t-43.5 -188t-13 -219.5q0 -319 274 -319zM838 1741l225 -201l-96 -108l-207 159l-240 -159l-63 104l276 205h105z" />
<glyph unicode="&#xd5;" d="M471 1473l-61 71q117 142 227 142q52 0 134 -30t122 -30q76 0 137 64l62 -76q-48 -64 -110.5 -101.5t-121.5 -37.5q-42 0 -123 30.5t-123 30.5q-80 0 -143 -63zM715 1350q489 0 489 -525q0 -145 -25 -271.5t-77.5 -232t-129 -181.5t-184.5 -118t-239 -42 q-245 0 -366.5 140t-121.5 392q0 250 73 437t222 294t359 107zM565 162q91 0 163 40t117.5 105.5t76 156t43 185.5t12.5 199q0 319 -275 319q-90 0 -160.5 -35t-117 -95.5t-77 -148t-43.5 -188t-13 -219.5q0 -319 274 -319z" />
<glyph unicode="&#xd6;" d="M428 1575q0 51 36 90t91 39q44 0 73 -28.5t29 -71.5q0 -52 -38 -90.5t-89 -38.5q-43 0 -72.5 29.5t-29.5 70.5zM817 1575q0 51 36 90t91 39q44 0 73.5 -28.5t29.5 -71.5q0 -52 -38 -90.5t-89 -38.5q-43 0 -73 29.5t-30 70.5zM715 1350q489 0 489 -525q0 -145 -25 -271.5 t-77.5 -232t-129 -181.5t-184.5 -118t-239 -42q-245 0 -366.5 140t-121.5 392q0 250 73 437t222 294t359 107zM565 162q91 0 163 40t117.5 105.5t76 156t43 185.5t12.5 199q0 319 -275 319q-90 0 -160.5 -35t-117 -95.5t-77 -148t-43.5 -188t-13 -219.5q0 -319 274 -319z " />
<glyph unicode="&#xd7;" d="M819 248l-215 227l-264 -225l-94 100l266 225l-211 224l129 108l209 -223l264 225l96 -102l-268 -221l215 -232z" />
<glyph unicode="&#xd8;" d="M715 1350q223 0 344 -109l86 100h147l-162 -188q74 -127 74 -328q0 -145 -25 -271.5t-77.5 -232t-129 -181.5t-184.5 -118t-239 -42q-213 0 -334 106l-82 -96h-156l162 188q-78 127 -78 334q0 250 73 437t222 294t359 107zM291 481q0 -58 10 -116l614 712q-68 90 -213 90 q-90 0 -160.5 -35t-117 -95.5t-77 -148t-43.5 -188t-13 -219.5zM565 162q91 0 163 40t117.5 105.5t76 156t43 185.5t12.5 199q0 55 -10 113l-613 -713q67 -86 211 -86z" />
<glyph unicode="&#xd9;" d="M844 1411l-365 156l99 168l329 -219zM903 516l101 815h210l-104 -846q-31 -249 -175 -377t-388 -128q-220 0 -334 95t-111 296q0 21 9 104l104 856h217l-100 -825q-8 -66 -8 -92q-3 -135 55 -194.5t196 -59.5q158 0 231.5 81t96.5 275z" />
<glyph unicode="&#xda;" d="M1022 1567l-399 -156l-41 105l385 219zM903 516l101 815h210l-104 -846q-31 -249 -175 -377t-388 -128q-220 0 -334 95t-111 296q0 21 9 104l104 856h217l-100 -825q-8 -66 -8 -92q-3 -135 55 -194.5t196 -59.5q158 0 231.5 81t96.5 275z" />
<glyph unicode="&#xdb;" d="M903 516l101 815h210l-104 -846q-31 -249 -175 -377t-388 -128q-220 0 -334 95t-111 296q0 21 9 104l104 856h217l-100 -825q-8 -66 -8 -92q-3 -135 55 -194.5t196 -59.5q158 0 231.5 81t96.5 275zM821 1741l226 -201l-97 -108l-207 159l-239 -159l-64 104l277 205h104z " />
<glyph unicode="&#xdc;" d="M430 1575q0 51 36 90t91 39q44 0 73 -28.5t29 -71.5q0 -52 -38 -90.5t-89 -38.5q-43 0 -72.5 29.5t-29.5 70.5zM819 1575q0 51 36 90t91 39q44 0 73.5 -28.5t29.5 -71.5q0 -52 -38 -90.5t-89 -38.5q-43 0 -73 29.5t-30 70.5zM903 516l101 815h210l-104 -846 q-31 -249 -175 -377t-388 -128q-220 0 -334 95t-111 296q0 21 9 104l104 856h217l-100 -825q-8 -66 -8 -92q-3 -135 55 -194.5t196 -59.5q158 0 231.5 81t96.5 275z" />
<glyph unicode="&#xdd;" d="M408 1331l251 -633l381 633h215l-518 -809l-63 -522h-217l63 514l-346 817h234zM1018 1567l-400 -156l-40 105l385 219z" />
<glyph unicode="&#xde;" d="M260 1331h217l-20 -170h213q221 0 325.5 -96.5t104.5 -267.5q0 -241 -145 -381t-390 -140h-217l-33 -276h-217zM578 465q132 0 210 75t78 238q0 100 -53.5 149.5t-179.5 49.5h-197l-63 -512h205z" />
<glyph unicode="&#xdf;" d="M764 729q0 -36 30 -64.5t74.5 -47.5t97 -45.5t97 -56t74.5 -81t30 -117.5q0 -75 -24.5 -134t-64 -96.5t-94.5 -62t-112 -34.5t-120 -10q-188 0 -310 81l76 187q38 -43 101 -73t139 -30q85 0 139.5 35t54.5 107q0 45 -41.5 78t-100 57t-117.5 52.5t-100.5 80.5t-41.5 125 q0 58 22.5 109t56 84.5t73 68t73 61t56 60.5t22.5 70q0 56 -42.5 88t-125.5 32q-223 0 -256 -272l-119 -981h-205l99 807h-131l18 149l133 13l6 49q13 105 58 184.5t112 127t146 70.5t168 23q182 0 273 -71.5t91 -186.5q0 -46 -17.5 -87.5t-45 -72t-61 -58.5t-67.5 -53 t-61.5 -50t-45 -54.5t-17.5 -60.5z" />
<glyph unicode="&#xe0;" d="M748 262l18 162q-55 6 -129 6q-283 0 -283 -170q0 -57 39 -87t107 -30q133 0 248 119zM782 559l15 94q18 100 -30 144.5t-140 44.5q-30 0 -61 -6t-62.5 -19t-52 -39t-21.5 -61q0 -9 4 -29l-190 -26q-8 24 -8 55q0 84 56.5 150.5t151 102.5t207.5 36q86 0 153.5 -18 t119 -56.5t74.5 -105.5t12 -158l-56 -420q-11 -103 60 -103q14 0 39 7l-6 -154q-60 -18 -125 -18q-83 0 -129 40t-52 109q-141 -149 -333 -149q-125 0 -201 66.5t-76 184.5q0 334 535 334q41 0 116 -6zM698 1118l-278 230l131 137l237 -281z" />
<glyph unicode="&#xe1;" d="M748 262l18 162q-55 6 -129 6q-283 0 -283 -170q0 -57 39 -87t107 -30q133 0 248 119zM782 559l15 94q18 100 -30 144.5t-140 44.5q-30 0 -61 -6t-62.5 -19t-52 -39t-21.5 -61q0 -9 4 -29l-190 -26q-8 24 -8 55q0 84 56.5 150.5t151 102.5t207.5 36q86 0 153.5 -18 t119 -56.5t74.5 -105.5t12 -158l-56 -420q-11 -103 60 -103q14 0 39 7l-6 -154q-60 -18 -125 -18q-83 0 -129 40t-52 109q-141 -149 -333 -149q-125 0 -201 66.5t-76 184.5q0 334 535 334q41 0 116 -6zM967 1348l-336 -230l-70 86l305 281z" />
<glyph unicode="&#xe2;" d="M748 262l18 162q-55 6 -129 6q-283 0 -283 -170q0 -57 39 -87t107 -30q133 0 248 119zM782 559l15 94q18 100 -30 144.5t-140 44.5q-30 0 -61 -6t-62.5 -19t-52 -39t-21.5 -61q0 -9 4 -29l-190 -26q-8 24 -8 55q0 84 56.5 150.5t151 102.5t207.5 36q86 0 153.5 -18 t119 -56.5t74.5 -105.5t12 -158l-56 -420q-11 -103 60 -103q14 0 39 7l-6 -154q-60 -18 -125 -18q-83 0 -129 40t-52 109q-141 -149 -333 -149q-125 0 -201 66.5t-76 184.5q0 334 535 334q41 0 116 -6zM764 1446l225 -246l-117 -98l-184 190l-235 -190l-86 94l295 250h102z " />
<glyph unicode="&#xe3;" d="M748 262l18 162q-55 6 -129 6q-283 0 -283 -170q0 -57 39 -87t107 -30q133 0 248 119zM782 559l15 94q18 100 -30 144.5t-140 44.5q-30 0 -61 -6t-62.5 -19t-52 -39t-21.5 -61q0 -9 4 -29l-190 -26q-8 24 -8 55q0 84 56.5 150.5t151 102.5t207.5 36q86 0 153.5 -18 t119 -56.5t74.5 -105.5t12 -158l-56 -420q-11 -103 60 -103q14 0 39 7l-6 -154q-60 -18 -125 -18q-83 0 -129 40t-52 109q-141 -149 -333 -149q-125 0 -201 66.5t-76 184.5q0 334 535 334q41 0 116 -6zM418 1184l-62 69q112 142 224 142q52 0 124.5 -29t112.5 -29 q80 0 139 64l60 -78q-104 -139 -221 -139q-42 0 -117 31.5t-117 31.5q-80 0 -143 -63z" />
<glyph unicode="&#xe4;" d="M748 262l18 162q-55 6 -129 6q-283 0 -283 -170q0 -57 39 -87t107 -30q133 0 248 119zM782 559l15 94q18 100 -30 144.5t-140 44.5q-30 0 -61 -6t-62.5 -19t-52 -39t-21.5 -61q0 -9 4 -29l-190 -26q-8 24 -8 55q0 84 56.5 150.5t151 102.5t207.5 36q86 0 153.5 -18 t119 -56.5t74.5 -105.5t12 -158l-56 -420q-11 -103 60 -103q14 0 39 7l-6 -154q-60 -18 -125 -18q-83 0 -129 40t-52 109q-141 -149 -333 -149q-125 0 -201 66.5t-76 184.5q0 334 535 334q41 0 116 -6zM385 1266q0 51 37 89t92 38q44 0 72 -30t28 -73q0 -52 -38.5 -88.5 t-90.5 -36.5q-42 0 -71 29.5t-29 71.5zM754 1266q0 51 37 89t92 38q44 0 72 -30t28 -73q0 -52 -38.5 -88.5t-90.5 -36.5q-42 0 -71 29.5t-29 71.5z" />
<glyph unicode="&#xe5;" d="M748 262l18 162q-55 6 -129 6q-283 0 -283 -170q0 -57 39 -87t107 -30q133 0 248 119zM782 559l15 94q18 100 -30 144.5t-140 44.5q-30 0 -61 -6t-62.5 -19t-52 -39t-21.5 -61q0 -9 4 -29l-190 -26q-8 24 -8 55q0 84 56.5 150.5t151 102.5t207.5 36q86 0 153.5 -18 t119 -56.5t74.5 -105.5t12 -158l-56 -420q-11 -103 60 -103q14 0 39 7l-6 -154q-60 -18 -125 -18q-83 0 -129 40t-52 109q-141 -149 -333 -149q-125 0 -201 66.5t-76 184.5q0 334 535 334q41 0 116 -6zM666 1110q-90 0 -143.5 49.5t-53.5 128.5q0 108 72.5 169t173.5 61 q86 0 140 -46.5t54 -130.5q0 -96 -67.5 -163.5t-175.5 -67.5zM676 1212q110 0 110 123q0 82 -86 82q-110 0 -110 -121q0 -84 86 -84z" />
<glyph unicode="&#xe6;" d="M414 846q-57 0 -103 -29t-49 -94q0 -23 4 -35l-164 -26q-4 32 -4 49q0 129 95.5 212t244.5 83q183 0 238 -123q109 123 260 123q137 0 205.5 -82t68.5 -258q0 -72 -20 -215h-510q-4 -40 -4 -60q3 -120 54.5 -180.5t141.5 -60.5q63 0 126 26.5t110 67.5l29 -170 q-148 -94 -306 -94q-102 0 -182 46t-121 140q-63 -91 -145.5 -138.5t-169.5 -47.5q-108 0 -169.5 61.5t-61.5 171.5q0 66 18.5 119.5t52 90t75 63t93.5 41.5t101.5 22t103.5 8q28 0 78 -4q4 40 18 82q10 53 10 88q0 66 -28.5 94.5t-89.5 28.5zM172 254q0 -56 28.5 -86.5 t82.5 -30.5q63 0 118.5 38t96.5 97q-13 47 -13 103v47q-35 6 -79 6q-107 0 -170.5 -42.5t-63.5 -131.5zM696 590h332q8 58 8 94q0 172 -118 172q-85 0 -139.5 -66t-82.5 -200z" />
<glyph unicode="&#xe7;" d="M377 -426l59 119q47 -51 121 -51q47 0 76 21t29 56q0 38 -39 60.5t-115 25.5l67 179q-81 7 -148.5 34.5t-120 77t-82 126.5t-29.5 175q0 149 47 266.5t128.5 191.5t187 112.5t226.5 38.5q197 0 344 -88l-92 -189q-113 102 -264 102q-91 0 -160.5 -35.5t-109.5 -95.5 t-60 -130.5t-20 -149.5q0 -133 74 -198.5t200 -65.5q76 0 155 28.5t134 69.5l35 -172q-68 -41 -157.5 -67.5t-176.5 -32.5l-37 -99q83 -13 125.5 -56t42.5 -103q0 -89 -75 -143t-183 -54q-52 0 -102.5 13.5t-79.5 33.5z" />
<glyph unicode="&#xe8;" d="M670 150q74 0 163.5 31.5t143.5 72.5l37 -170q-193 -104 -402 -104q-93 0 -173 26t-142 76.5t-97.5 133.5t-35.5 190q0 142 44.5 258.5t119.5 189.5t169 112.5t197 39.5q177 0 283 -96t106 -292q0 -59 -4 -90q-9 -75 -10 -77h-688v-21q0 -280 289 -280zM397 590h475 q5 45 5 55q0 96 -52 150.5t-141 54.5q-103 0 -180 -65t-107 -195zM778 1118l-278 230l131 137l237 -281z" />
<glyph unicode="&#xe9;" d="M670 150q74 0 163.5 31.5t143.5 72.5l37 -170q-193 -104 -402 -104q-93 0 -173 26t-142 76.5t-97.5 133.5t-35.5 190q0 142 44.5 258.5t119.5 189.5t169 112.5t197 39.5q177 0 283 -96t106 -292q0 -59 -4 -90q-9 -75 -10 -77h-688v-21q0 -280 289 -280zM397 590h475 q5 45 5 55q0 96 -52 150.5t-141 54.5q-103 0 -180 -65t-107 -195zM993 1348l-336 -230l-69 86l305 281z" />
<glyph unicode="&#xea;" d="M670 150q74 0 163.5 31.5t143.5 72.5l37 -170q-193 -104 -402 -104q-93 0 -173 26t-142 76.5t-97.5 133.5t-35.5 190q0 142 44.5 258.5t119.5 189.5t169 112.5t197 39.5q177 0 283 -96t106 -292q0 -59 -4 -90q-9 -75 -10 -77h-688v-21q0 -280 289 -280zM823 1446 l226 -246l-117 -98l-184 190l-236 -190l-86 94l295 250h102zM397 590h475q5 45 5 55q0 96 -52 150.5t-141 54.5q-103 0 -180 -65t-107 -195z" />
<glyph unicode="&#xeb;" d="M670 150q74 0 163.5 31.5t143.5 72.5l37 -170q-193 -104 -402 -104q-93 0 -173 26t-142 76.5t-97.5 133.5t-35.5 190q0 142 44.5 258.5t119.5 189.5t169 112.5t197 39.5q177 0 283 -96t106 -292q0 -59 -4 -90q-9 -75 -10 -77h-688v-21q0 -280 289 -280zM397 590h475 q5 45 5 55q0 96 -52 150.5t-141 54.5q-103 0 -180 -65t-107 -195zM821 1266q0 51 37 89t92 38q44 0 72.5 -30t28.5 -73q0 -52 -38.5 -88.5t-90.5 -36.5q-42 0 -71.5 29.5t-29.5 71.5zM453 1266q0 51 37 89t92 38q44 0 72 -30t28 -73q0 -52 -38.5 -88.5t-90.5 -36.5 q-42 0 -71 29.5t-29 71.5z" />
<glyph unicode="&#xec;" d="M98 0l21 172h344l78 637h-344l22 172h555l-98 -809h352l-20 -172h-910zM723 1118l-279 230l131 137l238 -281z" />
<glyph unicode="&#xed;" d="M98 0l21 172h344l78 637h-344l22 172h555l-98 -809h352l-20 -172h-910zM946 1348l-336 -230l-69 86l305 281z" />
<glyph unicode="&#xee;" d="M98 0l21 172h344l78 637h-344l22 172h555l-98 -809h352l-20 -172h-910zM780 1446l226 -246l-117 -98l-184 190l-236 -190l-86 94l295 250h102z" />
<glyph unicode="&#xef;" d="M98 0l21 172h344l78 637h-344l22 172h555l-98 -809h352l-20 -172h-910zM778 1266q0 51 37 89t92 38q44 0 72.5 -30t28.5 -73q0 -52 -38.5 -88.5t-90.5 -36.5q-42 0 -71.5 29.5t-29.5 71.5zM410 1266q0 51 37 89t92 38q44 0 72 -30t28 -73q0 -52 -38.5 -88.5t-90.5 -36.5 q-42 0 -71 29.5t-29 71.5z" />
<glyph unicode="&#xf0;" d="M641 983q103 0 176 -43q-67 125 -166 211l-116 -117l-91 68l117 121q-66 42 -98 59l119 135l110 -61l103 104l92 -74l-99 -98q320 -248 320 -653q0 -132 -34 -248t-100 -208t-174.5 -145.5t-246.5 -53.5q-205 0 -319.5 112.5t-114.5 315.5q0 157 62.5 287t183 209 t276.5 79zM344 412q0 -124 55 -193t170 -69q314 0 314 466q0 74 -13 144q-40 30 -99 47.5t-116 17.5q-71 0 -126.5 -24t-89.5 -63.5t-56 -94.5t-30.5 -111t-8.5 -120z" />
<glyph unicode="&#xf1;" d="M412 700l-84 -700h-213l118 981h199l-12 -125q85 73 183.5 111.5t184.5 38.5q153 0 230.5 -73.5t77.5 -207.5q0 -21 -4 -61l-80 -664h-213l71 590q4 40 4 59q0 85 -41 125.5t-133 40.5q-67 0 -145 -32t-143 -83zM442 1184l-61 69q112 142 223 142q52 0 125 -29t113 -29 q80 0 139 64l59 -78q-104 -139 -221 -139q-42 0 -116.5 31.5t-116.5 31.5q-81 0 -144 -63z" />
<glyph unicode="&#xf2;" d="M672 1006q212 0 331 -114.5t119 -316.5q0 -165 -67.5 -299.5t-198.5 -215t-303 -80.5q-207 0 -328 115t-121 319q0 260 159 426t409 166zM330 420q0 -128 60 -199t177 -71q160 0 245 108t85 307q0 124 -61 197.5t-187 73.5q-69 0 -124 -23.5t-90.5 -62.5t-59.5 -93.5 t-34.5 -113t-10.5 -123.5zM705 1118l-279 230l131 137l238 -281z" />
<glyph unicode="&#xf3;" d="M952 1348l-336 -230l-69 86l305 281zM672 1006q212 0 331 -114.5t119 -316.5q0 -165 -67.5 -299.5t-198.5 -215t-303 -80.5q-207 0 -328 115t-121 319q0 260 159 426t409 166zM330 420q0 -128 60 -199t177 -71q160 0 245 108t85 307q0 124 -61 197.5t-187 73.5 q-69 0 -124 -23.5t-90.5 -62.5t-59.5 -93.5t-34.5 -113t-10.5 -123.5z" />
<glyph unicode="&#xf4;" d="M784 1446l226 -246l-117 -98l-184 190l-236 -190l-86 94l295 250h102zM672 1006q212 0 331 -114.5t119 -316.5q0 -165 -67.5 -299.5t-198.5 -215t-303 -80.5q-207 0 -328 115t-121 319q0 260 159 426t409 166zM330 420q0 -128 60 -199t177 -71q160 0 245 108t85 307 q0 124 -61 197.5t-187 73.5q-69 0 -124 -23.5t-90.5 -62.5t-59.5 -93.5t-34.5 -113t-10.5 -123.5z" />
<glyph unicode="&#xf5;" d="M672 1006q212 0 331 -114.5t119 -316.5q0 -165 -67.5 -299.5t-198.5 -215t-303 -80.5q-207 0 -328 115t-121 319q0 260 159 426t409 166zM330 420q0 -128 60 -199t177 -71q160 0 245 108t85 307q0 124 -61 197.5t-187 73.5q-69 0 -124 -23.5t-90.5 -62.5t-59.5 -93.5 t-34.5 -113t-10.5 -123.5zM438 1184l-61 69q112 142 223 142q52 0 125 -29t113 -29q80 0 139 64l59 -78q-104 -139 -221 -139q-42 0 -116.5 31.5t-116.5 31.5q-81 0 -144 -63z" />
<glyph unicode="&#xf6;" d="M406 1266q0 51 37 89t92 38q44 0 72 -30t28 -73q0 -52 -38.5 -88.5t-90.5 -36.5q-42 0 -71 29.5t-29 71.5zM774 1266q0 51 37 89t92 38q44 0 72.5 -30t28.5 -73q0 -52 -39 -88.5t-91 -36.5q-42 0 -71 29.5t-29 71.5zM672 1006q212 0 331 -114.5t119 -316.5 q0 -165 -67.5 -299.5t-198.5 -215t-303 -80.5q-207 0 -328 115t-121 319q0 260 159 426t409 166zM330 420q0 -128 60 -199t177 -71q160 0 245 108t85 307q0 124 -61 197.5t-187 73.5q-69 0 -124 -23.5t-90.5 -62.5t-59.5 -93.5t-34.5 -113t-10.5 -123.5z" />
<glyph unicode="&#xf7;" d="M1004 518h-777l19 148h776zM545 864q0 51 37.5 91t91.5 40q44 0 73 -29.5t29 -72.5q0 -53 -39 -91t-90 -38q-44 0 -73 28.5t-29 71.5zM473 285q0 51 37.5 91t91.5 40q44 0 73.5 -30t29.5 -73q0 -53 -39.5 -91t-90.5 -38q-44 0 -73 29t-29 72z" />
<glyph unicode="&#xf8;" d="M672 1006q160 0 272 -70l53 59h156l-123 -135q92 -112 92 -285q0 -165 -67.5 -299.5t-198.5 -215t-303 -80.5q-161 0 -268 67l-54 -57h-155l123 133q-95 112 -95 291q0 260 159 426t409 166zM330 420q0 -78 20 -131l457 499q-65 48 -158 48q-69 0 -124 -23.5t-90.5 -62.5 t-59.5 -93.5t-34.5 -113t-10.5 -123.5zM567 150q160 0 245 108t85 307q0 74 -20 127l-459 -499q58 -43 149 -43z" />
<glyph unicode="&#xf9;" d="M809 285l86 696h213l-119 -981h-192l6 129q-87 -75 -184.5 -112t-180.5 -37q-146 0 -227 65.5t-80 208.5q0 36 4 68l82 659h213l-74 -596q-4 -40 -4 -53q-3 -94 38.5 -133t127.5 -39q65 0 143.5 35t147.5 90zM737 1118l-278 230l131 137l237 -281z" />
<glyph unicode="&#xfa;" d="M973 1348l-336 -230l-70 86l305 281zM809 285l86 696h213l-119 -981h-192l6 129q-87 -75 -184.5 -112t-180.5 -37q-146 0 -227 65.5t-80 208.5q0 36 4 68l82 659h213l-74 -596q-4 -40 -4 -53q-3 -94 38.5 -133t127.5 -39q65 0 143.5 35t147.5 90z" />
<glyph unicode="&#xfb;" d="M786 1446l226 -246l-117 -98l-184 190l-236 -190l-86 94l295 250h102zM809 285l86 696h213l-119 -981h-192l6 129q-87 -75 -184.5 -112t-180.5 -37q-146 0 -227 65.5t-80 208.5q0 36 4 68l82 659h213l-74 -596q-4 -40 -4 -53q-3 -94 38.5 -133t127.5 -39q65 0 143.5 35 t147.5 90z" />
<glyph unicode="&#xfc;" d="M424 1266q0 51 37 89t92 38q44 0 72 -30t28 -73q0 -52 -38.5 -88.5t-90.5 -36.5q-42 0 -71 29.5t-29 71.5zM793 1266q0 51 37 89t92 38q44 0 72 -30t28 -73q0 -52 -38.5 -88.5t-90.5 -36.5q-42 0 -71 29.5t-29 71.5zM809 285l86 696h213l-119 -981h-192l6 129 q-87 -75 -184.5 -112t-180.5 -37q-146 0 -227 65.5t-80 208.5q0 36 4 68l82 659h213l-74 -596q-4 -40 -4 -53q-3 -94 38.5 -133t127.5 -39q65 0 143.5 35t147.5 90z" />
<glyph unicode="&#xfd;" d="M1159 981l-710 -1432h-209l200 406l-254 1026h228l176 -768l358 768h211zM981 1348l-336 -230l-70 86l306 281z" />
<glyph unicode="&#xfe;" d="M477 1403l-67 -545q158 148 323 148q167 0 257.5 -108.5t90.5 -293.5q0 -190 -78 -333t-212 -217t-304 -74q-76 0 -184 24l-55 -455h-213l112 897l11 82l106 875h213zM391 698l-61 -497q68 -47 176 -47q157 0 251.5 111t94.5 308q0 123 -53.5 183.5t-151.5 60.5 q-124 0 -256 -119z" />
<glyph unicode="&#xff;" d="M1159 981l-710 -1432h-209l200 406l-254 1026h228l176 -768l358 768h211zM426 1266q0 51 37 89t92 38q44 0 72 -30t28 -73q0 -52 -38.5 -88.5t-90.5 -36.5q-42 0 -71 29.5t-29 71.5zM795 1266q0 51 37 89t92 38q44 0 72 -30t28 -73q0 -52 -38.5 -88.5t-90.5 -36.5 q-42 0 -71 29.5t-29 71.5z" />
<glyph unicode="&#x152;" d="M618 1350q69 0 150 -19h524l-22 -182h-352l-48 -377h287l-20 -180h-287l-51 -406h352l-23 -186h-532q-84 -20 -168 -20q-108 0 -184 32.5t-120 96t-63.5 147.5t-19.5 197q0 53 10 145q11 133 36.5 244.5t71 206.5t108.5 161t152 103t199 37zM471 160q69 0 121 16l119 973 q-47 20 -105 20q-105 0 -182.5 -95.5t-115.5 -255t-38 -361.5q0 -297 201 -297z" />
<glyph unicode="&#x153;" d="M420 1006q203 0 262 -179q51 88 123.5 133.5t152.5 45.5q269 0 269 -342q0 -81 -21 -213h-485q-4 -25 -4 -70q6 -240 186 -240q105 0 211 90l41 -147q-139 -104 -287 -104q-96 0 -167.5 46.5t-104.5 135.5q-114 -182 -299 -182q-147 0 -221 96.5t-74 281.5q0 85 13 170.5 t44 173t77.5 154t119.5 108.5t164 42zM174 362q0 -223 145 -223q117 0 178.5 131.5t61.5 347.5q0 107 -35 167.5t-121 60.5q-56 0 -99 -38t-67 -92.5t-39 -125.5t-19.5 -125t-4.5 -103zM737 590h324q8 44 8 90q0 86 -32 133t-93 47q-83 0 -132.5 -66t-74.5 -204z" />
<glyph unicode="&#x178;" d="M408 1331l251 -633l381 633h215l-518 -809l-63 -522h-217l63 514l-346 817h234zM848 1575q0 51 36 90t91 39q44 0 73 -28.5t29 -71.5q0 -52 -38 -90.5t-89 -38.5q-43 0 -72.5 29.5t-29.5 70.5zM459 1575q0 51 36 90t91 39q44 0 73 -28.5t29 -71.5q0 -52 -38 -90.5 t-89 -38.5q-43 0 -72.5 29.5t-29.5 70.5z" />
<glyph unicode="&#x2c6;" d="M786 1446l226 -246l-117 -98l-184 190l-236 -190l-86 94l295 250h102z" />
<glyph unicode="&#x2dc;" d="M442 1184l-61 69q112 142 223 142q52 0 125 -29t113 -29q80 0 139 64l59 -78q-104 -139 -221 -139q-42 0 -116.5 31.5t-116.5 31.5q-81 0 -144 -63z" />
<glyph unicode="&#x2000;" horiz-adv-x="906" />
<glyph unicode="&#x2001;" horiz-adv-x="1812" />
<glyph unicode="&#x2002;" horiz-adv-x="906" />
<glyph unicode="&#x2003;" horiz-adv-x="1812" />
<glyph unicode="&#x2004;" horiz-adv-x="604" />
<glyph unicode="&#x2005;" horiz-adv-x="453" />
<glyph unicode="&#x2006;" horiz-adv-x="302" />
<glyph unicode="&#x2007;" horiz-adv-x="302" />
<glyph unicode="&#x2008;" horiz-adv-x="226" />
<glyph unicode="&#x2009;" horiz-adv-x="362" />
<glyph unicode="&#x200a;" horiz-adv-x="100" />
<glyph unicode="&#x2010;" d="M877 432h-545l22 182h545z" />
<glyph unicode="&#x2011;" d="M877 432h-545l22 182h545z" />
<glyph unicode="&#x2012;" d="M877 432h-545l22 182h545z" />
<glyph unicode="&#x2013;" d="M158 455l18 149h901l-18 -149h-901z" />
<glyph unicode="&#x2014;" d="M-8 455l20 149h1227l-18 -149h-1229z" />
<glyph unicode="&#x2018;" d="M684 864h-195q21 128 97.5 302t158.5 272l136 -41q-71 -104 -124 -253.5t-73 -279.5z" />
<glyph unicode="&#x2019;" d="M690 1430h195q-19 -127 -96 -301t-160 -273l-135 43q71 104 124 254.5t72 276.5z" />
<glyph unicode="&#x201a;" d="M539 197h192q-20 -126 -96 -295t-158 -269l-131 41q72 106 124.5 253t68.5 270z" />
<glyph unicode="&#x201c;" d="M862 864h-194q21 128 97.5 302t158.5 272l135 -41q-71 -104 -124 -253.5t-73 -279.5zM508 864h-197q21 128 98.5 301.5t159.5 272.5l136 -41q-72 -104 -125 -254t-72 -279z" />
<glyph unicode="&#x201d;" d="M512 1430h197q-21 -128 -98.5 -301.5t-159.5 -272.5l-134 43q71 104 123.5 254t71.5 277zM868 1430h195q-19 -127 -96 -301t-160 -273l-135 43q71 104 124 254.5t72 276.5z" />
<glyph unicode="&#x201e;" d="M360 197h191q-19 -126 -95 -295t-159 -269l-131 41q72 104 123.5 249.5t70.5 273.5zM719 197h192q-20 -126 -96 -295t-158 -269l-131 41q72 106 124.5 253t68.5 270z" />
<glyph unicode="&#x2022;" d="M375 483q0 103 77.5 180.5t188.5 77.5q91 0 152 -59t61 -147q0 -105 -79.5 -179.5t-186.5 -74.5q-93 0 -153 57.5t-60 144.5z" />
<glyph unicode="&#x2026;" d="M10 78q0 61 38 102t104 41q50 0 80 -25t30 -75q0 -69 -39 -106.5t-102 -37.5q-111 0 -111 101zM438 78q0 61 37.5 102t102.5 41q50 0 80 -25t30 -75q0 -69 -38.5 -106.5t-102.5 -37.5q-109 0 -109 101zM864 78q0 61 38 102t104 41q50 0 80 -25t30 -75q0 -69 -39 -106.5 t-102 -37.5q-111 0 -111 101z" />
<glyph unicode="&#x202f;" horiz-adv-x="362" />
<glyph unicode="&#x2039;" d="M389 479l324 473h178l-279 -465l162 -481h-178z" />
<glyph unicode="&#x203a;" d="M625 952l206 -473l-323 -473h-176l278 481l-161 465h176z" />
<glyph unicode="&#x205f;" horiz-adv-x="453" />
<glyph unicode="&#x20ac;" d="M227 426h-176l39 147h133q3 84 19 170h-131l39 148h129q75 221 236.5 340t387.5 119q92 0 180.5 -21.5t151.5 -58.5l-88 -185q-117 84 -258 84q-275 0 -377 -278h504l-39 -148h-504q-15 -82 -18 -170h475l-39 -147h-430q19 -138 96.5 -203t218.5 -65q158 0 303 80 l33 -175q-96 -46 -183 -64.5t-202 -18.5q-224 0 -352 112t-148 334z" />
<glyph unicode="&#x2122;" d="M160 578l71 643h-161l14 112h438l-14 -112h-162l-70 -643h-116zM473 578l84 755h137l148 -620l278 620h131l-84 -755h-110l55 518l-229 -518h-117l-133 524l-58 -524h-102z" />
<glyph unicode="&#x25fc;" horiz-adv-x="983" d="M0 983h983v-983h-983v983z" />
</font>
</defs>
</svg>
