<?xml version="1.0" standalone="no"?>
<!DOCTYPE svg PUBLIC "-//W3C//DTD SVG 1.1//EN" "http://www.w3.org/Graphics/SVG/1.1/DTD/svg11.dtd" >
<svg xmlns="http://www.w3.org/2000/svg" xmlns:xlink="http://www.w3.org/1999/xlink" version="1.1">
<metadata></metadata>
<defs>
<font id="typoninesans_monospaceRgIt" horiz-adv-x="1228" >
<font-face units-per-em="2048" ascent="1597" descent="-451" />
<missing-glyph horiz-adv-x="500" />
<glyph horiz-adv-x="0" />
<glyph horiz-adv-x="682" />
<glyph unicode=" " />
<glyph unicode="!" d="M633 1331h155l-55 -463l-74 -458h-118l34 460zM453 61q0 50 31 83.5t87 33.5q44 0 71.5 -21.5t27.5 -62.5q0 -55 -34.5 -84.5t-88.5 -29.5q-94 0 -94 81z" />
<glyph unicode="&#x22;" d="M621 1331l-93 -483h-106l24 483h175zM983 1331l-92 -483h-105l21 483h176z" />
<glyph unicode="#" d="M606 0l94 317h-317l-94 -317h-127l94 317h-199l31 103h199l92 309h-215l31 102h215l92 308h127l-92 -308h317l92 308h129l-92 -308h205l-31 -102h-205l-92 -309h221l-30 -103h-222l-94 -317h-129zM506 729l-92 -309h317l92 309h-317z" />
<glyph unicode="$" d="M672 1380h98l-14 -116q184 -6 299 -70l-66 -135q-99 73 -250 82l-51 -414q43 -20 66.5 -31.5t62 -32.5t61 -38.5t50.5 -44t42.5 -52.5t25 -61t10.5 -74q0 -145 -112 -241.5t-290 -114.5l-14 -113h-96l12 109q-106 1 -199 26t-151 64l67 133q134 -98 297 -104l58 466 q-37 17 -55 26t-51.5 26.5t-51.5 30.5t-43.5 32.5t-39 38.5t-28 42.5t-20.5 51t-6 58.5q0 139 104 230t270 106zM848 365q0 69 -46 116t-132 92l-52 -417q103 14 166.5 67.5t63.5 141.5zM438 948q0 -58 41 -100t117 -80l45 367q-94 -12 -148.5 -60.5t-54.5 -126.5z" />
<glyph unicode="%" d="M446 1350q136 0 203.5 -71t67.5 -194q0 -69 -19.5 -134t-59.5 -121.5t-110 -90.5t-161 -34q-267 0 -267 256q0 109 36 195t115.5 140t194.5 54zM1130 1153l-942 -1036l-71 51l944 1042zM381 819q207 0 207 250q0 73 -35.5 120.5t-118.5 47.5q-209 0 -209 -266 q0 -74 34.5 -113t121.5 -39zM899 623q136 0 203 -70.5t67 -194.5q0 -69 -20 -134t-60 -122t-110 -91t-160 -34q-266 0 -266 256q0 109 36 195t115.5 140.5t194.5 54.5zM834 90q206 0 206 252q0 73 -35 120.5t-120 47.5q-209 0 -209 -266q0 -74 35.5 -114t122.5 -40z" />
<glyph unicode="&#x26;" d="M381 709q-10 92 -10 178q0 98 18 180t55 146.5t100 100.5t146 36q34 0 64 -5.5t62.5 -22t56 -42.5t38.5 -71t15 -103q0 -92 -35 -172t-94 -136t-126 -94.5t-141 -60.5q45 -236 140 -356q66 83 101.5 172.5t62.5 210.5h360l-16 -121h-256q-35 -101 -79 -177t-116 -159 q37 -45 89.5 -73.5t111.5 -28.5q107 0 180 94l49 -117q-102 -108 -262 -108q-161 0 -277 129q-151 -129 -309 -129q-136 0 -213.5 79t-77.5 215q0 153 97.5 267.5t265.5 167.5zM395 610q-227 -83 -227 -303q0 -100 46 -150.5t128 -50.5q109 0 211 91q-120 167 -158 413z M776 1090q0 74 -24.5 108.5t-75.5 34.5q-166 0 -166 -342q0 -71 6 -141q115 33 187.5 119t72.5 221z" />
<glyph unicode="'" d="M801 1331l-96 -483h-99l21 483h174z" />
<glyph unicode="(" d="M930 1458l71 -90q-524 -395 -524 -993q0 -115 23.5 -215.5t69.5 -185t99.5 -152t127.5 -139.5l-88 -86q-185 146 -285 343t-100 435q0 334 160.5 608.5t445.5 474.5z" />
<glyph unicode=")" d="M295 -403l-66 86q114 88 202.5 182t165 215.5t118 272.5t41.5 323q0 114 -24 215t-69.5 185.5t-99.5 152.5t-127 139l94 90q379 -314 379 -786q0 -334 -163 -607t-451 -468z" />
<glyph unicode="*" d="M707 690h-146l72 252q6 -6 31 -6q20 0 24 4zM780 1298l-75 -235q-9 6 -23 6q-9 0 -29 -4l-18 233h145zM604 987q0 -4 4 -16q8 -16 17 -25l-219 -176l-68 125zM360 1094l101 127l176 -166q-29 -13 -33 -49zM887 772l-189 174q21 10 35 39l250 -92zM1010 1096l-271 -88 q0 30 -20 47l223 164z" />
<glyph unicode="+" d="M510 207l41 336h-354l16 119h354l39 327h131l-39 -327h357l-15 -119h-356l-41 -336h-133z" />
<glyph unicode="," d="M555 160h145q-20 -113 -75 -229.5t-133 -215.5l-103 31q133 202 166 414z" />
<glyph unicode="-" d="M870 455h-526l18 143h525z" />
<glyph unicode="." d="M453 61q0 50 31 83.5t87 33.5q44 0 71.5 -21.5t27.5 -62.5q0 -55 -34.5 -84.5t-88.5 -29.5q-94 0 -94 81z" />
<glyph unicode="/" d="M977 1403h133l-819 -1509h-135z" />
<glyph unicode="0" d="M715 1350q224 0 333 -133.5t109 -368.5q0 -71 -7 -144t-25.5 -160t-48 -165t-77.5 -152.5t-109.5 -128t-149.5 -86t-193 -32.5q-215 0 -326.5 132t-111.5 375q0 103 12.5 201t40 197t75 181.5t112.5 147t158.5 100.5t207.5 36zM569 117q73 0 134 28.5t103.5 75t76 110.5 t53.5 130.5t33 140t17.5 134t4.5 116.5q0 169 -63 254l-508 -956q64 -33 149 -33zM276 494q0 -172 60 -265l504 951q-58 30 -148 30q-82 0 -148 -31.5t-110.5 -87.5t-76 -125.5t-49 -153t-25 -160.5t-7.5 -158z" />
<glyph unicode="1" d="M109 0l16 141h375l127 1028l-303 -69l18 143l467 105l-147 -1207h393l-17 -141h-929z" />
<glyph unicode="2" d="M117 115q92 61 192 141t205.5 180.5t189 199t136.5 201t53 183.5q0 89 -56.5 139.5t-154.5 50.5q-156 0 -301 -141l-72 107q70 68 179 121t239 53q152 0 245 -81.5t93 -226.5q0 -102 -68.5 -228.5t-179.5 -247.5t-236 -229.5t-253 -195.5h692l-16 -141h-902z" />
<glyph unicode="3" d="M1051 1044q-8 -84 -59 -153t-126.5 -112t-169.5 -64q158 -26 245 -106.5t87 -202.5q0 -62 -17 -121t-56.5 -115t-97.5 -97.5t-147 -67t-198 -25.5q-130 0 -237 41.5t-144 80.5l105 131q123 -114 303 -114q129 0 226 71t97 193q0 81 -60.5 137t-156.5 83t-227 34l14 111 q115 8 215 43.5t168 102t68 150.5q0 82 -55.5 123t-151.5 41q-156 0 -289 -96l-57 115q6 5 18 13.5t52 29.5t82 37t106.5 29.5t128.5 13.5q154 0 245 -76.5t91 -196.5q0 -21 -2 -33z" />
<glyph unicode="4" d="M893 336l-41 -334h-160l39 334h-641l14 110l742 885h168l-105 -860h201l-18 -135h-199zM274 473h474l81 660z" />
<glyph unicode="5" d="M520 1188l-45 -363q281 -6 415 -103t134 -273q0 -70 -18 -136t-58.5 -127t-100 -106.5t-149.5 -72.5t-200 -27q-105 0 -199.5 35t-155.5 91l99 132q112 -121 288 -121q84 0 156 33t120 104t48 168q0 77 -37 130.5t-110.5 84t-170.5 44t-231 13.5l76 637h719l-17 -143 h-563z" />
<glyph unicode="6" d="M590 117q138 0 220.5 97t82.5 245q0 106 -61.5 157.5t-190.5 51.5q-160 0 -311 -109q-6 -65 -6 -123q0 -70 12.5 -124t41 -100t82.5 -70.5t130 -24.5zM1065 483q0 -220 -136.5 -361.5t-359.5 -141.5q-209 0 -309 122.5t-100 343.5q0 275 99 480t281.5 314.5t426.5 109.5 q57 0 143 -11l-18 -147q-78 16 -150 16q-108 0 -204.5 -32t-176 -93.5t-135 -160t-76.5 -224.5q91 52 176 79.5t187 27.5q162 0 257 -83.5t95 -238.5z" />
<glyph unicode="7" d="M1159 1331l-12 -98l-725 -1231h-162l703 1186h-711l16 143h891z" />
<glyph unicode="8" d="M1090 1071q0 -51 -22.5 -98t-52 -80t-83 -70t-90.5 -57.5t-99 -52.5q61 -33 109 -66t97.5 -77.5t77.5 -98t28 -109.5q0 -112 -72 -200.5t-186 -135t-244 -46.5q-83 0 -157.5 18.5t-135 54.5t-96 95t-35.5 133q0 62 22.5 117t57 96t88 80.5t101.5 66t112 55.5 q-63 40 -99.5 67t-75 65.5t-56 82t-17.5 95.5q0 103 61.5 182t164 120.5t227.5 41.5q172 0 273.5 -76.5t101.5 -202.5zM578 106q48 0 100 15t99 43.5t77.5 75.5t30.5 104q0 35 -17 69.5t-42 61t-61.5 54t-68.5 47.5t-70 42q-2 1 -3.5 1.5t-3 2t-3 2t-3.5 1.5t-3 2 q-66 -31 -113 -59t-97 -68t-76.5 -89.5t-26.5 -105.5q0 -96 79 -147.5t202 -51.5zM705 1221q-69 0 -130 -19t-106 -66.5t-45 -115.5q0 -63 47 -111.5t178 -132.5q149 89 210 148.5t61 132.5q0 80 -62.5 122t-152.5 42z" />
<glyph unicode="9" d="M674 1212q-135 0 -219 -95t-84 -243q0 -212 254 -212q162 0 311 108q6 62 6 121q0 321 -268 321zM203 848q0 144 59.5 257.5t173.5 179t264 65.5q207 0 305.5 -123t98.5 -344q0 -424 -217 -663.5t-590 -239.5q-63 0 -141 10l18 147q88 -18 148 -18q108 0 204.5 32t176 94 t135 161t77.5 225q-180 -107 -364 -107q-157 0 -252.5 85t-95.5 239z" />
<glyph unicode=":" d="M453 61q0 50 31 83.5t87 33.5q44 0 71.5 -21.5t27.5 -62.5q0 -55 -34.5 -84.5t-88.5 -29.5q-94 0 -94 81zM541 782q0 52 31 85.5t87 33.5q44 0 71.5 -21.5t27.5 -62.5q0 -55 -35 -86t-88 -31q-94 0 -94 82z" />
<glyph unicode=";" d="M535 160h147q-40 -227 -209 -445l-102 31q136 207 164 414zM584 782q0 52 31 85.5t87 33.5q44 0 71.5 -21.5t27.5 -62.5q0 -55 -35 -86t-88 -31q-94 0 -94 82z" />
<glyph unicode="&#x3c;" d="M846 47l-598 488l12 106l717 471l67 -108l-632 -414l526 -432z" />
<glyph unicode="=" d="M1081 754h-876l14 120h877zM1030 346h-876l16 121h877z" />
<glyph unicode="&#x3e;" d="M987 535l-721 -488l-63 111l633 432l-533 414l92 108l604 -471z" />
<glyph unicode="?" d="M1069 1096q0 -65 -27 -120.5t-70 -96t-94.5 -76.5t-103.5 -68.5t-95 -64.5t-70 -72.5t-27 -85.5q0 -41 28 -102l-170 -41q-18 55 -18 112q0 61 26 115t67.5 94t92 76.5t100.5 71t91.5 69t67.5 78.5t26 92q0 69 -58 103t-157 34q-168 0 -299 -114l-62 117q80 61 183 97 t215 36q164 0 259 -66.5t95 -187.5zM403 61q0 50 31.5 83.5t87.5 33.5q43 0 69.5 -21.5t26.5 -62.5q0 -55 -33.5 -84.5t-86.5 -29.5q-95 0 -95 81z" />
<glyph unicode="@" d="M723 1112q-129 0 -240.5 -56t-193.5 -160.5t-129 -264t-47 -355.5q0 -247 111 -387.5t335 -140.5q222 0 465 148l35 -78q-255 -162 -524 -162q-252 0 -389.5 157.5t-137.5 454.5q0 283 93 496.5t257 326.5t375 113q105 0 187.5 -27t136.5 -74t89.5 -113t50.5 -139.5 t15 -158.5q0 -88 -9 -175t-32 -177t-57.5 -158t-90.5 -111.5t-126 -43.5q-131 0 -154 120q-120 -120 -264 -120q-96 0 -152.5 53.5t-56.5 140.5q0 64 23.5 114t60.5 80t89 49.5t103 27t109 8.5q45 0 119 -8l14 110q5 40 5 45q0 70 -36.5 97.5t-103.5 27.5q-26 0 -51.5 -5 t-53 -17.5t-44.5 -38t-17 -60.5q0 -3 1 -6.5t2 -8.5t2 -9l-115 -17q-4 32 -4 47q0 101 85 163.5t212 62.5q48 0 88.5 -10t77 -32.5t57 -65t20.5 -101.5q0 -36 -2 -56l-49 -382q0 -1 -2 -18.5t-2 -18.5q-5 -37 13 -61.5t55 -24.5q48 0 85 61t56.5 153.5t29 182t9.5 164.5 q0 438 -383 438zM743 242l19 157q-45 11 -121 11q-48 0 -88.5 -8t-76 -25.5t-55.5 -51t-20 -79.5q0 -54 34 -82.5t93 -28.5q54 0 113 32t102 75z" />
<glyph unicode="A" d="M164 0h-166l627 1331h176l305 -1331h-174l-76 352h-534zM827 489l-141 668l-301 -668h442z" />
<glyph unicode="B" d="M596 0h-485l161 1331h443q362 0 362 -270q0 -253 -239 -346v-4q260 -48 260 -285q0 -111 -39.5 -194.5t-109.5 -133t-158.5 -74t-194.5 -24.5zM631 623h-279l-59 -478h301q164 0 247 66.5t83 210.5q0 103 -73 152t-220 49zM901 1022q0 85 -54.5 125.5t-170.5 40.5h-256 l-51 -430h237q130 0 212.5 71t82.5 193z" />
<glyph unicode="C" d="M1034 201l25 -140q-163 -81 -395 -81q-256 0 -399.5 136t-143.5 408q0 198 55 356.5t153 260t229 155.5t286 54q211 0 346 -80l-76 -154q-109 90 -287 90q-245 0 -386.5 -176t-141.5 -489q0 -205 99 -312.5t294 -107.5q94 0 187 23.5t155 56.5z" />
<glyph unicode="D" d="M70 0l161 1331h441q121 0 215 -28.5t153 -76.5t97.5 -117.5t53.5 -144t15 -163.5q0 -86 -8.5 -163.5t-30.5 -159.5t-56 -150.5t-89.5 -130.5t-127 -104.5t-171.5 -67.5t-221 -25h-432zM653 1188h-274l-129 -1043h287q491 0 491 643q0 86 -16.5 153t-56.5 125t-116.5 90 t-185.5 32z" />
<glyph unicode="E" d="M268 1331h906l-19 -143h-739l-54 -434h670l-16 -142h-670l-57 -467h739l-16 -145h-906z" />
<glyph unicode="F" d="M272 1331h914l-19 -143h-747l-60 -490h680l-16 -141h-680l-68 -557h-165z" />
<glyph unicode="G" d="M963 659h163l-67 -550q-209 -129 -422 -129q-117 0 -210 29.5t-165 91.5t-110.5 167t-38.5 248q0 213 54.5 375.5t152 261.5t223 148t276.5 49q210 0 359 -82l-78 -160q-115 98 -289 98q-250 0 -386 -165.5t-136 -508.5q0 -213 98.5 -312t286.5 -99q115 0 229 49z" />
<glyph unicode="H" d="M1032 1331h166l-162 -1331h-166l74 610h-635l-73 -610h-166l161 1331h166l-69 -573h635z" />
<glyph unicode="I" d="M100 0l17 145h368l127 1041h-368l18 145h918l-19 -145h-383l-127 -1041h383l-16 -145h-918z" />
<glyph unicode="J" d="M274 1186l19 145h780l-96 -788q-64 -555 -801 -621l-8 144q60 8 103 15.5t111 25t117.5 39.5t107 60t96.5 85t69.5 116t40.5 152l76 627h-615z" />
<glyph unicode="K" d="M262 1331h166l-76 -610l140 29l499 581h195l-576 -647l465 -684h-207l-409 604l-123 -22l-70 -582h-166z" />
<glyph unicode="L" d="M305 1331h166l-145 -1186h714l-16 -145h-881z" />
<glyph unicode="M" d="M946 0l131 1090l-393 -615h-135l-262 604l-131 -1079h-142l162 1331h158l303 -700l453 700h161l-161 -1331h-144z" />
<glyph unicode="N" d="M348 1087l-131 -1087h-158l162 1331h182l519 -1067l131 1067h155l-161 -1331h-170z" />
<glyph unicode="O" d="M717 1350q245 0 365 -137t120 -392q0 -145 -26.5 -272t-81 -231.5t-132 -180t-183.5 -116.5t-232 -41q-245 0 -364.5 141.5t-119.5 394.5q0 252 74.5 438.5t223 291t356.5 104.5zM559 123q100 0 180 38.5t132.5 104.5t88 157.5t51 192.5t15.5 215q0 375 -319 375 q-99 0 -177.5 -33t-133 -93.5t-90 -149.5t-52 -197t-16.5 -239q0 -371 321 -371z" />
<glyph unicode="P" d="M117 0l162 1331h450q218 0 321 -95t103 -265q0 -238 -135.5 -368t-362.5 -130h-317l-57 -473h-164zM649 612q71 0 127.5 17.5t102.5 55.5t71 105.5t25 161.5q0 118 -63.5 177t-202.5 59h-283l-72 -576h295z" />
<glyph unicode="Q" d="M700 1350q245 0 365.5 -137t120.5 -392q0 -274 -96.5 -480t-276.5 -298l301 -360l-156 -99l-284 412q-72 -16 -144 -16q-245 0 -364 141.5t-119 394.5q0 252 74 438.5t222.5 291t356.5 104.5zM543 123q100 0 180 38.5t132.5 104.5t88 157.5t51 192.5t15.5 215 q0 375 -320 375q-99 0 -177.5 -33t-133 -93.5t-90 -149.5t-52 -197t-16.5 -239q0 -371 322 -371z" />
<glyph unicode="R" d="M104 0l162 1331h426q426 0 426 -338q0 -170 -78.5 -283.5t-220.5 -160.5l248 -549h-197l-223 518h-313l-64 -518h-166zM616 659q324 0 324 316q0 114 -63.5 163.5t-202.5 49.5h-260l-64 -529h266z" />
<glyph unicode="S" d="M879 360q0 64 -35 112.5t-90.5 79.5t-123.5 58t-135.5 57t-123 67t-90.5 97t-35 138q0 171 143 276t367 105q217 0 364 -90l-69 -162q-124 108 -310 108q-145 0 -231 -54.5t-86 -158.5q0 -50 27 -89t71.5 -64t101.5 -50t116.5 -45.5t116.5 -52.5t101.5 -69t71.5 -96.5 t27 -133.5q0 -85 -27.5 -154.5t-75.5 -117t-115 -79.5t-143.5 -47t-163.5 -15q-123 0 -234 32.5t-189 81.5l77 162q147 -137 373 -137q63 0 119 14t101.5 42t72.5 76t27 109z" />
<glyph unicode="T" d="M1257 1331l-18 -143h-459l-143 -1188h-166l143 1188h-460l18 143h1085z" />
<glyph unicode="U" d="M938 514l100 817h162l-102 -833q-14 -120 -50 -211.5t-100 -162t-164.5 -107.5t-234.5 -37q-232 0 -335.5 98.5t-98.5 292.5q0 32 8 110l104 850h164l-100 -831q-8 -70 -8 -97q-5 -150 59.5 -217t228.5 -67q178 0 259 90t108 305z" />
<glyph unicode="V" d="M334 1331l258 -1155l510 1155h164l-609 -1331h-182l-313 1331h172z" />
<glyph unicode="W" d="M754 975l137 -782l254 1138h158l-340 -1331h-168l-140 782l-305 -782h-168l-55 1331h168l6 -1141l307 785h146z" />
<glyph unicode="X" d="M221 1331h185l251 -512l377 512h166l-475 -631l360 -700h-186l-283 571l-426 -571h-170l525 692z" />
<glyph unicode="Y" d="M371 1331l282 -674l416 674h164l-518 -809l-64 -522h-166l62 516l-352 815h176z" />
<glyph unicode="Z" d="M258 1188l18 143h912l-17 -127l-878 -1061h768l-17 -143h-968l12 115l885 1073h-715z" />
<glyph unicode="[" d="M301 -375l229 1850h408l-16 -119h-260l-199 -1618h260l-14 -113h-408z" />
<glyph unicode="\" d="M340 1403h133l451 -1509h-136z" />
<glyph unicode="]" d="M938 1475l-229 -1850h-408l14 113h263l198 1618h-262l16 119h408z" />
<glyph unicode="^" d="M696 1206l-370 -477h-144l473 604h117l326 -604h-148z" />
<glyph unicode="_" d="M-27 -209l15 115h1104l-15 -115h-1104z" />
<glyph unicode="`" d="M803 1124l-264 236l110 108l230 -274z" />
<glyph unicode="a" d="M774 233l21 195q-65 10 -154 10q-322 0 -322 -192q0 -67 46 -102t129 -35q77 0 152 36t128 88zM811 541l16 121q17 112 -38.5 160t-157.5 48q-33 0 -66.5 -6t-70 -20.5t-60 -44.5t-24.5 -72q0 -11 4 -31l-150 -18q-6 24 -6 51q0 80 55.5 143.5t144 96t191.5 32.5 q78 0 142.5 -18t113.5 -54.5t72 -100.5t12 -148l-59 -463q-12 -108 59 -108q19 0 37 6l-2 -121q-52 -14 -98 -14q-73 0 -113 37t-45 102q-149 -139 -342 -139q-122 0 -199 65.5t-77 177.5q0 326 520 326q67 0 141 -8z" />
<glyph unicode="b" d="M455 1403l-64 -520q75 56 165.5 87t170.5 31q177 0 271 -111.5t94 -299.5q0 -185 -79.5 -325t-213.5 -212.5t-301 -72.5q-202 0 -371 79l166 1344h162zM373 748l-72 -592q85 -43 205 -43q183 0 297.5 123.5t114.5 336.5q0 141 -67 214t-179 73q-65 0 -146 -29.5 t-153 -82.5z" />
<glyph unicode="c" d="M391 410q0 -144 80 -219.5t221 -75.5q82 0 160.5 29t128.5 67l29 -133q-70 -43 -168.5 -70.5t-196.5 -27.5q-91 0 -167.5 24.5t-135.5 73.5t-92 129t-33 184q0 149 47.5 268t128 192.5t183 111.5t217.5 38q187 0 323 -83l-69 -148q-123 96 -271 96q-79 0 -144 -26.5 t-109 -71t-74.5 -103.5t-44 -123t-13.5 -132z" />
<glyph unicode="d" d="M711 1001q129 0 235 -34l53 436h162l-117 -948l-55 -455h-151l10 121q-78 -64 -174 -102.5t-187 -38.5q-168 0 -259 108.5t-91 290.5q0 283 160.5 452.5t413.5 169.5zM858 248l25 207l43 358q-82 53 -228 53q-173 0 -282 -125t-109 -340q0 -137 64.5 -208.5t173.5 -71.5 q74 0 157 34t156 93z" />
<glyph unicode="e" d="M358 467v-47q0 -157 80.5 -232t227.5 -75q78 0 168 31.5t139 68.5l28 -135q-173 -98 -378 -98q-195 0 -314 105.5t-119 309.5q0 117 28.5 217t78 170.5t115.5 120.5t141.5 74t155.5 24q167 0 267.5 -93t100.5 -279q0 -43 -6 -92q0 -38 -8 -70h-705zM373 580h540 q5 23 5 57q0 109 -58.5 174.5t-161.5 65.5q-117 0 -204.5 -75.5t-120.5 -221.5z" />
<glyph unicode="f" d="M94 0l17 133h278l86 709h-207l17 112l207 11l8 71q25 193 140 290t292 97q68 0 137.5 -14.5t104.5 -34.5l-50 -145q-77 61 -204 61q-109 0 -176 -63.5t-82 -190.5l-9 -71h367l-16 -123h-367l-86 -709h405l-16 -133h-846z" />
<glyph unicode="g" d="M1098 926l-111 -901q-60 -488 -541 -488q-195 0 -356 96l76 152q143 -113 305 -113q70 0 126 17t104.5 56.5t80.5 110.5t45 171l15 114q-171 -133 -350 -133q-168 0 -263.5 101t-95.5 278q0 139 44.5 255t123 194.5t185.5 121.5t231 43q211 0 381 -75zM856 276l68 551 q-88 39 -224 39q-180 0 -286.5 -124.5t-106.5 -331.5q0 -133 65 -195.5t173 -62.5q162 0 311 124z" />
<glyph unicode="h" d="M391 739l-90 -739h-162l172 1403h162l-65 -533q93 64 188 97.5t174 33.5q150 0 228.5 -71t78.5 -205q0 -17 -4 -63l-80 -662h-159l73 602q4 46 4 66q0 96 -46 142t-154 46q-74 0 -161 -32.5t-159 -84.5z" />
<glyph unicode="i" d="M104 0l17 133h362l86 711h-360l14 133h525l-103 -844h371l-15 -133h-897zM608 1298q0 46 34.5 80.5t80.5 34.5q41 0 66.5 -25.5t25.5 -64.5q0 -47 -34.5 -80t-80.5 -33q-39 0 -65.5 24t-26.5 64z" />
<glyph unicode="j" d="M219 844l17 133h690l-113 -920q-12 -98 -47 -177.5t-82 -132t-111.5 -92t-125.5 -60.5t-135 -34t-130.5 -16.5t-120.5 -3.5l11 142q54 0 97 2.5t102 11.5t104.5 25t95.5 46.5t84.5 72t61.5 104t36 141.5l95 758h-529zM786 1298q0 46 33.5 80.5t79.5 34.5q41 0 66.5 -25.5 t25.5 -64.5q0 -47 -34 -80t-80 -33q-39 0 -65 24t-26 64z" />
<glyph unicode="k" d="M631 520l377 -520h-203l-311 438l-136 -22l-51 -416h-160l172 1403h160l-106 -858l133 24l379 408h180z" />
<glyph unicode="l" d="M94 0l17 133h376l140 1137h-363l19 133h522l-156 -1270h357l-15 -133h-897z" />
<glyph unicode="m" d="M281 739l-91 -739h-145l119 977h137l-16 -129q139 153 262 153q150 0 168 -151q136 151 268 151q52 0 88 -17t53.5 -48.5t24.5 -67t6 -82.5q0 -56 -8 -100l-82 -686h-145l77 651l11 92q2 63 -14.5 94t-63.5 31q-96 0 -215 -131q0 -15 -4 -51l-82 -686h-148l80 651 q8 78 8 103q2 57 -14.5 85.5t-60.5 28.5q-47 0 -104.5 -35t-108.5 -94z" />
<glyph unicode="n" d="M391 739l-90 -739h-162l119 977h154l-13 -113q85 66 186 101.5t181 35.5q154 0 232.5 -70.5t78.5 -205.5q0 -17 -4 -63l-80 -662h-159l73 602q4 50 4 66q0 96 -47 142t-153 46q-74 0 -161 -32.5t-159 -84.5z" />
<glyph unicode="o" d="M670 1001q203 0 319.5 -112t116.5 -314q0 -165 -66 -299.5t-193.5 -215t-293.5 -80.5q-199 0 -315.5 112.5t-116.5 315.5q0 170 67 304t192.5 211.5t289.5 77.5zM291 414q0 -142 68 -221.5t204 -79.5q180 0 276.5 119.5t96.5 332.5q0 140 -70 221.5t-211 81.5 q-95 0 -167 -38t-114 -103t-62.5 -144t-20.5 -169z" />
<glyph unicode="p" d="M504 -20q-99 0 -221 32l-58 -463h-162l121 977l56 451h151l-12 -117q79 63 172.5 102t179.5 39q172 0 266.5 -109.5t94.5 -295.5q0 -139 -45 -255.5t-123.5 -195t-186.5 -122t-233 -43.5zM346 526l-45 -360q82 -53 215 -53q181 0 291.5 124t110.5 338q0 138 -66 211.5 t-176 73.5q-67 0 -150.5 -34.5t-154.5 -92.5l-27 -207h2z" />
<glyph unicode="q" d="M770 -451l70 566q-75 -61 -167 -98t-177 -37q-173 0 -266 108.5t-93 294.5q0 113 29 211t82.5 172t126 127.5t162 80.5t188.5 27q200 0 377 -83l-113 -918h-2l-55 -451h-162zM555 123q146 0 301 123l21 157l12 93l39 323q-89 47 -219 47q-177 0 -288.5 -122t-111.5 -332 q0 -140 67.5 -214.5t178.5 -74.5z" />
<glyph unicode="r" d="M35 0l16 133h342l86 711h-317l16 133h467l-18 -189q75 92 182.5 147.5t204.5 55.5q28 0 55 -6l-33 -164q-37 13 -78 13q-79 0 -180 -52t-160 -118l-65 -531h432l-16 -133h-934z" />
<glyph unicode="s" d="M819 272q0 46 -30.5 80t-79.5 54t-107.5 37.5t-117.5 37.5t-108 46.5t-79.5 72.5t-30.5 107q0 75 36.5 133.5t98.5 92.5t136 51t155 17q99 0 192.5 -19t153.5 -54l-63 -148q-48 40 -122.5 65t-164.5 25q-48 0 -90.5 -6.5t-82 -21.5t-62.5 -44t-23 -69q0 -33 24 -58 t63 -41t89 -33t102.5 -31t102.5 -38t89 -52.5t63 -75t24 -105.5q0 -70 -28.5 -126t-74.5 -90.5t-108.5 -57.5t-126 -32t-131.5 -9q-214 0 -354 81l63 148q131 -98 312 -98q48 0 93 7.5t89 24.5t71 50t27 79z" />
<glyph unicode="t" d="M573 842l-63 -516q-12 -106 31 -158.5t147 -52.5q122 0 240 78l20 -136q-145 -77 -307 -77q-144 0 -220.5 65.5t-76.5 196.5q0 15 4 61l64 539h-230l15 114l233 11l53 264h140l-33 -266h424l-17 -123h-424z" />
<glyph unicode="u" d="M829 240l91 737h161l-118 -977h-150l10 115q-88 -68 -186.5 -101.5t-179.5 -33.5q-150 0 -231.5 67t-80.5 207q0 18 5 63l81 660h162l-76 -606q-4 -40 -4 -56q-3 -107 46.5 -152.5t152.5 -45.5q71 0 155.5 34t161.5 89z" />
<glyph unicode="v" d="M649 0h-200l-246 977h170l198 -848l406 848h164z" />
<glyph unicode="w" d="M352 0h-172l-84 977h158l39 -842l301 709h135l129 -709l242 842h153l-329 -977h-172l-121 664z" />
<glyph unicode="x" d="M635 631l274 346h162l-366 -455l286 -522h-174l-219 410l-324 -410h-159l411 514l-250 463h173z" />
<glyph unicode="y" d="M1141 977l-729 -1428h-156l213 424l-266 1004h170l211 -811l397 811h160z" />
<glyph unicode="z" d="M338 133h655l-16 -133h-871l11 98l696 746h-571l16 133h799l-13 -98z" />
<glyph unicode="{" d="M698 -383q-82 0 -135.5 15.5t-80.5 47.5t-36.5 69t-9.5 93q0 29 8 99l52 428q7 64 -24.5 91t-102.5 32q-4 0 -20.5 1t-20.5 1l14 110q37 0 47 2q138 10 152 123l51 430q6 42 11.5 72.5t17.5 66.5t27.5 61t40.5 50t58 40t79.5 24.5t103.5 9.5h88l-12 -105h-64 q-64 0 -103.5 -11.5t-61.5 -42t-31 -65t-17 -98.5l-39 -315q-16 -131 -57 -202.5t-133 -94.5q67 -14 95 -63t28 -132q0 -33 -7 -98l-38 -319q-9 -83 -9 -95q0 -64 35.5 -92.5t130.5 -28.5h68l-12 -104h-93z" />
<glyph unicode="|" d="M657 1403h136l-175 -1413h-135z" />
<glyph unicode="}" d="M311 -383h-90l12 104h68q63 0 102 11.5t61 41.5t31 65t17 98l39 319q15 128 57 202t131 93q-68 20 -96.5 67t-28.5 125q0 47 9 103l39 315q6 50 6 88q0 69 -36 99t-132 30h-64l13 105h88q81 0 135.5 -17.5t81.5 -51.5t37 -72.5t10 -92.5q0 -12 -1 -27t-2.5 -33.5 t-2.5 -29.5l-54 -430q-7 -62 24.5 -89t94.5 -32q20 -4 51 -4l-14 -110q-35 0 -45 -2q-70 -3 -109.5 -32t-46.5 -91l-51 -428q-8 -66 -17 -106.5t-31 -86.5t-56 -71.5t-91.5 -42.5t-138.5 -17z" />
<glyph unicode="~" d="M829 453q-48 0 -96 18.5t-88 45.5t-79.5 54t-87 45.5t-95.5 18.5q-103 0 -231 -160l-80 66q91 119 170.5 165t163.5 46q67 0 137 -28t118 -61.5t103.5 -61.5t97.5 -28q61 0 115.5 46t122.5 143l82 -68q-95 -136 -177 -188.5t-176 -52.5z" />
<glyph unicode="&#xa0;" />
<glyph unicode="&#xa1;" d="M705 -410h-156l55 463l74 459h119l-35 -461zM885 860q0 -50 -31.5 -83.5t-87.5 -33.5q-43 0 -70.5 21.5t-27.5 62.5q0 55 35 85t88 30q94 0 94 -82z" />
<glyph unicode="&#xa2;" d="M713 1161h108l-20 -160q137 -5 246 -65l-70 -150q-90 68 -193 76l-92 -747q114 5 217 82l29 -136q-114 -66 -262 -79l-17 -132h-108l16 134q-162 15 -253 120.5t-91 286.5q0 130 37 239t101 184t148.5 121.5t182.5 59.5zM395 412q0 -116 48.5 -190t140.5 -97l90 729 q-94 -21 -159.5 -94.5t-92.5 -162.5t-27 -185z" />
<glyph unicode="&#xa3;" d="M295 604h-178l14 117h178l21 160q31 239 162 354t327 115q192 0 314 -119l-101 -121q-94 107 -227 107q-272 0 -311 -332l-21 -164h479l-14 -117h-479l-17 -135q-13 -113 -55.5 -191.5t-134.5 -140.5h485q113 0 178.5 34t116.5 97l74 -106q-42 -63 -126 -112.5 t-198 -49.5h-764l11 109q95 11 161.5 94t77.5 180z" />
<glyph unicode="&#xa4;" d="M168 80l-64 59l240 215q-41 65 -41 142q0 126 84 219q-174 203 -186 215l78 71l188 -217q94 58 184 58q96 0 174 -58l246 215l59 -69l-243 -215q41 -58 41 -142q0 -120 -84 -217l190 -217l-82 -59l-186 211q-88 -60 -186 -60q-100 0 -174 58zM592 342q86 0 147.5 65.5 t61.5 157.5q0 73 -44 117.5t-116 44.5q-89 0 -149 -61.5t-60 -159.5q0 -72 44 -118t116 -46z" />
<glyph unicode="&#xa5;" d="M371 1331l282 -674l416 674h164l-465 -725h283l-15 -117h-325l-23 -184h326l-15 -117h-325l-23 -188h-166l23 188h-328l15 117h327l23 184h-328l14 117h277l-313 725h176z" />
<glyph unicode="&#xa6;" d="M657 1403h136l-70 -576h-137zM557 596h137l-73 -606h-138z" />
<glyph unicode="&#xa7;" d="M518 -106q0 77 -38 213.5t-83 262.5t-83 262.5t-38 213.5q0 97 45.5 181t117.5 142t162.5 100t180.5 61.5t170 19.5q154 0 254 -31l-24 -154q-56 37 -122.5 61.5t-125.5 24.5q-93 0 -147 -58t-54 -149q0 -72 37 -211.5t82 -270.5t82 -271t37 -213q0 -100 -54 -186.5 t-137 -144t-183.5 -99t-192.5 -60t-166 -18.5q-144 0 -230 24l25 156q44 -32 102.5 -52t108.5 -20q75 0 135 21t99.5 71t39.5 124zM848 72q0 79 -36 211t-79 252t-79 257.5t-36 225.5q0 109 66 186q-139 -54 -210 -143.5t-71 -183.5q0 -79 37 -210.5t82 -250.5t82 -255 t37 -224q0 -109 -55 -177q122 51 192 125.5t70 186.5z" />
<glyph unicode="&#xa8;" d="M434 1272q0 42 31 74t76 32q38 0 62 -24.5t24 -61.5q0 -42 -33.5 -73t-75.5 -31q-36 0 -60 25t-24 59zM791 1272q0 42 31 74t77 32q37 0 60.5 -24.5t23.5 -61.5q0 -42 -32 -73t-74 -31q-36 0 -61 25t-25 59z" />
<glyph unicode="&#xa9;" d="M553 -14q-158 0 -279.5 74.5t-186 203.5t-64.5 291q0 150 52.5 287t142 237t215.5 159.5t267 59.5q162 0 286 -75t189.5 -204t65.5 -292q0 -149 -51.5 -284.5t-141.5 -236.5t-219 -160.5t-276 -59.5zM559 61q166 0 302.5 87t214 238.5t77.5 334.5q0 139 -54 251.5 t-159.5 180.5t-245.5 68q-163 0 -296.5 -87.5t-210 -240t-76.5 -338.5q0 -219 123.5 -356.5t324.5 -137.5zM610 227q-177 0 -278 85.5t-101 252.5q0 156 66.5 269.5t175 168t244.5 54.5q70 0 135 -13.5t100 -35.5l-51 -109q-35 30 -90.5 46t-110.5 16q-154 0 -246 -101.5 t-92 -277.5q0 -127 69.5 -192.5t197.5 -65.5q64 0 127.5 15.5t101.5 37.5l19 -101q-116 -49 -267 -49z" />
<glyph unicode="&#xaa;" d="M504 551q-104 0 -167 48.5t-63 131.5q0 61 24.5 107.5t64 75.5t95 48t112.5 26t122 7q74 0 115 -6l14 96q2 14 2 35q0 121 -143 121q-37 0 -73 -8t-66.5 -32.5t-30.5 -61.5q0 -9 4 -29l-129 -16q-8 21 -8 45q0 94 91.5 152.5t225.5 58.5q55 0 101 -10.5t86 -33.5 t63 -64.5t23 -98.5q0 -25 -2 -43l-45 -346q0 -1 -2.5 -13.5t-2.5 -13.5q-3 -31 6.5 -53.5t34.5 -22.5q18 0 33 6l-2 -96q-52 -10 -88 -10q-57 0 -87.5 27t-35.5 75q-127 -102 -272 -102zM557 657q56 0 117.5 27t103.5 66l19 155q-73 10 -129 10q-66 0 -118.5 -14.5t-88 -51 t-35.5 -91.5q0 -101 131 -101z" />
<glyph unicode="&#xab;" d="M209 479l315 473h142l-285 -465l168 -481h-141zM612 479l316 473h141l-285 -465l168 -481h-141z" />
<glyph unicode="&#xac;" d="M975 123l53 430h-956l12 113h1083l-67 -543h-125z" />
<glyph unicode="&#xad;" d="M870 455h-526l18 143h525z" />
<glyph unicode="&#xae;" d="M596 344q-186 0 -312 128.5t-126 320.5q0 113 42.5 215.5t115.5 177.5t175 119.5t216 44.5q189 0 316.5 -128.5t127.5 -320.5q0 -153 -74.5 -281t-202.5 -202t-278 -74zM604 412q127 0 233.5 60t171 171.5t64.5 251.5q0 164 -106 274.5t-269 110.5q-194 0 -328 -137.5 t-134 -351.5q0 -170 105 -274.5t263 -104.5zM410 522l82 664h206q220 0 220 -174q0 -93 -44 -153.5t-122 -82.5l106 -254h-113l-92 240h-112l-31 -240h-100zM549 838h104q156 0 156 168q0 55 -28.5 77.5t-96.5 22.5h-100z" />
<glyph unicode="&#xaf;" d="M451 1225l14 116h504l-15 -116h-503z" />
<glyph unicode="&#xb0;" d="M653 805q-122 0 -191 64t-69 171q0 136 92 223t234 87q117 0 185.5 -63t68.5 -169q0 -141 -89 -227t-231 -86zM664 893q92 0 145 60t53 153q0 68 -40 111t-113 43q-94 0 -150.5 -57.5t-56.5 -147.5q0 -72 43 -117t119 -45z" />
<glyph unicode="&#xb1;" d="M516 250l37 307h-354l14 119h354l39 313h131l-37 -313h357l-15 -119h-356l-39 -307h-131zM131 8l14 117h844l-14 -117h-844z" />
<glyph unicode="&#xb4;" d="M899 1360l-324 -236l-59 70l297 274z" />
<glyph unicode="&#xb5;" d="M829 240l91 739h161l-118 -979h-150l10 115q-177 -138 -350 -138q-62 0 -115.5 17t-81.5 49q11 -26 11 -113q0 -70 -6 -114l-35 -267h-162l178 1430h160l-74 -608q-6 -41 -6 -72q0 -100 46 -141t140 -41q129 0 301 123z" />
<glyph unicode="&#xb6;" d="M858 1331l-219 -1782h-141l96 777q-186 47 -290.5 170.5t-104.5 285.5q0 107 41 204t119.5 175t207.5 124t291 46zM805 -451l219 1782h141l-219 -1782h-141z" />
<glyph unicode="&#xb7;" d="M518 588q0 48 34 81t85 33q40 0 66 -23.5t26 -62.5q0 -54 -34 -85t-83 -31q-42 0 -68 23.5t-26 64.5z" />
<glyph unicode="&#xb8;" d="M295 -418l55 107q20 -23 55 -39.5t74 -16.5q54 0 84.5 24t30.5 62q0 40 -42 66.5t-124 30.5l86 209h98l-55 -142q81 -13 123.5 -57.5t42.5 -101.5q0 -82 -70.5 -136.5t-179.5 -54.5q-52 0 -101 14.5t-77 34.5z" />
<glyph unicode="&#xba;" d="M623 551q-170 0 -261.5 87.5t-91.5 246.5q0 205 121 335t322 130q172 0 262 -87.5t90 -244.5q0 -92 -28.5 -175t-82 -149t-139.5 -104.5t-192 -38.5zM633 664q280 0 280 352q0 223 -211 223q-76 0 -131.5 -28t-87 -78t-46.5 -112t-15 -138q0 -219 211 -219z" />
<glyph unicode="&#xbb;" d="M410 952l196 -473l-313 -473h-141l286 481l-170 465h142zM813 952l197 -473l-314 -473h-141l287 481l-170 465h141z" />
<glyph unicode="&#xbf;" d="M270 -172q0 65 27 120.5t70 96t95 76.5t104 68.5t95 64.5t70 72.5t27 85.5q0 39 -29 102l170 41q19 -58 19 -113q0 -61 -26 -115t-67.5 -94t-92 -76.5t-101 -71t-92 -69t-67.5 -78.5t-26 -92q0 -69 58.5 -103t157.5 -34q167 0 299 115l61 -117q-80 -61 -183 -97t-214 -36 q-164 0 -259.5 66.5t-95.5 187.5zM936 862q0 -50 -31.5 -83.5t-87.5 -33.5q-43 0 -69.5 21.5t-26.5 62.5q0 55 34 85t87 30q94 0 94 -82z" />
<glyph unicode="&#xc0;" d="M164 0h-166l627 1331h176l305 -1331h-174l-76 352h-534zM827 489l-141 668l-301 -668h442zM799 1423l-338 168l86 133l307 -217z" />
<glyph unicode="&#xc1;" d="M164 0h-166l627 1331h176l305 -1331h-174l-76 352h-534zM827 489l-141 668l-301 -668h442zM1018 1591l-377 -168l-37 84l361 217z" />
<glyph unicode="&#xc2;" d="M164 0h-166l627 1331h176l305 -1331h-174l-76 352h-534zM827 489l-141 668l-301 -668h442zM811 1731l221 -199l-82 -90l-205 168l-237 -168l-57 86l272 203h88z" />
<glyph unicode="&#xc3;" d="M164 0h-166l627 1331h176l305 -1331h-174l-76 352h-534zM827 489l-141 668l-301 -668h442zM461 1487l-51 59q115 127 215 127q54 0 133 -29.5t119 -29.5q80 0 141 63l49 -61q-104 -125 -213 -125q-44 0 -125 31.5t-121 31.5q-83 0 -147 -67z" />
<glyph unicode="&#xc4;" d="M164 0h-166l627 1331h176l305 -1331h-174l-76 352h-534zM827 489l-141 668l-301 -668h442zM825 1575q0 42 31.5 74t77.5 32q36 0 60 -24t24 -60q0 -44 -32 -75t-75 -31q-35 0 -60.5 24.5t-25.5 59.5zM459 1575q0 43 30 74.5t76 31.5q36 0 60 -24t24 -60q0 -44 -31 -75 t-73 -31q-37 0 -61.5 24.5t-24.5 59.5z" />
<glyph unicode="&#xc5;" d="M164 0h-166l627 1331h176l305 -1331h-174l-76 352h-534zM827 489l-141 668l-301 -668h442zM725 1405q-85 0 -137.5 49.5t-52.5 126.5q0 102 70 162.5t169 60.5q85 0 137 -46t52 -126q0 -94 -67 -160.5t-171 -66.5zM733 1489q61 0 93 35.5t32 101.5q0 96 -96 96 q-60 0 -92.5 -35.5t-32.5 -101.5q0 -46 25 -71t71 -25z" />
<glyph unicode="&#xc6;" d="M1305 1331l-17 -143h-434l-51 -434h362l-16 -142h-363l-59 -467h432l-16 -145h-586l41 336h-313l-170 -336h-166l700 1331h656zM352 469h262l82 680z" />
<glyph unicode="&#xc7;" d="M393 -418l56 107q20 -23 55 -39.5t74 -16.5q54 0 84 24t30 62q0 40 -42 66.5t-124 30.5l68 168q-224 18 -348.5 153t-124.5 387q0 198 55 356.5t153 260t229 155.5t286 54q211 0 346 -80l-76 -154q-109 90 -287 90q-245 0 -386.5 -176t-141.5 -489q0 -205 99 -312.5 t294 -107.5q94 0 187 23.5t155 56.5l25 -140q-152 -75 -367 -81l-37 -97q81 -13 123.5 -57.5t42.5 -101.5q0 -82 -70.5 -136.5t-179.5 -54.5q-52 0 -101 14.5t-77 34.5z" />
<glyph unicode="&#xc8;" d="M834 1423l-338 168l86 133l307 -217zM268 1331h906l-19 -143h-739l-54 -434h670l-16 -142h-670l-57 -467h739l-16 -145h-906z" />
<glyph unicode="&#xc9;" d="M1016 1591l-377 -168l-37 84l361 217zM268 1331h906l-19 -143h-739l-54 -434h670l-16 -142h-670l-57 -467h739l-16 -145h-906z" />
<glyph unicode="&#xca;" d="M268 1331h906l-19 -143h-739l-54 -434h670l-16 -142h-670l-57 -467h739l-16 -145h-906zM840 1731l221 -199l-82 -90l-205 168l-237 -168l-58 86l273 203h88z" />
<glyph unicode="&#xcb;" d="M494 1575q0 43 30 74.5t76 31.5q36 0 60 -24t24 -60q0 -44 -31 -75t-73 -31q-37 0 -61.5 24.5t-24.5 59.5zM860 1575q0 42 31.5 74t77.5 32q36 0 60 -24t24 -60q0 -44 -32 -75t-75 -31q-35 0 -60.5 24.5t-25.5 59.5zM268 1331h906l-19 -143h-739l-54 -434h670l-16 -142 h-670l-57 -467h739l-16 -145h-906z" />
<glyph unicode="&#xcc;" d="M100 0l17 145h368l127 1041h-368l18 145h918l-19 -145h-383l-127 -1041h383l-16 -145h-918zM799 1423l-338 168l86 133l307 -217z" />
<glyph unicode="&#xcd;" d="M100 0l17 145h368l127 1041h-368l18 145h918l-19 -145h-383l-127 -1041h383l-16 -145h-918zM999 1591l-376 -168l-37 84l360 217z" />
<glyph unicode="&#xce;" d="M100 0l17 145h368l127 1041h-368l18 145h918l-19 -145h-383l-127 -1041h383l-16 -145h-918zM805 1731l221 -199l-82 -90l-205 168l-237 -168l-58 86l273 203h88z" />
<glyph unicode="&#xcf;" d="M100 0l17 145h368l127 1041h-368l18 145h918l-19 -145h-383l-127 -1041h383l-16 -145h-918zM829 1575q0 42 31.5 74t77.5 32q36 0 60 -24t24 -60q0 -44 -32 -75t-75 -31q-35 0 -60.5 24.5t-25.5 59.5zM463 1575q0 43 30 74.5t76 31.5q36 0 60 -24t24 -60q0 -44 -31 -75 t-73 -31q-37 0 -61.5 24.5t-24.5 59.5z" />
<glyph unicode="&#xd0;" d="M66 0l73 612h-127l15 131h129l71 588h441q121 0 215 -28.5t153 -76.5t97.5 -117.5t53.5 -144t15 -163.5q0 -86 -8.5 -163.5t-30.5 -159.5t-56 -150.5t-89.5 -130.5t-127 -104.5t-171.5 -67.5t-221 -25h-432zM649 1188h-274l-56 -445h254l-16 -131h-254l-57 -467h286 q492 0 492 643q0 86 -16.5 153t-56.5 125t-116.5 90t-185.5 32z" />
<glyph unicode="&#xd1;" d="M500 1487l-51 59q115 127 215 127q54 0 133 -29.5t118 -29.5q81 0 142 63l49 -61q-104 -125 -213 -125q-43 0 -124 31.5t-122 31.5q-83 0 -147 -67zM348 1087l-131 -1087h-158l162 1331h182l519 -1067l131 1067h155l-161 -1331h-170z" />
<glyph unicode="&#xd2;" d="M805 1423l-338 168l86 133l307 -217zM717 1350q245 0 365 -137t120 -392q0 -145 -26.5 -272t-81 -231.5t-132 -180t-183.5 -116.5t-232 -41q-245 0 -364.5 141.5t-119.5 394.5q0 252 74.5 438.5t223 291t356.5 104.5zM559 123q100 0 180 38.5t132.5 104.5t88 157.5 t51 192.5t15.5 215q0 375 -319 375q-99 0 -177.5 -33t-133 -93.5t-90 -149.5t-52 -197t-16.5 -239q0 -371 321 -371z" />
<glyph unicode="&#xd3;" d="M1004 1591l-377 -168l-37 84l360 217zM717 1350q245 0 365 -137t120 -392q0 -145 -26.5 -272t-81 -231.5t-132 -180t-183.5 -116.5t-232 -41q-245 0 -364.5 141.5t-119.5 394.5q0 252 74.5 438.5t223 291t356.5 104.5zM559 123q100 0 180 38.5t132.5 104.5t88 157.5 t51 192.5t15.5 215q0 375 -319 375q-99 0 -177.5 -33t-133 -93.5t-90 -149.5t-52 -197t-16.5 -239q0 -371 321 -371z" />
<glyph unicode="&#xd4;" d="M717 1350q245 0 365 -137t120 -392q0 -145 -26.5 -272t-81 -231.5t-132 -180t-183.5 -116.5t-232 -41q-245 0 -364.5 141.5t-119.5 394.5q0 252 74.5 438.5t223 291t356.5 104.5zM559 123q100 0 180 38.5t132.5 104.5t88 157.5t51 192.5t15.5 215q0 375 -319 375 q-99 0 -177.5 -33t-133 -93.5t-90 -149.5t-52 -197t-16.5 -239q0 -371 321 -371zM825 1731l222 -199l-82 -90l-205 168l-238 -168l-57 86l272 203h88z" />
<glyph unicode="&#xd5;" d="M475 1487l-51 59q115 127 215 127q55 0 134 -29.5t118 -29.5q80 0 141 63l49 -61q-104 -125 -213 -125q-44 0 -124 31.5t-121 31.5q-84 0 -148 -67zM717 1350q245 0 365 -137t120 -392q0 -145 -26.5 -272t-81 -231.5t-132 -180t-183.5 -116.5t-232 -41 q-245 0 -364.5 141.5t-119.5 394.5q0 252 74.5 438.5t223 291t356.5 104.5zM559 123q100 0 180 38.5t132.5 104.5t88 157.5t51 192.5t15.5 215q0 375 -319 375q-99 0 -177.5 -33t-133 -93.5t-90 -149.5t-52 -197t-16.5 -239q0 -371 321 -371z" />
<glyph unicode="&#xd6;" d="M461 1575q0 43 30 74.5t76 31.5q36 0 60 -24t24 -60q0 -44 -31 -75t-73 -31q-37 0 -61.5 24.5t-24.5 59.5zM827 1575q0 42 31.5 74t77.5 32q36 0 60 -24t24 -60q0 -44 -32 -75t-75 -31q-35 0 -60.5 24.5t-25.5 59.5zM717 1350q245 0 365 -137t120 -392q0 -145 -26.5 -272 t-81 -231.5t-132 -180t-183.5 -116.5t-232 -41q-245 0 -364.5 141.5t-119.5 394.5q0 252 74.5 438.5t223 291t356.5 104.5zM559 123q100 0 180 38.5t132.5 104.5t88 157.5t51 192.5t15.5 215q0 375 -319 375q-99 0 -177.5 -33t-133 -93.5t-90 -149.5t-52 -197t-16.5 -239 q0 -371 321 -371z" />
<glyph unicode="&#xd7;" d="M834 266l-226 236l-276 -234l-78 80l281 234l-222 231l103 86l219 -231l278 233l76 -82l-278 -229l223 -240z" />
<glyph unicode="&#xd8;" d="M717 1350q229 0 354 -125l98 110h125l-166 -186q74 -130 74 -328q0 -145 -26.5 -272t-81 -231.5t-132 -180t-183.5 -116.5t-232 -41q-227 0 -348 124l-99 -110h-127l166 186q-76 131 -76 336q0 252 74.5 438.5t223 291t356.5 104.5zM238 494q0 -102 24 -179l696 783 q-79 108 -251 108q-99 0 -177.5 -33t-133 -93.5t-90 -149.5t-52 -197t-16.5 -239zM559 123q100 0 180 38.5t132.5 104.5t88 157.5t51 192.5t15.5 215q0 97 -25 177l-694 -781q78 -104 252 -104z" />
<glyph unicode="&#xd9;" d="M831 1423l-337 168l86 133l307 -217zM938 514l100 817h162l-102 -833q-14 -120 -50 -211.5t-100 -162t-164.5 -107.5t-234.5 -37q-232 0 -335.5 98.5t-98.5 292.5q0 32 8 110l104 850h164l-100 -831q-8 -70 -8 -97q-5 -150 59.5 -217t228.5 -67q178 0 259 90t108 305z " />
<glyph unicode="&#xda;" d="M1006 1591l-377 -168l-37 84l360 217zM938 514l100 817h162l-102 -833q-14 -120 -50 -211.5t-100 -162t-164.5 -107.5t-234.5 -37q-232 0 -335.5 98.5t-98.5 292.5q0 32 8 110l104 850h164l-100 -831q-8 -70 -8 -97q-5 -150 59.5 -217t228.5 -67q178 0 259 90t108 305z " />
<glyph unicode="&#xdb;" d="M938 514l100 817h162l-102 -833q-14 -120 -50 -211.5t-100 -162t-164.5 -107.5t-234.5 -37q-232 0 -335.5 98.5t-98.5 292.5q0 32 8 110l104 850h164l-100 -831q-8 -70 -8 -97q-5 -150 59.5 -217t228.5 -67q178 0 259 90t108 305zM811 1731l221 -199l-82 -90l-205 168 l-237 -168l-57 86l272 203h88z" />
<glyph unicode="&#xdc;" d="M465 1575q0 43 30 74.5t76 31.5q36 0 60 -24t24 -60q0 -44 -31 -75t-73 -31q-37 0 -61.5 24.5t-24.5 59.5zM831 1575q0 42 31.5 74t77.5 32q36 0 60 -24t24 -60q0 -44 -31.5 -75t-74.5 -31q-36 0 -61.5 24.5t-25.5 59.5zM938 514l100 817h162l-102 -833 q-14 -120 -50 -211.5t-100 -162t-164.5 -107.5t-234.5 -37q-232 0 -335.5 98.5t-98.5 292.5q0 32 8 110l104 850h164l-100 -831q-8 -70 -8 -97q-5 -150 59.5 -217t228.5 -67q178 0 259 90t108 305z" />
<glyph unicode="&#xdd;" d="M371 1331l282 -674l416 674h164l-518 -809l-64 -522h-166l62 516l-352 815h176zM1010 1591l-377 -168l-37 84l360 217z" />
<glyph unicode="&#xde;" d="M285 1331h166l-23 -184h227q418 0 418 -350q0 -238 -140 -373t-366 -135h-243l-35 -289h-166zM571 432q147 0 236.5 84t89.5 266q0 113 -61.5 167.5t-200.5 54.5h-223l-70 -572h229z" />
<glyph unicode="&#xdf;" d="M737 717q0 -33 23 -59.5t59.5 -45.5t81 -38.5t89 -43t81 -52.5t59.5 -74t23 -101q0 -72 -24 -129t-62.5 -93t-91.5 -59t-107 -32.5t-112 -9.5q-173 0 -297 81l63 148q36 -40 99.5 -70t140.5 -30q102 0 165.5 41t63.5 129q0 38 -23 68.5t-59 50.5t-80.5 39t-88.5 40 t-80 46.5t-59 65.5t-23 91q0 58 23.5 109t59 85.5t77 70t77 63.5t59 65t23.5 76q0 66 -48.5 103.5t-146.5 37.5q-123 0 -198.5 -75t-93.5 -226l-119 -989h-158l103 842h-148l16 112l148 11l4 43q13 106 56.5 187t107.5 130t140.5 73.5t162.5 24.5q168 0 255 -68t87 -184 q0 -62 -34 -116.5t-82 -94t-96 -76t-82 -79.5t-34 -88z" />
<glyph unicode="&#xe0;" d="M774 233l21 195q-65 10 -154 10q-322 0 -322 -192q0 -67 46 -102t129 -35q77 0 152 36t128 88zM811 541l16 121q17 112 -38.5 160t-157.5 48q-33 0 -66.5 -6t-70 -20.5t-60 -44.5t-24.5 -72q0 -11 4 -31l-150 -18q-6 24 -6 51q0 80 55.5 143.5t144 96t191.5 32.5 q78 0 142.5 -18t113.5 -54.5t72 -100.5t12 -148l-59 -463q-12 -108 59 -108q19 0 37 6l-2 -121q-52 -14 -98 -14q-73 0 -113 37t-45 102q-149 -139 -342 -139q-122 0 -199 65.5t-77 177.5q0 326 520 326q67 0 141 -8zM696 1124l-264 236l111 108l229 -274z" />
<glyph unicode="&#xe1;" d="M774 233l21 195q-65 10 -154 10q-322 0 -322 -192q0 -67 46 -102t129 -35q77 0 152 36t128 88zM811 541l16 121q17 112 -38.5 160t-157.5 48q-33 0 -66.5 -6t-70 -20.5t-60 -44.5t-24.5 -72q0 -11 4 -31l-150 -18q-6 24 -6 51q0 80 55.5 143.5t144 96t191.5 32.5 q78 0 142.5 -18t113.5 -54.5t72 -100.5t12 -148l-59 -463q-12 -108 59 -108q19 0 37 6l-2 -121q-52 -14 -98 -14q-73 0 -113 37t-45 102q-149 -139 -342 -139q-122 0 -199 65.5t-77 177.5q0 326 520 326q67 0 141 -8zM952 1360l-323 -236l-60 70l297 274z" />
<glyph unicode="&#xe2;" d="M774 233l21 195q-65 10 -154 10q-322 0 -322 -192q0 -67 46 -102t129 -35q77 0 152 36t128 88zM811 541l16 121q17 112 -38.5 160t-157.5 48q-33 0 -66.5 -6t-70 -20.5t-60 -44.5t-24.5 -72q0 -11 4 -31l-150 -18q-6 24 -6 51q0 80 55.5 143.5t144 96t191.5 32.5 q78 0 142.5 -18t113.5 -54.5t72 -100.5t12 -148l-59 -463q-12 -108 59 -108q19 0 37 6l-2 -121q-52 -14 -98 -14q-73 0 -113 37t-45 102q-149 -139 -342 -139q-122 0 -199 65.5t-77 177.5q0 326 520 326q67 0 141 -8zM748 1427l221 -239l-97 -82l-188 199l-238 -201l-71 80 l284 243h89z" />
<glyph unicode="&#xe3;" d="M774 233l21 195q-65 10 -154 10q-322 0 -322 -192q0 -67 46 -102t129 -35q77 0 152 36t128 88zM811 541l16 121q17 112 -38.5 160t-157.5 48q-33 0 -66.5 -6t-70 -20.5t-60 -44.5t-24.5 -72q0 -11 4 -31l-150 -18q-6 24 -6 51q0 80 55.5 143.5t144 96t191.5 32.5 q78 0 142.5 -18t113.5 -54.5t72 -100.5t12 -148l-59 -463q-12 -108 59 -108q19 0 37 6l-2 -121q-52 -14 -98 -14q-73 0 -113 37t-45 102q-149 -139 -342 -139q-122 0 -199 65.5t-77 177.5q0 326 520 326q67 0 141 -8zM416 1188l-49 61q112 127 211 127q56 0 121 -29.5 t104 -29.5q83 0 141 63l47 -61q-101 -125 -207 -125q-44 0 -111.5 30.5t-107.5 30.5q-85 0 -149 -67z" />
<glyph unicode="&#xe4;" d="M774 233l21 195q-65 10 -154 10q-322 0 -322 -192q0 -67 46 -102t129 -35q77 0 152 36t128 88zM811 541l16 121q17 112 -38.5 160t-157.5 48q-33 0 -66.5 -6t-70 -20.5t-60 -44.5t-24.5 -72q0 -11 4 -31l-150 -18q-6 24 -6 51q0 80 55.5 143.5t144 96t191.5 32.5 q78 0 142.5 -18t113.5 -54.5t72 -100.5t12 -148l-59 -463q-12 -108 59 -108q19 0 37 6l-2 -121q-52 -14 -98 -14q-73 0 -113 37t-45 102q-149 -139 -342 -139q-122 0 -199 65.5t-77 177.5q0 326 520 326q67 0 141 -8zM403 1272q0 42 31 74t76 32q38 0 62 -24.5t24 -61.5 q0 -42 -33.5 -73t-75.5 -31q-36 0 -60 25t-24 59zM760 1272q0 42 31 74t77 32q37 0 60.5 -24.5t23.5 -61.5q0 -42 -32 -73t-74 -31q-36 0 -61 25t-25 59z" />
<glyph unicode="&#xe5;" d="M774 233l21 195q-65 10 -154 10q-322 0 -322 -192q0 -67 46 -102t129 -35q77 0 152 36t128 88zM811 541l16 121q17 112 -38.5 160t-157.5 48q-33 0 -66.5 -6t-70 -20.5t-60 -44.5t-24.5 -72q0 -11 4 -31l-150 -18q-6 24 -6 51q0 80 55.5 143.5t144 96t191.5 32.5 q78 0 142.5 -18t113.5 -54.5t72 -100.5t12 -148l-59 -463q-12 -108 59 -108q19 0 37 6l-2 -121q-52 -14 -98 -14q-73 0 -113 37t-45 102q-149 -139 -342 -139q-122 0 -199 65.5t-77 177.5q0 326 520 326q67 0 141 -8zM657 1110q-85 0 -136.5 48.5t-51.5 125.5 q0 102 70 162.5t168 60.5q85 0 136.5 -46t51.5 -126q0 -94 -67 -159.5t-171 -65.5zM666 1194q125 0 125 135q0 96 -97 96q-60 0 -92.5 -35t-32.5 -100q0 -46 25.5 -71t71.5 -25z" />
<glyph unicode="&#xe6;" d="M410 872q-27 0 -53 -6t-53 -20t-44 -42.5t-18 -68.5q0 -25 4 -39l-133 -18q-7 24 -7 47q0 122 91 199t233 77q88 0 151.5 -34.5t82.5 -108.5q114 143 274 143q266 0 266 -331q0 -86 -16 -203h-533q-4 -27 -4 -76q0 -134 59.5 -206t159.5 -72q128 0 232 84l24 -134 q-136 -83 -282 -83q-101 0 -180.5 43.5t-120.5 134.5q-62 -87 -147.5 -132.5t-172.5 -45.5q-114 0 -176.5 59t-62.5 168q0 76 26.5 135t68.5 95t101 59.5t117 32.5t123 10q34 0 92 -4q5 34 23 96q10 68 10 106q0 75 -32 105t-103 30zM670 580h387q8 62 8 100q0 199 -139 199 q-194 0 -256 -299zM135 238q0 -64 35 -99t100 -35q70 0 134 41t108 105q-12 46 -16 129q0 31 2 47q-33 8 -95 8q-123 0 -195.5 -47t-72.5 -149z" />
<glyph unicode="&#xe7;" d="M389 -420l55 107q20 -23 55 -39.5t74 -16.5q54 0 84.5 24t30.5 62q0 40 -42 66.5t-124 30.5l70 168q-169 14 -272 117t-103 292q0 149 47.5 268t128 192.5t183 111.5t217.5 38q187 0 323 -83l-69 -148q-123 96 -271 96q-79 0 -144 -26.5t-109 -71t-74.5 -103.5t-44 -123 t-13.5 -132q0 -144 80 -219.5t221 -75.5q82 0 160.5 29t128.5 67l29 -133q-137 -84 -320 -96l-39 -101q81 -13 123.5 -57.5t42.5 -102.5q0 -82 -70 -136t-180 -54q-52 0 -101 14.5t-77 34.5z" />
<glyph unicode="&#xe8;" d="M358 467v-47q0 -157 80.5 -232t227.5 -75q78 0 168 31.5t139 68.5l28 -135q-173 -98 -378 -98q-195 0 -314 105.5t-119 309.5q0 117 28.5 217t78 170.5t115.5 120.5t141.5 74t155.5 24q167 0 267.5 -93t100.5 -279q0 -43 -6 -92q0 -38 -8 -70h-705zM373 580h540 q5 23 5 57q0 109 -58.5 174.5t-161.5 65.5q-117 0 -204.5 -75.5t-120.5 -221.5zM786 1124l-264 236l111 108l229 -274z" />
<glyph unicode="&#xe9;" d="M358 467v-47q0 -157 80.5 -232t227.5 -75q78 0 168 31.5t139 68.5l28 -135q-173 -98 -378 -98q-195 0 -314 105.5t-119 309.5q0 117 28.5 217t78 170.5t115.5 120.5t141.5 74t155.5 24q167 0 267.5 -93t100.5 -279q0 -43 -6 -92q0 -38 -8 -70h-705zM373 580h540 q5 23 5 57q0 109 -58.5 174.5t-161.5 65.5q-117 0 -204.5 -75.5t-120.5 -221.5zM991 1360l-323 -236l-60 70l297 274z" />
<glyph unicode="&#xea;" d="M358 467v-47q0 -157 80.5 -232t227.5 -75q78 0 168 31.5t139 68.5l28 -135q-173 -98 -378 -98q-195 0 -314 105.5t-119 309.5q0 117 28.5 217t78 170.5t115.5 120.5t141.5 74t155.5 24q167 0 267.5 -93t100.5 -279q0 -43 -6 -92q0 -38 -8 -70h-705zM373 580h540 q5 23 5 57q0 109 -58.5 174.5t-161.5 65.5q-117 0 -204.5 -75.5t-120.5 -221.5zM817 1427l221 -239l-96 -82l-188 199l-238 -201l-72 80l285 243h88z" />
<glyph unicode="&#xeb;" d="M358 467v-47q0 -157 80.5 -232t227.5 -75q78 0 168 31.5t139 68.5l28 -135q-173 -98 -378 -98q-195 0 -314 105.5t-119 309.5q0 117 28.5 217t78 170.5t115.5 120.5t141.5 74t155.5 24q167 0 267.5 -93t100.5 -279q0 -43 -6 -92q0 -38 -8 -70h-705zM373 580h540 q5 23 5 57q0 109 -58.5 174.5t-161.5 65.5q-117 0 -204.5 -75.5t-120.5 -221.5zM840 1272q0 42 31 74t77 32q37 0 60.5 -24.5t23.5 -61.5q0 -42 -32 -73t-74 -31q-36 0 -61 25t-25 59zM483 1272q0 42 31 74t76 32q38 0 62 -24.5t24 -61.5q0 -42 -33.5 -73t-75.5 -31 q-36 0 -60 25t-24 59z" />
<glyph unicode="&#xec;" d="M104 0l17 133h362l86 711h-360l14 133h525l-103 -844h371l-15 -133h-897zM731 1124l-264 236l111 108l229 -274z" />
<glyph unicode="&#xed;" d="M104 0l17 133h362l86 711h-360l14 133h525l-103 -844h371l-15 -133h-897zM942 1360l-324 -236l-59 70l297 274z" />
<glyph unicode="&#xee;" d="M104 0l17 133h362l86 711h-360l14 133h525l-103 -844h371l-15 -133h-897zM770 1427l221 -239l-96 -82l-188 199l-238 -201l-72 80l285 243h88z" />
<glyph unicode="&#xef;" d="M104 0l17 133h362l86 711h-360l14 133h525l-103 -844h371l-15 -133h-897zM791 1272q0 42 31 74t77 32q37 0 60.5 -24.5t23.5 -61.5q0 -42 -32 -73t-74 -31q-36 0 -61 25t-25 59zM434 1272q0 42 31 74t76 32q38 0 62 -24.5t24 -61.5q0 -42 -33.5 -73t-75.5 -31 q-36 0 -60 25t-24 59z" />
<glyph unicode="&#xf0;" d="M653 987q130 0 207 -57q-68 145 -182 250l-131 -127l-74 63l129 127q-41 29 -110 70l86 102q75 -40 124 -74l119 119l74 -67l-113 -109q301 -243 301 -649q0 -105 -19.5 -199.5t-61.5 -178.5t-103 -145t-149.5 -96.5t-196.5 -35.5q-196 0 -304 109.5t-108 309.5 q0 119 35 225t99 187t162 128.5t216 47.5zM311 401q0 -135 62 -211.5t192 -76.5q76 0 136 25.5t99 70.5t65 110t37 139.5t11 162.5q0 75 -14 157q-39 38 -107 61t-135 23q-77 0 -138.5 -27.5t-99.5 -72t-63 -106t-35 -124t-10 -131.5z" />
<glyph unicode="&#xf1;" d="M391 739l-90 -739h-162l119 977h154l-13 -113q85 66 186 101.5t181 35.5q154 0 232.5 -70.5t78.5 -205.5q0 -17 -4 -63l-80 -662h-159l73 602q4 50 4 66q0 96 -47 142t-153 46q-74 0 -161 -32.5t-159 -84.5zM446 1188l-49 61q112 127 211 127q56 0 121.5 -29.5 t104.5 -29.5q83 0 141 63l47 -61q-101 -125 -207 -125q-43 0 -111 30.5t-108 30.5q-86 0 -150 -67z" />
<glyph unicode="&#xf2;" d="M670 1001q203 0 319.5 -112t116.5 -314q0 -165 -66 -299.5t-193.5 -215t-293.5 -80.5q-199 0 -315.5 112.5t-116.5 315.5q0 170 67 304t192.5 211.5t289.5 77.5zM291 414q0 -142 68 -221.5t204 -79.5q180 0 276.5 119.5t96.5 332.5q0 140 -70 221.5t-211 81.5 q-95 0 -167 -38t-114 -103t-62.5 -144t-20.5 -169zM705 1124l-265 236l111 108l229 -274z" />
<glyph unicode="&#xf3;" d="M938 1360l-324 -236l-59 70l297 274zM670 1001q203 0 319.5 -112t116.5 -314q0 -165 -66 -299.5t-193.5 -215t-293.5 -80.5q-199 0 -315.5 112.5t-116.5 315.5q0 170 67 304t192.5 211.5t289.5 77.5zM291 414q0 -142 68 -221.5t204 -79.5q180 0 276.5 119.5t96.5 332.5 q0 140 -70 221.5t-211 81.5q-95 0 -167 -38t-114 -103t-62.5 -144t-20.5 -169z" />
<glyph unicode="&#xf4;" d="M772 1427l221 -239l-96 -82l-188 199l-238 -201l-72 80l285 243h88zM670 1001q203 0 319.5 -112t116.5 -314q0 -165 -66 -299.5t-193.5 -215t-293.5 -80.5q-199 0 -315.5 112.5t-116.5 315.5q0 170 67 304t192.5 211.5t289.5 77.5zM291 414q0 -142 68 -221.5t204 -79.5 q180 0 276.5 119.5t96.5 332.5q0 140 -70 221.5t-211 81.5q-95 0 -167 -38t-114 -103t-62.5 -144t-20.5 -169z" />
<glyph unicode="&#xf5;" d="M670 1001q203 0 319.5 -112t116.5 -314q0 -165 -66 -299.5t-193.5 -215t-293.5 -80.5q-199 0 -315.5 112.5t-116.5 315.5q0 170 67 304t192.5 211.5t289.5 77.5zM291 414q0 -142 68 -221.5t204 -79.5q180 0 276.5 119.5t96.5 332.5q0 140 -70 221.5t-211 81.5 q-95 0 -167 -38t-114 -103t-62.5 -144t-20.5 -169zM442 1188l-49 61q112 127 211 127q56 0 121 -29.5t104 -29.5q84 0 142 63l47 -61q-101 -125 -207 -125q-43 0 -111 30.5t-108 30.5q-86 0 -150 -67z" />
<glyph unicode="&#xf6;" d="M428 1272q0 42 31 74t76 32q38 0 62 -24.5t24 -61.5q0 -42 -33.5 -73t-75.5 -31q-36 0 -60 25t-24 59zM784 1272q0 42 31.5 74t77.5 32q37 0 60.5 -24.5t23.5 -61.5q0 -42 -32.5 -73t-74.5 -31q-36 0 -61 25t-25 59zM670 1001q203 0 319.5 -112t116.5 -314 q0 -165 -66 -299.5t-193.5 -215t-293.5 -80.5q-199 0 -315.5 112.5t-116.5 315.5q0 170 67 304t192.5 211.5t289.5 77.5zM291 414q0 -142 68 -221.5t204 -79.5q180 0 276.5 119.5t96.5 332.5q0 140 -70 221.5t-211 81.5q-95 0 -167 -38t-114 -103t-62.5 -144t-20.5 -169z " />
<glyph unicode="&#xf7;" d="M991 543h-747l14 119h748zM561 856q0 42 31 75.5t76 33.5q37 0 61.5 -24.5t24.5 -59.5q0 -43 -33.5 -75t-75.5 -32q-37 0 -60.5 23.5t-23.5 58.5zM494 317q0 42 31 75.5t77 33.5q36 0 60 -24t24 -60q0 -43 -32.5 -74.5t-73.5 -31.5q-37 0 -61.5 22.5t-24.5 58.5z" />
<glyph unicode="&#xf8;" d="M670 1001q164 0 274 -75l55 59h127l-112 -123q92 -112 92 -287q0 -165 -66 -299.5t-193.5 -215t-293.5 -80.5t-270 73l-56 -59h-125l111 123q-92 112 -92 291q0 170 67 304t192.5 211.5t289.5 77.5zM291 414q0 -108 35 -174l516 571q-69 57 -187 57q-95 0 -167 -38 t-114 -103t-62.5 -144t-20.5 -169zM563 113q180 0 276.5 119.5t96.5 332.5q0 100 -37 170l-514 -569q65 -53 178 -53z" />
<glyph unicode="&#xf9;" d="M829 240l91 737h161l-118 -977h-150l10 115q-88 -68 -186.5 -101.5t-179.5 -33.5q-150 0 -231.5 67t-80.5 207q0 18 5 63l81 660h162l-76 -606q-4 -40 -4 -56q-3 -107 46.5 -152.5t152.5 -45.5q71 0 155.5 34t161.5 89zM739 1124l-264 236l111 108l229 -274z" />
<glyph unicode="&#xfa;" d="M969 1360l-324 -236l-59 70l297 274zM829 240l91 737h161l-118 -977h-150l10 115q-88 -68 -186.5 -101.5t-179.5 -33.5q-150 0 -231.5 67t-80.5 207q0 18 5 63l81 660h162l-76 -606q-4 -40 -4 -56q-3 -107 46.5 -152.5t152.5 -45.5q71 0 155.5 34t161.5 89z" />
<glyph unicode="&#xfb;" d="M772 1427l221 -239l-96 -82l-188 199l-238 -201l-72 80l285 243h88zM829 240l91 737h161l-118 -977h-150l10 115q-88 -68 -186.5 -101.5t-179.5 -33.5q-150 0 -231.5 67t-80.5 207q0 18 5 63l81 660h162l-76 -606q-4 -40 -4 -56q-3 -107 46.5 -152.5t152.5 -45.5 q71 0 155.5 34t161.5 89z" />
<glyph unicode="&#xfc;" d="M446 1272q0 42 31 74t76 32q38 0 62 -24.5t24 -61.5q0 -42 -33.5 -73t-75.5 -31q-36 0 -60 25t-24 59zM803 1272q0 42 31 74t77 32q37 0 60.5 -24.5t23.5 -61.5q0 -42 -32 -73t-74 -31q-36 0 -61 25t-25 59zM829 240l91 737h161l-118 -977h-150l10 115 q-88 -68 -186.5 -101.5t-179.5 -33.5q-150 0 -231.5 67t-80.5 207q0 18 5 63l81 660h162l-76 -606q-4 -40 -4 -56q-3 -107 46.5 -152.5t152.5 -45.5q71 0 155.5 34t161.5 89z" />
<glyph unicode="&#xfd;" d="M1141 977l-729 -1428h-156l213 424l-266 1004h170l211 -811l397 811h160zM973 1360l-324 -236l-59 70l297 274z" />
<glyph unicode="&#xfe;" d="M449 1403l-68 -543q168 141 324 141q168 0 259 -108.5t91 -292.5q0 -140 -44 -257t-121 -196.5t-183.5 -123t-231.5 -43.5q-86 0 -199 30l-57 -461h-160l121 977l109 877h160zM367 733l-70 -567q79 -53 192 -53q177 0 285.5 126t108.5 343q0 136 -62 206t-172 70 q-131 0 -282 -125z" />
<glyph unicode="&#xff;" d="M1141 977l-729 -1428h-156l213 424l-266 1004h170l211 -811l397 811h160zM444 1272q0 42 31 74t76 32q38 0 62 -24.5t24 -61.5q0 -42 -33.5 -73t-75.5 -31q-36 0 -60 25t-24 59zM801 1272q0 42 31 74t77 32q37 0 60.5 -24.5t23.5 -61.5q0 -42 -32 -73t-74 -31 q-36 0 -61 25t-25 59z" />
<glyph unicode="&#x152;" d="M625 1350q74 0 155 -19h508l-16 -143h-377l-53 -434h307l-16 -142h-308l-59 -467h377l-17 -145h-514q-84 -20 -172 -20q-108 0 -186 33.5t-123.5 98t-66.5 150.5t-21 199q0 51 6 112q11 170 51.5 310t110 245.5t175 163.5t239.5 58zM469 119q77 0 137 16l127 1055 q-55 18 -119 18q-124 0 -214.5 -97.5t-135.5 -262.5t-45 -377q0 -167 60.5 -259.5t189.5 -92.5z" />
<glyph unicode="&#x153;" d="M410 1001q217 0 266 -204q50 101 124.5 152.5t162.5 51.5q264 0 264 -337q0 -70 -17 -197h-508q-4 -33 -4 -90q3 -271 211 -271q106 0 215 95l27 -123q-131 -98 -270 -98q-106 0 -180.5 52.5t-104.5 155.5q-110 -208 -309 -208q-142 0 -213.5 94.5t-71.5 275.5 q0 84 12 168.5t42 173t75 156t117 110.5t162 43zM139 354q0 -248 166 -248q88 0 149.5 69.5t90 182.5t28.5 258q0 121 -40 189.5t-138 68.5q-52 0 -94.5 -27.5t-69.5 -74.5t-46 -101t-28.5 -116t-13.5 -110t-4 -91zM719 580h375q6 49 6 92q0 100 -38 154.5t-112 54.5 q-93 0 -148 -74t-83 -227z" />
<glyph unicode="&#x178;" d="M371 1331l282 -674l416 674h164l-518 -809l-64 -522h-166l62 516l-352 815h176zM854 1575q0 42 31.5 74t77.5 32q36 0 60 -24t24 -60q0 -44 -32 -75t-75 -31q-35 0 -60.5 24.5t-25.5 59.5zM487 1575q0 43 30.5 74.5t76.5 31.5q36 0 60 -24t24 -60q0 -44 -31.5 -75 t-73.5 -31q-37 0 -61.5 24.5t-24.5 59.5z" />
<glyph unicode="&#x2c6;" d="M774 1427l221 -239l-96 -82l-188 199l-238 -201l-72 80l285 243h88z" />
<glyph unicode="&#x2dc;" d="M446 1188l-49 61q112 127 211 127q56 0 121.5 -29.5t104.5 -29.5q83 0 141 63l47 -61q-101 -125 -207 -125q-43 0 -111 30.5t-108 30.5q-86 0 -150 -67z" />
<glyph unicode="&#x2000;" horiz-adv-x="902" />
<glyph unicode="&#x2001;" horiz-adv-x="1804" />
<glyph unicode="&#x2002;" horiz-adv-x="902" />
<glyph unicode="&#x2003;" horiz-adv-x="1804" />
<glyph unicode="&#x2004;" horiz-adv-x="601" />
<glyph unicode="&#x2005;" horiz-adv-x="451" />
<glyph unicode="&#x2006;" horiz-adv-x="300" />
<glyph unicode="&#x2007;" horiz-adv-x="300" />
<glyph unicode="&#x2008;" horiz-adv-x="225" />
<glyph unicode="&#x2009;" horiz-adv-x="360" />
<glyph unicode="&#x200a;" horiz-adv-x="100" />
<glyph unicode="&#x2010;" d="M870 455h-526l18 143h525z" />
<glyph unicode="&#x2011;" d="M870 455h-526l18 143h525z" />
<glyph unicode="&#x2012;" d="M870 455h-526l18 143h525z" />
<glyph unicode="&#x2013;" d="M160 473l14 119h901l-14 -119h-901z" />
<glyph unicode="&#x2014;" d="M-4 473l14 119h1227l-14 -119h-1227z" />
<glyph unicode="&#x2018;" d="M690 993h-151q20 114 77.5 238.5t133.5 222.5l110 -33q-131 -200 -170 -428z" />
<glyph unicode="&#x2019;" d="M711 1442h151q-20 -114 -77.5 -238.5t-133.5 -222.5l-108 33q134 208 168 428z" />
<glyph unicode="&#x201a;" d="M555 160h145q-20 -113 -75 -229.5t-133 -215.5l-103 31q133 202 166 414z" />
<glyph unicode="&#x201c;" d="M856 993h-151q20 116 77 240t133 221l109 -33q-133 -202 -168 -428zM526 993h-151q20 114 77.5 238.5t133.5 222.5l110 -33q-130 -194 -170 -428z" />
<glyph unicode="&#x201d;" d="M547 1442h151q-20 -114 -78 -238.5t-135 -222.5l-106 33q134 208 168 428zM874 1442h154q-20 -114 -78 -238.5t-135 -222.5l-108 33q131 200 167 428z" />
<glyph unicode="&#x201e;" d="M387 160h145q-18 -112 -73 -228.5t-133 -216.5l-105 31q133 202 166 414zM723 160h145q-41 -232 -209 -445l-102 31q133 202 166 414z" />
<glyph unicode="&#x2022;" d="M377 465q0 101 76 174.5t184 73.5q90 0 149.5 -57t59.5 -142q0 -102 -77.5 -174t-182.5 -72q-92 0 -150.5 56t-58.5 141z" />
<glyph unicode="&#x2026;" d="M4 59q0 50 31 83.5t84 33.5q41 0 66.5 -21t25.5 -61q0 -56 -32.5 -85t-84.5 -29q-90 0 -90 79zM457 59q0 50 30.5 83.5t83.5 33.5q42 0 67.5 -21t25.5 -61q0 -56 -32.5 -85t-84.5 -29q-90 0 -90 79zM909 59q0 50 31 83.5t84 33.5q41 0 66.5 -21t25.5 -61q0 -56 -32.5 -85 t-84.5 -29q-90 0 -90 79z" />
<glyph unicode="&#x202f;" horiz-adv-x="360" />
<glyph unicode="&#x2039;" d="M410 479l315 473h143l-286 -465l170 -481h-144z" />
<glyph unicode="&#x203a;" d="M610 952l199 -473l-315 -473h-142l289 481l-172 465h141z" />
<glyph unicode="&#x205f;" horiz-adv-x="451" />
<glyph unicode="&#x20ac;" d="M236 446h-168l36 117h132q7 120 22 197h-131l35 117h125q71 228 229.5 350.5t386.5 122.5q93 0 178 -21t142 -53l-72 -152q-105 84 -258 84q-321 0 -430 -331h553l-35 -117h-549q-14 -79 -18 -197h510l-35 -117h-475q9 -169 92.5 -248t253.5 -79q88 0 171.5 22t137.5 54 l25 -138q-155 -77 -367 -77q-468 0 -491 466z" />
<glyph unicode="&#x2122;" d="M166 592l67 653h-184l10 88h459l-10 -88h-184l-70 -653h-88zM477 592l80 741h105l169 -635l295 635h103l-78 -741h-86l57 565l-260 -565h-86l-160 559l-55 -559h-84z" />
<glyph unicode="&#x25fc;" horiz-adv-x="972" d="M0 973h973v-973h-973v973z" />
</font>
</defs>
</svg>
